<svg width="48" height="47" viewBox="0 0 48 47" fill="none" xmlns="http://www.w3.org/2000/svg">
<g clip-path="url(#clip0)">
<path fill-rule="evenodd" clip-rule="evenodd" d="M24 0C10.7403 0 0 10.7403 0 24C0 34.6077 6.88029 43.5948 16.4125 46.7772C17.6059 46.9982 18.0479 46.2615 18.0479 45.6133C18.0479 45.0387 18.0331 43.5359 18.0184 41.5322C11.3444 42.9761 9.93002 38.3204 9.93002 38.3204C8.83978 35.5506 7.26335 34.7993 7.26335 34.7993C5.08287 33.3112 7.42541 33.3407 7.42541 33.3407C9.82689 33.5175 11.1087 35.8158 11.1087 35.8158C13.2449 39.4843 16.7219 38.4236 18.0921 37.8048C18.3131 36.2578 18.9319 35.1971 19.6096 34.593C14.291 34.0037 8.69245 31.9411 8.69245 22.7477C8.69245 20.1252 9.62063 17.989 11.1676 16.3094C10.9171 15.6906 10.0921 13.2597 11.3886 9.95949C11.3886 9.95949 13.407 9.31123 17.9889 12.4199C19.9042 11.8895 21.9521 11.6243 24 11.6096C26.0331 11.6243 28.0958 11.8895 30.011 12.4199C34.593 9.31123 36.6114 9.95949 36.6114 9.95949C37.9226 13.2597 37.0976 15.7053 36.8471 16.3094C38.3794 17.989 39.3075 20.1252 39.3075 22.7477C39.3075 31.9705 33.6943 33.9889 28.3462 34.593C29.2007 35.3297 29.9816 36.8029 29.9816 39.0424C29.9816 42.2541 29.9521 44.8324 29.9521 45.628C29.9521 46.2762 30.3794 47.0129 31.6022 46.7772C41.1344 43.5948 48 34.6077 48 24.0147C48 10.7403 37.2597 0 24 0Z" fill="#153E71"/>
</g>
<defs>
<clipPath id="clip0">
<rect width="48" height="46.8066" fill="white"/>
</clipPath>
</defs>
</svg>
