<svg width="37" height="48" viewBox="0 0 37 48" fill="none" xmlns="http://www.w3.org/2000/svg">
<path d="M35.3916 28.9675L31.5628 26.7561C32.4169 24.8871 32.8955 22.8118 32.8955 20.6251C32.8955 18.4384 32.4169 16.3672 31.5628 14.4941L35.3916 12.2826C36.0806 11.8824 36.3199 10.9995 35.9197 10.3105C35.5195 9.62146 34.6366 9.38216 33.9476 9.78236L30.1147 11.9979C27.6846 8.61062 23.8682 6.28778 19.503 5.86282V1.44404C19.503 0.647757 18.8553 0 18.059 0C17.2627 0 16.6149 0.647757 16.6149 1.44404V5.86282C12.2498 6.28778 8.4334 8.61475 6.00328 11.9979L2.17038 9.78236C1.47724 9.38628 0.594307 9.62146 0.1941 10.3146C-0.206106 11.0036 0.0331926 11.8865 0.722208 12.2867L4.55511 14.4982C3.70106 16.3672 3.22247 18.4425 3.22247 20.6292C3.22247 22.8159 3.70106 24.8871 4.55511 26.7602L0.722208 28.9716C0.0331926 29.3718 -0.206106 30.2548 0.1941 30.9438C0.46228 31.4059 0.945003 31.6658 1.44423 31.6658C1.68765 31.6658 1.93933 31.6039 2.16625 31.4719L5.99915 29.2563C7.45558 31.2862 9.41122 32.9366 11.6846 34.0217L10.3354 46.3992C10.29 46.8076 10.4221 47.2161 10.6944 47.5214C10.9667 47.8267 11.3586 48 11.7712 48H24.3426C24.7511 48 25.143 47.8267 25.4195 47.5214C25.6918 47.2161 25.8238 46.8076 25.7784 46.3992L24.4293 34.0217C26.7026 32.9366 28.6583 31.2862 30.1147 29.2563L33.9476 31.4719C34.1745 31.6039 34.4221 31.6658 34.6696 31.6658C35.1688 31.6658 35.6557 31.4059 35.9197 30.9438C36.3199 30.2506 36.0848 29.3677 35.3916 28.9675ZM30.0074 20.6292C30.0074 22.2878 29.665 23.8721 29.0502 25.3079L23.1049 21.8752L22.9522 20.4848C22.944 20.1588 22.9027 19.8453 22.8326 19.5358L29.0461 15.9464C29.665 17.3863 30.0074 18.9665 30.0074 20.6292ZM18.059 18.6117C19.1688 18.6117 20.0724 19.5152 20.0724 20.6251C20.0724 21.7349 19.1688 22.6385 18.059 22.6385C16.9491 22.6385 16.0456 21.7349 16.0456 20.6251C16.0456 19.5152 16.945 18.6117 18.059 18.6117ZM27.602 13.4502L21.3885 17.0397C20.8563 16.5446 20.2168 16.165 19.503 15.9422V8.77153C22.8037 9.17174 25.6918 10.917 27.602 13.4502ZM16.6149 8.77153V15.9422C15.9012 16.1609 15.2617 16.5446 14.7294 17.0397L8.51592 13.4502C10.4221 10.917 13.3143 9.17174 16.6149 8.77153ZM6.11055 20.6292C6.11055 18.9706 6.453 17.3863 7.06775 15.9505L13.2813 19.54C13.2111 19.8453 13.1699 20.1671 13.1616 20.493L13.009 21.8793L7.06362 25.312C6.453 23.868 6.11055 22.2878 6.11055 20.6292ZM8.51592 27.804L12.6253 25.4317L12.027 30.9314C10.6572 30.131 9.46486 29.0665 8.51592 27.804ZM24.0951 30.9314L23.4968 25.4317L27.6062 27.804C26.6531 29.0665 25.4607 30.131 24.0951 30.9314Z" fill="#003372"/>
</svg>
