<svg xmlns="http://www.w3.org/2000/svg" viewBox="0 0 334.56 64.2"><defs><style>.cls-1{fill:#0097ff;}.cls-2{fill:#153e71;}</style></defs><g id="Layer_2" data-name="Layer 2"><g id="Layer_1-2" data-name="Layer 1"><path class="cls-1" d="M93,45.43H86.1V18.78H93V29.25h3.43l5.94-10.47h7.23l-7.46,13.13,7.42,13.52h-7.23l-5.9-10.85H93Z"/><path class="cls-1" d="M135.44,38.57q0,3.74-1.75,5.49c-1.17,1.16-3,1.75-5.48,1.75h-8.76c-2.49,0-4.31-.59-5.48-1.75s-1.75-3-1.75-5.49v-.38a7.7,7.7,0,0,1,1.44-4.79,5.61,5.61,0,0,1,3.13-2.06,5.43,5.43,0,0,1-2.76-2,6.11,6.11,0,0,1-1-3.71v-.38a6.87,6.87,0,0,1,1.75-5.16c1.17-1.13,3-1.69,5.48-1.69h7.24q3.72,0,5.48,1.69a6.91,6.91,0,0,1,1.75,5.16v.38a6.11,6.11,0,0,1-1.05,3.71,5.52,5.52,0,0,1-2.76,2,5.91,5.91,0,0,1,4.19,4.11,9.07,9.07,0,0,1,.38,2.74Zm-14.09-3.8a2,2,0,0,0-2.28,2.28v1.52a1.78,1.78,0,0,0,1.9,1.91h5.71a1.79,1.79,0,0,0,1.91-1.91V37.05a2,2,0,0,0-2.29-2.28Zm.77-11A2,2,0,0,0,119.83,26v1.14a2,2,0,0,0,2.29,2.29h3.42a2,2,0,0,0,2.29-2.29V26a2,2,0,0,0-2.29-2.28Z"/><path class="cls-2" d="M139.59,39.91c7,.38,11.66.57,14.13.57a1.78,1.78,0,0,0,1.9-1.91V35.15h-8.76c-2.66,0-4.6-.61-5.8-1.81s-1.81-3.14-1.81-5.81V26.39c0-2.66.6-4.6,1.81-5.8s3.14-1.81,5.8-1.81h13.37v5.33H148.39a2,2,0,0,0-2.29,2.28v.76a2,2,0,0,0,2.29,2.29h6.85c2.49,0,4.31.58,5.48,1.75s1.75,3,1.75,5.48v1.9q0,3.74-1.75,5.49c-1.17,1.16-3,1.75-5.48,1.75-1.3,0-2.67,0-4.11-.08l-3.51-.15c-2.58-.13-5.26-.3-8-.53Z"/><path class="cls-2" d="M166.62,39.91c7,.38,11.66.57,14.13.57a1.78,1.78,0,0,0,1.9-1.91V35.15h-8.76c-2.66,0-4.6-.61-5.8-1.81s-1.81-3.14-1.81-5.81V26.39c0-2.66.6-4.6,1.81-5.8s3.14-1.81,5.8-1.81h13.37v5.33H175.42a2,2,0,0,0-2.29,2.28v.76a2,2,0,0,0,2.29,2.29h6.85c2.49,0,4.31.58,5.48,1.75s1.75,3,1.75,5.48v1.9q0,3.74-1.75,5.49c-1.17,1.16-3,1.75-5.48,1.75-1.3,0-2.67,0-4.11-.08l-3.51-.15c-2.58-.13-5.26-.3-8-.53Z"/><path class="cls-2" d="M198.45,45.43H191l10.09-26.65h7.61l10.09,26.65h-7.43l-1.71-4.76h-9.52Zm3.43-9.71H208l-3.05-8.95Z"/><path class="cls-2" d="M245.47,45.43h-7.24l-9.13-16v16h-6.86V18.78h7.24l9.14,16v-16h6.85Z"/><path class="cls-2" d="M266.41,18.78c2.87,0,5,.74,6.53,2.22s2.22,3.66,2.22,6.53v9.14q0,4.3-2.22,6.53c-1.49,1.48-3.66,2.23-6.53,2.23H251.56V18.78Zm1.9,8.75q0-3.42-3.42-3.42h-6.48v16h6.48q3.42,0,3.42-3.43Z"/><path class="cls-2" d="M280.49,18.78h16c2.67,0,4.6.6,5.81,1.81s1.81,3.14,1.81,5.8v3.43a9.61,9.61,0,0,1-1.05,4.91,5.12,5.12,0,0,1-3.33,2.32l4.76,8.38h-7.42l-4.38-8h-5.33v8h-6.86Zm16.76,7.61A2,2,0,0,0,295,24.11h-7.61v8H295a2,2,0,0,0,2.29-2.28Z"/><path class="cls-2" d="M314.19,45.43h-7.43l10.09-26.65h7.62l10.09,26.65h-7.43l-1.71-4.76H315.9Zm3.42-9.71h6.09l-3-8.95Z"/><path class="cls-2" d="M37.48,4.61a5,5,0,1,1-5,5A5,5,0,0,1,37.48,4.61ZM64.82,39.38a.77.77,0,0,0-1.08,0,38.46,38.46,0,0,1-5.18,4.17.79.79,0,0,1-.58.11.77.77,0,0,1-.49-.33l-9-13.64h6.91a.34.34,0,0,0,.34-.34V27.71a.34.34,0,0,1,.34-.34h9.07a.34.34,0,0,0,.34-.34V20a.34.34,0,0,0-.34-.34H56a.34.34,0,0,1-.34-.34V17.73a.34.34,0,0,0-.34-.34H44a.29.29,0,0,1-.21-.51l.09-.08a9.61,9.61,0,1,0-12.72,0,3.79,3.79,0,0,1,.65,4.94L17.47,43.32a.77.77,0,0,1-1.06.22,38.54,38.54,0,0,1-5.19-4.17.77.77,0,0,0-1.08,0L4.71,44.81a.77.77,0,0,0,0,1.09A46.87,46.87,0,0,0,30.18,58.56v4.88a.76.76,0,0,0,.76.76H44a.77.77,0,0,0,.77-.76V58.56A46.88,46.88,0,0,0,70.24,45.9a.74.74,0,0,0,.23-.54.78.78,0,0,0-.22-.55ZM21.48,46.1a.8.8,0,0,1,.1-.64l12.19-18.4a.77.77,0,0,1,.86-.31.76.76,0,0,1,.55.73V49.85a38,38,0,0,1-13.27-3.26A.8.8,0,0,1,21.48,46.1Zm32,0a.79.79,0,0,1-.42.49,38.09,38.09,0,0,1-13.28,3.26V30.45a.77.77,0,0,1,.77-.77h2a.77.77,0,0,1,.64.34L53.38,45.46A.76.76,0,0,1,53.48,46.1Z"/><path class="cls-1" d="M11,10.55a.58.58,0,0,1,.58-.52.59.59,0,0,1,.58.52L13,17.78a.57.57,0,0,0,.33.46.56.56,0,0,0,.56,0L20,14.35a.58.58,0,0,1,.72.91l-5.14,5.16a.59.59,0,0,0-.15.55.58.58,0,0,0,.37.42l6.88,2.42a.58.58,0,0,1-.26,1.13l-7.25-.8a.6.6,0,0,0-.52.22.58.58,0,0,0-.09.55L17,31.8a.58.58,0,0,1-.3.72.6.6,0,0,1-.75-.22L12,26.14a.58.58,0,0,0-.49-.27.6.6,0,0,0-.5.27L7.16,32.3a.6.6,0,0,1-.75.22.59.59,0,0,1-.29-.72l2.39-6.89a.58.58,0,0,0-.1-.55.58.58,0,0,0-.52-.22l-7.24.8a.58.58,0,0,1-.26-1.13l6.87-2.42a.58.58,0,0,0,.22-1L2.34,15.26a.58.58,0,0,1,0-.78.57.57,0,0,1,.76-.13l6.18,3.86a.58.58,0,0,0,.57,0,.56.56,0,0,0,.32-.46Z"/></g></g></svg>
