<svg width="48" height="48" viewBox="0 0 48 48" fill="none" xmlns="http://www.w3.org/2000/svg">
<path d="M15.5385 41.43C10.5552 41.43 5.90989 39.9806 2 37.4797C5.31963 37.6945 11.178 37.1801 14.8219 33.7044C9.34029 33.4529 6.86818 29.2487 6.54573 27.452C7.01149 27.6317 9.23281 27.8473 10.4868 27.3442C4.1811 25.7632 3.21375 20.2295 3.42872 18.5406C4.61103 19.3671 6.61738 19.6546 7.40559 19.5827C1.52985 15.3785 3.64368 9.05431 4.68269 7.68885C8.89934 13.5307 15.2188 16.8117 23.0368 16.9941C22.8894 16.3477 22.8115 15.6746 22.8115 14.9833C22.8115 10.0219 26.8217 6 31.7684 6C34.3531 6 36.682 7.09795 38.3168 8.85418C40.044 8.44945 42.6433 7.50203 43.914 6.68273C43.2735 8.98244 41.2794 10.9009 40.0732 11.6119C40.0833 11.6361 40.0634 11.5876 40.0732 11.6119C41.1328 11.4517 43.9996 10.9007 45.1322 10.1323C44.5721 11.4243 42.458 13.5724 40.723 14.775C41.0458 29.0111 30.1537 41.43 15.5385 41.43Z" fill="#153E71"/>
</svg>
