<svg xmlns="http://www.w3.org/2000/svg" viewBox="0 0 248.46 173.07">
  <defs>
    <style>.cls-1{fill:#0097FF;}.cls-2{fill:#FFFFFF;}</style>
  </defs>
  <g id="Layer_2" data-name="Layer 2">
    <g id="Layer_1-2" data-name="Layer 1">
      <path class="cls-1" d="M6.85,172.69H0V146H6.85v10.47h3.43L16.22,146h7.23L16,159.18l7.42,13.51H16.18l-5.9-10.85H6.85Z" />
      <path class="cls-1" d="M49.34,165.84q0,3.74-1.75,5.48t-5.48,1.75H33.35c-2.49,0-4.31-.58-5.48-1.75s-1.75-3-1.75-5.48v-.38a7.73,7.73,0,0,1,1.44-4.8,5.56,5.56,0,0,1,3.13-2,5.5,5.5,0,0,1-2.77-2,6.17,6.17,0,0,1-1-3.71v-.38a6.87,6.87,0,0,1,1.75-5.16c1.17-1.13,3-1.7,5.48-1.7h7.24q3.72,0,5.48,1.7a6.91,6.91,0,0,1,1.75,5.16v.38a6.11,6.11,0,0,1-1,3.71,5.52,5.52,0,0,1-2.76,2A5.91,5.91,0,0,1,49,162.72a9.07,9.07,0,0,1,.38,2.74ZM35.25,162A2,2,0,0,0,33,164.32v1.52a1.76,1.76,0,0,0,1.9,1.9h5.71a1.78,1.78,0,0,0,1.91-1.9v-1.52A2,2,0,0,0,40.2,162ZM36,151a2,2,0,0,0-2.29,2.29v1.14A2,2,0,0,0,36,156.7h3.42a2,2,0,0,0,2.29-2.28v-1.14A2,2,0,0,0,39.44,151Z" />
      <path class="cls-2" d="M53.49,167.17q10.42.57,14.13.57a1.76,1.76,0,0,0,1.9-1.9v-3.43H60.76c-2.66,0-4.6-.6-5.8-1.8s-1.81-3.14-1.81-5.81v-1.14c0-2.67.6-4.6,1.81-5.81S58.1,146,60.76,146H74.13v5.33H62.29A2,2,0,0,0,60,153.66v.76a2,2,0,0,0,2.29,2.28h6.85c2.49,0,4.31.59,5.48,1.76s1.75,3,1.75,5.48v1.9q0,3.74-1.75,5.48c-1.17,1.17-3,1.75-5.48,1.75-1.3,0-2.67,0-4.11-.07l-3.51-.15q-3.87-.19-8-.54Z" />
      <path class="cls-2" d="M80.52,167.17c7,.38,11.66.57,14.13.57a1.76,1.76,0,0,0,1.9-1.9v-3.43H87.79c-2.66,0-4.6-.6-5.8-1.8s-1.81-3.14-1.81-5.81v-1.14c0-2.67.6-4.6,1.81-5.81s3.14-1.81,5.8-1.81h13.37v5.33H89.32A2,2,0,0,0,87,153.66v.76a2,2,0,0,0,2.29,2.28h6.85c2.49,0,4.31.59,5.48,1.76s1.75,3,1.75,5.48v1.9q0,3.74-1.75,5.48c-1.17,1.17-3,1.75-5.48,1.75-1.3,0-2.67,0-4.11-.07l-3.51-.15q-3.87-.19-8-.54Z" />
      <path class="cls-2" d="M112.35,172.69h-7.42L115,146h7.62l10.09,26.65h-7.43l-1.71-4.76h-9.52Zm3.43-9.71h6.09L118.82,154Z" />
      <path class="cls-2" d="M159.37,172.69h-7.24l-9.13-16v16h-6.86V146h7.24l9.14,16V146h6.85Z" />
      <path class="cls-2" d="M180.31,146c2.87,0,5,.75,6.53,2.23s2.22,3.66,2.22,6.53v9.14c0,2.87-.74,5-2.22,6.53s-3.66,2.22-6.53,2.22H165.46V146Zm1.9,8.76c0-2.28-1.14-3.43-3.43-3.43h-6.47v16h6.47q3.43,0,3.43-3.42Z" />
      <path class="cls-2" d="M194.39,146h16c2.67,0,4.6.61,5.81,1.81S218,151,218,153.66v3.42A9.62,9.62,0,0,1,217,162a5.15,5.15,0,0,1-3.33,2.32l4.76,8.37H211l-4.37-8h-5.33v8h-6.86Zm16.75,7.62a2,2,0,0,0-2.28-2.29h-7.61v8h7.61a2,2,0,0,0,2.28-2.29Z" />
      <path class="cls-2" d="M228.09,172.69h-7.43L230.75,146h7.62l10.09,26.65H241l-1.71-4.76H229.8Zm3.42-9.71h6.09l-3-8.94Z" />
      <path class="cls-2" d="M123,8.74a9.49,9.49,0,1,1-9.49,9.49A9.5,9.5,0,0,1,123,8.74Zm51.86,66a1.46,1.46,0,0,0-2,0,71.11,71.11,0,0,1-9.84,7.9,1.43,1.43,0,0,1-1.1.22,1.45,1.45,0,0,1-.92-.62L143.79,56.3H156.9a.64.64,0,0,0,.64-.64V52.58a.65.65,0,0,1,.64-.65H175.4a.64.64,0,0,0,.64-.64V38a.64.64,0,0,0-.64-.64H158.18a.65.65,0,0,1-.64-.65V33.64a.64.64,0,0,0-.64-.64H135.26a.55.55,0,0,1-.52-.36.56.56,0,0,1,.13-.61l.17-.16a18.23,18.23,0,1,0-24.13,0,7.18,7.18,0,0,1,1.23,9.37L85,82.19a1.5,1.5,0,0,1-.93.62,1.44,1.44,0,0,1-1.1-.22,71.71,71.71,0,0,1-9.84-7.9,1.45,1.45,0,0,0-2,0L60.81,85a1.46,1.46,0,0,0,0,2.07,88.83,88.83,0,0,0,48.29,24v9.26a1.45,1.45,0,0,0,1.45,1.45h24.81a1.45,1.45,0,0,0,1.46-1.45v-9.26a88.84,88.84,0,0,0,48.28-24,1.48,1.48,0,0,0,.45-1,1.44,1.44,0,0,0-.43-1ZM92.63,87.46a1.47,1.47,0,0,1,.18-1.21l23.13-34.91a1.46,1.46,0,0,1,2.67.8V94.57a72.26,72.26,0,0,1-25.18-6.19A1.44,1.44,0,0,1,92.63,87.46Zm60.7,0a1.48,1.48,0,0,1-.81.92,72.21,72.21,0,0,1-25.17,6.19V57.76a1.45,1.45,0,0,1,1.45-1.46h3.73a1.48,1.48,0,0,1,1.21.65l19.4,29.3A1.44,1.44,0,0,1,153.33,87.46Z" />
      <path class="cls-1" d="M72.68,20a1.1,1.1,0,0,1,1.1-1,1.11,1.11,0,0,1,1.1,1l1.58,13.73a1.09,1.09,0,0,0,.62.87,1.1,1.1,0,0,0,1.07-.06l11.72-7.32A1.11,1.11,0,0,1,91.24,29l-9.75,9.8a1.07,1.07,0,0,0-.29,1,1.09,1.09,0,0,0,.71.8l13,4.6a1.11,1.11,0,0,1-.49,2.15L80.72,45.8a1.12,1.12,0,0,0-1,.41,1.1,1.1,0,0,0-.18,1.06l4.53,13.06a1.11,1.11,0,0,1-2,1L74.71,49.59a1.09,1.09,0,0,0-.93-.51,1.11,1.11,0,0,0-.94.51L65.46,61.28a1.11,1.11,0,0,1-2-1L68,47.27a1.15,1.15,0,0,0-.18-1.06,1.13,1.13,0,0,0-1-.41L53.1,47.32a1.11,1.11,0,0,1-.49-2.15l13-4.6a1.13,1.13,0,0,0,.71-.8,1.1,1.1,0,0,0-.3-1L56.31,29a1.11,1.11,0,0,1,1.37-1.72l11.73,7.32a1.1,1.1,0,0,0,1.07.06,1.11,1.11,0,0,0,.62-.87Z" />
    </g>
  </g>
</svg>
