<svg width="1440" height="601" viewBox="0 0 1440 601" fill="none" xmlns="http://www.w3.org/2000/svg">
<mask id="mask0" mask-type="alpha" maskUnits="userSpaceOnUse" x="0" y="0" width="1440" height="601">
<rect width="1440" height="601" fill="#153E71"/>
</mask>
<g mask="url(#mask0)">
<g style="mix-blend-mode:darken" opacity="0.4">
<path d="M719.999 767.847C1198.83 767.847 1587 379.936 1587 -98.5767C1587 -577.089 1198.83 -965 719.999 -965C241.169 -965 -147 -577.089 -147 -98.5767C-147 379.936 241.169 767.847 719.999 767.847Z" stroke="#003372" stroke-width="3" stroke-miterlimit="10"/>
<path d="M720.001 507.36C1054.87 507.36 1326.34 236.074 1326.34 -98.5746C1326.34 -433.223 1054.87 -704.51 720.001 -704.51C385.13 -704.51 113.663 -433.223 113.663 -98.5746C113.663 236.074 385.13 507.36 720.001 507.36Z" stroke="#003372" stroke-width="3" stroke-miterlimit="10"/>
<path d="M720.001 309.536C945.544 309.536 1128.38 126.818 1128.38 -98.5749C1128.38 -323.968 945.544 -506.685 720.001 -506.685C494.458 -506.685 311.619 -323.968 311.619 -98.5749C311.619 126.818 494.458 309.536 720.001 309.536Z" stroke="#003372" stroke-width="3" stroke-miterlimit="10"/>
<path d="M720.001 104.604C832.288 104.604 923.315 13.638 923.315 -98.5747C923.315 -210.787 832.288 -301.754 720.001 -301.754C607.714 -301.754 516.687 -210.787 516.687 -98.5747C516.687 13.638 607.714 104.604 720.001 104.604Z" stroke="#003372" stroke-width="3" stroke-miterlimit="10"/>
<path d="M720.001 -964.998V767.848" stroke="#003372" stroke-width="3" stroke-miterlimit="10"/>
<path d="M-30.8418 -531.803L1470.84 334.621" stroke="#003372" stroke-width="3" stroke-miterlimit="10"/>
<path d="M1153.48 -848.919L286.485 651.77" stroke="#003372" stroke-width="3" stroke-miterlimit="10"/>
<path d="M286.485 -848.919L1153.48 651.77" stroke="#003372" stroke-width="3" stroke-miterlimit="10"/>
<path d="M1470.84 -531.803L-30.8418 334.621" stroke="#003372" stroke-width="3" stroke-miterlimit="10"/>
<path d="M1302.28 287.014C1302.37 286.722 1302.63 286.528 1302.93 286.528C1303.22 286.528 1303.48 286.722 1303.58 287.014L1306.95 298.275C1307.02 298.437 1307.15 298.6 1307.31 298.697C1307.47 298.762 1307.67 298.794 1307.83 298.73L1318.77 294.349C1319.03 294.251 1319.36 294.316 1319.55 294.543C1319.75 294.77 1319.75 295.095 1319.58 295.322L1312.86 304.993C1312.77 305.155 1312.73 305.35 1312.77 305.512C1312.8 305.674 1312.93 305.836 1313.09 305.934L1323.32 311.743C1323.58 311.872 1323.71 312.197 1323.64 312.456C1323.58 312.749 1323.32 312.943 1323.03 312.976L1311.27 313.754C1311.08 313.754 1310.91 313.852 1310.78 314.014C1310.65 314.176 1310.62 314.339 1310.65 314.533L1312.51 326.151C1312.54 326.443 1312.41 326.735 1312.15 326.865C1311.89 326.995 1311.56 326.93 1311.37 326.703L1303.41 318.006C1303.28 317.876 1303.12 317.779 1302.93 317.779C1302.73 317.779 1302.57 317.843 1302.44 318.006L1294.48 326.703C1294.29 326.93 1293.96 326.995 1293.7 326.865C1293.44 326.735 1293.28 326.443 1293.35 326.151L1295.2 314.533C1295.23 314.339 1295.16 314.176 1295.07 314.014C1294.97 313.852 1294.77 313.787 1294.58 313.754L1282.82 312.976C1282.53 312.943 1282.27 312.749 1282.21 312.456C1282.14 312.164 1282.27 311.872 1282.53 311.743L1292.76 305.934C1292.92 305.836 1293.05 305.674 1293.09 305.512C1293.12 305.317 1293.09 305.155 1292.99 304.993L1286.27 295.322C1286.1 295.095 1286.1 294.77 1286.3 294.543C1286.49 294.316 1286.79 294.219 1287.08 294.349L1298.02 298.73C1298.18 298.794 1298.38 298.794 1298.54 298.697C1298.7 298.632 1298.83 298.47 1298.9 298.275L1302.28 287.014Z" fill="#003372"/>
<path d="M1095.36 405.527C1095.46 405.235 1095.71 405.041 1096.01 405.041C1096.3 405.041 1096.56 405.235 1096.66 405.527L1100.03 416.788C1100.1 416.95 1100.23 417.113 1100.39 417.21C1100.55 417.275 1100.75 417.307 1100.91 417.243L1111.85 412.862C1112.11 412.764 1112.44 412.829 1112.63 413.056C1112.83 413.283 1112.83 413.608 1112.67 413.835L1105.94 423.506C1105.85 423.668 1105.81 423.863 1105.85 424.025C1105.88 424.22 1106.01 424.349 1106.17 424.447L1116.4 430.256C1116.66 430.386 1116.79 430.71 1116.72 430.97C1116.66 431.262 1116.4 431.456 1116.11 431.489L1104.35 432.268C1104.16 432.268 1104 432.365 1103.87 432.527C1103.74 432.657 1103.7 432.852 1103.74 433.046L1105.59 444.664C1105.62 444.956 1105.49 445.248 1105.23 445.378C1104.97 445.508 1104.64 445.443 1104.45 445.216L1096.49 436.519C1096.36 436.389 1096.2 436.292 1096.01 436.292C1095.81 436.292 1095.65 436.357 1095.52 436.519L1087.56 445.216C1087.37 445.443 1087.04 445.508 1086.78 445.378C1086.53 445.248 1086.36 444.956 1086.43 444.664L1088.28 433.046C1088.31 432.852 1088.25 432.69 1088.15 432.527C1088.02 432.397 1087.86 432.3 1087.66 432.268L1075.91 431.489C1075.61 431.456 1075.35 431.262 1075.29 430.97C1075.22 430.678 1075.35 430.386 1075.61 430.256L1085.84 424.447C1086.01 424.349 1086.14 424.187 1086.17 424.025C1086.2 423.83 1086.17 423.668 1086.07 423.506L1079.35 413.835C1079.19 413.608 1079.19 413.283 1079.38 413.056C1079.58 412.829 1079.87 412.732 1080.16 412.862L1091.1 417.243C1091.27 417.307 1091.46 417.307 1091.62 417.21C1091.79 417.145 1091.92 416.983 1091.98 416.788L1095.36 405.527Z" fill="#003372"/>
<path d="M431.315 299.444C431.412 299.151 431.672 298.957 431.965 298.957C432.257 298.957 432.517 299.151 432.614 299.444L435.991 310.704C436.056 310.866 436.186 311.029 436.348 311.126C436.511 311.191 436.706 311.223 436.868 311.158L447.811 306.777C448.071 306.68 448.396 306.745 448.591 306.972C448.786 307.199 448.786 307.524 448.623 307.751L441.901 317.422C441.804 317.584 441.771 317.779 441.804 317.941C441.836 318.135 441.966 318.265 442.129 318.363L452.358 324.172C452.617 324.301 452.747 324.626 452.682 324.885C452.617 325.178 452.358 325.372 452.065 325.405L440.31 326.183C440.115 326.183 439.953 326.281 439.823 326.443C439.693 326.605 439.661 326.768 439.693 326.962L441.544 338.58C441.577 338.872 441.447 339.164 441.187 339.294C440.927 339.424 440.602 339.359 440.408 339.132L432.452 330.435C432.322 330.305 432.159 330.207 431.965 330.207C431.77 330.207 431.607 330.272 431.477 330.435L423.522 339.132C423.327 339.359 423.002 339.424 422.742 339.294C422.482 339.164 422.32 338.872 422.385 338.58L424.236 326.962C424.268 326.768 424.203 326.605 424.106 326.443C424.009 326.281 423.814 326.216 423.619 326.183L411.864 325.405C411.571 325.372 411.312 325.178 411.247 324.885C411.182 324.593 411.312 324.301 411.571 324.172L421.8 318.363C421.963 318.265 422.093 318.103 422.125 317.941C422.158 317.746 422.125 317.584 422.028 317.422L415.306 307.751C415.143 307.524 415.143 307.199 415.338 306.972C415.533 306.745 415.825 306.648 416.118 306.777L427.061 311.158C427.223 311.223 427.418 311.223 427.581 311.126C427.743 311.061 427.873 310.899 427.938 310.704L431.315 299.444Z" fill="#003372"/>
<path d="M-1.74631 64.6889C-1.64889 64.3968 -1.3891 64.2021 -1.09685 64.2021C-0.804588 64.2021 -0.5448 64.3968 -0.447382 64.6889L2.92981 75.9496C2.99476 76.1118 3.12465 76.2741 3.28702 76.3715C3.44938 76.4364 3.64422 76.4688 3.80659 76.4039L14.75 72.023C15.0098 71.9256 15.3345 71.9905 15.5294 72.2177C15.7242 72.4448 15.7242 72.7693 15.5619 72.9965L8.83993 82.6671C8.74251 82.8293 8.71003 83.024 8.7425 83.1863C8.77497 83.381 8.90487 83.5108 9.06724 83.6082L19.2963 89.417C19.556 89.5468 19.6859 89.8713 19.621 90.131C19.556 90.423 19.2963 90.6176 19.004 90.6501L7.24874 91.4614C7.0539 91.4614 6.89153 91.5588 6.76164 91.7211C6.63175 91.8509 6.59928 92.0456 6.63176 92.2403L8.48272 103.858C8.51519 104.15 8.3853 104.442 8.12551 104.572C7.86573 104.702 7.54099 104.637 7.34616 104.41L-0.609745 95.7125C-0.739637 95.5827 -0.902008 95.4854 -1.09685 95.4854C-1.29169 95.4854 -1.45406 95.5503 -1.58395 95.7125L-9.53985 104.41C-9.73469 104.637 -10.0594 104.702 -10.3192 104.572C-10.579 104.442 -10.7414 104.15 -10.6764 103.858L-8.82545 92.2403C-8.79297 92.0456 -8.85792 91.8833 -8.95534 91.7211C-9.08524 91.5912 -9.24759 91.4938 -9.44243 91.4614L-21.1977 90.6826C-21.4899 90.6501 -21.7497 90.4554 -21.8147 90.1633C-21.8796 89.8713 -21.7497 89.5792 -21.4899 89.4494L-11.2609 83.6407C-11.0986 83.5433 -10.9687 83.381 -10.9362 83.2188C-10.9037 83.0241 -10.9362 82.8618 -11.0336 82.6995L-17.7555 73.029C-17.9179 72.8018 -17.9179 72.4773 -17.7231 72.2502C-17.5282 72.023 -17.236 71.9256 -16.9437 72.0555L-6.00029 76.4364C-5.83793 76.5013 -5.64308 76.5013 -5.48071 76.4039C-5.31834 76.339 -5.18846 76.1768 -5.12352 75.9821L-1.74631 64.6889Z" fill="#003372"/>
<path d="M1120.91 213.868C1121.01 213.576 1121.27 213.382 1121.56 213.382C1121.86 213.382 1122.12 213.576 1122.21 213.868L1125.59 225.129C1125.65 225.291 1125.78 225.454 1125.95 225.551C1126.11 225.616 1126.3 225.648 1126.47 225.583L1137.41 221.203C1137.67 221.105 1137.99 221.17 1138.19 221.397C1138.38 221.624 1138.38 221.949 1138.22 222.176L1131.5 231.847C1131.4 232.009 1131.37 232.204 1131.4 232.366C1131.43 232.561 1131.56 232.69 1131.73 232.788L1141.96 238.597C1142.22 238.726 1142.35 239.051 1142.28 239.31C1142.22 239.602 1141.96 239.797 1141.66 239.83L1129.91 240.609C1129.71 240.609 1129.55 240.706 1129.42 240.868C1129.29 240.998 1129.26 241.193 1129.29 241.387L1131.14 253.005C1131.18 253.297 1131.05 253.589 1130.79 253.719C1130.53 253.849 1130.2 253.784 1130.01 253.557L1122.05 244.86C1121.92 244.73 1121.76 244.632 1121.56 244.632C1121.37 244.632 1121.21 244.697 1121.08 244.86L1113.12 253.557C1112.93 253.784 1112.6 253.849 1112.34 253.719C1112.08 253.589 1111.92 253.297 1111.98 253.005L1113.83 241.387C1113.87 241.193 1113.8 241.03 1113.7 240.868C1113.57 240.738 1113.41 240.641 1113.22 240.609L1101.46 239.83C1101.17 239.797 1100.91 239.602 1100.85 239.31C1100.78 239.018 1100.91 238.726 1101.17 238.597L1111.4 232.788C1111.56 232.69 1111.69 232.528 1111.72 232.366C1111.76 232.171 1111.72 232.009 1111.63 231.847L1104.9 222.176C1104.74 221.949 1104.74 221.624 1104.94 221.397C1105.13 221.17 1105.42 221.073 1105.72 221.203L1116.66 225.583C1116.82 225.648 1117.02 225.648 1117.18 225.551C1117.34 225.486 1117.47 225.324 1117.54 225.129L1120.91 213.868Z" fill="#003372"/>
<path d="M1035.28 -30.4265C1035.38 -30.7185 1035.64 -30.9132 1035.93 -30.9132C1036.22 -30.9132 1036.48 -30.7185 1036.58 -30.4265L1039.96 -19.1658C1040.02 -19.0035 1040.15 -18.8412 1040.32 -18.7439C1040.48 -18.679 1040.67 -18.6465 1040.84 -18.7114L1051.78 -23.0924C1052.04 -23.1897 1052.36 -23.1248 1052.56 -22.8977C1052.75 -22.6705 1052.75 -22.346 1052.59 -22.1189L1045.87 -12.4483C1045.77 -12.286 1045.74 -12.0913 1045.77 -11.929C1045.8 -11.7343 1045.93 -11.6045 1046.1 -11.5072L1056.33 -5.69841C1056.58 -5.56861 1056.71 -5.24409 1056.65 -4.98448C1056.58 -4.69241 1056.33 -4.49769 1056.03 -4.46524L1044.28 -3.68633C1044.08 -3.68633 1043.92 -3.58902 1043.79 -3.42677C1043.66 -3.29696 1043.63 -3.10224 1043.66 -2.90753L1045.51 8.71007C1045.54 9.00213 1045.41 9.2942 1045.15 9.42401C1044.89 9.55381 1044.57 9.48895 1044.37 9.26179L1036.42 0.564806C1036.29 0.434999 1036.13 0.337622 1035.93 0.337622C1035.74 0.337622 1035.57 0.402548 1035.44 0.564806L1027.49 9.26179C1027.29 9.48895 1026.97 9.55381 1026.71 9.42401C1026.45 9.2942 1026.29 9.00213 1026.35 8.71007L1028.2 -2.90753C1028.24 -3.10224 1028.17 -3.26451 1028.07 -3.42677C1027.94 -3.55657 1027.78 -3.65388 1027.59 -3.68633L1015.83 -4.46524C1015.54 -4.49769 1015.28 -4.69241 1015.21 -4.98448C1015.15 -5.27654 1015.28 -5.56861 1015.54 -5.69841L1025.77 -11.5072C1025.93 -11.6045 1026.06 -11.7668 1026.09 -11.929C1026.13 -12.1238 1026.09 -12.286 1026 -12.4483L1019.27 -22.1189C1019.11 -22.346 1019.11 -22.6705 1019.31 -22.8977C1019.5 -23.1248 1019.79 -23.2222 1020.09 -23.0924L1031.03 -18.7114C1031.19 -18.6465 1031.39 -18.6465 1031.55 -18.7439C1031.71 -18.8412 1031.84 -18.9711 1031.91 -19.1658L1035.28 -30.4265Z" fill="#003372"/>
<path d="M1189.76 334.199C1193.92 334.199 1197.29 330.828 1197.29 326.67C1197.29 322.512 1193.92 319.141 1189.76 319.141C1185.6 319.141 1182.22 322.512 1182.22 326.67C1182.22 330.828 1185.6 334.199 1189.76 334.199Z" fill="#003372"/>
<path d="M1088.47 348.802C1092.63 348.802 1096.01 345.431 1096.01 341.273C1096.01 337.115 1092.63 333.745 1088.47 333.745C1084.31 333.745 1080.94 337.115 1080.94 341.273C1080.94 345.431 1084.31 348.802 1088.47 348.802Z" fill="#003372"/>
<path d="M977.285 556.103C981.446 556.103 984.819 552.732 984.819 548.574C984.819 544.416 981.446 541.045 977.285 541.045C973.124 541.045 969.751 544.416 969.751 548.574C969.751 552.732 973.124 556.103 977.285 556.103Z" fill="#003372"/>
<path d="M910.066 467.705C914.226 467.705 917.599 464.334 917.599 460.176C917.599 456.018 914.226 452.647 910.066 452.647C905.905 452.647 902.532 456.018 902.532 460.176C902.532 464.334 905.905 467.705 910.066 467.705Z" fill="#003372"/>
<path d="M767.249 284.256C771.41 284.256 774.783 280.885 774.783 276.727C774.783 272.569 771.41 269.198 767.249 269.198C763.089 269.198 759.716 272.569 759.716 276.727C759.716 280.885 763.089 284.256 767.249 284.256Z" fill="#003372"/>
<path d="M813.783 161.362C817.944 161.362 821.317 157.991 821.317 153.833C821.317 149.675 817.944 146.304 813.783 146.304C809.623 146.304 806.25 149.675 806.25 153.833C806.25 157.991 809.623 161.362 813.783 161.362Z" fill="#003372"/>
<path d="M830.734 34.0545C834.895 34.0545 838.268 30.6839 838.268 26.5259C838.268 22.3679 834.895 18.9971 830.734 18.9971C826.573 18.9971 823.2 22.3679 823.2 26.5259C823.2 30.6839 826.573 34.0545 830.734 34.0545Z" fill="#003372"/>
<path d="M640.994 425.258C645.155 425.258 648.528 421.887 648.528 417.729C648.528 413.571 645.155 410.2 640.994 410.2C636.833 410.2 633.46 413.571 633.46 417.729C633.46 421.887 636.833 425.258 640.994 425.258Z" fill="#003372"/>
<path d="M354.906 341.273C359.067 341.273 362.44 337.902 362.44 333.744C362.44 329.586 359.067 326.215 354.906 326.215C350.745 326.215 347.372 329.586 347.372 333.744C347.372 337.902 350.745 341.273 354.906 341.273Z" fill="#003372"/>
<path d="M113.663 71.7633C117.824 71.7633 121.197 68.3925 121.197 64.2345C121.197 60.0765 117.824 56.7057 113.663 56.7057C109.502 56.7057 106.13 60.0765 106.13 64.2345C106.13 68.3925 109.502 71.7633 113.663 71.7633Z" fill="#003372"/>
<path d="M431.932 261.313C436.093 261.313 439.466 257.942 439.466 253.784C439.466 249.626 436.093 246.255 431.932 246.255C427.771 246.255 424.398 249.626 424.398 253.784C424.398 257.942 427.771 261.313 431.932 261.313Z" fill="#003372"/>
<path d="M439.466 41.5511C443.627 41.5511 447 38.1803 447 34.0223C447 29.8642 443.627 26.4935 439.466 26.4935C435.305 26.4935 431.932 29.8642 431.932 34.0223C431.932 38.1803 435.305 41.5511 439.466 41.5511Z" fill="#003372"/>
<path d="M98.6283 356.298C102.789 356.298 106.162 352.927 106.162 348.769C106.162 344.612 102.789 341.241 98.6283 341.241C94.4675 341.241 91.0945 344.612 91.0945 348.769C91.0945 352.927 94.4675 356.298 98.6283 356.298Z" fill="#003372"/>
<path d="M885.289 398.583C887.369 398.583 889.056 396.897 889.056 394.818C889.056 392.739 887.369 391.054 885.289 391.054C883.209 391.054 881.522 392.739 881.522 394.818C881.522 396.897 883.209 398.583 885.289 398.583Z" fill="#003372"/>
<path d="M927.082 172.623C929.162 172.623 930.849 170.937 930.849 168.858C930.849 166.779 929.162 165.094 927.082 165.094C925.002 165.094 923.315 166.779 923.315 168.858C923.315 170.937 925.002 172.623 927.082 172.623Z" fill="#003372"/>
<path d="M826.967 445.475C829.048 445.475 830.734 443.79 830.734 441.711C830.734 439.632 829.048 437.947 826.967 437.947C824.887 437.947 823.2 439.632 823.2 441.711C823.2 443.79 824.887 445.475 826.967 445.475Z" fill="#003372"/>
<path d="M752.214 544.842C754.295 544.842 755.981 543.157 755.981 541.078C755.981 538.998 754.295 537.313 752.214 537.313C750.134 537.313 748.447 538.998 748.447 541.078C748.447 543.157 750.134 544.842 752.214 544.842Z" fill="#003372"/>
<path d="M576.892 471.469C578.972 471.469 580.659 469.783 580.659 467.704C580.659 465.625 578.972 463.94 576.892 463.94C574.812 463.94 573.125 465.625 573.125 467.704C573.125 469.783 574.812 471.469 576.892 471.469Z" fill="#003372"/>
<path d="M376.143 600.464C378.224 600.464 379.91 598.778 379.91 596.699C379.91 594.62 378.224 592.935 376.143 592.935C374.063 592.935 372.376 594.62 372.376 596.699C372.376 598.778 374.063 600.464 376.143 600.464Z" fill="#003372"/>
<path d="M520.421 322.938C522.502 322.938 524.188 321.253 524.188 319.174C524.188 317.095 522.502 315.41 520.421 315.41C518.341 315.41 516.654 317.095 516.654 319.174C516.654 321.253 518.341 322.938 520.421 322.938Z" fill="#003372"/>
<path d="M648.495 217.146C650.576 217.146 652.262 215.461 652.262 213.382C652.262 211.303 650.576 209.617 648.495 209.617C646.415 209.617 644.728 211.303 644.728 213.382C644.728 215.461 646.415 217.146 648.495 217.146Z" fill="#003372"/>
<path d="M755.981 250.02C758.061 250.02 759.748 248.334 759.748 246.255C759.748 244.176 758.061 242.491 755.981 242.491C753.901 242.491 752.214 244.176 752.214 246.255C752.214 248.334 753.901 250.02 755.981 250.02Z" fill="#003372"/>
<path d="M648.495 131.507C650.576 131.507 652.262 129.821 652.262 127.742C652.262 125.663 650.576 123.978 648.495 123.978C646.415 123.978 644.728 125.663 644.728 127.742C644.728 129.821 646.415 131.507 648.495 131.507Z" fill="#003372"/>
<path d="M286.485 306.485C288.566 306.485 290.252 304.8 290.252 302.721C290.252 300.642 288.566 298.957 286.485 298.957C284.405 298.957 282.718 300.642 282.718 302.721C282.718 304.8 284.405 306.485 286.485 306.485Z" fill="#003372"/>
<path d="M516.687 88.1839C518.767 88.1839 520.454 86.4985 520.454 84.4194C520.454 82.3404 518.767 80.655 516.687 80.655C514.606 80.655 512.92 82.3404 512.92 84.4194C512.92 86.4985 514.606 88.1839 516.687 88.1839Z" fill="#003372"/>
<path d="M580.659 13.2532C582.739 13.2532 584.426 11.5679 584.426 9.4889C584.426 7.40991 582.739 5.72455 580.659 5.72455C578.579 5.72455 576.892 7.40991 576.892 9.4889C576.892 11.5679 578.579 13.2532 580.659 13.2532Z" fill="#003372"/>
<path d="M-1.09677 168.858C0.983622 168.858 2.67011 167.173 2.67011 165.094C2.67011 163.015 0.983622 161.33 -1.09677 161.33C-3.17716 161.33 -4.86365 163.015 -4.86365 165.094C-4.86365 167.173 -3.17716 168.858 -1.09677 168.858Z" fill="#003372"/>
<path d="M483.727 493.406C485.807 493.406 487.493 491.721 487.493 489.642C487.493 487.563 485.807 485.878 483.727 485.878C481.646 485.878 479.96 487.563 479.96 489.642C479.96 491.721 481.646 493.406 483.727 493.406Z" fill="#003372"/>
<path d="M843.041 559.867C845.122 559.867 846.808 558.181 846.808 556.102C846.808 554.023 845.122 552.338 843.041 552.338C840.961 552.338 839.275 554.023 839.275 556.102C839.275 558.181 840.961 559.867 843.041 559.867Z" fill="#003372"/>
<path d="M1064.15 276.727C1068.31 276.727 1071.68 273.357 1071.68 269.199C1071.68 265.04 1068.31 261.67 1064.15 261.67C1059.99 261.67 1056.62 265.04 1056.62 269.199C1056.62 273.357 1059.99 276.727 1064.15 276.727Z" fill="#003372"/>
</g>
</g>
</svg>
