<svg xmlns="http://www.w3.org/2000/svg" xmlns:xlink="http://www.w3.org/1999/xlink" xmlns:lucid="lucid" width="600" height="520"><g transform="translate(-60 -60)" lucid:page-tab-id="umnGsK3PyKwa"><path d="M80 82c0-1.1.9-2 2-2h556c1.1 0 2 .9 2 2v476c0 1.1-.9 2-2 2H82c-1.1 0-2-.9-2-2z" stroke="#000" fill="#f1f8e9"/><use xlink:href="#a" transform="matrix(1,0,0,1,96,96) translate(0 16.69921875)"/><use xlink:href="#b" transform="matrix(1,0,0,1,96,96) translate(35.1298828125 16.69921875)"/><path d="M100 142c0-1.1.9-2 2-2h516c1.1 0 2 .9 2 2v396c0 1.1-.9 2-2 2H102c-1.1 0-2-.9-2-2z" stroke="#000" fill="#f6f6f6"/><use xlink:href="#c" transform="matrix(1,0,0,1,116,156) translate(0 16.69921875)"/><use xlink:href="#d" transform="matrix(1,0,0,1,116,156) translate(92.8564453125 16.69921875)"/><use xlink:href="#e" transform="matrix(1,0,0,1,116,156) translate(107.419921875 16.69921875)"/><use xlink:href="#f" transform="matrix(1,0,0,1,116,156) translate(137.49609375 16.69921875)"/><path d="M599.77 122.1c-.76.1-1.36.24-1.97.54l-26.3 12.96c-1.44.68-2.42 1.9-2.72 3.5l-6.52 29.16c-.3 1.37-.08 2.73.68 3.94.08.15.15.23.3.38l18.2 23.34c.98 1.3 2.34 1.97 3.93 1.97h29.26c1.6 0 2.95-.7 3.94-1.98l18.18-23.34c1-1.3 1.37-2.8 1-4.4l-6.53-29.1c-.3-1.6-1.3-2.8-2.73-3.48l-26.3-12.96c-.84-.38-1.6-.6-2.43-.53z" stroke="#000" stroke-opacity="0" stroke-width="3.83" fill="#326ce5"/><path d="M599.76 120c-.8.08-1.44.24-2.08.56l-27.76 13.68c-1.52.72-2.56 2-2.88 3.68l-6.88 30.8c-.32 1.44-.08 2.88.72 4.16.08.16.16.24.32.4l19.2 24.64c1.04 1.36 2.48 2.08 4.16 2.08h30.88c1.68 0 3.12-.72 4.16-2.08l19.2-24.64c1.04-1.36 1.44-2.96 1.04-4.56l-6.88-30.8c-.32-1.68-1.36-2.96-2.88-3.68l-27.76-13.68c-.88-.4-1.68-.64-2.56-.56zm0 2.16c.88-.08 1.6.08 2.4.48l26.4 12.96c1.36.72 2.32 1.92 2.72 3.52l6.48 29.12c.32 1.6 0 3.04-.96 4.32l-18.24 23.36c-.96 1.28-2.32 2-3.92 2h-29.28c-1.6 0-2.96-.72-3.92-2l-18.24-23.36c-.08-.08-.16-.24-.24-.4-.8-1.2-1.04-2.48-.72-3.92l6.48-29.12c.4-1.6 1.28-2.8 2.72-3.52l26.4-12.96c.64-.32 1.2-.48 1.92-.56z" stroke="#000" stroke-opacity="0" stroke-width="3.83" fill="#fff"/><path d="M591.18 139.36v3.4h2.35v-2.2h4.85v-2.42h-6c-.98 0-1.2.33-1.2 1.22zm11.9 1.2h9.38v-2.42h-9.4zm14.07 0h2.97v4.2h2.35v-5.4c0-.96-.5-1.2-1.2-1.22h-4.12zm-25.97 8.26v8.46h2.35v-9.67h-2.35zm28.94 2v8.47h2.35v-9.7h-2.35zm-26 10.7h9.4v-2.44h-9.4zm19.43 0h4.04v-2.44h-4.05z" stroke="#000" stroke-opacity="0" stroke-width="3.77" fill="#fff"/><path d="M584.36 145.8v4.4h2.35v-3.18h3.92v-2.43h-5.07c-.97 0-1.2.32-1.2 1.2zm10.98 1.22h9.35v-2.43h-9.36zm14.05 0h3.9v3.23h2.34v-4.44c0-.74-.3-1.23-1.15-1.2h-5.1zm-25.04 9.23v8.46h2.35v-9.66h-2.34zm28.94.05v8.46h2.34v-9.67h-2.34zm-25.06 11.66h9.38v-2.4h-9.38zm14.08 0h9.38v-2.4h-9.38z" stroke="#000" stroke-opacity="0" stroke-width="3.77" fill="#fff"/><path d="M577.54 173.25v-22.2l29.95.02c.92 0 1.33.8 1.33 1.38l-.03 20.75c-.03.8-.66 1.24-1.28 1.22h-28.8c-.52 0-1.2-.45-1.18-1.17z" stroke="#000" stroke-opacity="0" stroke-width="3.77" fill="#fff"/><path d="M592.95 153.16c-3.42 0-6.53.4-8.87 1.07-1.16.35-2.15.77-2.94 1.3-.77.54-1.46 1.32-1.46 2.4v9.6c0 1.08.7 1.84 1.46 2.38.8.56 1.78.97 2.94 1.3 2.34.7 5.45 1.1 8.87 1.1 3.43 0 6.54-.4 8.87-1.1 1.17-.33 2.15-.74 2.95-1.3.77-.53 1.46-1.3 1.46-2.36v-9.6c0-1.1-.7-1.87-1.46-2.4-.8-.54-1.78-.96-2.95-1.3-2.33-.68-5.44-1.08-8.87-1.08zm0 2.4c3.24 0 6.2.4 8.24 1 1.02.3 1.8.68 2.24.98.45.3.45.46.45.4 0-.1 0 .04-.46.37-.45.32-1.22.66-2.25.97-2.06.6-5 1-8.25 1-3.24 0-6.18-.4-8.23-1-1.03-.3-1.8-.65-2.26-.96-.45-.32-.45-.47-.45-.37 0 .07 0-.08.46-.4.46-.3 1.23-.66 2.26-.96 2.05-.6 5-1 8.23-1zM582 160.7c.65.33 1.26.67 2.08.92 2.34.7 5.45 1.1 8.87 1.1 3.43 0 6.54-.4 8.87-1.1.83-.25 1.44-.6 2.07-.92v6.86c0-.08 0 .07-.46.38-.45.3-1.22.67-2.25.96-2.06.6-5 1-8.25 1-3.24 0-6.18-.4-8.23-1-1.03-.3-1.8-.66-2.26-.96-.45-.3-.45-.46-.45-.38z" stroke="#000" stroke-opacity="0" stroke-width="3.77" fill="#326ce5"/><path d="M597.37 189.65c0 .64-.24 1.13-.7 1.48-.48.35-1.14.52-2 .52-.8 0-1.45-.14-1.9-.4-.44-.3-.72-.73-.86-1.32l.98-.2c.1.37.3.63.58.8.3.18.7.26 1.22.26.56 0 .97-.1 1.22-.27.27-.18.4-.45.4-.8 0-.27-.1-.5-.27-.66-.18-.16-.47-.3-.87-.4l-.8-.22c-.62-.17-1.07-.33-1.34-.5-.27-.16-.47-.36-.62-.6-.15-.2-.23-.5-.23-.83 0-.63.2-1.1.64-1.42.45-.33 1.07-.5 1.9-.5.72 0 1.3.14 1.73.4.43.27.7.7.82 1.28l-1 .12c-.05-.3-.22-.53-.48-.7-.27-.16-.62-.24-1.07-.24-.5 0-.87.08-1.1.24-.24.15-.36.4-.36.7 0 .2.05.35.15.48.1.12.23.23.42.32.2.1.6.2 1.2.37.6.14 1 .28 1.27.42.25.12.45.26.6.4.14.17.26.34.35.55.08.2.12.43.12.7zM601.2 191.52c-.35.1-.73.15-1.1.15-.88 0-1.33-.5-1.33-1.54v-4.55H598v-.82h.82l.32-1.53h.73v1.53h1.23v.82h-1.23v4.3c0 .33.05.56.16.7.1.13.28.2.54.2.15 0 .36-.04.64-.1zM607.1 189.65c0 .64-.24 1.13-.7 1.48-.48.35-1.14.52-2 .52-.8 0-1.45-.14-1.9-.4-.44-.3-.73-.73-.86-1.32l.97-.2c.1.37.3.63.6.8.28.18.7.26 1.2.26.57 0 .98-.1 1.23-.27.26-.18.4-.45.4-.8 0-.27-.1-.5-.27-.66-.18-.16-.47-.3-.87-.4l-.8-.22c-.63-.17-1.08-.33-1.35-.5-.27-.16-.47-.36-.62-.6-.15-.2-.23-.5-.23-.83 0-.63.2-1.1.64-1.42.44-.33 1.06-.5 1.9-.5.7 0 1.3.14 1.72.4.43.27.7.7.82 1.28l-1 .12c-.05-.3-.22-.53-.48-.7-.27-.16-.63-.24-1.07-.24-.5 0-.87.08-1.1.24-.24.15-.36.4-.36.7 0 .2.05.35.15.48.1.12.24.23.43.32.2.1.6.2 1.2.37.6.14 1 .28 1.27.42.26.12.46.26.6.4.15.17.27.34.36.55.08.2.12.43.12.7z" stroke="#000" stroke-opacity="0" fill="#fff"/><path d="M120 202c0-1.1.9-2 2-2h336c1.1 0 2 .9 2 2v316c0 1.1-.9 2-2 2H122c-1.1 0-2-.9-2-2z" stroke="#000" fill="#f3e5f5"/><use xlink:href="#g" transform="matrix(1,0,0,1,136,216) translate(0 16.69921875)"/><use xlink:href="#h" transform="matrix(1,0,0,1,136,216) translate(36.1142578125 16.69921875)"/><path d="M140 340h160v60H140z" stroke="#000" stroke-width="2" fill="#ef8d22"/><use xlink:href="#i" transform="matrix(1,0,0,1,145,345) translate(20.074999999999996 17.525)"/><use xlink:href="#j" transform="matrix(1,0,0,1,145,345) translate(111.975 17.525)"/><use xlink:href="#k" transform="matrix(1,0,0,1,145,345) translate(30.75 39.125)"/><use xlink:href="#l" transform="matrix(1,0,0,1,145,345) translate(90.25 39.125)"/><path d="M140 420h160v60H140z" stroke="#000" stroke-width="2" fill="#ef8d22"/><use xlink:href="#m" transform="matrix(1,0,0,1,145,425) translate(10.125 30.025)"/><use xlink:href="#n" transform="matrix(1,0,0,1,145,425) translate(38.025 30.025)"/><use xlink:href="#o" transform="matrix(1,0,0,1,145,425) translate(53.974999999999994 30.025)"/><path d="M140 260h160v60H140z" fill="#99d5ca"/><path d="M152 260h8m8 0h8m8 0h8m8 0h8m8 0h8m8 0h8m8 0h8m8 0h8m8 0h8m8 0h4v3.75m0 7.5v7.5m0 7.5v7.5m0 7.5v7.5m0 7.5V320h-4m-8 0h-8m-8 0h-8m-8 0h-8m-8 0h-8m-8 0h-8m-8 0h-8m-8 0h-8m-8 0h-8m-8 0h-8m-8 0h-4v-3.75m0-7.5v-7.5m0-7.5v-7.5m0-7.5v-7.5m0-7.5V260h4" stroke="#000" stroke-width="2" fill="none"/><use xlink:href="#p" transform="matrix(1,0,0,1,145,265) translate(18.625 30.025)"/><use xlink:href="#q" transform="matrix(1,0,0,1,145,265) translate(75.525 30.025)"/><path d="M379.66 263.17c-1.14.1-2.05.34-2.96.8l-39.44 19.43c-2.16 1.02-3.64 2.84-4.1 5.23l-9.77 43.76c-.47 2.04-.13 4.08 1 5.9.13.23.24.34.47.57l27.28 35c1.48 1.94 3.52 2.97 5.9 2.97h43.9c2.38 0 4.42-1.03 5.9-2.96l27.28-35c1.48-1.94 2.05-4.2 1.48-6.6l-9.77-43.65c-.45-2.4-1.93-4.2-4.1-5.23l-39.43-19.44c-1.25-.57-2.4-.9-3.64-.8z" stroke="#000" stroke-opacity="0" stroke-width="3.83" fill="#326ce5"/><path d="M379.64 260c-1.2.12-2.16.36-3.12.84l-41.64 20.52c-2.28 1.08-3.84 3-4.32 5.52l-10.32 46.2c-.48 2.16-.12 4.32 1.08 6.24.12.24.24.36.48.6l28.8 36.96c1.56 2.04 3.72 3.12 6.24 3.12h46.32c2.52 0 4.68-1.08 6.24-3.12l28.8-36.96c1.56-2.04 2.16-4.44 1.56-6.84l-10.32-46.2c-.48-2.52-2.04-4.44-4.32-5.52l-41.64-20.52c-1.32-.6-2.52-.96-3.84-.84zm0 3.24c1.32-.12 2.4.12 3.6.72l39.6 19.44c2.04 1.08 3.48 2.88 4.08 5.28l9.72 43.68c.48 2.4 0 4.56-1.44 6.48l-27.36 35.04c-1.44 1.92-3.48 3-5.88 3h-43.92c-2.4 0-4.44-1.08-5.88-3l-27.36-35.04c-.12-.12-.24-.36-.36-.6-1.2-1.8-1.56-3.72-1.08-5.88l9.72-43.68c.6-2.4 1.92-4.2 4.08-5.28l39.6-19.44c.96-.48 1.8-.72 2.88-.84z" stroke="#000" stroke-opacity="0" stroke-width="3.83" fill="#fff"/><path d="M374.5 362.07c0 3.56-1.2 5.35-3.64 5.35-1.52 0-2.55-.6-3.08-1.8h-.04c.03.07.03.6.03 1.62v4h-1.64v-12.16c0-1.05-.03-1.74-.06-2.1h1.6l.02.3c0 .14 0 .38.03.7l.03.66h.03c.3-.62.67-1.1 1.16-1.37.48-.3 1.1-.45 1.9-.45 1.23 0 2.14.42 2.75 1.27.6.82.9 2.15.9 3.97zm-1.72.03c0-1.42-.2-2.44-.56-3.05-.38-.62-.97-.92-1.78-.92-.66 0-1.16.15-1.54.43-.37.28-.64.72-.84 1.33-.2.58-.3 1.37-.3 2.33 0 1.35.23 2.33.64 2.97.4.63 1.1.95 2.02.95.82 0 1.4-.3 1.8-.92.37-.62.56-1.66.56-3.13zM380.92 367.23h-1.95l-3.6-10.23h1.76l2.18 6.66c.1.24.3 1 .64 2.24l.33-1.1.35-1.12 2.26-6.68h1.75zM387.22 362.07c0 1.35.2 2.36.62 3.02.4.65 1.04.96 1.88.96.6 0 1.07-.15 1.46-.48.4-.33.65-.83.74-1.52l1.67.12c-.14.98-.55 1.77-1.24 2.35-.68.58-1.54.88-2.6.88-1.4 0-2.45-.43-3.17-1.34-.74-.9-1.1-2.22-1.1-3.96 0-1.72.36-3.03 1.1-3.93.72-.9 1.77-1.36 3.14-1.36 1.02 0 1.86.3 2.53.83.67.54 1.1 1.28 1.26 2.23l-1.7.13c-.08-.57-.3-1.03-.65-1.36-.35-.34-.84-.5-1.48-.5-.87 0-1.5.3-1.9.9-.4.6-.58 1.6-.58 3.03z" stroke="#000" stroke-opacity="0" fill="#fff"/><path d="M369.05 298.3l.4 3.64c4.55-.48 9.17-.52 13.8-.44l.12-3.63c-4.7-.16-10.1.08-14.32.44zm17.7 3.36c4.57.24 9.12.8 13.62 1.8l.78-3.55c-4.9-1-9.96-1.6-14.26-1.87zm-35.4.8l1.62 3.2c4.3-1.88 9.05-2.76 12.95-3.36l-.4-3.6c-5 .73-10.27 1.88-14.18 3.76zm52.27 1.88c2.15.55 4.04 1.63 5.4 3.03-2.92 2.75-7.22 3.63-10.6 4.3l.64 3.56c3.45-.6 6.9-1.6 9.97-3.2v1.1h3.5v-5.96c0-3.87-5-5.43-7.87-6.3zm-56.2 3.67v8.83h3.53v-4.8c2.8 1.57 5.86 2.36 8.92 3l.7-3.55c-3.3-.68-6.9-1.8-9.23-3.6-.33-.3-.4-.6-.33-.8-1.03-.4-2.07-1.03-3.1-1.6-.47.8-.47 1.65-.47 2.53zm15.96 7.7c4.95.7 10.03 1.05 14.26 1.17l.07-3.63c-4.55-.08-9.24-.44-13.73-1.12zm17.84-2.46v3.63c4.76 0 9.77-.4 14.26-1.04l-.45-3.6c-4.43.7-9.18.97-13.8 1zm27.8 14.93c-.12.5-.4.7-.84 1l2.02 3c1.63-1.5 2.34-2.5 2.34-3.77V316.75h-3.5zm-61.6.23c.14 3.12 3.8 4.7 5.94 5.63l1.23-3.4c-1.57-.43-3.65-1.55-3.65-2.42v-7.74h-3.52zm44.68 5.07l.4 3.6c4.8-.44 9.75-1.44 14.18-3.08l-1.24-3.4c-4.3 1.64-8.8 2.4-13.34 2.87zm-35.23 1.72c4.82 1.2 9.97 1.9 14.26 2.23l.2-3.64c-4.43-.3-9.05-.96-13.54-2.12zm17.97-1.2l-.2 3.63c4.76.23 9.58.1 14.27-.2l-.2-3.64c-4.6.35-9.3.4-13.86.2z" stroke="#000" stroke-opacity="0" stroke-width="3.77" fill="#fff"/><path d="M539.66 263.17c-1.14.1-2.05.34-2.96.8l-39.44 19.43c-2.16 1.02-3.64 2.84-4.1 5.23l-9.77 43.76c-.47 2.04-.13 4.08 1 5.9.13.23.24.34.47.57l27.28 35c1.48 1.94 3.52 2.97 5.9 2.97h43.9c2.38 0 4.42-1.03 5.9-2.96l27.28-35c1.48-1.94 2.05-4.2 1.48-6.6l-9.77-43.65c-.45-2.4-1.93-4.2-4.1-5.23l-39.43-19.44c-1.25-.57-2.4-.9-3.64-.8z" stroke="#000" stroke-opacity="0" stroke-width="1.01" fill="#326ce5"/><path d="M539.64 260c-1.2.12-2.16.36-3.12.84l-41.64 20.52c-2.28 1.08-3.84 3-4.32 5.52l-10.32 46.2c-.48 2.16-.12 4.32 1.08 6.24.12.24.24.36.48.6l28.8 36.96c1.56 2.04 3.72 3.12 6.24 3.12h46.32c2.52 0 4.68-1.08 6.24-3.12l28.8-36.96c1.56-2.04 2.16-4.44 1.56-6.84l-10.32-46.2c-.48-2.52-2.04-4.44-4.32-5.52l-41.64-20.52c-1.32-.6-2.52-.96-3.84-.84zm0 3.24c1.32-.12 2.4.12 3.6.72l39.6 19.44c2.04 1.08 3.48 2.88 4.08 5.28l9.72 43.68c.48 2.4 0 4.56-1.44 6.48l-27.36 35.04c-1.44 1.92-3.48 3-5.88 3h-43.92c-2.4 0-4.44-1.08-5.88-3l-27.36-35.04c-.12-.12-.24-.36-.36-.6-1.2-1.8-1.56-3.72-1.08-5.88l9.72-43.68c.6-2.4 1.92-4.2 4.08-5.28l39.6-19.44c.96-.48 1.8-.72 2.88-.84z" stroke="#000" stroke-opacity="0" stroke-width="1.01" fill="#fff"/><path d="M509.2 309.57c0 4.26 13.8 7.7 30.8 7.7s30.8-3.44 30.8-7.7v20.86c0 4.26-13.8 7.7-30.8 7.7s-30.8-3.44-30.8-7.7z" stroke="#000" stroke-opacity="0" fill="#fff"/><path d="M509.2 309.57c0-4.26 13.8-7.7 30.8-7.7s30.8 3.44 30.8 7.7-13.8 7.7-30.8 7.7-30.8-3.44-30.8-7.7z" stroke="#000" stroke-opacity="0" fill="#fff"/><path d="M540 300.96c-8.55 0-16.28.83-21.98 2.28-2.85.7-5.13 1.52-6.84 2.55-1.64.98-2.85 2.2-2.85 3.76v20.88c0 1.56 1.2 2.78 2.85 3.77 1.7 1.03 4 1.87 6.84 2.56 5.7 1.45 13.43 2.28 21.98 2.28s16.28-.83 21.98-2.28c2.85-.7 5.13-1.53 6.84-2.55 1.64-.98 2.85-2.2 2.85-3.76v-20.88c0-1.56-1.2-2.78-2.85-3.77-1.7-1.04-4-1.87-6.84-2.56-5.7-1.45-13.43-2.28-21.98-2.28zm0 1.8c8.42 0 16.1.86 21.53 2.23 2.8.68 4.94 1.52 6.4 2.35 1.46.84 1.96 1.64 1.96 2.2 0 .58-.5 1.38-1.97 2.22-1.46.88-3.6 1.68-6.4 2.36-5.44 1.38-13.1 2.25-21.53 2.25-12.16 0-22.74-1.86-27.42-4.3-.9-.46-1.52-.95-1.97-1.4-.37-.43-.5-.8-.5-1.12 0-.57.5-1.37 1.97-2.2 1.46-.84 3.6-1.68 6.4-2.37 5.44-1.38 13.1-2.25 21.53-2.25zm29.9 9.13v18.54c0 .57-.5 1.37-1.97 2.2-1.46.84-3.6 1.68-6.4 2.37-5.44 1.38-13.1 2.25-21.53 2.25-8.42 0-16.1-.87-21.53-2.24-2.8-.68-4.94-1.52-6.4-2.36-1.46-.83-1.96-1.63-1.96-2.2v-17.98c.5.42 1.02.87 1.72 1.26 5.25 2.74 15.83 4.5 28.18 4.5 8.55 0 16.28-.9 21.98-2.33 2.85-.7 5.13-1.54 6.84-2.53.63-.38.95-1 1.07-1.48z" stroke="#000" stroke-opacity="0" fill="#326ce5"/><path d="M540.72 362.3c0 3.55-1.22 5.34-3.65 5.34-1.53 0-2.56-.6-3.08-1.8h-.05c.02.07.03.6.03 1.62v4h-1.65V359.3c0-1.05-.02-1.74-.06-2.1h1.6l.03.28.03.73.03.65h.04c.3-.62.68-1.08 1.16-1.37.48-.3 1.12-.44 1.9-.44 1.23 0 2.15.42 2.75 1.27.6.84.92 2.17.92 4zm-1.73 0c0-1.4-.2-2.42-.57-3.03-.38-.62-.97-.92-1.78-.92-.66 0-1.17.14-1.54.43-.36.28-.64.72-.83 1.33-.2.6-.3 1.4-.3 2.34 0 1.36.22 2.34.63 2.97.42.65 1.1.97 2.03.97.82 0 1.4-.3 1.78-.93.4-.62.6-1.65.6-3.13zM547.13 367.44h-1.95l-3.6-10.22h1.75l2.2 6.66.62 2.24.32-1.1.36-1.12 2.25-6.68h1.75z" stroke="#000" stroke-opacity="0" fill="#fff"/><path d="M439.77 182.1c-.76.1-1.36.24-1.97.54l-26.3 12.96c-1.44.68-2.42 1.9-2.72 3.5l-6.52 29.16c-.3 1.37-.08 2.73.68 3.94.08.15.15.23.3.38l18.2 23.34c.98 1.3 2.34 1.97 3.93 1.97h29.26c1.6 0 2.95-.7 3.94-1.98l18.18-23.34c1-1.3 1.37-2.8 1-4.4l-6.53-29.1c-.3-1.6-1.3-2.8-2.73-3.48l-26.3-12.96c-.84-.38-1.6-.6-2.43-.53z" stroke="#000" stroke-opacity="0" stroke-width="3.83" fill="#326ce5"/><path d="M439.76 180c-.8.08-1.44.24-2.08.56l-27.76 13.68c-1.52.72-2.56 2-2.88 3.68l-6.88 30.8c-.32 1.44-.08 2.88.72 4.16.08.16.16.24.32.4l19.2 24.64c1.04 1.36 2.48 2.08 4.16 2.08h30.88c1.68 0 3.12-.72 4.16-2.08l19.2-24.64c1.04-1.36 1.44-2.96 1.04-4.56l-6.88-30.8c-.32-1.68-1.36-2.96-2.88-3.68l-27.76-13.68c-.88-.4-1.68-.64-2.56-.56zm0 2.16c.88-.08 1.6.08 2.4.48l26.4 12.96c1.36.72 2.32 1.92 2.72 3.52l6.48 29.12c.32 1.6 0 3.04-.96 4.32l-18.24 23.36c-.96 1.28-2.32 2-3.92 2h-29.28c-1.6 0-2.96-.72-3.92-2l-18.24-23.36c-.08-.08-.16-.24-.24-.4-.8-1.2-1.04-2.48-.72-3.92l6.48-29.12c.4-1.6 1.28-2.8 2.72-3.52l26.4-12.96c.64-.32 1.2-.48 1.92-.56z" stroke="#000" stroke-opacity="0" stroke-width="3.83" fill="#fff"/><path d="M436.02 248.05c0 2.37-.8 3.56-2.44 3.56-1 0-1.7-.38-2.05-1.18h-.03c.02.04.03.4.03 1.08v2.66h-1.1v-8.1c0-.7-.02-1.17-.04-1.4h1.05c0 .02 0 .1.02.18l.03.5v.42h.04c.2-.42.45-.72.77-.92.33-.2.76-.3 1.28-.3.82 0 1.43.3 1.83.85.4.55.62 1.43.62 2.65zm-1.16 0c0-.93-.12-1.6-.37-2-.26-.43-.66-.63-1.2-.63-.44 0-.77.1-1.02.3-.25.17-.43.47-.56.87-.13.4-.2.92-.2 1.55 0 .9.15 1.56.42 1.98.28.42.73.64 1.35.64.54 0 .93-.2 1.18-.62.25-.4.38-1.1.38-2.1zM442.98 248.07c0 1.2-.25 2.08-.76 2.66-.5.6-1.25.88-2.22.88-.96 0-1.7-.3-2.2-.9-.48-.6-.73-1.5-.73-2.63 0-2.35 1-3.53 2.97-3.53 1 0 1.75.3 2.23.87.48.58.7 1.47.7 2.67zm-1.15 0c0-.94-.14-1.63-.4-2.05-.28-.42-.73-.64-1.37-.64-.65 0-1.1.22-1.4.65-.3.44-.43 1.1-.43 2.04 0 .9.14 1.58.42 2.03.3.45.74.67 1.34.67.65 0 1.12-.2 1.4-.65.28-.44.43-1.12.43-2.05zM448.53 250.4c-.2.42-.47.74-.8.93-.35.2-.76.28-1.26.28-.83 0-1.45-.28-1.84-.86-.4-.58-.6-1.46-.6-2.64 0-2.37.82-3.56 2.44-3.56.5 0 .92.1 1.26.3.33.18.6.48.8.9v-3.6h1.1v7.94c0 .7.02 1.18.04 1.4h-1.05c-.02-.06-.03-.22-.04-.47l-.03-.6zm-3.34-2.33c0 .95.12 1.64.36 2.04.25.43.64.64 1.2.64.62 0 1.07-.23 1.35-.67.3-.45.43-1.14.43-2.08 0-.9-.14-1.57-.42-2-.27-.4-.72-.62-1.34-.62-.55 0-.95.2-1.2.64-.24.42-.37 1.1-.37 2.05z" stroke="#000" stroke-opacity="0" fill="#fff"/><path d="M423.94 206.8L440 202l16.06 4.8-16.06 4.8zM423.94 208.64v17.6l14.96 8.55.08-21.56zM456.06 208.64v17.6l-14.96 8.55-.08-21.56z" stroke="#000" stroke-opacity="0" stroke-width="3.77" fill="#fff"/><path d="M464.66 320h-9.32" stroke="#000" stroke-width="2" fill="none"/><path d="M479.93 320l-14.27 4.64v-9.28zM440.07 320l14.27-4.64v9.28z" stroke="#000" stroke-width="2"/><defs><path d="M539-677L361-492V0H169v-1456h192v720l647-720h232L667-813 1285 0h-230" id="r"/><path d="M575-1476c247 0 432 154 429 400-2 161-97 271-213 327 135 56 245 179 247 356 3 257-200 413-463 413-265 0-466-156-463-413 2-176 108-302 243-357-115-56-207-166-209-326-4-246 181-400 429-400zm0 1345c168 0 278-101 278-266 0-161-118-276-280-276-163 0-276 113-276 276 0 167 108 266 278 266zm244-942c0-143-104-251-244-251-146 0-244 102-244 251 0 145 98 248 244 248s244-103 244-248" id="s"/><path d="M538-131c121 0 232-49 232-156 0-50-20-88-56-117-73-60-334-92-420-143-92-55-162-110-162-238 0-190 192-317 400-317 223 0 414 129 413 338H759c0-108-110-186-227-186-119 0-215 53-215 159 0 45 18 78 53 101 76 52 331 90 416 139 98 57 169 115 169 251C955-92 760 20 538 20c-176 0-314-68-386-174-38-55-57-115-57-179h185c6 129 116 202 258 202" id="t"/><g id="a"><use transform="matrix(0.0087890625,0,0,0.0087890625,0,0)" xlink:href="#r"/><use transform="matrix(0.0087890625,0,0,0.0087890625,11.28515625,0)" xlink:href="#s"/><use transform="matrix(0.0087890625,0,0,0.0087890625,21.392578125,0)" xlink:href="#t"/></g><path d="M483-459l28 192 41-173 288-1016h162l281 1016 40 176 31-196 226-996h193L1420 0h-175L945-1061l-23-111-23 111L588 0H413L61-1456h192" id="u"/><path d="M584 20C278 26 81-227 91-551c10-320 175-545 491-551 308-5 503 247 494 573-9 322-175 543-492 549zm-2-970c-208 0-305 185-305 421 0 216 106 398 307 398 211 0 307-186 307-420 0-214-109-399-309-399" id="v"/><path d="M663-916c-163-27-288 18-338 148V0H140v-1082h180l3 125c61-97 147-145 258-145 36 0 63 5 82 14v172" id="w"/><path d="M442-501L326-380V0H141v-1536h185v929c135-169 291-317 436-475h225L566-630 1036 0H819" id="x"/><path d="M599-131c141 0 220-65 285-146l113 88C906-50 770 20 589 20 281 21 93-214 93-545c0-223 93-397 233-485 74-48 154-72 240-72 300 2 449 218 445 537v77H278c0 197 129 357 321 357zm227-509c-3-180-88-310-260-310-170 0-264 140-282 310h542" id="y"/><g id="b"><use transform="matrix(0.0087890625,0,0,0.0087890625,0,0)" xlink:href="#u"/><use transform="matrix(0.0087890625,0,0,0.0087890625,15.697265625,0)" xlink:href="#v"/><use transform="matrix(0.0087890625,0,0,0.0087890625,25.962890625,0)" xlink:href="#w"/><use transform="matrix(0.0087890625,0,0,0.0087890625,32.0537109375,0)" xlink:href="#x"/><use transform="matrix(0.0087890625,0,0,0.0087890625,41.0009765625,0)" xlink:href="#y"/><use transform="matrix(0.0087890625,0,0,0.0087890625,50.537109375,0)" xlink:href="#w"/></g><path d="M631-137c179 0 314-70 314-231 0-71-25-127-75-166s-141-77-272-115c-165-47-285-106-360-175s-112-154-112-255c0-245 231-397 495-397 206 0 369 89 449 218 43 68 65 142 65 223H942c0-184-129-283-321-283-172 0-299 76-301 236 0 59 26 109 76 150s135 78 256 113c205 59 345 116 436 256 35 53 50 119 50 193-2 256-231 398-507 390C333 12 90-129 80-422h193c0 187 160 285 358 285" id="z"/><path d="M456 20C285 20 205-92 206-268v-671H9v-143h197v-262h185v262h202v143H391v671c-9 125 92 149 207 118V0c-49 13-96 20-142 20" id="A"/><path d="M561-1102c238-4 403 126 403 351v498c0 99 13 178 38 237V0H808c-11-21-19-59-26-114C696-25 593 20 474 20c-199 0-368-130-365-320 4-251 214-359 490-356h180v-85c-1-135-86-212-229-212-115 0-232 67-233 171H131c20-205 206-316 430-320zM294-326c0 117 90 185 207 185 122 0 239-75 278-162v-222H634c-227 0-340 66-340 199" id="B"/><path d="M704-1390c-164-38-297 28-288 194v114h231v143H416V0H231v-939H60v-143h171v-111c-12-274 208-416 483-347" id="C"/><path d="M491 20c-241-1-355-148-355-398v-704h185v699c0 164 67 246 200 246 141 0 235-53 282-158v-787h185V0H812l-4-107C736-22 630 20 491 20" id="D"/><path d="M341 0H156v-1536h185V0" id="E"/><g id="c"><use transform="matrix(0.0087890625,0,0,0.0087890625,0,0)" xlink:href="#z"/><use transform="matrix(0.0087890625,0,0,0.0087890625,10.6787109375,0)" xlink:href="#A"/><use transform="matrix(0.0087890625,0,0,0.0087890625,16.55859375,0)" xlink:href="#B"/><use transform="matrix(0.0087890625,0,0,0.0087890625,26.349609375,0)" xlink:href="#A"/><use transform="matrix(0.0087890625,0,0,0.0087890625,32.2294921875,0)" xlink:href="#y"/><use transform="matrix(0.0087890625,0,0,0.0087890625,41.765625,0)" xlink:href="#C"/><use transform="matrix(0.0087890625,0,0,0.0087890625,48.0146484375,0)" xlink:href="#D"/><use transform="matrix(0.0087890625,0,0,0.0087890625,57.9375,0)" xlink:href="#E"/><use transform="matrix(0.0087890625,0,0,0.0087890625,62.3056640625,0)" xlink:href="#z"/><use transform="matrix(0.0087890625,0,0,0.0087890625,72.984375,0)" xlink:href="#y"/><use transform="matrix(0.0087890625,0,0,0.0087890625,82.5205078125,0)" xlink:href="#A"/></g><path d="M729 0H543v-1233l-373 137v-168l530-199h29V0" id="F"/><use transform="matrix(0.0087890625,0,0,0.0087890625,0,0)" xlink:href="#F" id="d"/><path d="M319-664C304-226 428 158 661 357l-38 113c-89-49-172-133-254-248C142-97 71-578 194-1025c67-244 240-513 429-618l38 122c-201 153-330 502-342 857" id="G"/><path d="M688-137c238 0 323-102 359-325h193c-32 297-228 482-552 482-361 0-569-299-569-680 0-197 8-360 73-497 88-186 257-317 513-319 316-2 509 195 535 488h-193c-31-212-118-330-342-330-272 0-397 224-393 523v141c-3 282 115 517 376 517" id="H"/><path d="M330-983l-302-90 46-151 302 112-9-344h153l-10 349 297-110 46 152-307 91 198 271-124 94-186-288-180 281-125-91" id="I"/><g id="e"><use transform="matrix(0.0087890625,0,0,0.0087890625,0,0)" xlink:href="#G"/><use transform="matrix(0.0087890625,0,0,0.0087890625,6.15234375,0)" xlink:href="#H"/><use transform="matrix(0.0087890625,0,0,0.0087890625,17.8681640625,0)" xlink:href="#I"/></g><path d="M1161-1018c0 201-122 330-278 388l342 618V0h-206L703-589H361V0H168v-1456h482c310-2 511 139 511 438zm-193 0c0-187-120-280-313-280H361v552h295c179 3 313-101 312-272" id="J"/><path d="M277-555c0 244 77 420 297 424 127 2 249-93 255-210h175C980-127 805 20 574 20 258 20 81-222 92-562c11-319 164-533 481-540 237-5 426 165 431 392H829c-7-133-115-242-256-240-209 4-296 166-296 395" id="K"/><path d="M38 357C331 141 457-487 337-984c-53-219-157-429-299-546l39-113c190 106 362 378 431 621 75 268 76 597 0 868C440 88 266 365 77 470" id="L"/><g id="f"><use transform="matrix(0.0087890625,0,0,0.0087890625,0,0)" xlink:href="#J"/><use transform="matrix(0.0087890625,0,0,0.0087890625,11.0830078125,0)" xlink:href="#B"/><use transform="matrix(0.0087890625,0,0,0.0087890625,20.8740234375,0)" xlink:href="#K"/><use transform="matrix(0.0087890625,0,0,0.0087890625,30.2958984375,0)" xlink:href="#x"/><use transform="matrix(0.0087890625,0,0,0.0087890625,39.4189453125,0)" xlink:href="#L"/></g><path d="M1216-1011c-1 297-202 441-512 441H361V0H169v-1456h537c297-6 510 164 510 445zm-192 2c1-178-126-288-307-289H361v571h345c196 1 318-92 318-282" id="M"/><path d="M520 20C244 20 95-247 95-550c0-298 151-550 427-552 127 0 227 43 301 130v-564h185V0H838l-9-116C755-25 652 20 520 20zm48-965c-210 0-288 177-288 416 0 218 87 392 286 392 117 0 203-53 257-158v-497c-55-102-140-153-255-153" id="N"/><g id="g"><use transform="matrix(0.0087890625,0,0,0.0087890625,0,0)" xlink:href="#M"/><use transform="matrix(0.0087890625,0,0,0.0087890625,11.2412109375,0)" xlink:href="#v"/><use transform="matrix(0.0087890625,0,0,0.0087890625,21.5068359375,0)" xlink:href="#N"/></g><use transform="matrix(0.0087890625,0,0,0.0087890625,0,0)" xlink:href="#F" id="h"/><path d="M212-179c-10-28-35-45-73-45-59 0-87 40-87 99 0 60 29 101 89 101 43 0 62-24 78-52l27 14C228-24 195 4 139 4 59 4 22-46 18-125c-6-104 99-153 187-111 19 9 31 26 39 46" id="O"/><path d="M141-36C126-15 110 5 73 4 37 3 15-17 15-53c-1-64 63-63 125-63 3-35-9-54-41-54-24 1-41 7-42 31l-33-3c5-37 33-52 76-52 45 0 72 20 72 64v82c-1 20 7 32 28 27v20c-31 9-61-2-59-35zM48-53c0 20 12 33 32 33 41-3 63-29 60-74-43 2-92-5-92 41" id="P"/><path d="M135-143c-3-34-86-38-87 0 15 53 115 12 119 90S17 21 10-45l28-5c4 36 97 45 98 0-10-56-113-15-118-90-4-57 82-63 122-42 12 7 21 19 24 35" id="Q"/><path d="M117-194c89-4 53 116 60 194h-32v-121c0-31-8-49-39-48C34-167 62-67 57 0H25l-1-190h30c1 10-1 24 2 32 11-22 29-35 61-36" id="R"/><path d="M85-194c31 0 48 13 60 33l-1-100h32l1 261h-30c-2-10 0-23-3-31C134-8 116 4 85 4 32 4 16-35 15-94c0-66 23-100 70-100zm9 24c-40 0-46 34-46 75 0 40 6 74 45 74 42 0 51-32 51-76 0-42-9-74-50-73" id="S"/><path d="M114-163C36-179 61-72 57 0H25l-1-190h30c1 12-1 29 2 39 6-27 23-49 58-41v29" id="T"/><g id="i"><use transform="matrix(0.05,0,0,0.05,0,0)" xlink:href="#O"/><use transform="matrix(0.05,0,0,0.05,12.950000000000001,0)" xlink:href="#P"/><use transform="matrix(0.05,0,0,0.05,22.950000000000003,0)" xlink:href="#Q"/><use transform="matrix(0.05,0,0,0.05,31.950000000000003,0)" xlink:href="#Q"/><use transform="matrix(0.05,0,0,0.05,40.95,0)" xlink:href="#P"/><use transform="matrix(0.05,0,0,0.05,50.95,0)" xlink:href="#R"/><use transform="matrix(0.05,0,0,0.05,60.95,0)" xlink:href="#S"/><use transform="matrix(0.05,0,0,0.05,70.95,0)" xlink:href="#T"/><use transform="matrix(0.05,0,0,0.05,76.9,0)" xlink:href="#P"/></g><path d="M206 0h-36l-40-164L89 0H53L-1-190h32L70-26l43-164h34l41 164 42-164h31" id="U"/><path d="M0 4l72-265h28L28 4H0" id="V"/><g id="j"><use transform="matrix(0.05,0,0,0.05,0,0)" xlink:href="#U"/><use transform="matrix(0.05,0,0,0.05,12.950000000000001,0)" xlink:href="#V"/></g><path d="M240 0l2-218c-23 76-54 145-80 218h-23L58-218 59 0H30v-248h44l77 211c21-75 51-140 76-211h43V0h-30" id="W"/><path d="M143 4C61 4 22-44 18-125c-5-107 100-154 193-111 17 8 29 25 37 43l-32 9c-13-25-37-40-76-40-61 0-88 39-88 99 0 61 29 100 91 101 35 0 62-11 79-27v-45h-74v-28h105v86C228-13 192 4 143 4" id="X"/><path d="M127-220V0H93v-220H8v-28h204v28h-85" id="Y"/><g id="k"><use transform="matrix(0.05,0,0,0.05,0,0)" xlink:href="#W"/><use transform="matrix(0.05,0,0,0.05,14.950000000000001,0)" xlink:href="#X"/><use transform="matrix(0.05,0,0,0.05,28.950000000000003,0)" xlink:href="#W"/><use transform="matrix(0.05,0,0,0.05,43.900000000000006,0)" xlink:href="#Y"/></g><path d="M205 0l-28-72H64L36 0H1l101-248h38L239 0h-34zm-38-99l-47-123c-12 45-31 82-46 123h93" id="Z"/><path d="M30-248c87 1 191-15 191 75 0 78-77 80-158 76V0H30v-248zm33 125c57 0 124 11 124-50 0-59-68-47-124-48v98" id="aa"/><path d="M33 0v-248h34V0H33" id="ab"/><g id="l"><use transform="matrix(0.05,0,0,0.05,0,0)" xlink:href="#Z"/><use transform="matrix(0.05,0,0,0.05,12,0)" xlink:href="#aa"/><use transform="matrix(0.05,0,0,0.05,24,0)" xlink:href="#ab"/></g><path d="M59-47c-2 24 18 29 38 22v24C64 9 27 4 27-40v-127H5v-23h24l9-43h21v43h35v23H59v120" id="ac"/><path d="M24-231v-30h32v30H24zM24 0v-190h32V0H24" id="ad"/><path d="M24 0v-261h32V0H24" id="ae"/><g id="m"><use transform="matrix(0.05,0,0,0.05,0,0)" xlink:href="#ac"/><use transform="matrix(0.05,0,0,0.05,5,0)" xlink:href="#P"/><use transform="matrix(0.05,0,0,0.05,15,0)" xlink:href="#ad"/><use transform="matrix(0.05,0,0,0.05,18.95,0)" xlink:href="#ae"/></g><path d="M16-82v-28h88v28H16" id="af"/><path d="M101-234c-31-9-42 10-38 44h38v23H63V0H32v-167H5v-23h27c-7-52 17-82 69-68v24" id="ag"/><g id="n"><use transform="matrix(0.05,0,0,0.05,0,0)" xlink:href="#af"/><use transform="matrix(0.05,0,0,0.05,5.95,0)" xlink:href="#ag"/></g><path d="M179-190L93 31C79 59 56 82 12 73V49c39 6 53-20 64-50L1-190h34L92-34l54-156h33" id="ah"/><path d="M100-194c63 0 86 42 84 106H49c0 40 14 67 53 68 26 1 43-12 49-29l28 8c-11 28-37 45-77 45C44 4 14-33 15-96c1-61 26-98 85-98zm52 81c6-60-76-77-97-28-3 7-6 17-6 28h103" id="ai"/><path d="M210-169c-67 3-38 105-44 169h-31v-121c0-29-5-50-35-48C34-165 62-65 56 0H25l-1-190h30c1 10-1 24 2 32 10-44 99-50 107 0 11-21 27-35 58-36 85-2 47 119 55 194h-31v-121c0-29-5-49-35-48" id="aj"/><path d="M33 0v-38h34V0H33" id="ak"/><path d="M100-194c62-1 85 37 85 99 1 63-27 99-86 99S16-35 15-95c0-66 28-99 85-99zM99-20c44 1 53-31 53-75 0-43-8-75-51-75s-53 32-53 75 10 74 51 75" id="al"/><path d="M177-190C167-65 218 103 67 71c-23-6-38-20-44-43l32-5c15 47 100 32 89-28v-30C133-14 115 1 83 1 29 1 15-40 15-95c0-56 16-97 71-98 29-1 48 16 59 35 1-10 0-23 2-32h30zM94-22c36 0 50-32 50-73 0-42-14-75-50-75-39 0-46 34-46 75s6 73 46 73" id="am"/><g id="o"><use transform="matrix(0.05,0,0,0.05,0,0)" xlink:href="#Q"/><use transform="matrix(0.05,0,0,0.05,9,0)" xlink:href="#ah"/><use transform="matrix(0.05,0,0,0.05,18,0)" xlink:href="#Q"/><use transform="matrix(0.05,0,0,0.05,27,0)" xlink:href="#ac"/><use transform="matrix(0.05,0,0,0.05,32,0)" xlink:href="#ai"/><use transform="matrix(0.05,0,0,0.05,42,0)" xlink:href="#aj"/><use transform="matrix(0.05,0,0,0.05,56.95,0)" xlink:href="#ak"/><use transform="matrix(0.05,0,0,0.05,61.95,0)" xlink:href="#ae"/><use transform="matrix(0.05,0,0,0.05,65.9,0)" xlink:href="#al"/><use transform="matrix(0.05,0,0,0.05,75.9,0)" xlink:href="#am"/></g><g id="p"><use transform="matrix(0.05,0,0,0.05,0,0)" xlink:href="#O"/><use transform="matrix(0.05,0,0,0.05,12.950000000000001,0)" xlink:href="#al"/><use transform="matrix(0.05,0,0,0.05,22.950000000000003,0)" xlink:href="#R"/><use transform="matrix(0.05,0,0,0.05,32.95,0)" xlink:href="#ag"/><use transform="matrix(0.05,0,0,0.05,37.95,0)" xlink:href="#ad"/><use transform="matrix(0.05,0,0,0.05,41.900000000000006,0)" xlink:href="#am"/></g><path d="M160-131c35 5 61 23 61 61C221 17 115-2 30 0v-248c76 3 177-17 177 60 0 33-19 50-47 57zm-97-11c50-1 110 9 110-42 0-47-63-36-110-37v79zm0 115c55-2 124 14 124-45 0-56-70-42-124-44v89" id="an"/><path d="M84 4C-5 8 30-112 23-190h32v120c0 31 7 50 39 49 72-2 45-101 50-169h31l1 190h-30c-1-10 1-25-2-33-11 22-28 36-60 37" id="ao"/><g id="q"><use transform="matrix(0.05,0,0,0.05,0,0)" xlink:href="#an"/><use transform="matrix(0.05,0,0,0.05,12,0)" xlink:href="#ao"/><use transform="matrix(0.05,0,0,0.05,22,0)" xlink:href="#ad"/><use transform="matrix(0.05,0,0,0.05,25.950000000000003,0)" xlink:href="#ae"/><use transform="matrix(0.05,0,0,0.05,29.899999999999995,0)" xlink:href="#S"/><use transform="matrix(0.05,0,0,0.05,39.9,0)" xlink:href="#ai"/><use transform="matrix(0.05,0,0,0.05,49.9,0)" xlink:href="#T"/></g></defs></g></svg>