<svg xmlns="http://www.w3.org/2000/svg" xmlns:xlink="http://www.w3.org/1999/xlink" xmlns:lucid="lucid" width="1620.92" height="4378.53"><g transform="translate(-19.080584099513317 9.78366684694447)" lucid:page-tab-id="31uCTmDvN.bz"><path d="M39.08 12.22c0-1.1.9-2 2-2h1516c1.1 0 2 .9 2 2v776c0 1.1-.9 2-2 2h-1516c-1.1 0-2-.9-2-2z" stroke="#000" fill="#efebe9"/><use xlink:href="#a" transform="matrix(1,0,0,1,55.08058409951332,26.21633315305553) translate(0 16.69921875)"/><use xlink:href="#b" transform="matrix(1,0,0,1,55.08058409951332,26.21633315305553) translate(35.1298828125 16.69921875)"/><path d="M59.08 72.22c0-1.1.9-2 2-2h476c1.1 0 2 .9 2 2v696c0 1.1-.9 2-2 2h-476c-1.1 0-2-.9-2-2z" stroke="#000" fill="#fff3e0"/><use xlink:href="#c" transform="matrix(1,0,0,1,75.08058409951332,86.21633315305553) translate(0 16.69921875)"/><use xlink:href="#d" transform="matrix(1,0,0,1,75.08058409951332,86.21633315305553) translate(58.0166015625 16.69921875)"/><use xlink:href="#e" transform="matrix(1,0,0,1,75.08058409951332,86.21633315305553) translate(102.796875 16.69921875)"/><path d="M559.08 72.22c0-1.1.9-2 2-2h476c1.1 0 2 .9 2 2v696c0 1.1-.9 2-2 2h-476c-1.1 0-2-.9-2-2z" stroke="#000" fill="#fff3e0"/><use xlink:href="#c" transform="matrix(1,0,0,1,575.0805840995133,86.21633315305553) translate(0 16.69921875)"/><use xlink:href="#d" transform="matrix(1,0,0,1,575.0805840995133,86.21633315305553) translate(58.0166015625 16.69921875)"/><use xlink:href="#f" transform="matrix(1,0,0,1,575.0805840995133,86.21633315305553) translate(102.796875 16.69921875)"/><path d="M1059.08 72.22c0-1.1.9-2 2-2h476c1.1 0 2 .9 2 2v696c0 1.1-.9 2-2 2h-476c-1.1 0-2-.9-2-2z" stroke="#000" fill="#fff3e0"/><use xlink:href="#c" transform="matrix(1,0,0,1,1075.0805840995133,86.21633315305553) translate(0 16.69921875)"/><use xlink:href="#d" transform="matrix(1,0,0,1,1075.0805840995133,86.21633315305553) translate(58.0166015625 16.69921875)"/><use xlink:href="#f" transform="matrix(1,0,0,1,1075.0805840995133,86.21633315305553) translate(102.796875 16.69921875)"/><path d="M79.08 142.22c0-1.1.9-2 2-2h436c1.1 0 2 .9 2 2v286c0 1.1-.9 2-2 2h-436c-1.1 0-2-.9-2-2z" stroke="#000" fill="#e1f5fe"/><use xlink:href="#g" transform="matrix(1,0,0,1,95.08058409951335,156.21633315305553) translate(0 16.69921875)"/><use xlink:href="#h" transform="matrix(1,0,0,1,95.08058409951335,156.21633315305553) translate(61.083984375 16.69921875)"/><path d="M579.08 142.22c0-1.1.9-2 2-2h436c1.1 0 2 .9 2 2v286c0 1.1-.9 2-2 2h-436c-1.1 0-2-.9-2-2z" stroke="#000" fill="#e1f5fe"/><use xlink:href="#g" transform="matrix(1,0,0,1,595.0805840995133,156.21633315305553) translate(0 16.69921875)"/><use xlink:href="#h" transform="matrix(1,0,0,1,595.0805840995133,156.21633315305553) translate(61.083984375 16.69921875)"/><path d="M1079.08 142.22c0-1.1.9-2 2-2h436c1.1 0 2 .9 2 2v286c0 1.1-.9 2-2 2h-436c-1.1 0-2-.9-2-2z" stroke="#000" fill="#e1f5fe"/><use xlink:href="#g" transform="matrix(1,0,0,1,1095.0805840995133,156.21633315305553) translate(0 16.69921875)"/><use xlink:href="#h" transform="matrix(1,0,0,1,1095.0805840995133,156.21633315305553) translate(61.083984375 16.69921875)"/><path d="M79.08 452.22c0-1.1.9-2 2-2h436c1.1 0 2 .9 2 2v296c0 1.1-.9 2-2 2h-436c-1.1 0-2-.9-2-2z" stroke="#000" fill="#e1f5fe"/><use xlink:href="#g" transform="matrix(1,0,0,1,95.08058409951335,466.21633315305553) translate(0 16.69921875)"/><use xlink:href="#h" transform="matrix(1,0,0,1,95.08058409951335,466.21633315305553) translate(61.083984375 16.69921875)"/><path d="M579.08 452.22c0-1.1.9-2 2-2h436c1.1 0 2 .9 2 2v296c0 1.1-.9 2-2 2h-436c-1.1 0-2-.9-2-2z" stroke="#000" fill="#e1f5fe"/><use xlink:href="#g" transform="matrix(1,0,0,1,595.0805840995133,466.21633315305553) translate(0 16.69921875)"/><use xlink:href="#h" transform="matrix(1,0,0,1,595.0805840995133,466.21633315305553) translate(61.083984375 16.69921875)"/><path d="M1079.08 452.22c0-1.1.9-2 2-2h436c1.1 0 2 .9 2 2v296c0 1.1-.9 2-2 2h-436c-1.1 0-2-.9-2-2z" stroke="#000" fill="#e1f5fe"/><use xlink:href="#g" transform="matrix(1,0,0,1,1095.0805840995133,466.21633315305553) translate(0 16.69921875)"/><use xlink:href="#h" transform="matrix(1,0,0,1,1095.0805840995133,466.21633315305553) translate(61.083984375 16.69921875)"/><path d="M99.08 192.22c0-1.1.9-2 2-2H998c1.1 0 2 .9 2 2v536c0 1.1-.9 2-2 2H101.08c-1.1 0-2-.9-2-2z" stroke="#000" fill="#e8eaf6" fill-opacity=".5"/><use xlink:href="#i" transform="matrix(1,0,0,1,115.08058409951332,206.21633315305553) translate(0 16.69921875)"/><path d="M178.74 273.38c-1.14.12-2.05.34-2.96.8l-39.44 19.44c-2.16 1.02-3.64 2.84-4.1 5.22l-9.77 43.77c-.46 2.05-.1 4.1 1.02 5.92.1.23.22.34.45.57l27.28 35c1.48 1.93 3.52 2.95 5.9 2.95h43.9c2.38 0 4.42-1.02 5.9-2.95l27.28-35c1.5-1.95 2.06-4.22 1.5-6.6l-9.8-43.66c-.44-2.38-1.92-4.2-4.08-5.22l-39.44-19.44c-1.25-.57-2.4-.9-3.64-.8z" stroke="#000" stroke-opacity="0" stroke-width="0" fill="#326ce5"/><path d="M178.72 270.22c-1.2.12-2.16.36-3.12.84l-41.64 20.52c-2.28 1.08-3.84 3-4.32 5.52l-10.32 46.2c-.48 2.16-.12 4.32 1.08 6.24.12.24.24.36.48.6l28.8 36.96c1.56 2.04 3.72 3.12 6.24 3.12h46.32c2.52 0 4.68-1.08 6.24-3.12l28.8-36.96c1.56-2.04 2.16-4.44 1.56-6.84l-10.32-46.2c-.48-2.52-2.04-4.44-4.32-5.52l-41.64-20.52c-1.32-.6-2.52-.96-3.84-.84zm0 3.12c1.32 0 2.4.24 3.6.84l39.6 19.44c2.04 1.08 3.48 2.88 4.08 5.28l9.72 43.68c.48 2.4 0 4.56-1.44 6.48l-27.36 35.04c-1.44 1.92-3.48 3-5.88 3h-43.92c-2.4 0-4.44-1.08-5.88-3l-27.36-35.04c-.12-.12-.24-.36-.36-.6-1.2-1.8-1.56-3.72-1.08-5.88l9.72-43.68c.6-2.4 1.92-4.2 4.08-5.28l39.6-19.44c.96-.48 1.8-.72 2.88-.84z" stroke="#000" stroke-opacity="0" stroke-width="0" fill="#fff"/><path d="M155 312.82l24.08-7.2 24.1 7.2-24.1 7.2zM155 315.58v26.4l22.43 12.83.12-32.32zM203.17 315.58v26.4l-22.44 12.83-.12-32.32z" stroke="#000" stroke-opacity="0" fill="#fff"/><use xlink:href="#j" transform="matrix(1,0,0,1,89.08058409951332,399.21633315305553) translate(35.074999999999996 14.4)"/><path d="M739.08 212.22c0-1.1.9-2 2-2h196c1.1 0 2 .9 2 2v496c0 1.1-.9 2-2 2h-196c-1.1 0-2-.9-2-2z" stroke="#000" fill="#fce4ec" fill-opacity=".75"/><use xlink:href="#k" transform="matrix(1,0,0,1,755.0805840995133,226.21633315305553) translate(0 16.69921875)"/><use xlink:href="#l" transform="matrix(1,0,0,1,755.0805840995133,226.21633315305553) translate(43.875 16.69921875)"/><path d="M928.9 191.8c-.56.06-1 .17-1.47.4l-19.72 9.72c-1.07.5-1.8 1.42-2.04 2.6l-4.9 21.9c-.2 1.02-.04 2.04.53 2.95.04.1.1.17.2.28l13.65 17.5c.74.97 1.77 1.5 2.96 1.5h21.95c1.2 0 2.22-.53 2.96-1.5l13.65-17.5c.74-.96 1.02-2.1.74-3.3l-4.9-21.82c-.23-1.2-.97-2.1-2.05-2.6l-19.72-9.73c-.63-.3-1.2-.46-1.82-.4z" stroke="#000" stroke-opacity="0" stroke-width="3.83" fill="#326ce5"/><path d="M928.9 190.22c-.6.06-1.08.18-1.56.42l-20.82 10.26c-1.14.54-1.92 1.5-2.16 2.76l-5.16 23.1c-.24 1.08-.06 2.16.54 3.12.06.12.12.18.24.3l14.4 18.48c.78 1.02 1.86 1.56 3.12 1.56h23.16c1.26 0 2.34-.54 3.12-1.56l14.4-18.48c.78-1.02 1.08-2.22.78-3.42l-5.16-23.1c-.24-1.26-1.02-2.22-2.16-2.76l-20.82-10.26c-.66-.3-1.26-.48-1.92-.42zm0 1.62c.66-.06 1.2.06 1.8.36l19.8 9.72c1.02.54 1.74 1.44 2.04 2.64l4.86 21.84c.24 1.2 0 2.28-.72 3.24L943 247.16c-.72.96-1.74 1.5-2.94 1.5H918.1c-1.2 0-2.22-.54-2.94-1.5l-13.68-17.52c-.06-.06-.12-.18-.18-.3-.6-.9-.78-1.86-.54-2.94l4.86-21.84c.3-1.2.96-2.1 2.04-2.64l19.8-9.72c.48-.24.9-.36 1.44-.42z" stroke="#000" stroke-opacity="0" stroke-width="3.83" fill="#fff"/><path d="M922.47 207.52v2.56h1.76v-1.65h3.63v-1.82h-4.5c-.73 0-.9.25-.9.92zm8.9.9h7.05v-1.8h-7.04zm10.57 0h2.23v3.15h1.76v-4.05c0-.72-.37-.9-.9-.9h-3.1zm-19.47 6.2v6.35h1.76v-7.26h-1.76zm21.7 1.5v6.35h1.76v-7.27h-1.76zm-19.5 8.02h7.04v-1.82h-7.03zm14.57 0h3.03v-1.82h-3.03z" stroke="#000" stroke-opacity="0" stroke-width="3.77" fill="#fff"/><path d="M917.35 212.36v3.3h1.76v-2.4h2.94v-1.8h-3.8c-.73 0-.9.23-.9.9zm8.24.9h7v-1.8h-7zm10.52 0h2.93v2.43h1.76v-3.34c0-.56-.22-.93-.86-.9h-3.82zm-18.77 6.93v6.34h1.76v-7.26h-1.75zm21.7.03v6.34h1.76v-7.25h-1.75zm-18.8 8.74h7.05v-1.8h-7.04zm10.57 0h7.04v-1.8h-7.04z" stroke="#000" stroke-opacity="0" stroke-width="3.77" fill="#fff"/><path d="M912.23 232.94V216.3h22.46c.7 0 1 .6 1 1.04l-.02 15.57c-.02.6-.5.93-.96.92h-21.6c-.4 0-.9-.34-.9-.88z" stroke="#000" stroke-opacity="0" stroke-width="3.77" fill="#fff"/><path d="M923.8 217.87c-2.57 0-4.9.3-6.66.8-.87.27-1.6.58-2.2.98-.6.4-1.1 1-1.1 1.8v7.2c0 .8.5 1.38 1.1 1.8.6.4 1.33.7 2.2.96 1.76.53 4.1.83 6.66.83 2.56 0 4.9-.3 6.65-.82.87-.25 1.6-.55 2.2-.96.6-.4 1.1-.98 1.1-1.78v-7.2c0-.82-.5-1.4-1.1-1.8-.6-.4-1.33-.72-2.2-.98-1.76-.5-4.1-.8-6.65-.8zm0 1.8c2.43 0 4.64.3 6.17.76.78.23 1.35.5 1.7.73.33.23.33.35.33.3 0-.08 0 .03-.34.28-.34.23-.9.48-1.7.7-1.52.46-3.73.76-6.16.76s-4.65-.3-6.18-.75c-.78-.23-1.35-.48-1.7-.7-.33-.26-.33-.37-.33-.3 0 .06 0-.06.33-.3.34-.22.9-.5 1.7-.72 1.52-.45 3.74-.75 6.17-.75zm-8.2 3.85c.47.24.93.5 1.54.68 1.76.52 4.1.82 6.66.82 2.56 0 4.9-.3 6.65-.82.6-.18 1.07-.44 1.55-.68v5.14c0-.06 0 .05-.34.28-.34.23-.9.5-1.7.72-1.52.46-3.73.76-6.16.76s-4.65-.3-6.18-.76c-.78-.22-1.35-.5-1.7-.72-.33-.23-.33-.34-.33-.28z" stroke="#000" stroke-opacity="0" stroke-width="3.77" fill="#326ce5"/><use xlink:href="#m" transform="matrix(1,0,0,1,869.0805840995133,259.21633315305553) translate(16.525 14.4)"/><path d="M838.74 543.38c-1.14.12-2.05.34-2.96.8l-39.44 19.44c-2.16 1.02-3.64 2.84-4.1 5.22l-9.77 43.77c-.46 2.05-.1 4.1 1.02 5.92.1.23.22.34.45.57l27.28 35c1.48 1.93 3.52 2.95 5.9 2.95h43.9c2.38 0 4.42-1.02 5.9-2.95l27.28-35c1.5-1.95 2.06-4.22 1.5-6.6l-9.8-43.66c-.44-2.38-1.92-4.2-4.08-5.22l-39.44-19.44c-1.25-.57-2.4-.9-3.64-.8z" stroke="#000" stroke-opacity="0" stroke-width="0" fill="#19967d"/><path d="M838.72 540.22c-1.2.12-2.16.36-3.12.84l-41.64 20.52c-2.28 1.08-3.84 3-4.32 5.52l-10.32 46.2c-.48 2.16-.12 4.32 1.08 6.24.12.24.24.36.48.6l28.8 36.96c1.56 2.04 3.72 3.12 6.24 3.12h46.32c2.52 0 4.68-1.08 6.24-3.12l28.8-36.96c1.56-2.04 2.16-4.44 1.56-6.84l-10.32-46.2c-.48-2.52-2.04-4.44-4.32-5.52l-41.64-20.52c-1.32-.6-2.52-.96-3.84-.84zm0 3.12c1.32 0 2.4.24 3.6.84l39.6 19.44c2.04 1.08 3.48 2.88 4.08 5.28l9.72 43.68c.48 2.4 0 4.56-1.44 6.48l-27.36 35.04c-1.44 1.92-3.48 3-5.88 3h-43.92c-2.4 0-4.44-1.08-5.88-3l-27.36-35.04c-.12-.12-.24-.36-.36-.6-1.2-1.8-1.56-3.72-1.08-5.88l9.72-43.68c.6-2.4 1.92-4.2 4.08-5.28l39.6-19.44c.96-.48 1.8-.72 2.88-.84z" stroke="#000" stroke-opacity="0" stroke-width="0" fill="#fff"/><path d="M815 582.82l24.08-7.2 24.1 7.2-24.1 7.2zM815 585.58v26.4l22.43 12.83.12-32.32zM863.17 585.58v26.4l-22.44 12.83-.12-32.32z" stroke="#000" stroke-opacity="0" fill="#fff"/><use xlink:href="#n" transform="matrix(1,0,0,1,749.0805840995133,669.2163331530555) translate(48.55 14.4)"/><use xlink:href="#o" transform="matrix(1,0,0,1,749.0805840995133,669.2163331530555) translate(73.5 14.4)"/><use xlink:href="#p" transform="matrix(1,0,0,1,749.0805840995133,669.2163331530555) translate(121.45 14.4)"/><path d="M838.74 273.38c-1.14.12-2.05.34-2.96.8l-39.44 19.44c-2.16 1.02-3.64 2.84-4.1 5.22l-9.77 43.77c-.46 2.05-.1 4.1 1.02 5.92.1.23.22.34.45.57l27.28 35c1.48 1.93 3.52 2.95 5.9 2.95h43.9c2.38 0 4.42-1.02 5.9-2.95l27.28-35c1.5-1.95 2.06-4.22 1.5-6.6l-9.8-43.66c-.44-2.38-1.92-4.2-4.08-5.22l-39.44-19.44c-1.25-.57-2.4-.9-3.64-.8z" stroke="#000" stroke-opacity="0" stroke-width="0" fill="#3aa6dd"/><path d="M838.72 270.22c-1.2.12-2.16.36-3.12.84l-41.64 20.52c-2.28 1.08-3.84 3-4.32 5.52l-10.32 46.2c-.48 2.16-.12 4.32 1.08 6.24.12.24.24.36.48.6l28.8 36.96c1.56 2.04 3.72 3.12 6.24 3.12h46.32c2.52 0 4.68-1.08 6.24-3.12l28.8-36.96c1.56-2.04 2.16-4.44 1.56-6.84l-10.32-46.2c-.48-2.52-2.04-4.44-4.32-5.52l-41.64-20.52c-1.32-.6-2.52-.96-3.84-.84zm0 3.12c1.32 0 2.4.24 3.6.84l39.6 19.44c2.04 1.08 3.48 2.88 4.08 5.28l9.72 43.68c.48 2.4 0 4.56-1.44 6.48l-27.36 35.04c-1.44 1.92-3.48 3-5.88 3h-43.92c-2.4 0-4.44-1.08-5.88-3l-27.36-35.04c-.12-.12-.24-.36-.36-.6-1.2-1.8-1.56-3.72-1.08-5.88l9.72-43.68c.6-2.4 1.92-4.2 4.08-5.28l39.6-19.44c.96-.48 1.8-.72 2.88-.84z" stroke="#000" stroke-opacity="0" stroke-width="0" fill="#fff"/><path d="M815 312.82l24.08-7.2 24.1 7.2-24.1 7.2zM815 315.58v26.4l22.43 12.83.12-32.32zM863.17 315.58v26.4l-22.44 12.83-.12-32.32z" stroke="#000" stroke-opacity="0" fill="#fff"/><use xlink:href="#q" transform="matrix(1,0,0,1,749.0805840995133,399.21633315305553) translate(24.549999999999997 14.4)"/><use xlink:href="#o" transform="matrix(1,0,0,1,749.0805840995133,399.21633315305553) translate(97.5 14.4)"/><use xlink:href="#r" transform="matrix(1,0,0,1,749.0805840995133,399.21633315305553) translate(145.45 14.4)"/><path d="M279.08 212.22c0-1.1.9-2 2-2h196c1.1 0 2 .9 2 2v496c0 1.1-.9 2-2 2h-196c-1.1 0-2-.9-2-2z" stroke="#000" fill="#fce4ec" fill-opacity=".75"/><use xlink:href="#k" transform="matrix(1,0,0,1,295.0805840995133,226.21633315305553) translate(0 16.69921875)"/><use xlink:href="#s" transform="matrix(1,0,0,1,295.0805840995133,226.21633315305553) translate(43.875 16.69921875)"/><path d="M468.9 191.8c-.56.06-1 .17-1.47.4l-19.72 9.72c-1.07.5-1.8 1.42-2.04 2.6l-4.9 21.9c-.2 1.02-.04 2.04.53 2.95.04.1.1.17.2.28l13.65 17.5c.74.97 1.77 1.5 2.96 1.5h21.95c1.2 0 2.22-.53 2.96-1.5l13.65-17.5c.74-.96 1.02-2.1.74-3.3l-4.9-21.82c-.23-1.2-.97-2.1-2.05-2.6l-19.72-9.73c-.63-.3-1.2-.46-1.82-.4z" stroke="#000" stroke-opacity="0" stroke-width="3.83" fill="#326ce5"/><path d="M468.9 190.22c-.6.06-1.08.18-1.56.42l-20.82 10.26c-1.14.54-1.92 1.5-2.16 2.76l-5.16 23.1c-.24 1.08-.06 2.16.54 3.12.06.12.12.18.24.3l14.4 18.48c.78 1.02 1.86 1.56 3.12 1.56h23.16c1.26 0 2.34-.54 3.12-1.56l14.4-18.48c.78-1.02 1.08-2.22.78-3.42l-5.16-23.1c-.24-1.26-1.02-2.22-2.16-2.76l-20.82-10.26c-.66-.3-1.26-.48-1.92-.42zm0 1.62c.66-.06 1.2.06 1.8.36l19.8 9.72c1.02.54 1.74 1.44 2.04 2.64l4.86 21.84c.24 1.2 0 2.28-.72 3.24L483 247.16c-.72.96-1.74 1.5-2.94 1.5H458.1c-1.2 0-2.22-.54-2.94-1.5l-13.68-17.52c-.06-.06-.12-.18-.18-.3-.6-.9-.78-1.86-.54-2.94l4.86-21.84c.3-1.2.96-2.1 2.04-2.64l19.8-9.72c.48-.24.9-.36 1.44-.42z" stroke="#000" stroke-opacity="0" stroke-width="3.83" fill="#fff"/><path d="M462.47 207.52v2.56h1.76v-1.65h3.63v-1.82h-4.5c-.73 0-.9.25-.9.92zm8.9.9h7.05v-1.8h-7.04zm10.57 0h2.23v3.15h1.76v-4.05c0-.72-.37-.9-.9-.9h-3.1zm-19.47 6.2v6.35h1.76v-7.26h-1.76zm21.7 1.5v6.35h1.76v-7.27h-1.76zm-19.5 8.02h7.04v-1.82h-7.03zm14.57 0h3.03v-1.82h-3.03z" stroke="#000" stroke-opacity="0" stroke-width="3.77" fill="#fff"/><path d="M457.35 212.36v3.3h1.76v-2.4h2.94v-1.8h-3.8c-.73 0-.9.23-.9.9zm8.24.9h7v-1.8h-7zm10.52 0h2.93v2.43h1.76v-3.34c0-.56-.22-.93-.86-.9h-3.82zm-18.77 6.93v6.34h1.76v-7.26h-1.75zm21.7.03v6.34h1.76v-7.25h-1.75zm-18.8 8.74h7.05v-1.8h-7.04zm10.57 0h7.04v-1.8h-7.04z" stroke="#000" stroke-opacity="0" stroke-width="3.77" fill="#fff"/><path d="M452.23 232.94V216.3h22.46c.7 0 1 .6 1 1.04l-.02 15.57c-.02.6-.5.93-.96.92h-21.6c-.4 0-.9-.34-.9-.88z" stroke="#000" stroke-opacity="0" stroke-width="3.77" fill="#fff"/><path d="M463.8 217.87c-2.57 0-4.9.3-6.66.8-.87.27-1.6.58-2.2.98-.6.4-1.1 1-1.1 1.8v7.2c0 .8.5 1.38 1.1 1.8.6.4 1.33.7 2.2.96 1.76.53 4.1.83 6.66.83 2.56 0 4.9-.3 6.65-.82.87-.25 1.6-.55 2.2-.96.6-.4 1.1-.98 1.1-1.78v-7.2c0-.82-.5-1.4-1.1-1.8-.6-.4-1.33-.72-2.2-.98-1.76-.5-4.1-.8-6.65-.8zm0 1.8c2.43 0 4.64.3 6.17.76.78.23 1.35.5 1.7.73.33.23.33.35.33.3 0-.08 0 .03-.34.28-.34.23-.9.48-1.7.7-1.52.46-3.73.76-6.16.76s-4.65-.3-6.18-.75c-.78-.23-1.35-.48-1.7-.7-.33-.26-.33-.37-.33-.3 0 .06 0-.06.33-.3.34-.22.9-.5 1.7-.72 1.52-.45 3.74-.75 6.17-.75zm-8.2 3.85c.47.24.93.5 1.54.68 1.76.52 4.1.82 6.66.82 2.56 0 4.9-.3 6.65-.82.6-.18 1.07-.44 1.55-.68v5.14c0-.06 0 .05-.34.28-.34.23-.9.5-1.7.72-1.52.46-3.73.76-6.16.76s-4.65-.3-6.18-.76c-.78-.22-1.35-.5-1.7-.72-.33-.23-.33-.34-.33-.28z" stroke="#000" stroke-opacity="0" stroke-width="3.77" fill="#326ce5"/><use xlink:href="#m" transform="matrix(1,0,0,1,409.0805840995133,259.21633315305553) translate(16.525 14.4)"/><path d="M378.74 543.38c-1.14.12-2.05.34-2.96.8l-39.44 19.44c-2.16 1.02-3.64 2.84-4.1 5.22l-9.77 43.77c-.46 2.05-.1 4.1 1.02 5.92.1.23.22.34.45.57l27.28 35c1.48 1.93 3.52 2.95 5.9 2.95h43.9c2.38 0 4.42-1.02 5.9-2.95l27.28-35c1.5-1.95 2.06-4.22 1.5-6.6l-9.8-43.66c-.44-2.38-1.92-4.2-4.08-5.22l-39.44-19.44c-1.25-.57-2.4-.9-3.64-.8z" stroke="#000" stroke-opacity="0" stroke-width="0" fill="#19967d"/><path d="M378.72 540.22c-1.2.12-2.16.36-3.12.84l-41.64 20.52c-2.28 1.08-3.84 3-4.32 5.52l-10.32 46.2c-.48 2.16-.12 4.32 1.08 6.24.12.24.24.36.48.6l28.8 36.96c1.56 2.04 3.72 3.12 6.24 3.12h46.32c2.52 0 4.68-1.08 6.24-3.12l28.8-36.96c1.56-2.04 2.16-4.44 1.56-6.84l-10.32-46.2c-.48-2.52-2.04-4.44-4.32-5.52l-41.64-20.52c-1.32-.6-2.52-.96-3.84-.84zm0 3.12c1.32 0 2.4.24 3.6.84l39.6 19.44c2.04 1.08 3.48 2.88 4.08 5.28l9.72 43.68c.48 2.4 0 4.56-1.44 6.48l-27.36 35.04c-1.44 1.92-3.48 3-5.88 3h-43.92c-2.4 0-4.44-1.08-5.88-3l-27.36-35.04c-.12-.12-.24-.36-.36-.6-1.2-1.8-1.56-3.72-1.08-5.88l9.72-43.68c.6-2.4 1.92-4.2 4.08-5.28l39.6-19.44c.96-.48 1.8-.72 2.88-.84z" stroke="#000" stroke-opacity="0" stroke-width="0" fill="#fff"/><path d="M355 582.82l24.08-7.2 24.1 7.2-24.1 7.2zM355 585.58v26.4l22.43 12.83.12-32.32zM403.17 585.58v26.4l-22.44 12.83-.12-32.32z" stroke="#000" stroke-opacity="0" fill="#fff"/><use xlink:href="#n" transform="matrix(1,0,0,1,289.0805840995133,669.2163331530555) translate(48.55 14.4)"/><use xlink:href="#o" transform="matrix(1,0,0,1,289.0805840995133,669.2163331530555) translate(73.5 14.4)"/><use xlink:href="#r" transform="matrix(1,0,0,1,289.0805840995133,669.2163331530555) translate(121.45 14.4)"/><path d="M1259.08 212.22c0-1.1.9-2 2-2h196c1.1 0 2 .9 2 2v496c0 1.1-.9 2-2 2h-196c-1.1 0-2-.9-2-2z" stroke="#000" fill="#fce4ec" fill-opacity=".75"/><use xlink:href="#k" transform="matrix(1,0,0,1,1275.0805840995133,226.21633315305553) translate(0 16.69921875)"/><use xlink:href="#s" transform="matrix(1,0,0,1,1275.0805840995133,226.21633315305553) translate(43.875 16.69921875)"/><path d="M1358.74 543.38c-1.14.12-2.05.34-2.96.8l-39.44 19.44c-2.16 1.02-3.64 2.84-4.1 5.22l-9.77 43.77c-.46 2.05-.1 4.1 1.02 5.92.1.23.22.34.45.57l27.28 35c1.48 1.93 3.52 2.95 5.9 2.95h43.9c2.38 0 4.42-1.02 5.9-2.95l27.28-35c1.5-1.95 2.06-4.22 1.5-6.6l-9.8-43.66c-.44-2.38-1.92-4.2-4.08-5.22l-39.44-19.44c-1.25-.57-2.4-.9-3.64-.8z" stroke="#000" stroke-opacity="0" stroke-width="0" fill="#19967d"/><path d="M1358.72 540.22c-1.2.12-2.16.36-3.12.84l-41.64 20.52c-2.28 1.08-3.84 3-4.32 5.52l-10.32 46.2c-.48 2.16-.12 4.32 1.08 6.24.12.24.24.36.48.6l28.8 36.96c1.56 2.04 3.72 3.12 6.24 3.12h46.32c2.52 0 4.68-1.08 6.24-3.12l28.8-36.96c1.56-2.04 2.16-4.44 1.56-6.84l-10.32-46.2c-.48-2.52-2.04-4.44-4.32-5.52l-41.64-20.52c-1.32-.6-2.52-.96-3.84-.84zm0 3.12c1.32 0 2.4.24 3.6.84l39.6 19.44c2.04 1.08 3.48 2.88 4.08 5.28l9.72 43.68c.48 2.4 0 4.56-1.44 6.48l-27.36 35.04c-1.44 1.92-3.48 3-5.88 3h-43.92c-2.4 0-4.44-1.08-5.88-3l-27.36-35.04c-.12-.12-.24-.36-.36-.6-1.2-1.8-1.56-3.72-1.08-5.88l9.72-43.68c.6-2.4 1.92-4.2 4.08-5.28l39.6-19.44c.96-.48 1.8-.72 2.88-.84z" stroke="#000" stroke-opacity="0" stroke-width="0" fill="#fff"/><path d="M1335 582.82l24.08-7.2 24.1 7.2-24.1 7.2zM1335 585.58v26.4l22.43 12.83.12-32.32zM1383.17 585.58v26.4l-22.44 12.83-.12-32.32z" stroke="#000" stroke-opacity="0" fill="#fff"/><use xlink:href="#n" transform="matrix(1,0,0,1,1269.0805840995133,669.2163331530555) translate(48.55 14.4)"/><use xlink:href="#o" transform="matrix(1,0,0,1,1269.0805840995133,669.2163331530555) translate(73.5 14.4)"/><use xlink:href="#t" transform="matrix(1,0,0,1,1269.0805840995133,669.2163331530555) translate(121.45 14.4)"/><path d="M1358.74 273.38c-1.14.12-2.05.34-2.96.8l-39.44 19.44c-2.16 1.02-3.64 2.84-4.1 5.22l-9.77 43.77c-.46 2.05-.1 4.1 1.02 5.92.1.23.22.34.45.57l27.28 35c1.48 1.93 3.52 2.95 5.9 2.95h43.9c2.38 0 4.42-1.02 5.9-2.95l27.28-35c1.5-1.95 2.06-4.22 1.5-6.6l-9.8-43.66c-.44-2.38-1.92-4.2-4.08-5.22l-39.44-19.44c-1.25-.57-2.4-.9-3.64-.8z" stroke="#000" stroke-opacity="0" stroke-width="0" fill="#3aa6dd"/><path d="M1358.72 270.22c-1.2.12-2.16.36-3.12.84l-41.64 20.52c-2.28 1.08-3.84 3-4.32 5.52l-10.32 46.2c-.48 2.16-.12 4.32 1.08 6.24.12.24.24.36.48.6l28.8 36.96c1.56 2.04 3.72 3.12 6.24 3.12h46.32c2.52 0 4.68-1.08 6.24-3.12l28.8-36.96c1.56-2.04 2.16-4.44 1.56-6.84l-10.32-46.2c-.48-2.52-2.04-4.44-4.32-5.52l-41.64-20.52c-1.32-.6-2.52-.96-3.84-.84zm0 3.12c1.32 0 2.4.24 3.6.84l39.6 19.44c2.04 1.08 3.48 2.88 4.08 5.28l9.72 43.68c.48 2.4 0 4.56-1.44 6.48l-27.36 35.04c-1.44 1.92-3.48 3-5.88 3h-43.92c-2.4 0-4.44-1.08-5.88-3l-27.36-35.04c-.12-.12-.24-.36-.36-.6-1.2-1.8-1.56-3.72-1.08-5.88l9.72-43.68c.6-2.4 1.92-4.2 4.08-5.28l39.6-19.44c.96-.48 1.8-.72 2.88-.84z" stroke="#000" stroke-opacity="0" stroke-width="0" fill="#fff"/><path d="M1335 312.82l24.08-7.2 24.1 7.2-24.1 7.2zM1335 315.58v26.4l22.43 12.83.12-32.32zM1383.17 315.58v26.4l-22.44 12.83-.12-32.32z" stroke="#000" stroke-opacity="0" fill="#fff"/><use xlink:href="#q" transform="matrix(1,0,0,1,1269.0805840995133,399.21633315305553) translate(24.549999999999997 14.4)"/><use xlink:href="#o" transform="matrix(1,0,0,1,1269.0805840995133,399.21633315305553) translate(97.5 14.4)"/><use xlink:href="#p" transform="matrix(1,0,0,1,1269.0805840995133,399.21633315305553) translate(145.45 14.4)"/><path d="M648.9 521.8c-.56.05-1 .16-1.47.4l-19.72 9.7c-1.07.52-1.8 1.43-2.04 2.63l-4.9 21.88c-.2 1.03-.04 2.05.53 2.96.04.12.1.17.2.3l13.65 17.5c.74.96 1.77 1.47 2.96 1.47h21.95c1.2 0 2.22-.5 2.96-1.48l13.65-17.5c.74-.97 1.02-2.1.74-3.3l-4.9-21.82c-.23-1.2-.97-2.1-2.05-2.62l-19.72-9.7c-.63-.3-1.2-.46-1.82-.4z" stroke="#000" stroke-opacity="0" stroke-width="3.83" fill="#326ce5"/><path d="M648.9 520.22c-.6.06-1.08.18-1.56.42l-20.82 10.26c-1.14.54-1.92 1.5-2.16 2.76l-5.16 23.1c-.24 1.08-.06 2.16.54 3.12.06.12.12.18.24.3l14.4 18.48c.78 1.02 1.86 1.56 3.12 1.56h23.16c1.26 0 2.34-.54 3.12-1.56l14.4-18.48c.78-1.02 1.08-2.22.78-3.48l-5.16-23.04c-.24-1.26-1.02-2.22-2.16-2.76l-20.82-10.26c-.66-.3-1.26-.48-1.92-.42zm0 1.62c.66-.06 1.2.06 1.8.36l19.8 9.72c1.02.54 1.74 1.44 2.04 2.64l4.86 21.84c.24 1.2 0 2.28-.72 3.24L663 577.16c-.72.96-1.74 1.5-2.94 1.5H638.1c-1.2 0-2.22-.54-2.94-1.5l-13.68-17.52c-.06-.06-.12-.18-.18-.3-.6-.9-.78-1.86-.54-2.94l4.86-21.84c.3-1.2.96-2.1 2.04-2.64l19.8-9.72c.48-.24.9-.36 1.44-.36z" stroke="#000" stroke-opacity="0" stroke-width="3.83" fill="#fff"/><path d="M646.3 572.4c0 .48-.18.85-.54 1.12-.35.26-.84.4-1.48.4-.6 0-1.1-.12-1.43-.32-.33-.2-.55-.54-.65-1l.73-.13c.07.27.22.47.43.6.23.13.53.2.92.2.42 0 .73-.07.92-.2.2-.14.3-.34.3-.6 0-.2-.07-.37-.2-.5-.14-.12-.36-.22-.66-.3l-.6-.17c-.46-.12-.8-.24-1-.37-.2-.12-.36-.27-.47-.44-.1-.18-.17-.4-.17-.64 0-.47.16-.82.48-1.07.33-.26.8-.38 1.4-.38.56 0 1 .1 1.32.3.32.2.52.52.6.96l-.74.1c-.04-.24-.16-.4-.36-.53-.2-.12-.47-.18-.8-.18-.38 0-.66.06-.83.17-.18.12-.27.3-.27.53 0 .14.04.27.1.36.1.1.2.18.33.24.15.07.45.16.9.27.45.1.77.22.96.32.18.1.33.2.44.32.1.1.2.25.27.4.07.15.1.33.1.52zM649.44 573.8h-.98l-1.8-5.1h.88l1.1 3.32.3 1.12.17-.55.2-.57 1.12-3.33h.87zM652.58 571.24c0 .68.1 1.18.32 1.5.2.34.52.5.94.5.3 0 .53-.08.73-.25.2-.17.32-.42.37-.76l.83.05c-.07.5-.27.88-.6 1.17-.35.3-.78.44-1.3.44-.7 0-1.24-.2-1.6-.66-.37-.46-.55-1.12-.55-1.98 0-.86.18-1.52.55-1.97.37-.46.9-.7 1.58-.7.5 0 .93.15 1.26.42.35.27.56.64.64 1.12l-.84.06c-.05-.28-.16-.5-.33-.67-.18-.17-.42-.25-.74-.25-.44 0-.76.15-.95.44-.2.3-.3.8-.3 1.52z" stroke="#000" stroke-opacity="0" fill="#fff"/><path d="M631.05 554.78h9.67v7h-9.67zM644.24 554.78h9.68v7h-9.68zM657.44 554.78h9.68v7h-9.68zM641.42 534.04h15.32v7h-15.32z" stroke="#000" stroke-opacity="0" stroke-width="3.77" fill="#fff"/><path d="M648.2 541.03V547h-12.3c-.5 0-.9.4-.9.9v6.87h1.76v-5.96h12.32c.5 0 .88-.4.88-.9v-6.87z" stroke="#000" stroke-opacity="0" stroke-width="3.77" fill="#fff"/><path d="M648.2 541.03v6.87c0 .5.4.9.9.9h12.3v5.97h1.75v-6.87c0-.5-.4-.9-.88-.9h-12.32v-5.97z" stroke="#000" stroke-opacity="0" stroke-width="3.77" fill="#fff"/><path d="M648.17 541.03v6.87c0 .1.02.22.06.32v6.55H650v-6.87c0-.1-.03-.2-.07-.3v-6.57z" stroke="#000" stroke-opacity="0" stroke-width="3.77" fill="#fff"/><use xlink:href="#u" transform="matrix(1,0,0,1,589.0805840995133,589.2163331530555) translate(34.5 14.4)"/><path d="M648.9 621.8c-.56.05-1 .16-1.47.4l-19.72 9.7c-1.07.52-1.8 1.43-2.04 2.63l-4.9 21.88c-.2 1.03-.04 2.05.53 2.96.04.12.1.17.2.3l13.65 17.5c.74.96 1.77 1.47 2.96 1.47h21.95c1.2 0 2.22-.5 2.96-1.48l13.65-17.5c.74-.97 1.02-2.1.74-3.3l-4.9-21.82c-.23-1.2-.97-2.1-2.05-2.62l-19.72-9.7c-.63-.3-1.2-.46-1.82-.4z" stroke="#000" stroke-opacity="0" stroke-width="3.83" fill="#326ce5"/><path d="M648.9 620.22c-.6.06-1.08.18-1.56.42l-20.82 10.26c-1.14.54-1.92 1.5-2.16 2.76l-5.16 23.1c-.24 1.08-.06 2.16.54 3.12.06.12.12.18.24.3l14.4 18.48c.78 1.02 1.86 1.56 3.12 1.56h23.16c1.26 0 2.34-.54 3.12-1.56l14.4-18.48c.78-1.02 1.08-2.22.78-3.48l-5.16-23.04c-.24-1.26-1.02-2.22-2.16-2.76l-20.82-10.26c-.66-.3-1.26-.48-1.92-.42zm0 1.62c.66-.06 1.2.06 1.8.36l19.8 9.72c1.02.54 1.74 1.44 2.04 2.64l4.86 21.84c.24 1.2 0 2.28-.72 3.24L663 677.16c-.72.96-1.74 1.5-2.94 1.5H638.1c-1.2 0-2.22-.54-2.94-1.5l-13.68-17.52c-.06-.06-.12-.18-.18-.3-.6-.9-.78-1.86-.54-2.94l4.86-21.84c.3-1.2.96-2.1 2.04-2.64l19.8-9.72c.48-.24.9-.36 1.44-.36z" stroke="#000" stroke-opacity="0" stroke-width="3.83" fill="#fff"/><path d="M646.3 672.4c0 .48-.18.85-.54 1.12-.35.26-.84.4-1.48.4-.6 0-1.1-.12-1.43-.32-.33-.2-.55-.54-.65-1l.73-.13c.07.27.22.47.43.6.23.13.53.2.92.2.42 0 .73-.07.92-.2.2-.14.3-.34.3-.6 0-.2-.07-.37-.2-.5-.14-.12-.36-.22-.66-.3l-.6-.17c-.46-.12-.8-.24-1-.37-.2-.12-.36-.27-.47-.44-.1-.18-.17-.4-.17-.64 0-.47.16-.82.48-1.07.33-.26.8-.38 1.4-.38.56 0 1 .1 1.32.3.32.2.52.52.6.96l-.74.1c-.04-.24-.16-.4-.36-.53-.2-.12-.47-.18-.8-.18-.38 0-.66.06-.83.17-.18.12-.27.3-.27.53 0 .14.04.27.1.36.1.1.2.18.33.24.15.07.45.16.9.27.45.1.77.22.96.32.18.1.33.2.44.32.1.1.2.25.27.4.07.15.1.33.1.52zM649.44 673.8h-.98l-1.8-5.1h.88l1.1 3.32.3 1.12.17-.55.2-.57 1.12-3.33h.87zM652.58 671.24c0 .68.1 1.18.32 1.5.2.34.52.5.94.5.3 0 .53-.08.73-.25.2-.17.32-.42.37-.76l.83.05c-.07.5-.27.88-.6 1.17-.35.3-.78.44-1.3.44-.7 0-1.24-.2-1.6-.66-.37-.46-.55-1.12-.55-1.98 0-.86.18-1.52.55-1.97.37-.46.9-.7 1.58-.7.5 0 .93.15 1.26.42.35.27.56.64.64 1.12l-.84.06c-.05-.28-.16-.5-.33-.67-.18-.17-.42-.25-.74-.25-.44 0-.76.15-.95.44-.2.3-.3.8-.3 1.52z" stroke="#000" stroke-opacity="0" fill="#fff"/><path d="M631.05 654.78h9.67v7h-9.67zM644.24 654.78h9.68v7h-9.68zM657.44 654.78h9.68v7h-9.68zM641.42 634.04h15.32v7h-15.32z" stroke="#000" stroke-opacity="0" stroke-width="3.77" fill="#fff"/><path d="M648.2 641.03V647h-12.3c-.5 0-.9.4-.9.9v6.87h1.76v-5.96h12.32c.5 0 .88-.4.88-.9v-6.87z" stroke="#000" stroke-opacity="0" stroke-width="3.77" fill="#fff"/><path d="M648.2 641.03v6.87c0 .5.4.9.9.9h12.3v5.97h1.75v-6.87c0-.5-.4-.9-.88-.9h-12.32v-5.97z" stroke="#000" stroke-opacity="0" stroke-width="3.77" fill="#fff"/><path d="M648.17 641.03v6.87c0 .1.02.22.06.32v6.55H650v-6.87c0-.1-.03-.2-.07-.3v-6.57z" stroke="#000" stroke-opacity="0" stroke-width="3.77" fill="#fff"/><use xlink:href="#v" transform="matrix(1,0,0,1,589.0805840995133,689.2163331530555) translate(18.574999999999996 14.4)"/><use xlink:href="#w" transform="matrix(1,0,0,1,589.0805840995133,689.2163331530555) translate(49.474999999999994 14.4)"/><path d="M648.9 231.8c-.56.05-1 .16-1.47.4l-19.72 9.7c-1.07.52-1.8 1.43-2.04 2.63l-4.9 21.88c-.2 1.03-.04 2.05.53 2.96.04.12.1.17.2.3l13.65 17.5c.74.96 1.77 1.47 2.96 1.47h21.95c1.2 0 2.22-.5 2.96-1.48l13.65-17.5c.74-.97 1.02-2.1.74-3.3l-4.9-21.82c-.23-1.2-.97-2.1-2.05-2.62l-19.72-9.7c-.63-.3-1.2-.46-1.82-.4z" stroke="#000" stroke-opacity="0" stroke-width="3.83" fill="#326ce5"/><path d="M648.9 230.22c-.6.06-1.08.18-1.56.42l-20.82 10.26c-1.14.54-1.92 1.5-2.16 2.76l-5.16 23.1c-.24 1.08-.06 2.16.54 3.12.06.12.12.18.24.3l14.4 18.48c.78 1.02 1.86 1.56 3.12 1.56h23.16c1.26 0 2.34-.54 3.12-1.56l14.4-18.48c.78-1.02 1.08-2.22.78-3.48l-5.16-23.04c-.24-1.26-1.02-2.22-2.16-2.76l-20.82-10.26c-.66-.3-1.26-.48-1.92-.42zm0 1.62c.66-.06 1.2.06 1.8.36l19.8 9.72c1.02.54 1.74 1.44 2.04 2.64l4.86 21.84c.24 1.2 0 2.28-.72 3.24L663 287.16c-.72.96-1.74 1.5-2.94 1.5H638.1c-1.2 0-2.22-.54-2.94-1.5l-13.68-17.52c-.06-.06-.12-.18-.18-.3-.6-.9-.78-1.86-.54-2.94l4.86-21.84c.3-1.2.96-2.1 2.04-2.64l19.8-9.72c.48-.24.9-.36 1.44-.36z" stroke="#000" stroke-opacity="0" stroke-width="3.83" fill="#fff"/><path d="M646.3 282.4c0 .48-.18.85-.54 1.12-.35.26-.84.4-1.48.4-.6 0-1.1-.12-1.43-.32-.33-.2-.55-.54-.65-1l.73-.13c.07.27.22.47.43.6.23.13.53.2.92.2.42 0 .73-.07.92-.2.2-.14.3-.34.3-.6 0-.2-.07-.37-.2-.5-.14-.12-.36-.22-.66-.3l-.6-.17c-.46-.12-.8-.24-1-.37-.2-.12-.36-.27-.47-.44-.1-.18-.17-.4-.17-.64 0-.47.16-.82.48-1.07.33-.26.8-.38 1.4-.38.56 0 1 .1 1.32.3.32.2.52.52.6.96l-.74.1c-.04-.24-.16-.4-.36-.53-.2-.12-.47-.18-.8-.18-.38 0-.66.06-.83.17-.18.12-.27.3-.27.53 0 .14.04.27.1.36.1.1.2.18.33.24.15.07.45.16.9.27.45.1.77.22.96.32.18.1.33.2.44.32.1.1.2.25.27.4.07.15.1.33.1.52zM649.44 283.8h-.98l-1.8-5.1h.88l1.1 3.32.3 1.12.17-.55.2-.57 1.12-3.33h.87zM652.58 281.24c0 .68.1 1.18.32 1.5.2.34.52.5.94.5.3 0 .53-.08.73-.25.2-.17.32-.42.37-.76l.83.05c-.07.5-.27.88-.6 1.17-.35.3-.78.44-1.3.44-.7 0-1.24-.2-1.6-.66-.37-.46-.55-1.12-.55-1.98 0-.86.18-1.52.55-1.97.37-.46.9-.7 1.58-.7.5 0 .93.15 1.26.42.35.27.56.64.64 1.12l-.84.06c-.05-.28-.16-.5-.33-.67-.18-.17-.42-.25-.74-.25-.44 0-.76.15-.95.44-.2.3-.3.8-.3 1.52z" stroke="#000" stroke-opacity="0" fill="#fff"/><path d="M631.05 264.78h9.67v7h-9.67zM644.24 264.78h9.68v7h-9.68zM657.44 264.78h9.68v7h-9.68zM641.42 244.04h15.32v7h-15.32z" stroke="#000" stroke-opacity="0" stroke-width="3.77" fill="#fff"/><path d="M648.2 251.03V257h-12.3c-.5 0-.9.4-.9.9v6.87h1.76v-5.96h12.32c.5 0 .88-.4.88-.9v-6.87z" stroke="#000" stroke-opacity="0" stroke-width="3.77" fill="#fff"/><path d="M648.2 251.03v6.87c0 .5.4.9.9.9h12.3v5.97h1.75v-6.87c0-.5-.4-.9-.88-.9h-12.32v-5.97z" stroke="#000" stroke-opacity="0" stroke-width="3.77" fill="#fff"/><path d="M648.17 251.03v6.87c0 .1.02.22.06.32v6.55H650v-6.87c0-.1-.03-.2-.07-.3v-6.57z" stroke="#000" stroke-opacity="0" stroke-width="3.77" fill="#fff"/><use xlink:href="#u" transform="matrix(1,0,0,1,589.0805840995133,299.21633315305553) translate(34.5 14.4)"/><path d="M648.9 331.8c-.56.05-1 .16-1.47.4l-19.72 9.7c-1.07.52-1.8 1.43-2.04 2.63l-4.9 21.88c-.2 1.03-.04 2.05.53 2.96.04.12.1.17.2.3l13.65 17.5c.74.96 1.77 1.47 2.96 1.47h21.95c1.2 0 2.22-.5 2.96-1.48l13.65-17.5c.74-.97 1.02-2.1.74-3.3l-4.9-21.82c-.23-1.2-.97-2.1-2.05-2.62l-19.72-9.7c-.63-.3-1.2-.46-1.82-.4z" stroke="#000" stroke-opacity="0" stroke-width="3.83" fill="#326ce5"/><path d="M648.9 330.22c-.6.06-1.08.18-1.56.42l-20.82 10.26c-1.14.54-1.92 1.5-2.16 2.76l-5.16 23.1c-.24 1.08-.06 2.16.54 3.12.06.12.12.18.24.3l14.4 18.48c.78 1.02 1.86 1.56 3.12 1.56h23.16c1.26 0 2.34-.54 3.12-1.56l14.4-18.48c.78-1.02 1.08-2.22.78-3.48l-5.16-23.04c-.24-1.26-1.02-2.22-2.16-2.76l-20.82-10.26c-.66-.3-1.26-.48-1.92-.42zm0 1.62c.66-.06 1.2.06 1.8.36l19.8 9.72c1.02.54 1.74 1.44 2.04 2.64l4.86 21.84c.24 1.2 0 2.28-.72 3.24L663 387.16c-.72.96-1.74 1.5-2.94 1.5H638.1c-1.2 0-2.22-.54-2.94-1.5l-13.68-17.52c-.06-.06-.12-.18-.18-.3-.6-.9-.78-1.86-.54-2.94l4.86-21.84c.3-1.2.96-2.1 2.04-2.64l19.8-9.72c.48-.24.9-.36 1.44-.36z" stroke="#000" stroke-opacity="0" stroke-width="3.83" fill="#fff"/><path d="M646.3 382.4c0 .48-.18.85-.54 1.12-.35.26-.84.4-1.48.4-.6 0-1.1-.12-1.43-.32-.33-.2-.55-.54-.65-1l.73-.13c.07.27.22.47.43.6.23.13.53.2.92.2.42 0 .73-.07.92-.2.2-.14.3-.34.3-.6 0-.2-.07-.37-.2-.5-.14-.12-.36-.22-.66-.3l-.6-.17c-.46-.12-.8-.24-1-.37-.2-.12-.36-.27-.47-.44-.1-.18-.17-.4-.17-.64 0-.47.16-.82.48-1.07.33-.26.8-.38 1.4-.38.56 0 1 .1 1.32.3.32.2.52.52.6.96l-.74.1c-.04-.24-.16-.4-.36-.53-.2-.12-.47-.18-.8-.18-.38 0-.66.06-.83.17-.18.12-.27.3-.27.53 0 .14.04.27.1.36.1.1.2.18.33.24.15.07.45.16.9.27.45.1.77.22.96.32.18.1.33.2.44.32.1.1.2.25.27.4.07.15.1.33.1.52zM649.44 383.8h-.98l-1.8-5.1h.88l1.1 3.32.3 1.12.17-.55.2-.57 1.12-3.33h.87zM652.58 381.24c0 .68.1 1.18.32 1.5.2.34.52.5.94.5.3 0 .53-.08.73-.25.2-.17.32-.42.37-.76l.83.05c-.07.5-.27.88-.6 1.17-.35.3-.78.44-1.3.44-.7 0-1.24-.2-1.6-.66-.37-.46-.55-1.12-.55-1.98 0-.86.18-1.52.55-1.97.37-.46.9-.7 1.58-.7.5 0 .93.15 1.26.42.35.27.56.64.64 1.12l-.84.06c-.05-.28-.16-.5-.33-.67-.18-.17-.42-.25-.74-.25-.44 0-.76.15-.95.44-.2.3-.3.8-.3 1.52z" stroke="#000" stroke-opacity="0" fill="#fff"/><path d="M631.05 364.78h9.67v7h-9.67zM644.24 364.78h9.68v7h-9.68zM657.44 364.78h9.68v7h-9.68zM641.42 344.04h15.32v7h-15.32z" stroke="#000" stroke-opacity="0" stroke-width="3.77" fill="#fff"/><path d="M648.2 351.03V357h-12.3c-.5 0-.9.4-.9.9v6.87h1.76v-5.96h12.32c.5 0 .88-.4.88-.9v-6.87z" stroke="#000" stroke-opacity="0" stroke-width="3.77" fill="#fff"/><path d="M648.2 351.03v6.87c0 .5.4.9.9.9h12.3v5.97h1.75v-6.87c0-.5-.4-.9-.88-.9h-12.32v-5.97z" stroke="#000" stroke-opacity="0" stroke-width="3.77" fill="#fff"/><path d="M648.17 351.03v6.87c0 .1.02.22.06.32v6.55H650v-6.87c0-.1-.03-.2-.07-.3v-6.57z" stroke="#000" stroke-opacity="0" stroke-width="3.77" fill="#fff"/><use xlink:href="#v" transform="matrix(1,0,0,1,589.0805840995133,399.21633315305553) translate(18.574999999999996 14.4)"/><use xlink:href="#w" transform="matrix(1,0,0,1,589.0805840995133,399.21633315305553) translate(49.474999999999994 14.4)"/><path d="M1168.9 231.8c-.56.05-1 .16-1.47.4l-19.72 9.7c-1.07.52-1.8 1.43-2.04 2.63l-4.9 21.88c-.2 1.03-.04 2.05.53 2.96.04.12.1.17.2.3l13.65 17.5c.74.96 1.77 1.47 2.96 1.47h21.95c1.2 0 2.22-.5 2.96-1.48l13.65-17.5c.74-.97 1.02-2.1.74-3.3l-4.9-21.82c-.23-1.2-.97-2.1-2.05-2.62l-19.72-9.7c-.63-.3-1.2-.46-1.82-.4z" stroke="#000" stroke-opacity="0" stroke-width="3.83" fill="#326ce5"/><path d="M1168.9 230.22c-.6.06-1.08.18-1.56.42l-20.82 10.26c-1.14.54-1.92 1.5-2.16 2.76l-5.16 23.1c-.24 1.08-.06 2.16.54 3.12.06.12.12.18.24.3l14.4 18.48c.78 1.02 1.86 1.56 3.12 1.56h23.16c1.26 0 2.34-.54 3.12-1.56l14.4-18.48c.78-1.02 1.08-2.22.78-3.48l-5.16-23.04c-.24-1.26-1.02-2.22-2.16-2.76l-20.82-10.26c-.66-.3-1.26-.48-1.92-.42zm0 1.62c.66-.06 1.2.06 1.8.36l19.8 9.72c1.02.54 1.74 1.44 2.04 2.64l4.86 21.84c.24 1.2 0 2.28-.72 3.24L1183 287.16c-.72.96-1.74 1.5-2.94 1.5h-21.96c-1.2 0-2.22-.54-2.94-1.5l-13.68-17.52c-.06-.06-.12-.18-.18-.3-.6-.9-.78-1.86-.54-2.94l4.86-21.84c.3-1.2.96-2.1 2.04-2.64l19.8-9.72c.48-.24.9-.36 1.44-.36z" stroke="#000" stroke-opacity="0" stroke-width="3.83" fill="#fff"/><path d="M1166.3 282.4c0 .48-.18.85-.54 1.12-.35.26-.84.4-1.48.4-.6 0-1.1-.12-1.43-.32-.33-.2-.55-.54-.65-1l.73-.13c.07.27.22.47.43.6.23.13.53.2.92.2.42 0 .73-.07.92-.2.2-.14.3-.34.3-.6 0-.2-.07-.37-.2-.5-.14-.12-.36-.22-.66-.3l-.6-.17c-.46-.12-.8-.24-1-.37-.2-.12-.36-.27-.47-.44-.1-.18-.17-.4-.17-.64 0-.47.16-.82.48-1.07.33-.26.8-.38 1.4-.38.56 0 1 .1 1.32.3.32.2.52.52.6.96l-.74.1c-.04-.24-.16-.4-.36-.53-.2-.12-.47-.18-.8-.18-.38 0-.66.06-.83.17-.18.12-.27.3-.27.53 0 .14.04.27.1.36.1.1.2.18.33.24.15.07.45.16.9.27.45.1.77.22.96.32.18.1.33.2.44.32.1.1.2.25.27.4.07.15.1.33.1.52zM1169.44 283.8h-.98l-1.8-5.1h.88l1.1 3.32.3 1.12.17-.55.2-.57 1.12-3.33h.87zM1172.58 281.24c0 .68.1 1.18.32 1.5.2.34.52.5.94.5.3 0 .53-.08.73-.25.2-.17.32-.42.37-.76l.83.05c-.07.5-.27.88-.6 1.17-.35.3-.78.44-1.3.44-.7 0-1.24-.2-1.6-.66-.37-.46-.55-1.12-.55-1.98 0-.86.18-1.52.55-1.97.37-.46.9-.7 1.58-.7.5 0 .93.15 1.26.42.35.27.56.64.64 1.12l-.84.06c-.05-.28-.16-.5-.33-.67-.18-.17-.42-.25-.74-.25-.44 0-.76.15-.95.44-.2.3-.3.8-.3 1.52z" stroke="#000" stroke-opacity="0" fill="#fff"/><path d="M1151.05 264.78h9.67v7h-9.67zM1164.24 264.78h9.68v7h-9.68zM1177.44 264.78h9.68v7h-9.68zM1161.42 244.04h15.32v7h-15.32z" stroke="#000" stroke-opacity="0" stroke-width="3.77" fill="#fff"/><path d="M1168.2 251.03V257h-12.3c-.5 0-.9.4-.9.9v6.87h1.76v-5.96h12.32c.5 0 .88-.4.88-.9v-6.87z" stroke="#000" stroke-opacity="0" stroke-width="3.77" fill="#fff"/><path d="M1168.2 251.03v6.87c0 .5.4.9.9.9h12.3v5.97h1.75v-6.87c0-.5-.4-.9-.88-.9h-12.32v-5.97z" stroke="#000" stroke-opacity="0" stroke-width="3.77" fill="#fff"/><path d="M1168.17 251.03v6.87c0 .1.02.22.06.32v6.55h1.76v-6.87c0-.1-.03-.2-.07-.3v-6.57z" stroke="#000" stroke-opacity="0" stroke-width="3.77" fill="#fff"/><use xlink:href="#u" transform="matrix(1,0,0,1,1109.0805840995133,299.21633315305553) translate(34.5 14.4)"/><path d="M1168.9 331.8c-.56.05-1 .16-1.47.4l-19.72 9.7c-1.07.52-1.8 1.43-2.04 2.63l-4.9 21.88c-.2 1.03-.04 2.05.53 2.96.04.12.1.17.2.3l13.65 17.5c.74.96 1.77 1.47 2.96 1.47h21.95c1.2 0 2.22-.5 2.96-1.48l13.65-17.5c.74-.97 1.02-2.1.74-3.3l-4.9-21.82c-.23-1.2-.97-2.1-2.05-2.62l-19.72-9.7c-.63-.3-1.2-.46-1.82-.4z" stroke="#000" stroke-opacity="0" stroke-width="3.83" fill="#326ce5"/><path d="M1168.9 330.22c-.6.06-1.08.18-1.56.42l-20.82 10.26c-1.14.54-1.92 1.5-2.16 2.76l-5.16 23.1c-.24 1.08-.06 2.16.54 3.12.06.12.12.18.24.3l14.4 18.48c.78 1.02 1.86 1.56 3.12 1.56h23.16c1.26 0 2.34-.54 3.12-1.56l14.4-18.48c.78-1.02 1.08-2.22.78-3.48l-5.16-23.04c-.24-1.26-1.02-2.22-2.16-2.76l-20.82-10.26c-.66-.3-1.26-.48-1.92-.42zm0 1.62c.66-.06 1.2.06 1.8.36l19.8 9.72c1.02.54 1.74 1.44 2.04 2.64l4.86 21.84c.24 1.2 0 2.28-.72 3.24L1183 387.16c-.72.96-1.74 1.5-2.94 1.5h-21.96c-1.2 0-2.22-.54-2.94-1.5l-13.68-17.52c-.06-.06-.12-.18-.18-.3-.6-.9-.78-1.86-.54-2.94l4.86-21.84c.3-1.2.96-2.1 2.04-2.64l19.8-9.72c.48-.24.9-.36 1.44-.36z" stroke="#000" stroke-opacity="0" stroke-width="3.83" fill="#fff"/><path d="M1166.3 382.4c0 .48-.18.85-.54 1.12-.35.26-.84.4-1.48.4-.6 0-1.1-.12-1.43-.32-.33-.2-.55-.54-.65-1l.73-.13c.07.27.22.47.43.6.23.13.53.2.92.2.42 0 .73-.07.92-.2.2-.14.3-.34.3-.6 0-.2-.07-.37-.2-.5-.14-.12-.36-.22-.66-.3l-.6-.17c-.46-.12-.8-.24-1-.37-.2-.12-.36-.27-.47-.44-.1-.18-.17-.4-.17-.64 0-.47.16-.82.48-1.07.33-.26.8-.38 1.4-.38.56 0 1 .1 1.32.3.32.2.52.52.6.96l-.74.1c-.04-.24-.16-.4-.36-.53-.2-.12-.47-.18-.8-.18-.38 0-.66.06-.83.17-.18.12-.27.3-.27.53 0 .14.04.27.1.36.1.1.2.18.33.24.15.07.45.16.9.27.45.1.77.22.96.32.18.1.33.2.44.32.1.1.2.25.27.4.07.15.1.33.1.52zM1169.44 383.8h-.98l-1.8-5.1h.88l1.1 3.32.3 1.12.17-.55.2-.57 1.12-3.33h.87zM1172.58 381.24c0 .68.1 1.18.32 1.5.2.34.52.5.94.5.3 0 .53-.08.73-.25.2-.17.32-.42.37-.76l.83.05c-.07.5-.27.88-.6 1.17-.35.3-.78.44-1.3.44-.7 0-1.24-.2-1.6-.66-.37-.46-.55-1.12-.55-1.98 0-.86.18-1.52.55-1.97.37-.46.9-.7 1.58-.7.5 0 .93.15 1.26.42.35.27.56.64.64 1.12l-.84.06c-.05-.28-.16-.5-.33-.67-.18-.17-.42-.25-.74-.25-.44 0-.76.15-.95.44-.2.3-.3.8-.3 1.52z" stroke="#000" stroke-opacity="0" fill="#fff"/><path d="M1151.05 364.78h9.67v7h-9.67zM1164.24 364.78h9.68v7h-9.68zM1177.44 364.78h9.68v7h-9.68zM1161.42 344.04h15.32v7h-15.32z" stroke="#000" stroke-opacity="0" stroke-width="3.77" fill="#fff"/><path d="M1168.2 351.03V357h-12.3c-.5 0-.9.4-.9.9v6.87h1.76v-5.96h12.32c.5 0 .88-.4.88-.9v-6.87z" stroke="#000" stroke-opacity="0" stroke-width="3.77" fill="#fff"/><path d="M1168.2 351.03v6.87c0 .5.4.9.9.9h12.3v5.97h1.75v-6.87c0-.5-.4-.9-.88-.9h-12.32v-5.97z" stroke="#000" stroke-opacity="0" stroke-width="3.77" fill="#fff"/><path d="M1168.17 351.03v6.87c0 .1.02.22.06.32v6.55h1.76v-6.87c0-.1-.03-.2-.07-.3v-6.57z" stroke="#000" stroke-opacity="0" stroke-width="3.77" fill="#fff"/><use xlink:href="#v" transform="matrix(1,0,0,1,1109.0805840995133,399.21633315305553) translate(18.574999999999996 14.4)"/><use xlink:href="#w" transform="matrix(1,0,0,1,1109.0805840995133,399.21633315305553) translate(49.474999999999994 14.4)"/><path d="M1168.9 521.8c-.56.05-1 .16-1.47.4l-19.72 9.7c-1.07.52-1.8 1.43-2.04 2.63l-4.9 21.88c-.2 1.03-.04 2.05.53 2.96.04.12.1.17.2.3l13.65 17.5c.74.96 1.77 1.47 2.96 1.47h21.95c1.2 0 2.22-.5 2.96-1.48l13.65-17.5c.74-.97 1.02-2.1.74-3.3l-4.9-21.82c-.23-1.2-.97-2.1-2.05-2.62l-19.72-9.7c-.63-.3-1.2-.46-1.82-.4z" stroke="#000" stroke-opacity="0" stroke-width="3.83" fill="#326ce5"/><path d="M1168.9 520.22c-.6.06-1.08.18-1.56.42l-20.82 10.26c-1.14.54-1.92 1.5-2.16 2.76l-5.16 23.1c-.24 1.08-.06 2.16.54 3.12.06.12.12.18.24.3l14.4 18.48c.78 1.02 1.86 1.56 3.12 1.56h23.16c1.26 0 2.34-.54 3.12-1.56l14.4-18.48c.78-1.02 1.08-2.22.78-3.48l-5.16-23.04c-.24-1.26-1.02-2.22-2.16-2.76l-20.82-10.26c-.66-.3-1.26-.48-1.92-.42zm0 1.62c.66-.06 1.2.06 1.8.36l19.8 9.72c1.02.54 1.74 1.44 2.04 2.64l4.86 21.84c.24 1.2 0 2.28-.72 3.24L1183 577.16c-.72.96-1.74 1.5-2.94 1.5h-21.96c-1.2 0-2.22-.54-2.94-1.5l-13.68-17.52c-.06-.06-.12-.18-.18-.3-.6-.9-.78-1.86-.54-2.94l4.86-21.84c.3-1.2.96-2.1 2.04-2.64l19.8-9.72c.48-.24.9-.36 1.44-.36z" stroke="#000" stroke-opacity="0" stroke-width="3.83" fill="#fff"/><path d="M1166.3 572.4c0 .48-.18.85-.54 1.12-.35.26-.84.4-1.48.4-.6 0-1.1-.12-1.43-.32-.33-.2-.55-.54-.65-1l.73-.13c.07.27.22.47.43.6.23.13.53.2.92.2.42 0 .73-.07.92-.2.2-.14.3-.34.3-.6 0-.2-.07-.37-.2-.5-.14-.12-.36-.22-.66-.3l-.6-.17c-.46-.12-.8-.24-1-.37-.2-.12-.36-.27-.47-.44-.1-.18-.17-.4-.17-.64 0-.47.16-.82.48-1.07.33-.26.8-.38 1.4-.38.56 0 1 .1 1.32.3.32.2.52.52.6.96l-.74.1c-.04-.24-.16-.4-.36-.53-.2-.12-.47-.18-.8-.18-.38 0-.66.06-.83.17-.18.12-.27.3-.27.53 0 .14.04.27.1.36.1.1.2.18.33.24.15.07.45.16.9.27.45.1.77.22.96.32.18.1.33.2.44.32.1.1.2.25.27.4.07.15.1.33.1.52zM1169.44 573.8h-.98l-1.8-5.1h.88l1.1 3.32.3 1.12.17-.55.2-.57 1.12-3.33h.87zM1172.58 571.24c0 .68.1 1.18.32 1.5.2.34.52.5.94.5.3 0 .53-.08.73-.25.2-.17.32-.42.37-.76l.83.05c-.07.5-.27.88-.6 1.17-.35.3-.78.44-1.3.44-.7 0-1.24-.2-1.6-.66-.37-.46-.55-1.12-.55-1.98 0-.86.18-1.52.55-1.97.37-.46.9-.7 1.58-.7.5 0 .93.15 1.26.42.35.27.56.64.64 1.12l-.84.06c-.05-.28-.16-.5-.33-.67-.18-.17-.42-.25-.74-.25-.44 0-.76.15-.95.44-.2.3-.3.8-.3 1.52z" stroke="#000" stroke-opacity="0" fill="#fff"/><path d="M1151.05 554.78h9.67v7h-9.67zM1164.24 554.78h9.68v7h-9.68zM1177.44 554.78h9.68v7h-9.68zM1161.42 534.04h15.32v7h-15.32z" stroke="#000" stroke-opacity="0" stroke-width="3.77" fill="#fff"/><path d="M1168.2 541.03V547h-12.3c-.5 0-.9.4-.9.9v6.87h1.76v-5.96h12.32c.5 0 .88-.4.88-.9v-6.87z" stroke="#000" stroke-opacity="0" stroke-width="3.77" fill="#fff"/><path d="M1168.2 541.03v6.87c0 .5.4.9.9.9h12.3v5.97h1.75v-6.87c0-.5-.4-.9-.88-.9h-12.32v-5.97z" stroke="#000" stroke-opacity="0" stroke-width="3.77" fill="#fff"/><path d="M1168.17 541.03v6.87c0 .1.02.22.06.32v6.55h1.76v-6.87c0-.1-.03-.2-.07-.3v-6.57z" stroke="#000" stroke-opacity="0" stroke-width="3.77" fill="#fff"/><use xlink:href="#u" transform="matrix(1,0,0,1,1109.0805840995133,589.2163331530555) translate(34.5 14.4)"/><path d="M1168.9 621.8c-.56.05-1 .16-1.47.4l-19.72 9.7c-1.07.52-1.8 1.43-2.04 2.63l-4.9 21.88c-.2 1.03-.04 2.05.53 2.96.04.12.1.17.2.3l13.65 17.5c.74.96 1.77 1.47 2.96 1.47h21.95c1.2 0 2.22-.5 2.96-1.48l13.65-17.5c.74-.97 1.02-2.1.74-3.3l-4.9-21.82c-.23-1.2-.97-2.1-2.05-2.62l-19.72-9.7c-.63-.3-1.2-.46-1.82-.4z" stroke="#000" stroke-opacity="0" stroke-width="3.83" fill="#326ce5"/><path d="M1168.9 620.22c-.6.06-1.08.18-1.56.42l-20.82 10.26c-1.14.54-1.92 1.5-2.16 2.76l-5.16 23.1c-.24 1.08-.06 2.16.54 3.12.06.12.12.18.24.3l14.4 18.48c.78 1.02 1.86 1.56 3.12 1.56h23.16c1.26 0 2.34-.54 3.12-1.56l14.4-18.48c.78-1.02 1.08-2.22.78-3.48l-5.16-23.04c-.24-1.26-1.02-2.22-2.16-2.76l-20.82-10.26c-.66-.3-1.26-.48-1.92-.42zm0 1.62c.66-.06 1.2.06 1.8.36l19.8 9.72c1.02.54 1.74 1.44 2.04 2.64l4.86 21.84c.24 1.2 0 2.28-.72 3.24L1183 677.16c-.72.96-1.74 1.5-2.94 1.5h-21.96c-1.2 0-2.22-.54-2.94-1.5l-13.68-17.52c-.06-.06-.12-.18-.18-.3-.6-.9-.78-1.86-.54-2.94l4.86-21.84c.3-1.2.96-2.1 2.04-2.64l19.8-9.72c.48-.24.9-.36 1.44-.36z" stroke="#000" stroke-opacity="0" stroke-width="3.83" fill="#fff"/><path d="M1166.3 672.4c0 .48-.18.85-.54 1.12-.35.26-.84.4-1.48.4-.6 0-1.1-.12-1.43-.32-.33-.2-.55-.54-.65-1l.73-.13c.07.27.22.47.43.6.23.13.53.2.92.2.42 0 .73-.07.92-.2.2-.14.3-.34.3-.6 0-.2-.07-.37-.2-.5-.14-.12-.36-.22-.66-.3l-.6-.17c-.46-.12-.8-.24-1-.37-.2-.12-.36-.27-.47-.44-.1-.18-.17-.4-.17-.64 0-.47.16-.82.48-1.07.33-.26.8-.38 1.4-.38.56 0 1 .1 1.32.3.32.2.52.52.6.96l-.74.1c-.04-.24-.16-.4-.36-.53-.2-.12-.47-.18-.8-.18-.38 0-.66.06-.83.17-.18.12-.27.3-.27.53 0 .14.04.27.1.36.1.1.2.18.33.24.15.07.45.16.9.27.45.1.77.22.96.32.18.1.33.2.44.32.1.1.2.25.27.4.07.15.1.33.1.52zM1169.44 673.8h-.98l-1.8-5.1h.88l1.1 3.32.3 1.12.17-.55.2-.57 1.12-3.33h.87zM1172.58 671.24c0 .68.1 1.18.32 1.5.2.34.52.5.94.5.3 0 .53-.08.73-.25.2-.17.32-.42.37-.76l.83.05c-.07.5-.27.88-.6 1.17-.35.3-.78.44-1.3.44-.7 0-1.24-.2-1.6-.66-.37-.46-.55-1.12-.55-1.98 0-.86.18-1.52.55-1.97.37-.46.9-.7 1.58-.7.5 0 .93.15 1.26.42.35.27.56.64.64 1.12l-.84.06c-.05-.28-.16-.5-.33-.67-.18-.17-.42-.25-.74-.25-.44 0-.76.15-.95.44-.2.3-.3.8-.3 1.52z" stroke="#000" stroke-opacity="0" fill="#fff"/><path d="M1151.05 654.78h9.67v7h-9.67zM1164.24 654.78h9.68v7h-9.68zM1177.44 654.78h9.68v7h-9.68zM1161.42 634.04h15.32v7h-15.32z" stroke="#000" stroke-opacity="0" stroke-width="3.77" fill="#fff"/><path d="M1168.2 641.03V647h-12.3c-.5 0-.9.4-.9.9v6.87h1.76v-5.96h12.32c.5 0 .88-.4.88-.9v-6.87z" stroke="#000" stroke-opacity="0" stroke-width="3.77" fill="#fff"/><path d="M1168.2 641.03v6.87c0 .5.4.9.9.9h12.3v5.97h1.75v-6.87c0-.5-.4-.9-.88-.9h-12.32v-5.97z" stroke="#000" stroke-opacity="0" stroke-width="3.77" fill="#fff"/><path d="M1168.17 641.03v6.87c0 .1.02.22.06.32v6.55h1.76v-6.87c0-.1-.03-.2-.07-.3v-6.57z" stroke="#000" stroke-opacity="0" stroke-width="3.77" fill="#fff"/><use xlink:href="#v" transform="matrix(1,0,0,1,1109.0805840995133,689.2163331530555) translate(18.574999999999996 14.4)"/><use xlink:href="#w" transform="matrix(1,0,0,1,1109.0805840995133,689.2163331530555) translate(49.474999999999994 14.4)"/><path d="M188.9 521.8c-.56.05-1 .16-1.47.4l-19.72 9.7c-1.07.52-1.8 1.43-2.04 2.63l-4.9 21.88c-.2 1.03-.04 2.05.53 2.96.04.12.1.17.2.3l13.65 17.5c.74.96 1.77 1.47 2.96 1.47h21.95c1.2 0 2.22-.5 2.96-1.48l13.65-17.5c.74-.97 1.02-2.1.74-3.3l-4.9-21.82c-.23-1.2-.97-2.1-2.05-2.62l-19.72-9.7c-.63-.3-1.2-.46-1.82-.4z" stroke="#000" stroke-opacity="0" stroke-width="3.83" fill="#326ce5"/><path d="M188.9 520.22c-.6.06-1.08.18-1.56.42l-20.82 10.26c-1.14.54-1.92 1.5-2.16 2.76l-5.16 23.1c-.24 1.08-.06 2.16.54 3.12.06.12.12.18.24.3l14.4 18.48c.78 1.02 1.86 1.56 3.12 1.56h23.16c1.26 0 2.34-.54 3.12-1.56l14.4-18.48c.78-1.02 1.08-2.22.78-3.48l-5.16-23.04c-.24-1.26-1.02-2.22-2.16-2.76l-20.82-10.26c-.66-.3-1.26-.48-1.92-.42zm0 1.62c.66-.06 1.2.06 1.8.36l19.8 9.72c1.02.54 1.74 1.44 2.04 2.64l4.86 21.84c.24 1.2 0 2.28-.72 3.24L203 577.16c-.72.96-1.74 1.5-2.94 1.5H178.1c-1.2 0-2.22-.54-2.94-1.5l-13.68-17.52c-.06-.06-.12-.18-.18-.3-.6-.9-.78-1.86-.54-2.94l4.86-21.84c.3-1.2.96-2.1 2.04-2.64l19.8-9.72c.48-.24.9-.36 1.44-.36z" stroke="#000" stroke-opacity="0" stroke-width="3.83" fill="#fff"/><path d="M186.3 572.4c0 .48-.18.85-.54 1.12-.35.26-.84.4-1.48.4-.6 0-1.1-.12-1.43-.32-.33-.2-.55-.54-.65-1l.73-.13c.07.27.22.47.43.6.23.13.53.2.92.2.42 0 .73-.07.92-.2.2-.14.3-.34.3-.6 0-.2-.07-.37-.2-.5-.14-.12-.36-.22-.66-.3l-.6-.17c-.46-.12-.8-.24-1-.37-.2-.12-.36-.27-.47-.44-.1-.18-.17-.4-.17-.64 0-.47.16-.82.48-1.07.33-.26.8-.38 1.4-.38.56 0 1 .1 1.32.3.32.2.52.52.6.96l-.74.1c-.04-.24-.16-.4-.36-.53-.2-.12-.47-.18-.8-.18-.38 0-.66.06-.83.17-.18.12-.27.3-.27.53 0 .14.04.27.1.36.1.1.2.18.33.24.15.07.45.16.9.27.45.1.77.22.96.32.18.1.33.2.44.32.1.1.2.25.27.4.07.15.1.33.1.52zM189.44 573.8h-.98l-1.8-5.1h.88l1.1 3.32.3 1.12.17-.55.2-.57 1.12-3.33h.87zM192.58 571.24c0 .68.1 1.18.32 1.5.2.34.52.5.94.5.3 0 .53-.08.73-.25.2-.17.32-.42.37-.76l.83.05c-.07.5-.27.88-.6 1.17-.35.3-.78.44-1.3.44-.7 0-1.24-.2-1.6-.66-.37-.46-.55-1.12-.55-1.98 0-.86.18-1.52.55-1.97.37-.46.9-.7 1.58-.7.5 0 .93.15 1.26.42.35.27.56.64.64 1.12l-.84.06c-.05-.28-.16-.5-.33-.67-.18-.17-.42-.25-.74-.25-.44 0-.76.15-.95.44-.2.3-.3.8-.3 1.52z" stroke="#000" stroke-opacity="0" fill="#fff"/><path d="M171.05 554.78h9.67v7h-9.67zM184.24 554.78h9.68v7h-9.68zM197.44 554.78h9.68v7h-9.68zM181.42 534.04h15.32v7h-15.32z" stroke="#000" stroke-opacity="0" stroke-width="3.77" fill="#fff"/><path d="M188.2 541.03V547h-12.3c-.5 0-.9.4-.9.9v6.87h1.76v-5.96h12.32c.5 0 .88-.4.88-.9v-6.87z" stroke="#000" stroke-opacity="0" stroke-width="3.77" fill="#fff"/><path d="M188.2 541.03v6.87c0 .5.4.9.9.9h12.3v5.97h1.75v-6.87c0-.5-.4-.9-.88-.9h-12.32v-5.97z" stroke="#000" stroke-opacity="0" stroke-width="3.77" fill="#fff"/><path d="M188.17 541.03v6.87c0 .1.02.22.06.32v6.55H190v-6.87c0-.1-.03-.2-.07-.3v-6.57z" stroke="#000" stroke-opacity="0" stroke-width="3.77" fill="#fff"/><g><use xlink:href="#u" transform="matrix(1,0,0,1,129.08058409951332,589.2163331530555) translate(34.5 14.4)"/></g><path d="M188.9 621.8c-.56.05-1 .16-1.47.4l-19.72 9.7c-1.07.52-1.8 1.43-2.04 2.63l-4.9 21.88c-.2 1.03-.04 2.05.53 2.96.04.12.1.17.2.3l13.65 17.5c.74.96 1.77 1.47 2.96 1.47h21.95c1.2 0 2.22-.5 2.96-1.48l13.65-17.5c.74-.97 1.02-2.1.74-3.3l-4.9-21.82c-.23-1.2-.97-2.1-2.05-2.62l-19.72-9.7c-.63-.3-1.2-.46-1.82-.4z" stroke="#000" stroke-opacity="0" stroke-width="3.83" fill="#326ce5"/><path d="M188.9 620.22c-.6.06-1.08.18-1.56.42l-20.82 10.26c-1.14.54-1.92 1.5-2.16 2.76l-5.16 23.1c-.24 1.08-.06 2.16.54 3.12.06.12.12.18.24.3l14.4 18.48c.78 1.02 1.86 1.56 3.12 1.56h23.16c1.26 0 2.34-.54 3.12-1.56l14.4-18.48c.78-1.02 1.08-2.22.78-3.48l-5.16-23.04c-.24-1.26-1.02-2.22-2.16-2.76l-20.82-10.26c-.66-.3-1.26-.48-1.92-.42zm0 1.62c.66-.06 1.2.06 1.8.36l19.8 9.72c1.02.54 1.74 1.44 2.04 2.64l4.86 21.84c.24 1.2 0 2.28-.72 3.24L203 677.16c-.72.96-1.74 1.5-2.94 1.5H178.1c-1.2 0-2.22-.54-2.94-1.5l-13.68-17.52c-.06-.06-.12-.18-.18-.3-.6-.9-.78-1.86-.54-2.94l4.86-21.84c.3-1.2.96-2.1 2.04-2.64l19.8-9.72c.48-.24.9-.36 1.44-.36z" stroke="#000" stroke-opacity="0" stroke-width="3.83" fill="#fff"/><path d="M186.3 672.4c0 .48-.18.85-.54 1.12-.35.26-.84.4-1.48.4-.6 0-1.1-.12-1.43-.32-.33-.2-.55-.54-.65-1l.73-.13c.07.27.22.47.43.6.23.13.53.2.92.2.42 0 .73-.07.92-.2.2-.14.3-.34.3-.6 0-.2-.07-.37-.2-.5-.14-.12-.36-.22-.66-.3l-.6-.17c-.46-.12-.8-.24-1-.37-.2-.12-.36-.27-.47-.44-.1-.18-.17-.4-.17-.64 0-.47.16-.82.48-1.07.33-.26.8-.38 1.4-.38.56 0 1 .1 1.32.3.32.2.52.52.6.96l-.74.1c-.04-.24-.16-.4-.36-.53-.2-.12-.47-.18-.8-.18-.38 0-.66.06-.83.17-.18.12-.27.3-.27.53 0 .14.04.27.1.36.1.1.2.18.33.24.15.07.45.16.9.27.45.1.77.22.96.32.18.1.33.2.44.32.1.1.2.25.27.4.07.15.1.33.1.52zM189.44 673.8h-.98l-1.8-5.1h.88l1.1 3.32.3 1.12.17-.55.2-.57 1.12-3.33h.87zM192.58 671.24c0 .68.1 1.18.32 1.5.2.34.52.5.94.5.3 0 .53-.08.73-.25.2-.17.32-.42.37-.76l.83.05c-.07.5-.27.88-.6 1.17-.35.3-.78.44-1.3.44-.7 0-1.24-.2-1.6-.66-.37-.46-.55-1.12-.55-1.98 0-.86.18-1.52.55-1.97.37-.46.9-.7 1.58-.7.5 0 .93.15 1.26.42.35.27.56.64.64 1.12l-.84.06c-.05-.28-.16-.5-.33-.67-.18-.17-.42-.25-.74-.25-.44 0-.76.15-.95.44-.2.3-.3.8-.3 1.52z" stroke="#000" stroke-opacity="0" fill="#fff"/><path d="M171.05 654.78h9.67v7h-9.67zM184.24 654.78h9.68v7h-9.68zM197.44 654.78h9.68v7h-9.68zM181.42 634.04h15.32v7h-15.32z" stroke="#000" stroke-opacity="0" stroke-width="3.77" fill="#fff"/><path d="M188.2 641.03V647h-12.3c-.5 0-.9.4-.9.9v6.87h1.76v-5.96h12.32c.5 0 .88-.4.88-.9v-6.87z" stroke="#000" stroke-opacity="0" stroke-width="3.77" fill="#fff"/><path d="M188.2 641.03v6.87c0 .5.4.9.9.9h12.3v5.97h1.75v-6.87c0-.5-.4-.9-.88-.9h-12.32v-5.97z" stroke="#000" stroke-opacity="0" stroke-width="3.77" fill="#fff"/><path d="M188.17 641.03v6.87c0 .1.02.22.06.32v6.55H190v-6.87c0-.1-.03-.2-.07-.3v-6.57z" stroke="#000" stroke-opacity="0" stroke-width="3.77" fill="#fff"/><g><use xlink:href="#v" transform="matrix(1,0,0,1,129.08058409951332,689.2163331530555) translate(18.574999999999996 14.4)"/><use xlink:href="#w" transform="matrix(1,0,0,1,129.08058409951332,689.2163331530555) translate(49.474999999999994 14.4)"/></g><path d="M1467.34 191.67c-.52.05-.93.15-1.35.36l-18.1 8.9c-.98.48-1.66 1.3-1.87 2.4l-4.48 20.07c-.2.93-.05 1.87.47 2.7.05.1.1.16.2.27l12.5 16.04c.7.9 1.63 1.37 2.72 1.37h20.12c1.1 0 2.03-.47 2.7-1.36l12.5-16.03c.7-.9.95-1.93.7-3.03l-4.5-20c-.2-1.1-.88-1.93-1.87-2.4l-18.1-8.9c-.56-.27-1.08-.42-1.66-.37z" stroke="#000" stroke-opacity="0" stroke-width="0" fill="#326ce5"/><path d="M1467.33 190.22c-.55.05-1 .16-1.43.38l-19.08 9.4c-1.05.5-1.76 1.38-1.98 2.54l-4.73 21.17c-.2 1-.04 2 .5 2.87.06.1.12.17.22.28l13.2 16.94c.72.92 1.7 1.42 2.86 1.42h21.23c1.17 0 2.16-.5 2.87-1.43l13.2-16.95c.72-.94 1-2.04.72-3.14l-4.74-21.16c-.22-1.16-.94-2.04-1.98-2.53l-19.1-9.4c-.6-.27-1.14-.44-1.75-.38zm0 1.43c.6 0 1.1.1 1.65.38l18.15 8.9c.94.5 1.6 1.33 1.87 2.43l4.46 20.02c.22 1.1 0 2.1-.66 2.97l-12.54 16.06c-.66.9-1.6 1.4-2.7 1.4h-20.13c-1.1 0-2.03-.5-2.7-1.4l-12.53-16.05c-.06-.05-.1-.16-.17-.27-.55-.83-.7-1.7-.5-2.7l4.46-20.02c.27-1.1.87-1.92 1.86-2.42l18.15-8.9c.45-.23.84-.34 1.33-.4z" stroke="#000" stroke-opacity="0" stroke-width="0" fill="#fff"/><path d="M1461.43 206.08v2.35h1.6v-1.5h3.34v-1.7h-4.13c-.66 0-.8.24-.8.85zm8.17.84h6.45v-1.68h-6.45zm9.68 0h2.04v2.87h1.6v-3.72c0-.66-.33-.82-.8-.84h-2.84zm-17.85 5.67v5.8h1.6v-6.65h-1.6zm19.9 1.35v5.84h1.6v-6.68h-1.6zm-17.88 7.36h6.45v-1.66h-6.45zm13.35 0h2.78v-1.66h-2.78z" stroke="#000" stroke-opacity="0" stroke-width="3.77" fill="#fff"/><path d="M1456.73 210.52v3.02h1.62v-2.2h2.68v-1.66h-3.48c-.67 0-.82.23-.82.84zm7.55.83h6.43v-1.67h-6.42zm9.66 0h2.7v2.22h1.6v-3.05c0-.52-.2-.85-.8-.84h-3.5zm-17.2 6.35v5.8h1.6v-6.64h-1.6zm19.9.03v5.8h1.6v-6.64h-1.6zm-17.24 8.02h6.45v-1.66h-6.45zm9.68 0h6.45v-1.66h-6.45z" stroke="#000" stroke-opacity="0" stroke-width="3.77" fill="#fff"/><path d="M1452.04 229.38v-15.26h20.6c.63 0 .9.56.9.96v14.27c-.03.55-.46.85-.9.84h-19.78c-.37 0-.84-.32-.82-.82zM1451.93 231.16v1.95h21.57v-1.94z" stroke="#000" stroke-opacity="0" stroke-width="3.77" fill="#fff"/><g><use xlink:href="#x" transform="matrix(1,0,0,1,1410,254.21633315304553) translate(10.049999999999997 14.4)"/></g><defs><path d="M539-677L361-492V0H169v-1456h192v720l647-720h232L667-813 1285 0h-230" id="y"/><path d="M575-1476c247 0 432 154 429 400-2 161-97 271-213 327 135 56 245 179 247 356 3 257-200 413-463 413-265 0-466-156-463-413 2-176 108-302 243-357-115-56-207-166-209-326-4-246 181-400 429-400zm0 1345c168 0 278-101 278-266 0-161-118-276-280-276-163 0-276 113-276 276 0 167 108 266 278 266zm244-942c0-143-104-251-244-251-146 0-244 102-244 251 0 145 98 248 244 248s244-103 244-248" id="z"/><path d="M538-131c121 0 232-49 232-156 0-50-20-88-56-117-73-60-334-92-420-143-92-55-162-110-162-238 0-190 192-317 400-317 223 0 414 129 413 338H759c0-108-110-186-227-186-119 0-215 53-215 159 0 45 18 78 53 101 76 52 331 90 416 139 98 57 169 115 169 251C955-92 760 20 538 20c-176 0-314-68-386-174-38-55-57-115-57-179h185c6 129 116 202 258 202" id="A"/><g id="a"><use transform="matrix(0.0087890625,0,0,0.0087890625,0,0)" xlink:href="#y"/><use transform="matrix(0.0087890625,0,0,0.0087890625,11.28515625,0)" xlink:href="#z"/><use transform="matrix(0.0087890625,0,0,0.0087890625,21.392578125,0)" xlink:href="#A"/></g><path d="M688-137c238 0 323-102 359-325h193c-32 297-228 482-552 482-361 0-569-299-569-680 0-197 8-360 73-497 88-186 257-317 513-319 316-2 509 195 535 488h-193c-31-212-118-330-342-330-272 0-397 224-393 523v141c-3 282 115 517 376 517" id="B"/><path d="M341 0H156v-1536h185V0" id="C"/><path d="M491 20c-241-1-355-148-355-398v-704h185v699c0 164 67 246 200 246 141 0 235-53 282-158v-787h185V0H812l-4-107C736-22 630 20 491 20" id="D"/><path d="M456 20C285 20 205-92 206-268v-671H9v-143h197v-262h185v262h202v143H391v671c-9 125 92 149 207 118V0c-49 13-96 20-142 20" id="E"/><path d="M599-131c141 0 220-65 285-146l113 88C906-50 770 20 589 20 281 21 93-214 93-545c0-223 93-397 233-485 74-48 154-72 240-72 300 2 449 218 445 537v77H278c0 197 129 357 321 357zm227-509c-3-180-88-310-260-310-170 0-264 140-282 310h542" id="F"/><path d="M663-916c-163-27-288 18-338 148V0H140v-1082h180l3 125c61-97 147-145 258-145 36 0 63 5 82 14v172" id="G"/><g id="b"><use transform="matrix(0.0087890625,0,0,0.0087890625,0,0)" xlink:href="#B"/><use transform="matrix(0.0087890625,0,0,0.0087890625,11.7158203125,0)" xlink:href="#C"/><use transform="matrix(0.0087890625,0,0,0.0087890625,16.083984375,0)" xlink:href="#D"/><use transform="matrix(0.0087890625,0,0,0.0087890625,26.0068359375,0)" xlink:href="#A"/><use transform="matrix(0.0087890625,0,0,0.0087890625,35.2880859375,0)" xlink:href="#E"/><use transform="matrix(0.0087890625,0,0,0.0087890625,41.16796875,0)" xlink:href="#F"/><use transform="matrix(0.0087890625,0,0,0.0087890625,50.7041015625,0)" xlink:href="#G"/></g><path d="M972-643H361V0H169v-1456h902v158H361v498h611v157" id="H"/><path d="M561-1102c238-4 403 126 403 351v498c0 99 13 178 38 237V0H808c-11-21-19-59-26-114C696-25 593 20 474 20c-199 0-368-130-365-320 4-251 214-359 490-356h180v-85c-1-135-86-212-229-212-115 0-232 67-233 171H131c20-205 206-316 430-320zM294-326c0 117 90 185 207 185 122 0 239-75 278-162v-222H634c-227 0-340 66-340 199" id="I"/><path d="M341 0H156v-1082h185V0zm-91-1264c-68 0-108-42-109-105 0-62 41-107 109-107s110 44 110 107-42 105-110 105" id="J"/><g id="c"><use transform="matrix(0.0087890625,0,0,0.0087890625,0,0)" xlink:href="#H"/><use transform="matrix(0.0087890625,0,0,0.0087890625,9.650390625,0)" xlink:href="#I"/><use transform="matrix(0.0087890625,0,0,0.0087890625,19.44140625,0)" xlink:href="#J"/><use transform="matrix(0.0087890625,0,0,0.0087890625,23.8095703125,0)" xlink:href="#C"/><use transform="matrix(0.0087890625,0,0,0.0087890625,28.177734375,0)" xlink:href="#D"/><use transform="matrix(0.0087890625,0,0,0.0087890625,38.1005859375,0)" xlink:href="#G"/><use transform="matrix(0.0087890625,0,0,0.0087890625,44.0244140625,0)" xlink:href="#F"/></g><path d="M313-157h833V0H86v-144l798-1154H99v-158h1015v141" id="K"/><path d="M584 20C278 26 81-227 91-551c10-320 175-545 491-551 308-5 503 247 494 573-9 322-175 543-492 549zm-2-970c-208 0-305 185-305 421 0 216 106 398 307 398 211 0 307-186 307-420 0-214-109-399-309-399" id="L"/><path d="M589-945c-131 0-219 81-264 174V0H140v-1082h175l6 136c83-104 191-156 324-156 229 0 346 129 346 387V0H806v-716c-2-153-65-229-217-229" id="M"/><g id="d"><use transform="matrix(0.0087890625,0,0,0.0087890625,0,0)" xlink:href="#K"/><use transform="matrix(0.0087890625,0,0,0.0087890625,10.5908203125,0)" xlink:href="#L"/><use transform="matrix(0.0087890625,0,0,0.0087890625,20.8564453125,0)" xlink:href="#M"/><use transform="matrix(0.0087890625,0,0,0.0087890625,30.7880859375,0)" xlink:href="#F"/></g><path d="M973-380H363L226 0H28l556-1456h168L1309 0h-197zM421-538h495l-248-681" id="N"/><use transform="matrix(0.0087890625,0,0,0.0087890625,0,0)" xlink:href="#N" id="e"/><path d="M1160-420C1159-145 963 0 674 0H169v-1456h476c294-1 476 112 476 388 0 153-99 253-216 302 146 38 255 167 255 346zM678-157c171 2 289-95 289-261 0-175-95-263-286-263H361v524h317zm250-912c-2-172-104-229-283-229H361v463h290c157 3 278-84 277-234" id="O"/><use transform="matrix(0.0087890625,0,0,0.0087890625,0,0)" xlink:href="#O" id="f"/><path d="M483-459l28 192 41-173 288-1016h162l281 1016 40 176 31-196 226-996h193L1420 0h-175L945-1061l-23-111-23 111L588 0H413L61-1456h192" id="P"/><path d="M442-501L326-380V0H141v-1536h185v929c135-169 291-317 436-475h225L566-630 1036 0H819" id="Q"/><g id="g"><use transform="matrix(0.0087890625,0,0,0.0087890625,0,0)" xlink:href="#P"/><use transform="matrix(0.0087890625,0,0,0.0087890625,15.697265625,0)" xlink:href="#L"/><use transform="matrix(0.0087890625,0,0,0.0087890625,25.962890625,0)" xlink:href="#G"/><use transform="matrix(0.0087890625,0,0,0.0087890625,32.0537109375,0)" xlink:href="#Q"/><use transform="matrix(0.0087890625,0,0,0.0087890625,41.0009765625,0)" xlink:href="#F"/><use transform="matrix(0.0087890625,0,0,0.0087890625,50.537109375,0)" xlink:href="#G"/></g><path d="M1288 0h-193L362-1122V0H169v-1456h193l735 1127v-1127h191V0" id="R"/><path d="M520 20C244 20 95-247 95-550c0-298 151-550 427-552 127 0 227 43 301 130v-564h185V0H838l-9-116C755-25 652 20 520 20zm48-965c-210 0-288 177-288 416 0 218 87 392 286 392 117 0 203-53 257-158v-497c-55-102-140-153-255-153" id="S"/><g id="h"><use transform="matrix(0.0087890625,0,0,0.0087890625,0,0)" xlink:href="#R"/><use transform="matrix(0.0087890625,0,0,0.0087890625,12.83203125,0)" xlink:href="#L"/><use transform="matrix(0.0087890625,0,0,0.0087890625,23.09765625,0)" xlink:href="#S"/><use transform="matrix(0.0087890625,0,0,0.0087890625,33.2490234375,0)" xlink:href="#F"/></g><path d="M1240-945c-141 0-250 95-250 227V0H804v-709c0-157-77-236-231-236-121 0-204 52-249 155V0H139v-1082h175l5 120c79-93 186-140 321-140 151 0 254 58 309 174 69-98 181-174 345-174 237 0 362 126 362 377V0h-185v-714c-2-159-67-231-231-231" id="T"/><path d="M632-1102c291 0 422 251 422 573 0 297-141 548-419 549-131 0-235-42-310-125v521H140v-1498h169l9 120c75-93 180-140 314-140zm-53 971c207 0 290-180 290-419 0-218-92-395-292-395-112 0-196 50-252 149v517c55 99 140 148 254 148" id="U"/><path d="M277-555c0 244 77 420 297 424 127 2 249-93 255-210h175C980-127 805 20 574 20 258 20 81-222 92-562c11-319 164-533 481-540 237-5 426 165 431 392H829c-7-133-115-242-256-240-209 4-296 166-296 395" id="V"/><g id="i"><use transform="matrix(0.0087890625,0,0,0.0087890625,0,0)" xlink:href="#R"/><use transform="matrix(0.0087890625,0,0,0.0087890625,12.83203125,0)" xlink:href="#I"/><use transform="matrix(0.0087890625,0,0,0.0087890625,22.623046875,0)" xlink:href="#T"/><use transform="matrix(0.0087890625,0,0,0.0087890625,38.3994140625,0)" xlink:href="#F"/><use transform="matrix(0.0087890625,0,0,0.0087890625,47.935546875,0)" xlink:href="#A"/><use transform="matrix(0.0087890625,0,0,0.0087890625,57.216796875,0)" xlink:href="#U"/><use transform="matrix(0.0087890625,0,0,0.0087890625,67.3154296875,0)" xlink:href="#I"/><use transform="matrix(0.0087890625,0,0,0.0087890625,77.1064453125,0)" xlink:href="#V"/><use transform="matrix(0.0087890625,0,0,0.0087890625,86.5283203125,0)" xlink:href="#F"/></g><path d="M96-169c-40 0-48 33-48 73s9 75 48 75c24 0 41-14 43-38l32 2c-6 37-31 61-74 61-59 0-76-41-82-99-10-93 101-131 147-64 4 7 5 14 7 22l-32 3c-4-21-16-35-41-35" id="W"/><path d="M141-36C126-15 110 5 73 4 37 3 15-17 15-53c-1-64 63-63 125-63 3-35-9-54-41-54-24 1-41 7-42 31l-33-3c5-37 33-52 76-52 45 0 72 20 72 64v82c-1 20 7 32 28 27v20c-31 9-61-2-59-35zM48-53c0 20 12 33 32 33 41-3 63-29 60-74-43 2-92-5-92 41" id="X"/><path d="M135-143c-3-34-86-38-87 0 15 53 115 12 119 90S17 21 10-45l28-5c4 36 97 45 98 0-10-56-113-15-118-90-4-57 82-63 122-42 12 7 21 19 24 35" id="Y"/><path d="M16-82v-28h88v28H16" id="Z"/><path d="M100-194c62-1 85 37 85 99 1 63-27 99-86 99S16-35 15-95c0-66 28-99 85-99zM99-20c44 1 53-31 53-75 0-43-8-75-51-75s-53 32-53 75 10 74 51 75" id="aa"/><path d="M115-194c55 1 70 41 70 98S169 2 115 4C84 4 66-9 55-30l1 105H24l-1-265h31l2 30c10-21 28-34 59-34zm-8 174c40 0 45-34 45-75s-6-73-45-74c-42 0-51 32-51 76 0 43 10 73 51 73" id="ab"/><path d="M100-194c63 0 86 42 84 106H49c0 40 14 67 53 68 26 1 43-12 49-29l28 8c-11 28-37 45-77 45C44 4 14-33 15-96c1-61 26-98 85-98zm52 81c6-60-76-77-97-28-3 7-6 17-6 28h103" id="ac"/><path d="M114-163C36-179 61-72 57 0H25l-1-190h30c1 12-1 29 2 39 6-27 23-49 58-41v29" id="ad"/><path d="M59-47c-2 24 18 29 38 22v24C64 9 27 4 27-40v-127H5v-23h24l9-43h21v43h35v23H59v120" id="ae"/><g id="j"><use transform="matrix(0.05,0,0,0.05,0,0)" xlink:href="#W"/><use transform="matrix(0.05,0,0,0.05,9,0)" xlink:href="#X"/><use transform="matrix(0.05,0,0,0.05,19,0)" xlink:href="#Y"/><use transform="matrix(0.05,0,0,0.05,28,0)" xlink:href="#Y"/><use transform="matrix(0.05,0,0,0.05,37,0)" xlink:href="#Z"/><use transform="matrix(0.05,0,0,0.05,42.95,0)" xlink:href="#aa"/><use transform="matrix(0.05,0,0,0.05,52.95,0)" xlink:href="#ab"/><use transform="matrix(0.05,0,0,0.05,62.95,0)" xlink:href="#ac"/><use transform="matrix(0.05,0,0,0.05,72.95,0)" xlink:href="#ad"/><use transform="matrix(0.05,0,0,0.05,78.9,0)" xlink:href="#X"/><use transform="matrix(0.05,0,0,0.05,88.9,0)" xlink:href="#ae"/><use transform="matrix(0.05,0,0,0.05,93.9,0)" xlink:href="#aa"/><use transform="matrix(0.05,0,0,0.05,103.9,0)" xlink:href="#ad"/></g><path d="M1161-1018c0 201-122 330-278 388l342 618V0h-206L703-589H361V0H168v-1456h482c310-2 511 139 511 438zm-193 0c0-187-120-280-313-280H361v552h295c179 3 313-101 312-272" id="af"/><g id="k"><use transform="matrix(0.0087890625,0,0,0.0087890625,0,0)" xlink:href="#af"/><use transform="matrix(0.0087890625,0,0,0.0087890625,11.0830078125,0)" xlink:href="#I"/><use transform="matrix(0.0087890625,0,0,0.0087890625,20.8740234375,0)" xlink:href="#V"/><use transform="matrix(0.0087890625,0,0,0.0087890625,30.2958984375,0)" xlink:href="#Q"/></g><path d="M569-1476c255 0 440 146 439 390 0 143-91 314-274 512L344-151h731V0H121v-133l504-560c75-85 125-155 155-207 105-184 6-424-211-424-183 0-293 113-291 297H93c-3-270 199-449 476-449" id="ag"/><use transform="matrix(0.0087890625,0,0,0.0087890625,0,0)" xlink:href="#ag" id="l"/><path d="M185-189c-5-48-123-54-124 2 14 75 158 14 163 119 3 78-121 87-175 55-17-10-28-26-33-46l33-7c5 56 141 63 141-1 0-78-155-14-162-118-5-82 145-84 179-34 5 7 8 16 11 25" id="ah"/><path d="M101-234c-31-9-42 10-38 44h38v23H63V0H32v-167H5v-23h27c-7-52 17-82 69-68v24" id="ai"/><path d="M84 4C-5 8 30-112 23-190h32v120c0 31 7 50 39 49 72-2 45-101 50-169h31l1 190h-30c-1-10 1-25-2-33-11 22-28 36-60 37" id="aj"/><path d="M24 0v-261h32V0H24" id="ak"/><g id="m"><use transform="matrix(0.05,0,0,0.05,0,0)" xlink:href="#ah"/><use transform="matrix(0.05,0,0,0.05,12,0)" xlink:href="#ae"/><use transform="matrix(0.05,0,0,0.05,17,0)" xlink:href="#X"/><use transform="matrix(0.05,0,0,0.05,27,0)" xlink:href="#ae"/><use transform="matrix(0.05,0,0,0.05,32,0)" xlink:href="#ac"/><use transform="matrix(0.05,0,0,0.05,42,0)" xlink:href="#ai"/><use transform="matrix(0.05,0,0,0.05,47,0)" xlink:href="#aj"/><use transform="matrix(0.05,0,0,0.05,57,0)" xlink:href="#ak"/><use transform="matrix(0.05,0,0,0.05,60.95,0)" xlink:href="#ah"/><use transform="matrix(0.05,0,0,0.05,72.95,0)" xlink:href="#ac"/><use transform="matrix(0.05,0,0,0.05,82.95,0)" xlink:href="#ae"/></g><path d="M212-179c-10-28-35-45-73-45-59 0-87 40-87 99 0 60 29 101 89 101 43 0 62-24 78-52l27 14C228-24 195 4 139 4 59 4 22-46 18-125c-6-104 99-153 187-111 19 9 31 26 39 46" id="al"/><path d="M80-196l47-18 7 23-49 13 32 44-20 13-27-46-27 45-21-12 33-44-49-13 8-23 47 19-2-53h23" id="am"/><g id="n"><use transform="matrix(0.05,0,0,0.05,0,0)" xlink:href="#al"/><use transform="matrix(0.05,0,0,0.05,12.950000000000001,0)" xlink:href="#am"/></g><path d="M190 0L58-211 59 0H30v-248h39L202-35l-2-213h31V0h-41" id="an"/><path d="M85-194c31 0 48 13 60 33l-1-100h32l1 261h-30c-2-10 0-23-3-31C134-8 116 4 85 4 32 4 16-35 15-94c0-66 23-100 70-100zm9 24c-40 0-46 34-46 75 0 40 6 74 45 74 42 0 51-32 51-76 0-42-9-74-50-73" id="ao"/><g id="o"><use transform="matrix(0.05,0,0,0.05,0,0)" xlink:href="#an"/><use transform="matrix(0.05,0,0,0.05,12.950000000000001,0)" xlink:href="#aa"/><use transform="matrix(0.05,0,0,0.05,22.950000000000003,0)" xlink:href="#ao"/><use transform="matrix(0.05,0,0,0.05,32.95,0)" xlink:href="#ac"/></g><path d="M101-251c82-7 93 87 43 132L82-64C71-53 59-42 53-27h129V0H18c2-99 128-94 128-182 0-28-16-43-45-43s-46 15-49 41l-32-3c6-41 34-60 81-64" id="ap"/><use transform="matrix(0.05,0,0,0.05,0,0)" xlink:href="#ap" id="p"/><path d="M177-190C167-65 218 103 67 71c-23-6-38-20-44-43l32-5c15 47 100 32 89-28v-30C133-14 115 1 83 1 29 1 15-40 15-95c0-56 16-97 71-98 29-1 48 16 59 35 1-10 0-23 2-32h30zM94-22c36 0 50-32 50-73 0-42-14-75-50-75-39 0-46 34-46 75s6 73 46 73" id="aq"/><g id="q"><use transform="matrix(0.05,0,0,0.05,0,0)" xlink:href="#ah"/><use transform="matrix(0.05,0,0,0.05,12,0)" xlink:href="#ae"/><use transform="matrix(0.05,0,0,0.05,17,0)" xlink:href="#X"/><use transform="matrix(0.05,0,0,0.05,27,0)" xlink:href="#ad"/><use transform="matrix(0.05,0,0,0.05,32.95,0)" xlink:href="#aq"/><use transform="matrix(0.05,0,0,0.05,42.95,0)" xlink:href="#X"/><use transform="matrix(0.05,0,0,0.05,52.95,0)" xlink:href="#ae"/><use transform="matrix(0.05,0,0,0.05,57.95,0)" xlink:href="#ac"/></g><path d="M27 0v-27h64v-190l-56 39v-29l58-41h29v221h61V0H27" id="ar"/><use transform="matrix(0.05,0,0,0.05,0,0)" xlink:href="#ar" id="r"/><path d="M729 0H543v-1233l-373 137v-168l530-199h29V0" id="as"/><use transform="matrix(0.0087890625,0,0,0.0087890625,0,0)" xlink:href="#as" id="s"/><path d="M126-127c33 6 58 20 58 59 0 88-139 92-164 29-3-8-5-16-6-25l32-3c6 27 21 44 54 44 32 0 52-15 52-46 0-38-36-46-79-43v-28c39 1 72-4 72-42 0-27-17-43-46-43-28 0-47 15-49 41l-32-3c6-42 35-63 81-64 48-1 79 21 79 65 0 36-21 52-52 59" id="at"/><use transform="matrix(0.05,0,0,0.05,0,0)" xlink:href="#at" id="t"/><g id="u"><use transform="matrix(0.05,0,0,0.05,0,0)" xlink:href="#ah"/><use transform="matrix(0.05,0,0,0.05,12,0)" xlink:href="#ac"/><use transform="matrix(0.05,0,0,0.05,22,0)" xlink:href="#ac"/><use transform="matrix(0.05,0,0,0.05,32,0)" xlink:href="#ao"/><use transform="matrix(0.05,0,0,0.05,42,0)" xlink:href="#Y"/></g><path d="M30-248c118-7 216 8 213 122C240-48 200 0 122 0H30v-248zM63-27c89 8 146-16 146-99s-60-101-146-95v194" id="au"/><g id="v"><use transform="matrix(0.05,0,0,0.05,0,0)" xlink:href="#au"/><use transform="matrix(0.05,0,0,0.05,12.950000000000001,0)" xlink:href="#al"/></g><g id="w"><use transform="matrix(0.05,0,0,0.05,0,0)" xlink:href="#an"/><use transform="matrix(0.05,0,0,0.05,12.950000000000001,0)" xlink:href="#aa"/><use transform="matrix(0.05,0,0,0.05,22.950000000000003,0)" xlink:href="#ao"/><use transform="matrix(0.05,0,0,0.05,32.95,0)" xlink:href="#ac"/><use transform="matrix(0.05,0,0,0.05,42.95,0)" xlink:href="#Y"/></g><path d="M210-169c-67 3-38 105-44 169h-31v-121c0-29-5-50-35-48C34-165 62-65 56 0H25l-1-190h30c1 10-1 24 2 32 10-44 99-50 107 0 11-21 27-35 58-36 85-2 47 119 55 194h-31v-121c0-29-5-49-35-48" id="av"/><path d="M117-194c89-4 53 116 60 194h-32v-121c0-31-8-49-39-48C34-167 62-67 57 0H25l-1-190h30c1 10-1 24 2 32 11-22 29-35 61-36" id="aw"/><g id="x"><use transform="matrix(0.05,0,0,0.05,0,0)" xlink:href="#au"/><use transform="matrix(0.05,0,0,0.05,12.950000000000001,0)" xlink:href="#X"/><use transform="matrix(0.05,0,0,0.05,22.950000000000003,0)" xlink:href="#ac"/><use transform="matrix(0.05,0,0,0.05,32.95,0)" xlink:href="#av"/><use transform="matrix(0.05,0,0,0.05,47.900000000000006,0)" xlink:href="#aa"/><use transform="matrix(0.05,0,0,0.05,57.900000000000006,0)" xlink:href="#aw"/><use transform="matrix(0.05,0,0,0.05,67.9,0)" xlink:href="#ah"/><use transform="matrix(0.05,0,0,0.05,79.9,0)" xlink:href="#ac"/><use transform="matrix(0.05,0,0,0.05,89.9,0)" xlink:href="#ae"/></g></defs></g></svg>