<?xml version="1.0" encoding="UTF-8" standalone="no"?>
<svg
   xmlns:lucid="lucid"
   xmlns:dc="http://purl.org/dc/elements/1.1/"
   xmlns:cc="http://creativecommons.org/ns#"
   xmlns:rdf="http://www.w3.org/1999/02/22-rdf-syntax-ns#"
   xmlns:svg="http://www.w3.org/2000/svg"
   xmlns="http://www.w3.org/2000/svg"
   xmlns:xlink="http://www.w3.org/1999/xlink"
   xmlns:sodipodi="http://sodipodi.sourceforge.net/DTD/sodipodi-0.dtd"
   xmlns:inkscape="http://www.inkscape.org/namespaces/inkscape"
   width="562.40088"
   height="481"
   version="1.1"
   id="svg323"
   sodipodi:docname="cassandra-rack.svg"
   inkscape:export-filename="/home/bradfordcp/src/k8ssandra/docs/content/en/docs/architecture/cassandra/cassandra-rack.png"
   inkscape:export-xdpi="96"
   inkscape:export-ydpi="96"
   inkscape:version="1.0.1 (3bc2e813f5, 2020-09-07)">
  <metadata
     id="metadata329">
    <rdf:RDF>
      <cc:Work
         rdf:about="">
        <dc:format>image/svg+xml</dc:format>
        <dc:type
           rdf:resource="http://purl.org/dc/dcmitype/StillImage" />
      </cc:Work>
    </rdf:RDF>
  </metadata>
  <defs
     id="defs327" />
  <sodipodi:namedview
     pagecolor="#ffffff"
     bordercolor="#666666"
     borderopacity="1"
     objecttolerance="10"
     gridtolerance="10"
     guidetolerance="10"
     inkscape:pageopacity="0"
     inkscape:pageshadow="2"
     inkscape:window-width="1920"
     inkscape:window-height="1016"
     id="namedview325"
     showgrid="false"
     inkscape:zoom="0.95216479"
     inkscape:cx="99.870732"
     inkscape:cy="324.64429"
     inkscape:window-x="0"
     inkscape:window-y="27"
     inkscape:window-maximized="1"
     inkscape:current-layer="svg323" />
  <g
     transform="translate(-79.5,-79.5)"
     lucid:page-tab-id="umnGsK3PyKwa"
     id="g321">
    <path
       d="m 80,82 c 0,-1.1 0.9,-2 2,-2 h 556 c 1.1,0 2,0.9 2,2 v 476 c 0,1.1 -0.9,2 -2,2 H 82 c -1.1,0 -2,-0.9 -2,-2 z"
       stroke="#000000"
       fill="#f1f8e9"
       id="path2" />
    <use
       xlink:href="#a"
       transform="translate(96,112.69922)"
       id="use4"
       x="0"
       y="0"
       width="100%"
       height="100%" />
    <use
       xlink:href="#b"
       transform="translate(131.12988,112.69922)"
       id="use6"
       x="0"
       y="0"
       width="100%"
       height="100%" />
    <path
       d="m 100,142 c 0,-1.1 0.9,-2 2,-2 h 516 c 1.1,0 2,0.9 2,2 v 396 c 0,1.1 -0.9,2 -2,2 H 102 c -1.1,0 -2,-0.9 -2,-2 z"
       stroke="#000000"
       fill="#f6f6f6"
       id="path8" />
    <use
       xlink:href="#c"
       transform="translate(116,172.69922)"
       id="use10"
       x="0"
       y="0"
       width="100%"
       height="100%" />
    <use
       xlink:href="#d"
       transform="translate(208.85645,172.69922)"
       id="use12"
       x="0"
       y="0"
       width="100%"
       height="100%" />
    <use
       xlink:href="#e"
       transform="translate(223.41992,172.69922)"
       id="use14"
       x="0"
       y="0"
       width="100%"
       height="100%" />
    <use
       xlink:href="#f"
       transform="translate(253.49609,172.69922)"
       id="use16"
       x="0"
       y="0"
       width="100%"
       height="100%" />
    <path
       d="m 599.77,122.1 c -0.76,0.1 -1.36,0.24 -1.97,0.54 l -26.3,12.96 c -1.44,0.68 -2.42,1.9 -2.72,3.5 l -6.52,29.16 c -0.3,1.37 -0.08,2.73 0.68,3.94 0.08,0.15 0.15,0.23 0.3,0.38 l 18.2,23.34 c 0.98,1.3 2.34,1.97 3.93,1.97 h 29.26 c 1.6,0 2.95,-0.7 3.94,-1.98 l 18.18,-23.34 c 1,-1.3 1.37,-2.8 1,-4.4 l -6.53,-29.1 c -0.3,-1.6 -1.3,-2.8 -2.73,-3.48 l -26.3,-12.96 c -0.84,-0.38 -1.6,-0.6 -2.43,-0.53 z"
       stroke="#000000"
       stroke-opacity="0"
       stroke-width="3.83"
       fill="#326ce5"
       id="path18" />
    <path
       d="m 599.76,120 c -0.8,0.08 -1.44,0.24 -2.08,0.56 l -27.76,13.68 c -1.52,0.72 -2.56,2 -2.88,3.68 l -6.88,30.8 c -0.32,1.44 -0.08,2.88 0.72,4.16 0.08,0.16 0.16,0.24 0.32,0.4 l 19.2,24.64 c 1.04,1.36 2.48,2.08 4.16,2.08 h 30.88 c 1.68,0 3.12,-0.72 4.16,-2.08 l 19.2,-24.64 c 1.04,-1.36 1.44,-2.96 1.04,-4.56 l -6.88,-30.8 c -0.32,-1.68 -1.36,-2.96 -2.88,-3.68 l -27.76,-13.68 c -0.88,-0.4 -1.68,-0.64 -2.56,-0.56 z m 0,2.16 c 0.88,-0.08 1.6,0.08 2.4,0.48 l 26.4,12.96 c 1.36,0.72 2.32,1.92 2.72,3.52 l 6.48,29.12 c 0.32,1.6 0,3.04 -0.96,4.32 l -18.24,23.36 c -0.96,1.28 -2.32,2 -3.92,2 h -29.28 c -1.6,0 -2.96,-0.72 -3.92,-2 L 563.2,172.56 c -0.08,-0.08 -0.16,-0.24 -0.24,-0.4 -0.8,-1.2 -1.04,-2.48 -0.72,-3.92 l 6.48,-29.12 c 0.4,-1.6 1.28,-2.8 2.72,-3.52 l 26.4,-12.96 c 0.64,-0.32 1.2,-0.48 1.92,-0.56 z"
       stroke="#000000"
       stroke-opacity="0"
       stroke-width="3.83"
       fill="#ffffff"
       id="path20" />
    <path
       d="m 591.18,139.36 v 3.4 h 2.35 v -2.2 h 4.85 v -2.42 h -6 c -0.98,0 -1.2,0.33 -1.2,1.22 z m 11.9,1.2 h 9.38 v -2.42 h -9.4 z m 14.07,0 h 2.97 v 4.2 h 2.35 v -5.4 c 0,-0.96 -0.5,-1.2 -1.2,-1.22 h -4.12 z m -25.97,8.26 v 8.46 h 2.35 v -9.67 h -2.35 z m 28.94,2 v 8.47 h 2.35 v -9.7 h -2.35 z m -26,10.7 h 9.4 v -2.44 h -9.4 z m 19.43,0 h 4.04 v -2.44 h -4.05 z"
       stroke="#000000"
       stroke-opacity="0"
       stroke-width="3.77"
       fill="#ffffff"
       id="path22" />
    <path
       d="m 584.36,145.8 v 4.4 h 2.35 v -3.18 h 3.92 v -2.43 h -5.07 c -0.97,0 -1.2,0.32 -1.2,1.2 z m 10.98,1.22 h 9.35 v -2.43 h -9.36 z m 14.05,0 h 3.9 v 3.23 h 2.34 v -4.44 c 0,-0.74 -0.3,-1.23 -1.15,-1.2 h -5.1 z m -25.04,9.23 v 8.46 h 2.35 v -9.66 h -2.34 z m 28.94,0.05 v 8.46 h 2.34 v -9.67 h -2.34 z m -25.06,11.66 h 9.38 v -2.4 h -9.38 z m 14.08,0 h 9.38 v -2.4 h -9.38 z"
       stroke="#000000"
       stroke-opacity="0"
       stroke-width="3.77"
       fill="#ffffff"
       id="path24" />
    <path
       d="m 577.54,173.25 v -22.2 l 29.95,0.02 c 0.92,0 1.33,0.8 1.33,1.38 l -0.03,20.75 c -0.03,0.8 -0.66,1.24 -1.28,1.22 h -28.8 c -0.52,0 -1.2,-0.45 -1.18,-1.17 z"
       stroke="#000000"
       stroke-opacity="0"
       stroke-width="3.77"
       fill="#ffffff"
       id="path26" />
    <path
       d="m 592.95,153.16 c -3.42,0 -6.53,0.4 -8.87,1.07 -1.16,0.35 -2.15,0.77 -2.94,1.3 -0.77,0.54 -1.46,1.32 -1.46,2.4 v 9.6 c 0,1.08 0.7,1.84 1.46,2.38 0.8,0.56 1.78,0.97 2.94,1.3 2.34,0.7 5.45,1.1 8.87,1.1 3.43,0 6.54,-0.4 8.87,-1.1 1.17,-0.33 2.15,-0.74 2.95,-1.3 0.77,-0.53 1.46,-1.3 1.46,-2.36 v -9.6 c 0,-1.1 -0.7,-1.87 -1.46,-2.4 -0.8,-0.54 -1.78,-0.96 -2.95,-1.3 -2.33,-0.68 -5.44,-1.08 -8.87,-1.08 z m 0,2.4 c 3.24,0 6.2,0.4 8.24,1 1.02,0.3 1.8,0.68 2.24,0.98 0.45,0.3 0.45,0.46 0.45,0.4 0,-0.1 0,0.04 -0.46,0.37 -0.45,0.32 -1.22,0.66 -2.25,0.97 -2.06,0.6 -5,1 -8.25,1 -3.24,0 -6.18,-0.4 -8.23,-1 -1.03,-0.3 -1.8,-0.65 -2.26,-0.96 -0.45,-0.32 -0.45,-0.47 -0.45,-0.37 0,0.07 0,-0.08 0.46,-0.4 0.46,-0.3 1.23,-0.66 2.26,-0.96 2.05,-0.6 5,-1 8.23,-1 z M 582,160.7 c 0.65,0.33 1.26,0.67 2.08,0.92 2.34,0.7 5.45,1.1 8.87,1.1 3.43,0 6.54,-0.4 8.87,-1.1 0.83,-0.25 1.44,-0.6 2.07,-0.92 v 6.86 c 0,-0.08 0,0.07 -0.46,0.38 -0.45,0.3 -1.22,0.67 -2.25,0.96 -2.06,0.6 -5,1 -8.25,1 -3.24,0 -6.18,-0.4 -8.23,-1 -1.03,-0.3 -1.8,-0.66 -2.26,-0.96 -0.45,-0.3 -0.45,-0.46 -0.45,-0.38 z"
       stroke="#000000"
       stroke-opacity="0"
       stroke-width="3.77"
       fill="#326ce5"
       id="path28" />
    <path
       d="m 597.37,189.65 c 0,0.64 -0.24,1.13 -0.7,1.48 -0.48,0.35 -1.14,0.52 -2,0.52 -0.8,0 -1.45,-0.14 -1.9,-0.4 -0.44,-0.3 -0.72,-0.73 -0.86,-1.32 l 0.98,-0.2 c 0.1,0.37 0.3,0.63 0.58,0.8 0.3,0.18 0.7,0.26 1.22,0.26 0.56,0 0.97,-0.1 1.22,-0.27 0.27,-0.18 0.4,-0.45 0.4,-0.8 0,-0.27 -0.1,-0.5 -0.27,-0.66 -0.18,-0.16 -0.47,-0.3 -0.87,-0.4 l -0.8,-0.22 c -0.62,-0.17 -1.07,-0.33 -1.34,-0.5 -0.27,-0.16 -0.47,-0.36 -0.62,-0.6 -0.15,-0.2 -0.23,-0.5 -0.23,-0.83 0,-0.63 0.2,-1.1 0.64,-1.42 0.45,-0.33 1.07,-0.5 1.9,-0.5 0.72,0 1.3,0.14 1.73,0.4 0.43,0.27 0.7,0.7 0.82,1.28 l -1,0.12 c -0.05,-0.3 -0.22,-0.53 -0.48,-0.7 -0.27,-0.16 -0.62,-0.24 -1.07,-0.24 -0.5,0 -0.87,0.08 -1.1,0.24 -0.24,0.15 -0.36,0.4 -0.36,0.7 0,0.2 0.05,0.35 0.15,0.48 0.1,0.12 0.23,0.23 0.42,0.32 0.2,0.1 0.6,0.2 1.2,0.37 0.6,0.14 1,0.28 1.27,0.42 0.25,0.12 0.45,0.26 0.6,0.4 0.14,0.17 0.26,0.34 0.35,0.55 0.08,0.2 0.12,0.43 0.12,0.7 z m 3.83,1.87 c -0.35,0.1 -0.73,0.15 -1.1,0.15 -0.88,0 -1.33,-0.5 -1.33,-1.54 v -4.55 H 598 v -0.82 h 0.82 l 0.32,-1.53 h 0.73 v 1.53 h 1.23 v 0.82 h -1.23 v 4.3 c 0,0.33 0.05,0.56 0.16,0.7 0.1,0.13 0.28,0.2 0.54,0.2 0.15,0 0.36,-0.04 0.64,-0.1 z m 5.9,-1.87 c 0,0.64 -0.24,1.13 -0.7,1.48 -0.48,0.35 -1.14,0.52 -2,0.52 -0.8,0 -1.45,-0.14 -1.9,-0.4 -0.44,-0.3 -0.73,-0.73 -0.86,-1.32 l 0.97,-0.2 c 0.1,0.37 0.3,0.63 0.6,0.8 0.28,0.18 0.7,0.26 1.2,0.26 0.57,0 0.98,-0.1 1.23,-0.27 0.26,-0.18 0.4,-0.45 0.4,-0.8 0,-0.27 -0.1,-0.5 -0.27,-0.66 -0.18,-0.16 -0.47,-0.3 -0.87,-0.4 l -0.8,-0.22 c -0.63,-0.17 -1.08,-0.33 -1.35,-0.5 -0.27,-0.16 -0.47,-0.36 -0.62,-0.6 -0.15,-0.2 -0.23,-0.5 -0.23,-0.83 0,-0.63 0.2,-1.1 0.64,-1.42 0.44,-0.33 1.06,-0.5 1.9,-0.5 0.7,0 1.3,0.14 1.72,0.4 0.43,0.27 0.7,0.7 0.82,1.28 l -1,0.12 c -0.05,-0.3 -0.22,-0.53 -0.48,-0.7 -0.27,-0.16 -0.63,-0.24 -1.07,-0.24 -0.5,0 -0.87,0.08 -1.1,0.24 -0.24,0.15 -0.36,0.4 -0.36,0.7 0,0.2 0.05,0.35 0.15,0.48 0.1,0.12 0.24,0.23 0.43,0.32 0.2,0.1 0.6,0.2 1.2,0.37 0.6,0.14 1,0.28 1.27,0.42 0.26,0.12 0.46,0.26 0.6,0.4 0.15,0.17 0.27,0.34 0.36,0.55 0.08,0.2 0.12,0.43 0.12,0.7 z"
       stroke="#000000"
       stroke-opacity="0"
       fill="#ffffff"
       id="path30" />
    <path
       d="m 120,202 c 0,-1.1 0.9,-2 2,-2 h 336 c 1.1,0 2,0.9 2,2 v 316 c 0,1.1 -0.9,2 -2,2 H 122 c -1.1,0 -2,-0.9 -2,-2 z"
       stroke="#000000"
       fill="#f3e5f5"
       id="path32" />
    <use
       xlink:href="#g"
       transform="translate(136,232.69922)"
       id="use34"
       x="0"
       y="0"
       width="100%"
       height="100%" />
    <use
       xlink:href="#h"
       transform="translate(172.11426,232.69922)"
       id="use36"
       x="0"
       y="0"
       width="100%"
       height="100%" />
    <path
       d="m 140,340 h 160 v 60 H 140 Z"
       stroke="#000000"
       stroke-width="2"
       fill="#ef8d22"
       id="path38" />
    <use
       xlink:href="#i"
       transform="translate(165.075,362.525)"
       id="use40"
       x="0"
       y="0"
       width="100%"
       height="100%" />
    <use
       xlink:href="#j"
       transform="translate(256.975,362.525)"
       id="use42"
       x="0"
       y="0"
       width="100%"
       height="100%" />
    <use
       xlink:href="#k"
       transform="translate(175.75,384.125)"
       id="use44"
       x="0"
       y="0"
       width="100%"
       height="100%" />
    <use
       xlink:href="#l"
       transform="translate(235.25,384.125)"
       id="use46"
       x="0"
       y="0"
       width="100%"
       height="100%" />
    <path
       d="m 140,420 h 160 v 60 H 140 Z"
       stroke="#000000"
       stroke-width="2"
       fill="#ef8d22"
       id="path48" />
    <use
       xlink:href="#m"
       transform="translate(155.125,455.025)"
       id="use50"
       x="0"
       y="0"
       width="100%"
       height="100%" />
    <use
       xlink:href="#n"
       transform="translate(183.025,455.025)"
       id="use52"
       x="0"
       y="0"
       width="100%"
       height="100%" />
    <use
       xlink:href="#o"
       transform="translate(198.975,455.025)"
       id="use54"
       x="0"
       y="0"
       width="100%"
       height="100%" />
    <path
       d="m 140,260 h 160 v 60 H 140 Z"
       fill="#99d5ca"
       id="path56" />
    <path
       d="m 152,260 h 8 m 8,0 h 8 m 8,0 h 8 m 8,0 h 8 m 8,0 h 8 m 8,0 h 8 m 8,0 h 8 m 8,0 h 8 m 8,0 h 8 m 8,0 h 4 v 3.75 m 0,7.5 v 7.5 m 0,7.5 v 7.5 m 0,7.5 v 7.5 m 0,7.5 V 320 h -4 m -8,0 h -8 m -8,0 h -8 m -8,0 h -8 m -8,0 h -8 m -8,0 h -8 m -8,0 h -8 m -8,0 h -8 m -8,0 h -8 m -8,0 h -8 m -8,0 h -4 v -3.75 m 0,-7.5 v -7.5 m 0,-7.5 v -7.5 m 0,-7.5 v -7.5 m 0,-7.5 V 260 h 4"
       stroke="#000000"
       stroke-width="2"
       fill="none"
       id="path58" />
    <use
       xlink:href="#p"
       transform="translate(163.625,295.025)"
       id="use60"
       x="0"
       y="0"
       width="100%"
       height="100%" />
    <use
       xlink:href="#q"
       transform="translate(220.525,295.025)"
       id="use62"
       x="0"
       y="0"
       width="100%"
       height="100%" />
    <path
       d="m 379.66,263.17 c -1.14,0.1 -2.05,0.34 -2.96,0.8 l -39.44,19.43 c -2.16,1.02 -3.64,2.84 -4.1,5.23 l -9.77,43.76 c -0.47,2.04 -0.13,4.08 1,5.9 0.13,0.23 0.24,0.34 0.47,0.57 l 27.28,35 c 1.48,1.94 3.52,2.97 5.9,2.97 h 43.9 c 2.38,0 4.42,-1.03 5.9,-2.96 l 27.28,-35 c 1.48,-1.94 2.05,-4.2 1.48,-6.6 l -9.77,-43.65 c -0.45,-2.4 -1.93,-4.2 -4.1,-5.23 L 383.3,263.95 c -1.25,-0.57 -2.4,-0.9 -3.64,-0.8 z"
       stroke="#000000"
       stroke-opacity="0"
       stroke-width="3.83"
       fill="#326ce5"
       id="path64" />
    <path
       d="m 379.64,260 c -1.2,0.12 -2.16,0.36 -3.12,0.84 l -41.64,20.52 c -2.28,1.08 -3.84,3 -4.32,5.52 l -10.32,46.2 c -0.48,2.16 -0.12,4.32 1.08,6.24 0.12,0.24 0.24,0.36 0.48,0.6 l 28.8,36.96 c 1.56,2.04 3.72,3.12 6.24,3.12 h 46.32 c 2.52,0 4.68,-1.08 6.24,-3.12 l 28.8,-36.96 c 1.56,-2.04 2.16,-4.44 1.56,-6.84 l -10.32,-46.2 c -0.48,-2.52 -2.04,-4.44 -4.32,-5.52 l -41.64,-20.52 c -1.32,-0.6 -2.52,-0.96 -3.84,-0.84 z m 0,3.24 c 1.32,-0.12 2.4,0.12 3.6,0.72 l 39.6,19.44 c 2.04,1.08 3.48,2.88 4.08,5.28 l 9.72,43.68 c 0.48,2.4 0,4.56 -1.44,6.48 l -27.36,35.04 c -1.44,1.92 -3.48,3 -5.88,3 h -43.92 c -2.4,0 -4.44,-1.08 -5.88,-3 L 324.8,338.84 c -0.12,-0.12 -0.24,-0.36 -0.36,-0.6 -1.2,-1.8 -1.56,-3.72 -1.08,-5.88 l 9.72,-43.68 c 0.6,-2.4 1.92,-4.2 4.08,-5.28 l 39.6,-19.44 c 0.96,-0.48 1.8,-0.72 2.88,-0.84 z"
       stroke="#000000"
       stroke-opacity="0"
       stroke-width="3.83"
       fill="#ffffff"
       id="path66" />
    <path
       d="m 374.5,362.07 c 0,3.56 -1.2,5.35 -3.64,5.35 -1.52,0 -2.55,-0.6 -3.08,-1.8 h -0.04 c 0.03,0.07 0.03,0.6 0.03,1.62 v 4 h -1.64 v -12.16 c 0,-1.05 -0.03,-1.74 -0.06,-2.1 h 1.6 l 0.02,0.3 c 0,0.14 0,0.38 0.03,0.7 l 0.03,0.66 h 0.03 c 0.3,-0.62 0.67,-1.1 1.16,-1.37 0.48,-0.3 1.1,-0.45 1.9,-0.45 1.23,0 2.14,0.42 2.75,1.27 0.6,0.82 0.9,2.15 0.9,3.97 z m -1.72,0.03 c 0,-1.42 -0.2,-2.44 -0.56,-3.05 -0.38,-0.62 -0.97,-0.92 -1.78,-0.92 -0.66,0 -1.16,0.15 -1.54,0.43 -0.37,0.28 -0.64,0.72 -0.84,1.33 -0.2,0.58 -0.3,1.37 -0.3,2.33 0,1.35 0.23,2.33 0.64,2.97 0.4,0.63 1.1,0.95 2.02,0.95 0.82,0 1.4,-0.3 1.8,-0.92 0.37,-0.62 0.56,-1.66 0.56,-3.13 z m 8.14,5.13 h -1.95 L 375.37,357 h 1.76 l 2.18,6.66 c 0.1,0.24 0.3,1 0.64,2.24 l 0.33,-1.1 0.35,-1.12 2.26,-6.68 h 1.75 z m 6.3,-5.16 c 0,1.35 0.2,2.36 0.62,3.02 0.4,0.65 1.04,0.96 1.88,0.96 0.6,0 1.07,-0.15 1.46,-0.48 0.4,-0.33 0.65,-0.83 0.74,-1.52 l 1.67,0.12 c -0.14,0.98 -0.55,1.77 -1.24,2.35 -0.68,0.58 -1.54,0.88 -2.6,0.88 -1.4,0 -2.45,-0.43 -3.17,-1.34 -0.74,-0.9 -1.1,-2.22 -1.1,-3.96 0,-1.72 0.36,-3.03 1.1,-3.93 0.72,-0.9 1.77,-1.36 3.14,-1.36 1.02,0 1.86,0.3 2.53,0.83 0.67,0.54 1.1,1.28 1.26,2.23 l -1.7,0.13 c -0.08,-0.57 -0.3,-1.03 -0.65,-1.36 -0.35,-0.34 -0.84,-0.5 -1.48,-0.5 -0.87,0 -1.5,0.3 -1.9,0.9 -0.4,0.6 -0.58,1.6 -0.58,3.03 z"
       stroke="#000000"
       stroke-opacity="0"
       fill="#ffffff"
       id="path68" />
    <path
       d="m 369.05,298.3 0.4,3.64 c 4.55,-0.48 9.17,-0.52 13.8,-0.44 l 0.12,-3.63 c -4.7,-0.16 -10.1,0.08 -14.32,0.44 z m 17.7,3.36 c 4.57,0.24 9.12,0.8 13.62,1.8 l 0.78,-3.55 c -4.9,-1 -9.96,-1.6 -14.26,-1.87 z m -35.4,0.8 1.62,3.2 c 4.3,-1.88 9.05,-2.76 12.95,-3.36 l -0.4,-3.6 c -5,0.73 -10.27,1.88 -14.18,3.76 z m 52.27,1.88 c 2.15,0.55 4.04,1.63 5.4,3.03 -2.92,2.75 -7.22,3.63 -10.6,4.3 l 0.64,3.56 c 3.45,-0.6 6.9,-1.6 9.97,-3.2 v 1.1 h 3.5 v -5.96 c 0,-3.87 -5,-5.43 -7.87,-6.3 z m -56.2,3.67 v 8.83 h 3.53 v -4.8 c 2.8,1.57 5.86,2.36 8.92,3 l 0.7,-3.55 c -3.3,-0.68 -6.9,-1.8 -9.23,-3.6 -0.33,-0.3 -0.4,-0.6 -0.33,-0.8 -1.03,-0.4 -2.07,-1.03 -3.1,-1.6 -0.47,0.8 -0.47,1.65 -0.47,2.53 z m 15.96,7.7 c 4.95,0.7 10.03,1.05 14.26,1.17 l 0.07,-3.63 c -4.55,-0.08 -9.24,-0.44 -13.73,-1.12 z m 17.84,-2.46 v 3.63 c 4.76,0 9.77,-0.4 14.26,-1.04 l -0.45,-3.6 c -4.43,0.7 -9.18,0.97 -13.8,1 z m 27.8,14.93 c -0.12,0.5 -0.4,0.7 -0.84,1 l 2.02,3 c 1.63,-1.5 2.34,-2.5 2.34,-3.77 v -11.66 h -3.5 z m -61.6,0.23 c 0.14,3.12 3.8,4.7 5.94,5.63 l 1.23,-3.4 c -1.57,-0.43 -3.65,-1.55 -3.65,-2.42 v -7.74 h -3.52 z m 44.68,5.07 0.4,3.6 c 4.8,-0.44 9.75,-1.44 14.18,-3.08 l -1.24,-3.4 c -4.3,1.64 -8.8,2.4 -13.34,2.87 z m -35.23,1.72 c 4.82,1.2 9.97,1.9 14.26,2.23 l 0.2,-3.64 c -4.43,-0.3 -9.05,-0.96 -13.54,-2.12 z m 17.97,-1.2 -0.2,3.63 c 4.76,0.23 9.58,0.1 14.27,-0.2 l -0.2,-3.64 c -4.6,0.35 -9.3,0.4 -13.86,0.2 z"
       stroke="#000000"
       stroke-opacity="0"
       stroke-width="3.77"
       fill="#ffffff"
       id="path70" />
    <path
       d="m 539.66,263.17 c -1.14,0.1 -2.05,0.34 -2.96,0.8 l -39.44,19.43 c -2.16,1.02 -3.64,2.84 -4.1,5.23 l -9.77,43.76 c -0.47,2.04 -0.13,4.08 1,5.9 0.13,0.23 0.24,0.34 0.47,0.57 l 27.28,35 c 1.48,1.94 3.52,2.97 5.9,2.97 h 43.9 c 2.38,0 4.42,-1.03 5.9,-2.96 l 27.28,-35 c 1.48,-1.94 2.05,-4.2 1.48,-6.6 l -9.77,-43.65 c -0.45,-2.4 -1.93,-4.2 -4.1,-5.23 L 543.3,263.95 c -1.25,-0.57 -2.4,-0.9 -3.64,-0.8 z"
       stroke="#000000"
       stroke-opacity="0"
       stroke-width="1.01"
       fill="#326ce5"
       id="path72" />
    <path
       d="m 539.64,260 c -1.2,0.12 -2.16,0.36 -3.12,0.84 l -41.64,20.52 c -2.28,1.08 -3.84,3 -4.32,5.52 l -10.32,46.2 c -0.48,2.16 -0.12,4.32 1.08,6.24 0.12,0.24 0.24,0.36 0.48,0.6 l 28.8,36.96 c 1.56,2.04 3.72,3.12 6.24,3.12 h 46.32 c 2.52,0 4.68,-1.08 6.24,-3.12 l 28.8,-36.96 c 1.56,-2.04 2.16,-4.44 1.56,-6.84 l -10.32,-46.2 c -0.48,-2.52 -2.04,-4.44 -4.32,-5.52 l -41.64,-20.52 c -1.32,-0.6 -2.52,-0.96 -3.84,-0.84 z m 0,3.24 c 1.32,-0.12 2.4,0.12 3.6,0.72 l 39.6,19.44 c 2.04,1.08 3.48,2.88 4.08,5.28 l 9.72,43.68 c 0.48,2.4 0,4.56 -1.44,6.48 l -27.36,35.04 c -1.44,1.92 -3.48,3 -5.88,3 h -43.92 c -2.4,0 -4.44,-1.08 -5.88,-3 L 484.8,338.84 c -0.12,-0.12 -0.24,-0.36 -0.36,-0.6 -1.2,-1.8 -1.56,-3.72 -1.08,-5.88 l 9.72,-43.68 c 0.6,-2.4 1.92,-4.2 4.08,-5.28 l 39.6,-19.44 c 0.96,-0.48 1.8,-0.72 2.88,-0.84 z"
       stroke="#000000"
       stroke-opacity="0"
       stroke-width="1.01"
       fill="#ffffff"
       id="path74" />
    <path
       d="m 509.2,309.57 c 0,4.26 13.8,7.7 30.8,7.7 17,0 30.8,-3.44 30.8,-7.7 v 20.86 c 0,4.26 -13.8,7.7 -30.8,7.7 -17,0 -30.8,-3.44 -30.8,-7.7 z"
       stroke="#000000"
       stroke-opacity="0"
       fill="#ffffff"
       id="path76" />
    <path
       d="m 509.2,309.57 c 0,-4.26 13.8,-7.7 30.8,-7.7 17,0 30.8,3.44 30.8,7.7 0,4.26 -13.8,7.7 -30.8,7.7 -17,0 -30.8,-3.44 -30.8,-7.7 z"
       stroke="#000000"
       stroke-opacity="0"
       fill="#ffffff"
       id="path78" />
    <path
       d="m 540,300.96 c -8.55,0 -16.28,0.83 -21.98,2.28 -2.85,0.7 -5.13,1.52 -6.84,2.55 -1.64,0.98 -2.85,2.2 -2.85,3.76 v 20.88 c 0,1.56 1.2,2.78 2.85,3.77 1.7,1.03 4,1.87 6.84,2.56 5.7,1.45 13.43,2.28 21.98,2.28 8.55,0 16.28,-0.83 21.98,-2.28 2.85,-0.7 5.13,-1.53 6.84,-2.55 1.64,-0.98 2.85,-2.2 2.85,-3.76 v -20.88 c 0,-1.56 -1.2,-2.78 -2.85,-3.77 -1.7,-1.04 -4,-1.87 -6.84,-2.56 -5.7,-1.45 -13.43,-2.28 -21.98,-2.28 z m 0,1.8 c 8.42,0 16.1,0.86 21.53,2.23 2.8,0.68 4.94,1.52 6.4,2.35 1.46,0.84 1.96,1.64 1.96,2.2 0,0.58 -0.5,1.38 -1.97,2.22 -1.46,0.88 -3.6,1.68 -6.4,2.36 -5.44,1.38 -13.1,2.25 -21.53,2.25 -12.16,0 -22.74,-1.86 -27.42,-4.3 -0.9,-0.46 -1.52,-0.95 -1.97,-1.4 -0.37,-0.43 -0.5,-0.8 -0.5,-1.12 0,-0.57 0.5,-1.37 1.97,-2.2 1.46,-0.84 3.6,-1.68 6.4,-2.37 5.44,-1.38 13.1,-2.25 21.53,-2.25 z m 29.9,9.13 v 18.54 c 0,0.57 -0.5,1.37 -1.97,2.2 -1.46,0.84 -3.6,1.68 -6.4,2.37 -5.44,1.38 -13.1,2.25 -21.53,2.25 -8.42,0 -16.1,-0.87 -21.53,-2.24 -2.8,-0.68 -4.94,-1.52 -6.4,-2.36 -1.46,-0.83 -1.96,-1.63 -1.96,-2.2 v -17.98 c 0.5,0.42 1.02,0.87 1.72,1.26 5.25,2.74 15.83,4.5 28.18,4.5 8.55,0 16.28,-0.9 21.98,-2.33 2.85,-0.7 5.13,-1.54 6.84,-2.53 0.63,-0.38 0.95,-1 1.07,-1.48 z"
       stroke="#000000"
       stroke-opacity="0"
       fill="#326ce5"
       id="path80" />
    <path
       d="m 540.72,362.3 c 0,3.55 -1.22,5.34 -3.65,5.34 -1.53,0 -2.56,-0.6 -3.08,-1.8 h -0.05 c 0.02,0.07 0.03,0.6 0.03,1.62 v 4 h -1.65 V 359.3 c 0,-1.05 -0.02,-1.74 -0.06,-2.1 h 1.6 l 0.03,0.28 0.03,0.73 0.03,0.65 h 0.04 c 0.3,-0.62 0.68,-1.08 1.16,-1.37 0.48,-0.3 1.12,-0.44 1.9,-0.44 1.23,0 2.15,0.42 2.75,1.27 0.6,0.84 0.92,2.17 0.92,4 z m -1.73,0 c 0,-1.4 -0.2,-2.42 -0.57,-3.03 -0.38,-0.62 -0.97,-0.92 -1.78,-0.92 -0.66,0 -1.17,0.14 -1.54,0.43 -0.36,0.28 -0.64,0.72 -0.83,1.33 -0.2,0.6 -0.3,1.4 -0.3,2.34 0,1.36 0.22,2.34 0.63,2.97 0.42,0.65 1.1,0.97 2.03,0.97 0.82,0 1.4,-0.3 1.78,-0.93 0.4,-0.62 0.6,-1.65 0.6,-3.13 z m 8.14,5.14 h -1.95 l -3.6,-10.22 h 1.75 l 2.2,6.66 0.62,2.24 0.32,-1.1 0.36,-1.12 2.25,-6.68 h 1.75 z"
       stroke="#000000"
       stroke-opacity="0"
       fill="#ffffff"
       id="path82" />
    <path
       d="m 439.77,182.1 c -0.76,0.1 -1.36,0.24 -1.97,0.54 l -26.3,12.96 c -1.44,0.68 -2.42,1.9 -2.72,3.5 l -6.52,29.16 c -0.3,1.37 -0.08,2.73 0.68,3.94 0.08,0.15 0.15,0.23 0.3,0.38 l 18.2,23.34 c 0.98,1.3 2.34,1.97 3.93,1.97 h 29.26 c 1.6,0 2.95,-0.7 3.94,-1.98 l 18.18,-23.34 c 1,-1.3 1.37,-2.8 1,-4.4 l -6.53,-29.1 c -0.3,-1.6 -1.3,-2.8 -2.73,-3.48 l -26.3,-12.96 c -0.84,-0.38 -1.6,-0.6 -2.43,-0.53 z"
       stroke="#000000"
       stroke-opacity="0"
       stroke-width="3.83"
       fill="#326ce5"
       id="path84" />
    <path
       d="m 439.76,180 c -0.8,0.08 -1.44,0.24 -2.08,0.56 l -27.76,13.68 c -1.52,0.72 -2.56,2 -2.88,3.68 l -6.88,30.8 c -0.32,1.44 -0.08,2.88 0.72,4.16 0.08,0.16 0.16,0.24 0.32,0.4 l 19.2,24.64 c 1.04,1.36 2.48,2.08 4.16,2.08 h 30.88 c 1.68,0 3.12,-0.72 4.16,-2.08 l 19.2,-24.64 c 1.04,-1.36 1.44,-2.96 1.04,-4.56 l -6.88,-30.8 c -0.32,-1.68 -1.36,-2.96 -2.88,-3.68 l -27.76,-13.68 c -0.88,-0.4 -1.68,-0.64 -2.56,-0.56 z m 0,2.16 c 0.88,-0.08 1.6,0.08 2.4,0.48 l 26.4,12.96 c 1.36,0.72 2.32,1.92 2.72,3.52 l 6.48,29.12 c 0.32,1.6 0,3.04 -0.96,4.32 l -18.24,23.36 c -0.96,1.28 -2.32,2 -3.92,2 h -29.28 c -1.6,0 -2.96,-0.72 -3.92,-2 L 403.2,232.56 c -0.08,-0.08 -0.16,-0.24 -0.24,-0.4 -0.8,-1.2 -1.04,-2.48 -0.72,-3.92 l 6.48,-29.12 c 0.4,-1.6 1.28,-2.8 2.72,-3.52 l 26.4,-12.96 c 0.64,-0.32 1.2,-0.48 1.92,-0.56 z"
       stroke="#000000"
       stroke-opacity="0"
       stroke-width="3.83"
       fill="#ffffff"
       id="path86" />
    <path
       d="m 436.02,248.05 c 0,2.37 -0.8,3.56 -2.44,3.56 -1,0 -1.7,-0.38 -2.05,-1.18 h -0.03 c 0.02,0.04 0.03,0.4 0.03,1.08 v 2.66 h -1.1 v -8.1 c 0,-0.7 -0.02,-1.17 -0.04,-1.4 h 1.05 c 0,0.02 0,0.1 0.02,0.18 l 0.03,0.5 v 0.42 h 0.04 c 0.2,-0.42 0.45,-0.72 0.77,-0.92 0.33,-0.2 0.76,-0.3 1.28,-0.3 0.82,0 1.43,0.3 1.83,0.85 0.4,0.55 0.62,1.43 0.62,2.65 z m -1.16,0 c 0,-0.93 -0.12,-1.6 -0.37,-2 -0.26,-0.43 -0.66,-0.63 -1.2,-0.63 -0.44,0 -0.77,0.1 -1.02,0.3 -0.25,0.17 -0.43,0.47 -0.56,0.87 -0.13,0.4 -0.2,0.92 -0.2,1.55 0,0.9 0.15,1.56 0.42,1.98 0.28,0.42 0.73,0.64 1.35,0.64 0.54,0 0.93,-0.2 1.18,-0.62 0.25,-0.4 0.38,-1.1 0.38,-2.1 z m 8.12,0.02 c 0,1.2 -0.25,2.08 -0.76,2.66 -0.5,0.6 -1.25,0.88 -2.22,0.88 -0.96,0 -1.7,-0.3 -2.2,-0.9 -0.48,-0.6 -0.73,-1.5 -0.73,-2.63 0,-2.35 1,-3.53 2.97,-3.53 1,0 1.75,0.3 2.23,0.87 0.48,0.58 0.7,1.47 0.7,2.67 z m -1.15,0 c 0,-0.94 -0.14,-1.63 -0.4,-2.05 -0.28,-0.42 -0.73,-0.64 -1.37,-0.64 -0.65,0 -1.1,0.22 -1.4,0.65 -0.3,0.44 -0.43,1.1 -0.43,2.04 0,0.9 0.14,1.58 0.42,2.03 0.3,0.45 0.74,0.67 1.34,0.67 0.65,0 1.12,-0.2 1.4,-0.65 0.28,-0.44 0.43,-1.12 0.43,-2.05 z m 6.7,2.33 c -0.2,0.42 -0.47,0.74 -0.8,0.93 -0.35,0.2 -0.76,0.28 -1.26,0.28 -0.83,0 -1.45,-0.28 -1.84,-0.86 -0.4,-0.58 -0.6,-1.46 -0.6,-2.64 0,-2.37 0.82,-3.56 2.44,-3.56 0.5,0 0.92,0.1 1.26,0.3 0.33,0.18 0.6,0.48 0.8,0.9 v -3.6 h 1.1 v 7.94 c 0,0.7 0.02,1.18 0.04,1.4 h -1.05 c -0.02,-0.06 -0.03,-0.22 -0.04,-0.47 l -0.03,-0.6 z m -3.34,-2.33 c 0,0.95 0.12,1.64 0.36,2.04 0.25,0.43 0.64,0.64 1.2,0.64 0.62,0 1.07,-0.23 1.35,-0.67 0.3,-0.45 0.43,-1.14 0.43,-2.08 0,-0.9 -0.14,-1.57 -0.42,-2 -0.27,-0.4 -0.72,-0.62 -1.34,-0.62 -0.55,0 -0.95,0.2 -1.2,0.64 -0.24,0.42 -0.37,1.1 -0.37,2.05 z"
       stroke="#000000"
       stroke-opacity="0"
       fill="#ffffff"
       id="path88" />
    <path
       d="M 423.94,206.8 440,202 l 16.06,4.8 -16.06,4.8 z m 0,1.84 v 17.6 l 14.96,8.55 0.08,-21.56 z m 32.12,0 v 17.6 l -14.96,8.55 -0.08,-21.56 z"
       stroke="#000000"
       stroke-opacity="0"
       stroke-width="3.77"
       fill="#ffffff"
       id="path90" />
    <path
       d="m 464.66,320 h -9.32"
       stroke="#000000"
       stroke-width="2"
       fill="none"
       id="path92" />
    <path
       d="m 479.93,320 -14.27,4.64 v -9.28 z m -39.86,0 14.27,-4.64 v 9.28 z"
       stroke="#000000"
       stroke-width="2"
       id="path94" />
    <defs
       id="defs319">
      <path
         d="M 539,-677 361,-492 V 0 H 169 v -1456 h 192 v 720 l 647,-720 h 232 L 667,-813 1285,0 h -230"
         id="r" />
      <path
         d="m 575,-1476 c 247,0 432,154 429,400 -2,161 -97,271 -213,327 135,56 245,179 247,356 3,257 -200,413 -463,413 -265,0 -466,-156 -463,-413 2,-176 108,-302 243,-357 -115,-56 -207,-166 -209,-326 -4,-246 181,-400 429,-400 z m 0,1345 c 168,0 278,-101 278,-266 0,-161 -118,-276 -280,-276 -163,0 -276,113 -276,276 0,167 108,266 278,266 z m 244,-942 c 0,-143 -104,-251 -244,-251 -146,0 -244,102 -244,251 0,145 98,248 244,248 146,0 244,-103 244,-248"
         id="s" />
      <path
         d="m 538,-131 c 121,0 232,-49 232,-156 0,-50 -20,-88 -56,-117 -73,-60 -334,-92 -420,-143 -92,-55 -162,-110 -162,-238 0,-190 192,-317 400,-317 223,0 414,129 413,338 H 759 c 0,-108 -110,-186 -227,-186 -119,0 -215,53 -215,159 0,45 18,78 53,101 76,52 331,90 416,139 98,57 169,115 169,251 C 955,-92 760,20 538,20 362,20 224,-48 152,-154 114,-209 95,-269 95,-333 h 185 c 6,129 116,202 258,202"
         id="t" />
      <g
         id="a">
        <use
           transform="scale(0.00878906)"
           xlink:href="#r"
           id="use99"
           x="0"
           y="0"
           width="100%"
           height="100%" />
        <use
           transform="matrix(0.00878906,0,0,0.00878906,11.285156,0)"
           xlink:href="#s"
           id="use101"
           x="0"
           y="0"
           width="100%"
           height="100%" />
        <use
           transform="matrix(0.00878906,0,0,0.00878906,21.392578,0)"
           xlink:href="#t"
           id="use103"
           x="0"
           y="0"
           width="100%"
           height="100%" />
      </g>
      <path
         d="m 483,-459 28,192 41,-173 288,-1016 h 162 l 281,1016 40,176 31,-196 226,-996 h 193 L 1420,0 H 1245 L 945,-1061 922,-1172 899,-1061 588,0 H 413 L 61,-1456 h 192"
         id="u" />
      <path
         d="M 584,20 C 278,26 81,-227 91,-551 c 10,-320 175,-545 491,-551 308,-5 503,247 494,573 -9,322 -175,543 -492,549 z m -2,-970 c -208,0 -305,185 -305,421 0,216 106,398 307,398 211,0 307,-186 307,-420 0,-214 -109,-399 -309,-399"
         id="v" />
      <path
         d="m 663,-916 c -163,-27 -288,18 -338,148 V 0 H 140 v -1082 h 180 l 3,125 c 61,-97 147,-145 258,-145 36,0 63,5 82,14 v 172"
         id="w" />
      <path
         d="M 442,-501 326,-380 V 0 H 141 v -1536 h 185 v 929 c 135,-169 291,-317 436,-475 H 987 L 566,-630 1036,0 H 819"
         id="x" />
      <path
         d="m 599,-131 c 141,0 220,-65 285,-146 l 113,88 C 906,-50 770,20 589,20 281,21 93,-214 93,-545 c 0,-223 93,-397 233,-485 74,-48 154,-72 240,-72 300,2 449,218 445,537 v 77 H 278 c 0,197 129,357 321,357 z m 227,-509 c -3,-180 -88,-310 -260,-310 -170,0 -264,140 -282,310 h 542"
         id="y" />
      <g
         id="b">
        <use
           transform="scale(0.00878906)"
           xlink:href="#u"
           id="use111"
           x="0"
           y="0"
           width="100%"
           height="100%" />
        <use
           transform="matrix(0.00878906,0,0,0.00878906,15.697266,0)"
           xlink:href="#v"
           id="use113"
           x="0"
           y="0"
           width="100%"
           height="100%" />
        <use
           transform="matrix(0.00878906,0,0,0.00878906,25.962891,0)"
           xlink:href="#w"
           id="use115"
           x="0"
           y="0"
           width="100%"
           height="100%" />
        <use
           transform="matrix(0.00878906,0,0,0.00878906,32.053711,0)"
           xlink:href="#x"
           id="use117"
           x="0"
           y="0"
           width="100%"
           height="100%" />
        <use
           transform="matrix(0.00878906,0,0,0.00878906,41.000977,0)"
           xlink:href="#y"
           id="use119"
           x="0"
           y="0"
           width="100%"
           height="100%" />
        <use
           transform="matrix(0.00878906,0,0,0.00878906,50.537109,0)"
           xlink:href="#w"
           id="use121"
           x="0"
           y="0"
           width="100%"
           height="100%" />
      </g>
      <path
         d="m 631,-137 c 179,0 314,-70 314,-231 0,-71 -25,-127 -75,-166 -50,-39 -141,-77 -272,-115 -165,-47 -285,-106 -360,-175 -75,-69 -112,-154 -112,-255 0,-245 231,-397 495,-397 206,0 369,89 449,218 43,68 65,142 65,223 H 942 c 0,-184 -129,-283 -321,-283 -172,0 -299,76 -301,236 0,59 26,109 76,150 50,41 135,78 256,113 205,59 345,116 436,256 35,53 50,119 50,193 C 1136,-114 907,28 631,20 333,12 90,-129 80,-422 h 193 c 0,187 160,285 358,285"
         id="z" />
      <path
         d="M 456,20 C 285,20 205,-92 206,-268 V -939 H 9 v -143 h 197 v -262 h 185 v 262 h 202 v 143 H 391 v 671 c -9,125 92,149 207,118 V 0 C 549,13 502,20 456,20"
         id="A" />
      <path
         d="m 561,-1102 c 238,-4 403,126 403,351 v 498 c 0,99 13,178 38,237 V 0 H 808 C 797,-21 789,-59 782,-114 696,-25 593,20 474,20 275,20 106,-110 109,-300 c 4,-251 214,-359 490,-356 h 180 v -85 c -1,-135 -86,-212 -229,-212 -115,0 -232,67 -233,171 H 131 c 20,-205 206,-316 430,-320 z m -267,776 c 0,117 90,185 207,185 122,0 239,-75 278,-162 V -525 H 634 c -227,0 -340,66 -340,199"
         id="B" />
      <path
         d="m 704,-1390 c -164,-38 -297,28 -288,194 v 114 h 231 v 143 H 416 V 0 H 231 V -939 H 60 v -143 h 171 v -111 c -12,-274 208,-416 483,-347"
         id="C" />
      <path
         d="M 491,20 C 250,19 136,-128 136,-378 v -704 h 185 v 699 c 0,164 67,246 200,246 141,0 235,-53 282,-158 v -787 H 988 V 0 H 812 l -4,-107 C 736,-22 630,20 491,20"
         id="D" />
      <path
         d="M 341,0 H 156 V -1536 H 341 V 0"
         id="E" />
      <g
         id="c">
        <use
           transform="scale(0.00878906)"
           xlink:href="#z"
           id="use130"
           x="0"
           y="0"
           width="100%"
           height="100%" />
        <use
           transform="matrix(0.00878906,0,0,0.00878906,10.678711,0)"
           xlink:href="#A"
           id="use132"
           x="0"
           y="0"
           width="100%"
           height="100%" />
        <use
           transform="matrix(0.00878906,0,0,0.00878906,16.558594,0)"
           xlink:href="#B"
           id="use134"
           x="0"
           y="0"
           width="100%"
           height="100%" />
        <use
           transform="matrix(0.00878906,0,0,0.00878906,26.349609,0)"
           xlink:href="#A"
           id="use136"
           x="0"
           y="0"
           width="100%"
           height="100%" />
        <use
           transform="matrix(0.00878906,0,0,0.00878906,32.229492,0)"
           xlink:href="#y"
           id="use138"
           x="0"
           y="0"
           width="100%"
           height="100%" />
        <use
           transform="matrix(0.00878906,0,0,0.00878906,41.765625,0)"
           xlink:href="#C"
           id="use140"
           x="0"
           y="0"
           width="100%"
           height="100%" />
        <use
           transform="matrix(0.00878906,0,0,0.00878906,48.014648,0)"
           xlink:href="#D"
           id="use142"
           x="0"
           y="0"
           width="100%"
           height="100%" />
        <use
           transform="matrix(0.00878906,0,0,0.00878906,57.9375,0)"
           xlink:href="#E"
           id="use144"
           x="0"
           y="0"
           width="100%"
           height="100%" />
        <use
           transform="matrix(0.00878906,0,0,0.00878906,62.305664,0)"
           xlink:href="#z"
           id="use146"
           x="0"
           y="0"
           width="100%"
           height="100%" />
        <use
           transform="matrix(0.00878906,0,0,0.00878906,72.984375,0)"
           xlink:href="#y"
           id="use148"
           x="0"
           y="0"
           width="100%"
           height="100%" />
        <use
           transform="matrix(0.00878906,0,0,0.00878906,82.520508,0)"
           xlink:href="#A"
           id="use150"
           x="0"
           y="0"
           width="100%"
           height="100%" />
      </g>
      <path
         d="M 729,0 H 543 v -1233 l -373,137 v -168 l 530,-199 h 29 V 0"
         id="F" />
      <use
         transform="scale(0.00878906)"
         xlink:href="#F"
         id="d"
         x="0"
         y="0"
         width="100%"
         height="100%" />
      <path
         d="M 319,-664 C 304,-226 428,158 661,357 L 623,470 C 534,421 451,337 369,222 142,-97 71,-578 194,-1025 c 67,-244 240,-513 429,-618 l 38,122 c -201,153 -330,502 -342,857"
         id="G" />
      <path
         d="m 688,-137 c 238,0 323,-102 359,-325 h 193 C 1208,-165 1012,20 688,20 327,20 119,-279 119,-660 c 0,-197 8,-360 73,-497 88,-186 257,-317 513,-319 316,-2 509,195 535,488 h -193 c -31,-212 -118,-330 -342,-330 -272,0 -397,224 -393,523 v 141 c -3,282 115,517 376,517"
         id="H" />
      <path
         d="m 330,-983 -302,-90 46,-151 302,112 -9,-344 h 153 l -10,349 297,-110 46,152 -307,91 198,271 -124,94 -186,-288 -180,281 -125,-91"
         id="I" />
      <g
         id="e">
        <use
           transform="scale(0.00878906)"
           xlink:href="#G"
           id="use158"
           x="0"
           y="0"
           width="100%"
           height="100%" />
        <use
           transform="matrix(0.00878906,0,0,0.00878906,6.1523437,0)"
           xlink:href="#H"
           id="use160"
           x="0"
           y="0"
           width="100%"
           height="100%" />
        <use
           transform="matrix(0.00878906,0,0,0.00878906,17.868164,0)"
           xlink:href="#I"
           id="use162"
           x="0"
           y="0"
           width="100%"
           height="100%" />
      </g>
      <path
         d="m 1161,-1018 c 0,201 -122,330 -278,388 l 342,618 V 0 H 1019 L 703,-589 H 361 V 0 H 168 v -1456 h 482 c 310,-2 511,139 511,438 z m -193,0 c 0,-187 -120,-280 -313,-280 H 361 v 552 h 295 c 179,3 313,-101 312,-272"
         id="J" />
      <path
         d="m 277,-555 c 0,244 77,420 297,424 127,2 249,-93 255,-210 h 175 C 980,-127 805,20 574,20 258,20 81,-222 92,-562 c 11,-319 164,-533 481,-540 237,-5 426,165 431,392 H 829 c -7,-133 -115,-242 -256,-240 -209,4 -296,166 -296,395"
         id="K" />
      <path
         d="M 38,357 C 331,141 457,-487 337,-984 284,-1203 180,-1413 38,-1530 l 39,-113 c 190,106 362,378 431,621 75,268 76,597 0,868 C 440,88 266,365 77,470"
         id="L" />
      <g
         id="f">
        <use
           transform="scale(0.00878906)"
           xlink:href="#J"
           id="use168"
           x="0"
           y="0"
           width="100%"
           height="100%" />
        <use
           transform="matrix(0.00878906,0,0,0.00878906,11.083008,0)"
           xlink:href="#B"
           id="use170"
           x="0"
           y="0"
           width="100%"
           height="100%" />
        <use
           transform="matrix(0.00878906,0,0,0.00878906,20.874023,0)"
           xlink:href="#K"
           id="use172"
           x="0"
           y="0"
           width="100%"
           height="100%" />
        <use
           transform="matrix(0.00878906,0,0,0.00878906,30.295898,0)"
           xlink:href="#x"
           id="use174"
           x="0"
           y="0"
           width="100%"
           height="100%" />
        <use
           transform="matrix(0.00878906,0,0,0.00878906,39.418945,0)"
           xlink:href="#L"
           id="use176"
           x="0"
           y="0"
           width="100%"
           height="100%" />
      </g>
      <path
         d="m 1216,-1011 c -1,297 -202,441 -512,441 H 361 V 0 H 169 v -1456 h 537 c 297,-6 510,164 510,445 z m -192,2 c 1,-178 -126,-288 -307,-289 H 361 v 571 h 345 c 196,1 318,-92 318,-282"
         id="M" />
      <path
         d="M 520,20 C 244,20 95,-247 95,-550 c 0,-298 151,-550 427,-552 127,0 227,43 301,130 v -564 h 185 V 0 H 838 l -9,-116 C 755,-25 652,20 520,20 Z m 48,-965 c -210,0 -288,177 -288,416 0,218 87,392 286,392 117,0 203,-53 257,-158 V -792 C 768,-894 683,-945 568,-945"
         id="N" />
      <g
         id="g">
        <use
           transform="scale(0.00878906)"
           xlink:href="#M"
           id="use181"
           x="0"
           y="0"
           width="100%"
           height="100%" />
        <use
           transform="matrix(0.00878906,0,0,0.00878906,11.241211,0)"
           xlink:href="#v"
           id="use183"
           x="0"
           y="0"
           width="100%"
           height="100%" />
        <use
           transform="matrix(0.00878906,0,0,0.00878906,21.506836,0)"
           xlink:href="#N"
           id="use185"
           x="0"
           y="0"
           width="100%"
           height="100%" />
      </g>
      <use
         transform="scale(0.00878906)"
         xlink:href="#F"
         id="h"
         x="0"
         y="0"
         width="100%"
         height="100%" />
      <path
         d="m 212,-179 c -10,-28 -35,-45 -73,-45 -59,0 -87,40 -87,99 0,60 29,101 89,101 43,0 62,-24 78,-52 l 27,14 C 228,-24 195,4 139,4 59,4 22,-46 18,-125 c -6,-104 99,-153 187,-111 19,9 31,26 39,46"
         id="O" />
      <path
         d="M 141,-36 C 126,-15 110,5 73,4 37,3 15,-17 15,-53 c -1,-64 63,-63 125,-63 3,-35 -9,-54 -41,-54 -24,1 -41,7 -42,31 l -33,-3 c 5,-37 33,-52 76,-52 45,0 72,20 72,64 v 82 c -1,20 7,32 28,27 V -1 C 169,8 139,-3 141,-36 Z M 48,-53 c 0,20 12,33 32,33 41,-3 63,-29 60,-74 -43,2 -92,-5 -92,41"
         id="P" />
      <path
         d="m 135,-143 c -3,-34 -86,-38 -87,0 15,53 115,12 119,90 4,78 -150,74 -157,8 l 28,-5 c 4,36 97,45 98,0 -10,-56 -113,-15 -118,-90 -4,-57 82,-63 122,-42 12,7 21,19 24,35"
         id="Q" />
      <path
         d="m 117,-194 c 89,-4 53,116 60,194 h -32 v -121 c 0,-31 -8,-49 -39,-48 C 34,-167 62,-67 57,0 H 25 l -1,-190 h 30 c 1,10 -1,24 2,32 11,-22 29,-35 61,-36"
         id="R" />
      <path
         d="m 85,-194 c 31,0 48,13 60,33 l -1,-100 h 32 l 1,261 h -30 c -2,-10 0,-23 -3,-31 C 134,-8 116,4 85,4 32,4 16,-35 15,-94 c 0,-66 23,-100 70,-100 z m 9,24 c -40,0 -46,34 -46,75 0,40 6,74 45,74 42,0 51,-32 51,-76 0,-42 -9,-74 -50,-73"
         id="S" />
      <path
         d="M 114,-163 C 36,-179 61,-72 57,0 H 25 l -1,-190 h 30 c 1,12 -1,29 2,39 6,-27 23,-49 58,-41 v 29"
         id="T" />
      <g
         id="i">
        <use
           transform="scale(0.05)"
           xlink:href="#O"
           id="use195"
           x="0"
           y="0"
           width="100%"
           height="100%" />
        <use
           transform="matrix(0.05,0,0,0.05,12.95,0)"
           xlink:href="#P"
           id="use197"
           x="0"
           y="0"
           width="100%"
           height="100%" />
        <use
           transform="matrix(0.05,0,0,0.05,22.95,0)"
           xlink:href="#Q"
           id="use199"
           x="0"
           y="0"
           width="100%"
           height="100%" />
        <use
           transform="matrix(0.05,0,0,0.05,31.95,0)"
           xlink:href="#Q"
           id="use201"
           x="0"
           y="0"
           width="100%"
           height="100%" />
        <use
           transform="matrix(0.05,0,0,0.05,40.95,0)"
           xlink:href="#P"
           id="use203"
           x="0"
           y="0"
           width="100%"
           height="100%" />
        <use
           transform="matrix(0.05,0,0,0.05,50.95,0)"
           xlink:href="#R"
           id="use205"
           x="0"
           y="0"
           width="100%"
           height="100%" />
        <use
           transform="matrix(0.05,0,0,0.05,60.95,0)"
           xlink:href="#S"
           id="use207"
           x="0"
           y="0"
           width="100%"
           height="100%" />
        <use
           transform="matrix(0.05,0,0,0.05,70.95,0)"
           xlink:href="#T"
           id="use209"
           x="0"
           y="0"
           width="100%"
           height="100%" />
        <use
           transform="matrix(0.05,0,0,0.05,76.9,0)"
           xlink:href="#P"
           id="use211"
           x="0"
           y="0"
           width="100%"
           height="100%" />
      </g>
      <path
         d="M 206,0 H 170 L 130,-164 89,0 H 53 L -1,-190 h 32 l 39,164 43,-164 h 34 l 41,164 42,-164 h 31"
         id="U" />
      <path
         d="m 0,4 72,-265 h 28 L 28,4 H 0"
         id="V" />
      <g
         id="j">
        <use
           transform="scale(0.05)"
           xlink:href="#U"
           id="use216"
           x="0"
           y="0"
           width="100%"
           height="100%" />
        <use
           transform="matrix(0.05,0,0,0.05,12.95,0)"
           xlink:href="#V"
           id="use218"
           x="0"
           y="0"
           width="100%"
           height="100%" />
      </g>
      <path
         d="m 240,0 2,-218 C 219,-142 188,-73 162,0 H 139 L 58,-218 59,0 H 30 v -248 h 44 l 77,211 c 21,-75 51,-140 76,-211 h 43 V 0 h -30"
         id="W" />
      <path
         d="M 143,4 C 61,4 22,-44 18,-125 c -5,-107 100,-154 193,-111 17,8 29,25 37,43 l -32,9 c -13,-25 -37,-40 -76,-40 -61,0 -88,39 -88,99 0,61 29,100 91,101 35,0 62,-11 79,-27 v -45 h -74 v -28 h 105 v 86 C 228,-13 192,4 143,4"
         id="X" />
      <path
         d="M 127,-220 V 0 H 93 V -220 H 8 v -28 h 204 v 28 h -85"
         id="Y" />
      <g
         id="k">
        <use
           transform="scale(0.05)"
           xlink:href="#W"
           id="use224"
           x="0"
           y="0"
           width="100%"
           height="100%" />
        <use
           transform="matrix(0.05,0,0,0.05,14.95,0)"
           xlink:href="#X"
           id="use226"
           x="0"
           y="0"
           width="100%"
           height="100%" />
        <use
           transform="matrix(0.05,0,0,0.05,28.95,0)"
           xlink:href="#W"
           id="use228"
           x="0"
           y="0"
           width="100%"
           height="100%" />
        <use
           transform="matrix(0.05,0,0,0.05,43.9,0)"
           xlink:href="#Y"
           id="use230"
           x="0"
           y="0"
           width="100%"
           height="100%" />
      </g>
      <path
         d="M 205,0 177,-72 H 64 L 36,0 H 1 l 101,-248 h 38 L 239,0 Z m -38,-99 -47,-123 c -12,45 -31,82 -46,123 h 93"
         id="Z" />
      <path
         d="m 30,-248 c 87,1 191,-15 191,75 0,78 -77,80 -158,76 V 0 H 30 Z m 33,125 c 57,0 124,11 124,-50 0,-59 -68,-47 -124,-48 v 98"
         id="aa" />
      <path
         d="M 33,0 V -248 H 67 V 0 H 33"
         id="ab" />
      <g
         id="l">
        <use
           transform="scale(0.05)"
           xlink:href="#Z"
           id="use236"
           x="0"
           y="0"
           width="100%"
           height="100%" />
        <use
           transform="matrix(0.05,0,0,0.05,12,0)"
           xlink:href="#aa"
           id="use238"
           x="0"
           y="0"
           width="100%"
           height="100%" />
        <use
           transform="matrix(0.05,0,0,0.05,24,0)"
           xlink:href="#ab"
           id="use240"
           x="0"
           y="0"
           width="100%"
           height="100%" />
      </g>
      <path
         d="m 59,-47 c -2,24 18,29 38,22 V -1 C 64,9 27,4 27,-40 V -167 H 5 v -23 h 24 l 9,-43 h 21 v 43 h 35 v 23 H 59 v 120"
         id="ac" />
      <path
         d="m 24,-231 v -30 h 32 v 30 z M 24,0 V -190 H 56 V 0 H 24"
         id="ad" />
      <path
         d="M 24,0 V -261 H 56 V 0 H 24"
         id="ae" />
      <g
         id="m">
        <use
           transform="scale(0.05)"
           xlink:href="#ac"
           id="use246"
           x="0"
           y="0"
           width="100%"
           height="100%" />
        <use
           transform="matrix(0.05,0,0,0.05,5,0)"
           xlink:href="#P"
           id="use248"
           x="0"
           y="0"
           width="100%"
           height="100%" />
        <use
           transform="matrix(0.05,0,0,0.05,15,0)"
           xlink:href="#ad"
           id="use250"
           x="0"
           y="0"
           width="100%"
           height="100%" />
        <use
           transform="matrix(0.05,0,0,0.05,18.95,0)"
           xlink:href="#ae"
           id="use252"
           x="0"
           y="0"
           width="100%"
           height="100%" />
      </g>
      <path
         d="m 16,-82 v -28 h 88 v 28 H 16"
         id="af" />
      <path
         d="m 101,-234 c -31,-9 -42,10 -38,44 h 38 v 23 H 63 V 0 H 32 V -167 H 5 v -23 h 27 c -7,-52 17,-82 69,-68 v 24"
         id="ag" />
      <g
         id="n">
        <use
           transform="scale(0.05)"
           xlink:href="#af"
           id="use257"
           x="0"
           y="0"
           width="100%"
           height="100%" />
        <use
           transform="matrix(0.05,0,0,0.05,5.95,0)"
           xlink:href="#ag"
           id="use259"
           x="0"
           y="0"
           width="100%"
           height="100%" />
      </g>
      <path
         d="M 179,-190 93,31 C 79,59 56,82 12,73 V 49 C 51,55 65,29 76,-1 L 1,-190 h 34 l 57,156 54,-156 h 33"
         id="ah" />
      <path
         d="m 100,-194 c 63,0 86,42 84,106 H 49 c 0,40 14,67 53,68 26,1 43,-12 49,-29 l 28,8 C 168,-13 142,4 102,4 44,4 14,-33 15,-96 c 1,-61 26,-98 85,-98 z m 52,81 c 6,-60 -76,-77 -97,-28 -3,7 -6,17 -6,28 h 103"
         id="ai" />
      <path
         d="m 210,-169 c -67,3 -38,105 -44,169 h -31 v -121 c 0,-29 -5,-50 -35,-48 C 34,-165 62,-65 56,0 H 25 l -1,-190 h 30 c 1,10 -1,24 2,32 10,-44 99,-50 107,0 11,-21 27,-35 58,-36 85,-2 47,119 55,194 h -31 v -121 c 0,-29 -5,-49 -35,-48"
         id="aj" />
      <path
         d="M 33,0 V -38 H 67 V 0 H 33"
         id="ak" />
      <path
         d="m 100,-194 c 62,-1 85,37 85,99 1,63 -27,99 -86,99 -59,0 -83,-39 -84,-99 0,-66 28,-99 85,-99 z m -1,174 c 44,1 53,-31 53,-75 0,-43 -8,-75 -51,-75 -43,0 -53,32 -53,75 0,43 10,74 51,75"
         id="al" />
      <path
         d="M 177,-190 C 167,-65 218,103 67,71 44,65 29,51 23,28 L 55,23 C 70,70 155,55 144,-5 V -35 C 133,-14 115,1 83,1 29,1 15,-40 15,-95 c 0,-56 16,-97 71,-98 29,-1 48,16 59,35 1,-10 0,-23 2,-32 z M 94,-22 c 36,0 50,-32 50,-73 0,-42 -14,-75 -50,-75 -39,0 -46,34 -46,75 0,41 6,73 46,73"
         id="am" />
      <g
         id="o">
        <use
           transform="scale(0.05)"
           xlink:href="#Q"
           id="use268"
           x="0"
           y="0"
           width="100%"
           height="100%" />
        <use
           transform="matrix(0.05,0,0,0.05,9,0)"
           xlink:href="#ah"
           id="use270"
           x="0"
           y="0"
           width="100%"
           height="100%" />
        <use
           transform="matrix(0.05,0,0,0.05,18,0)"
           xlink:href="#Q"
           id="use272"
           x="0"
           y="0"
           width="100%"
           height="100%" />
        <use
           transform="matrix(0.05,0,0,0.05,27,0)"
           xlink:href="#ac"
           id="use274"
           x="0"
           y="0"
           width="100%"
           height="100%" />
        <use
           transform="matrix(0.05,0,0,0.05,32,0)"
           xlink:href="#ai"
           id="use276"
           x="0"
           y="0"
           width="100%"
           height="100%" />
        <use
           transform="matrix(0.05,0,0,0.05,42,0)"
           xlink:href="#aj"
           id="use278"
           x="0"
           y="0"
           width="100%"
           height="100%" />
        <use
           transform="matrix(0.05,0,0,0.05,56.95,0)"
           xlink:href="#ak"
           id="use280"
           x="0"
           y="0"
           width="100%"
           height="100%" />
        <use
           transform="matrix(0.05,0,0,0.05,61.95,0)"
           xlink:href="#ae"
           id="use282"
           x="0"
           y="0"
           width="100%"
           height="100%" />
        <use
           transform="matrix(0.05,0,0,0.05,65.9,0)"
           xlink:href="#al"
           id="use284"
           x="0"
           y="0"
           width="100%"
           height="100%" />
        <use
           transform="matrix(0.05,0,0,0.05,75.9,0)"
           xlink:href="#am"
           id="use286"
           x="0"
           y="0"
           width="100%"
           height="100%" />
      </g>
      <g
         id="p">
        <use
           transform="scale(0.05)"
           xlink:href="#O"
           id="use289"
           x="0"
           y="0"
           width="100%"
           height="100%" />
        <use
           transform="matrix(0.05,0,0,0.05,12.95,0)"
           xlink:href="#al"
           id="use291"
           x="0"
           y="0"
           width="100%"
           height="100%" />
        <use
           transform="matrix(0.05,0,0,0.05,22.95,0)"
           xlink:href="#R"
           id="use293"
           x="0"
           y="0"
           width="100%"
           height="100%" />
        <use
           transform="matrix(0.05,0,0,0.05,32.95,0)"
           xlink:href="#ag"
           id="use295"
           x="0"
           y="0"
           width="100%"
           height="100%" />
        <use
           transform="matrix(0.05,0,0,0.05,37.95,0)"
           xlink:href="#ad"
           id="use297"
           x="0"
           y="0"
           width="100%"
           height="100%" />
        <use
           transform="matrix(0.05,0,0,0.05,41.9,0)"
           xlink:href="#am"
           id="use299"
           x="0"
           y="0"
           width="100%"
           height="100%" />
      </g>
      <path
         d="m 160,-131 c 35,5 61,23 61,61 0,87 -106,68 -191,70 v -248 c 76,3 177,-17 177,60 0,33 -19,50 -47,57 z m -97,-11 c 50,-1 110,9 110,-42 0,-47 -63,-36 -110,-37 z m 0,115 c 55,-2 124,14 124,-45 0,-56 -70,-42 -124,-44 v 89"
         id="an" />
      <path
         d="M 84,4 C -5,8 30,-112 23,-190 h 32 v 120 c 0,31 7,50 39,49 72,-2 45,-101 50,-169 h 31 l 1,190 h -30 c -1,-10 1,-25 -2,-33 -11,22 -28,36 -60,37"
         id="ao" />
      <g
         id="q">
        <use
           transform="scale(0.05)"
           xlink:href="#an"
           id="use304"
           x="0"
           y="0"
           width="100%"
           height="100%" />
        <use
           transform="matrix(0.05,0,0,0.05,12,0)"
           xlink:href="#ao"
           id="use306"
           x="0"
           y="0"
           width="100%"
           height="100%" />
        <use
           transform="matrix(0.05,0,0,0.05,22,0)"
           xlink:href="#ad"
           id="use308"
           x="0"
           y="0"
           width="100%"
           height="100%" />
        <use
           transform="matrix(0.05,0,0,0.05,25.95,0)"
           xlink:href="#ae"
           id="use310"
           x="0"
           y="0"
           width="100%"
           height="100%" />
        <use
           transform="matrix(0.05,0,0,0.05,29.9,0)"
           xlink:href="#S"
           id="use312"
           x="0"
           y="0"
           width="100%"
           height="100%" />
        <use
           transform="matrix(0.05,0,0,0.05,39.9,0)"
           xlink:href="#ai"
           id="use314"
           x="0"
           y="0"
           width="100%"
           height="100%" />
        <use
           transform="matrix(0.05,0,0,0.05,49.9,0)"
           xlink:href="#T"
           id="use316"
           x="0"
           y="0"
           width="100%"
           height="100%" />
      </g>
    </defs>
  </g>
</svg>
