<?xml version="1.0" encoding="UTF-8" standalone="no"?>
<svg
   xmlns:lucid="lucid"
   xmlns:dc="http://purl.org/dc/elements/1.1/"
   xmlns:cc="http://creativecommons.org/ns#"
   xmlns:rdf="http://www.w3.org/1999/02/22-rdf-syntax-ns#"
   xmlns:svg="http://www.w3.org/2000/svg"
   xmlns="http://www.w3.org/2000/svg"
   xmlns:xlink="http://www.w3.org/1999/xlink"
   xmlns:sodipodi="http://sodipodi.sourceforge.net/DTD/sodipodi-0.dtd"
   xmlns:inkscape="http://www.inkscape.org/namespaces/inkscape"
   width="821"
   height="681"
   version="1.1"
   id="svg281"
   sodipodi:docname="operator-deployment.svg"
   inkscape:version="1.0.1 (3bc2e813f5, 2020-09-07)"
   inkscape:export-filename="/home/bradfordcp/src/k8ssandra/docs/content/en/docs/architecture/cassandra/operator-deployment.png"
   inkscape:export-xdpi="96"
   inkscape:export-ydpi="96">
  <metadata
     id="metadata287">
    <rdf:RDF>
      <cc:Work
         rdf:about="">
        <dc:format>image/svg+xml</dc:format>
        <dc:type
           rdf:resource="http://purl.org/dc/dcmitype/StillImage" />
      </cc:Work>
    </rdf:RDF>
  </metadata>
  <defs
     id="defs285" />
  <sodipodi:namedview
     pagecolor="#ffffff"
     bordercolor="#666666"
     borderopacity="1"
     objecttolerance="10"
     gridtolerance="10"
     guidetolerance="10"
     inkscape:pageopacity="0"
     inkscape:pageshadow="2"
     inkscape:window-width="1920"
     inkscape:window-height="1016"
     id="namedview283"
     showgrid="false"
     inkscape:zoom="0.46804124"
     inkscape:cx="702.0761"
     inkscape:cy="335.59999"
     inkscape:window-x="0"
     inkscape:window-y="27"
     inkscape:window-maximized="1"
     inkscape:current-layer="svg281" />
  <g
     transform="translate(1600.5,-79.5)"
     lucid:page-tab-id="5rRT6d8-1-tu"
     id="g279">
    <path
       d="m -1600,82 c 0,-1.1 0.9,-2 2,-2 h 816 c 1.1,0 2,0.9 2,2 v 676 c 0,1.1 -0.9,2 -2,2 h -816 c -1.1,0 -2,-0.9 -2,-2 z"
       stroke="#000000"
       fill="#efebe9"
       id="path2" />
    <use
       xlink:href="#a"
       transform="translate(-1584,112.69922)"
       id="use4"
       x="0"
       y="0"
       width="100%"
       height="100%" />
    <path
       d="m -1580,142 c 0,-1.1 0.9,-2 2,-2 h 236 c 1.1,0 2,0.9 2,2 v 596 c 0,1.1 -0.9,2 -2,2 h -236 c -1.1,0 -2,-0.9 -2,-2 z"
       stroke="#000000"
       fill="#fff3e0"
       id="path6" />
    <use
       xlink:href="#b"
       transform="translate(-1564,172.69922)"
       id="use8"
       x="0"
       y="0"
       width="100%"
       height="100%" />
    <use
       xlink:href="#c"
       transform="translate(-1505.9834,172.69922)"
       id="use10"
       x="0"
       y="0"
       width="100%"
       height="100%" />
    <use
       xlink:href="#d"
       transform="translate(-1461.2031,172.69922)"
       id="use12"
       x="0"
       y="0"
       width="100%"
       height="100%" />
    <path
       d="m -1560,212 c 0,-1.1 0.9,-2 2,-2 h 196 c 1.1,0 2,0.9 2,2 v 286 c 0,1.1 -0.9,2 -2,2 h -196 c -1.1,0 -2,-0.9 -2,-2 z"
       stroke="#000000"
       fill="#e1f5fe"
       id="path14" />
    <use
       xlink:href="#e"
       transform="translate(-1544,242.69922)"
       id="use16"
       x="0"
       y="0"
       width="100%"
       height="100%" />
    <use
       xlink:href="#f"
       transform="translate(-1482.916,242.69922)"
       id="use18"
       x="0"
       y="0"
       width="100%"
       height="100%" />
    <path
       d="m -1540,262 c 0,-1.1 0.9,-2 2,-2 h 736 c 1.1,0 2,0.9 2,2 v 456 c 0,1.1 -0.9,2 -2,2 h -736 c -1.1,0 -2,-0.9 -2,-2 z"
       stroke="#000000"
       fill="#e8eaf6"
       fill-opacity="0.5"
       id="path20" />
    <use
       xlink:href="#g"
       transform="translate(-1524,292.69922)"
       id="use22"
       x="0"
       y="0"
       width="100%"
       height="100%" />
    <path
       d="m -1460.34,343.17 c -1.14,0.1 -2.05,0.34 -2.96,0.8 l -39.44,19.43 c -2.16,1.02 -3.64,2.84 -4.1,5.23 l -9.77,43.76 c -0.47,2.04 -0.12,4.08 1,5.9 0.13,0.23 0.24,0.34 0.47,0.57 l 27.28,35 c 1.48,1.94 3.52,2.97 5.9,2.97 h 43.9 c 2.38,0 4.42,-1.03 5.9,-2.96 l 27.28,-35 c 1.48,-1.94 2.05,-4.22 1.48,-6.6 l -9.77,-43.65 c -0.45,-2.4 -1.93,-4.2 -4.1,-5.23 l -39.43,-19.44 c -1.25,-0.57 -2.4,-0.9 -3.64,-0.8 z"
       stroke="#000000"
       stroke-opacity="0"
       stroke-width="0"
       fill="#326ce5"
       id="path24" />
    <path
       d="m -1460.36,340 c -1.2,0.12 -2.16,0.36 -3.12,0.84 l -41.64,20.52 c -2.28,1.08 -3.84,3 -4.32,5.52 l -10.32,46.2 c -0.48,2.16 -0.12,4.32 1.08,6.24 0.12,0.24 0.24,0.36 0.48,0.6 l 28.8,36.96 c 1.56,2.04 3.72,3.12 6.24,3.12 h 46.32 c 2.52,0 4.68,-1.08 6.24,-3.12 l 28.8,-36.96 c 1.56,-2.04 2.16,-4.44 1.56,-6.84 l -10.32,-46.2 c -0.48,-2.52 -2.04,-4.44 -4.32,-5.52 l -41.64,-20.52 c -1.32,-0.6 -2.52,-0.96 -3.84,-0.84 z m 0,3.12 c 1.32,0 2.4,0.24 3.6,0.84 l 39.6,19.44 c 2.04,1.08 3.48,2.88 4.08,5.28 l 9.72,43.68 c 0.48,2.4 0,4.56 -1.44,6.48 l -27.36,35.04 c -1.44,1.92 -3.48,3 -5.88,3 h -43.92 c -2.4,0 -4.44,-1.08 -5.88,-3 l -27.36,-35.04 c -0.12,-0.12 -0.24,-0.36 -0.36,-0.6 -1.2,-1.8 -1.56,-3.72 -1.08,-5.88 l 9.72,-43.68 c 0.6,-2.4 1.92,-4.2 4.08,-5.28 l 39.6,-19.44 c 0.96,-0.48 1.8,-0.72 2.88,-0.84 z"
       stroke="#000000"
       stroke-opacity="0"
       stroke-width="0"
       fill="#ffffff"
       id="path26" />
    <path
       d="m -1484.08,382.6 24.08,-7.2 24.1,7.2 -24.1,7.2 z m 0,2.76 v 26.4 l 22.43,12.84 0.12,-32.33 z m 48.18,0 v 26.4 l -22.45,12.84 -0.12,-32.33 z"
       stroke="#000000"
       stroke-opacity="0"
       fill="#ffffff"
       id="path28" />
    <use
       xlink:href="#h"
       transform="translate(-1514.925,483.4)"
       id="use30"
       x="0"
       y="0"
       width="100%"
       height="100%" />
    <path
       d="m -1240.34,343.17 c -1.14,0.1 -2.05,0.34 -2.96,0.8 l -39.44,19.43 c -2.16,1.02 -3.64,2.84 -4.1,5.23 l -9.77,43.76 c -0.47,2.04 -0.13,4.08 1,5.9 0.13,0.23 0.24,0.34 0.47,0.57 l 27.28,35 c 1.48,1.94 3.52,2.97 5.9,2.97 h 43.9 c 2.38,0 4.42,-1.03 5.9,-2.96 l 27.28,-35 c 1.48,-1.94 2.05,-4.2 1.48,-6.6 l -9.77,-43.65 c -0.45,-2.4 -1.93,-4.2 -4.1,-5.23 l -39.43,-19.44 c -1.25,-0.57 -2.4,-0.9 -3.64,-0.8 z"
       stroke="#000000"
       stroke-opacity="0"
       stroke-width="3.83"
       fill="#326ce5"
       id="path32" />
    <path
       d="m -1240.36,340 c -1.2,0.12 -2.16,0.36 -3.12,0.84 l -41.64,20.52 c -2.28,1.08 -3.84,3 -4.32,5.52 l -10.32,46.2 c -0.48,2.16 -0.12,4.32 1.08,6.24 0.12,0.24 0.24,0.36 0.48,0.6 l 28.8,36.96 c 1.56,2.04 3.72,3.12 6.24,3.12 h 46.32 c 2.52,0 4.68,-1.08 6.24,-3.12 l 28.8,-36.96 c 1.56,-2.04 2.16,-4.44 1.56,-6.84 l -10.32,-46.2 c -0.48,-2.52 -2.04,-4.44 -4.32,-5.52 l -41.64,-20.52 c -1.32,-0.6 -2.52,-0.96 -3.84,-0.84 z m 0,3.24 c 1.32,-0.12 2.4,0.12 3.6,0.72 l 39.6,19.44 c 2.04,1.08 3.48,2.88 4.08,5.28 l 9.72,43.68 c 0.48,2.4 0,4.56 -1.44,6.48 l -27.36,35.04 c -1.44,1.92 -3.48,3 -5.88,3 h -43.92 c -2.4,0 -4.44,-1.08 -5.88,-3 l -27.36,-35.04 c -0.12,-0.12 -0.24,-0.36 -0.36,-0.6 -1.2,-1.8 -1.56,-3.72 -1.08,-5.88 l 9.72,-43.68 c 0.6,-2.4 1.92,-4.2 4.08,-5.28 l 39.6,-19.44 c 0.96,-0.48 1.8,-0.72 2.88,-0.84 z"
       stroke="#000000"
       stroke-opacity="0"
       stroke-width="3.83"
       fill="#ffffff"
       id="path34" />
    <path
       d="m -1250.23,442.07 c 0,1.36 0.2,2.36 0.62,3.02 0.4,0.65 1.03,0.97 1.87,0.97 0.6,0 1.07,-0.16 1.46,-0.5 0.4,-0.32 0.65,-0.82 0.74,-1.5 l 1.67,0.1 c -0.13,1 -0.54,1.78 -1.22,2.36 -0.68,0.6 -1.55,0.88 -2.6,0.88 -1.4,0 -2.46,-0.43 -3.18,-1.33 -0.73,-0.92 -1.1,-2.23 -1.1,-3.97 0,-1.72 0.37,-3.03 1.1,-3.93 0.73,-0.9 1.78,-1.36 3.15,-1.36 1,0 1.85,0.3 2.52,0.83 0.67,0.54 1.1,1.28 1.26,2.23 l -1.7,0.13 c -0.08,-0.57 -0.3,-1.03 -0.65,-1.36 -0.34,-0.33 -0.84,-0.5 -1.48,-0.5 -0.87,0 -1.5,0.3 -1.9,0.9 -0.4,0.6 -0.58,1.6 -0.58,3.03 z m 8.16,5.16 v -7.84 c 0,-0.73 0,-1.52 -0.05,-2.4 h 1.56 l 0.07,2.1 h 0.04 c 0.27,-0.88 0.57,-1.48 0.92,-1.8 0.34,-0.33 0.82,-0.5 1.44,-0.5 0.22,0 0.45,0.05 0.67,0.1 v 1.57 c -0.22,-0.06 -0.5,-0.1 -0.88,-0.1 -0.7,0 -1.22,0.3 -1.57,0.92 -0.36,0.6 -0.55,1.46 -0.55,2.6 v 5.33 z m 12.5,-1.65 c -0.3,0.66 -0.7,1.12 -1.22,1.4 -0.5,0.3 -1.12,0.43 -1.86,0.43 -1.25,0 -2.18,-0.43 -2.77,-1.3 -0.58,-0.86 -0.88,-2.18 -0.88,-3.94 0,-3.57 1.2,-5.35 3.64,-5.35 0.75,0 1.37,0.16 1.88,0.44 0.5,0.28 0.9,0.74 1.2,1.35 h 0.03 l -0.02,-1.15 v -4.25 h 1.64 v 11.9 c 0,1.08 0.03,1.8 0.06,2.13 h -1.57 c -0.02,-0.1 -0.04,-0.34 -0.06,-0.7 -0.02,-0.37 -0.04,-0.68 -0.04,-0.95 z m -5,-3.48 c 0,1.44 0.18,2.46 0.54,3.07 0.37,0.62 0.96,0.94 1.8,0.94 0.93,0 1.6,-0.33 2.03,-1 0.42,-0.67 0.63,-1.7 0.63,-3.1 0,-1.36 -0.2,-2.36 -0.63,-2.98 -0.43,-0.63 -1.1,-0.96 -2.02,-0.96 -0.83,0 -1.43,0.33 -1.8,0.97 -0.37,0.63 -0.56,1.65 -0.56,3.07 z"
       stroke="#000000"
       stroke-opacity="0"
       fill="#ffffff"
       id="path36" />
    <path
       d="m -1211.66,392.12 h -4.58 V 379.5 c 0,-3.54 -2.78,-6.4 -6.2,-6.4 h -12.25 v -4.72 c 0,-4.4 -3.48,-7.9 -7.67,-7.9 -4.26,0 -7.68,3.5 -7.68,7.9 v 4.72 h -12.32 c -3.35,0 -6.13,2.86 -6.13,6.4 v 12.03 h 4.58 c 4.58,0 8.32,3.8 8.32,8.5 0,4.73 -3.74,8.6 -8.32,8.6 h -4.58 v 12.02 c 0,3.46 2.78,6.32 6.13,6.32 h 11.68 v -4.72 c 0,-4.72 3.75,-8.58 8.33,-8.58 4.58,0 8.26,3.86 8.26,8.58 v 4.72 h 11.66 c 3.42,0 6.2,-2.86 6.2,-6.32 v -12.7 h 4.58 c 4.26,0 7.68,-3.52 7.68,-7.9 0,-4.33 -3.42,-7.93 -7.68,-7.93 z"
       stroke="#000000"
       stroke-opacity="0"
       stroke-width="1.74"
       fill="#ffffff"
       id="path38" />
    <use
       xlink:href="#i"
       transform="translate(-1327.4,483.4)"
       id="use40"
       x="0"
       y="0"
       width="100%"
       height="100%" />
    <path
       d="m -1060.34,343.17 c -1.14,0.1 -2.05,0.34 -2.96,0.8 l -39.44,19.43 c -2.16,1.02 -3.64,2.84 -4.1,5.23 l -9.77,43.76 c -0.47,2.04 -0.13,4.08 1,5.9 0.13,0.23 0.24,0.34 0.47,0.57 l 27.28,35 c 1.48,1.94 3.52,2.97 5.9,2.97 h 43.9 c 2.38,0 4.42,-1.03 5.9,-2.96 l 27.28,-35 c 1.48,-1.94 2.05,-4.2 1.48,-6.6 l -9.77,-43.65 c -0.45,-2.4 -1.93,-4.2 -4.1,-5.23 l -39.43,-19.44 c -1.25,-0.57 -2.4,-0.9 -3.64,-0.8 z"
       stroke="#000000"
       stroke-opacity="0"
       stroke-width="3.83"
       fill="#326ce5"
       id="path42" />
    <path
       d="m -1060.36,340 c -1.2,0.12 -2.16,0.36 -3.12,0.84 l -41.64,20.52 c -2.28,1.08 -3.84,3 -4.32,5.52 l -10.32,46.2 c -0.48,2.16 -0.12,4.32 1.08,6.24 0.12,0.24 0.24,0.36 0.48,0.6 l 28.8,36.96 c 1.56,2.04 3.72,3.12 6.24,3.12 h 46.32 c 2.52,0 4.68,-1.08 6.24,-3.12 l 28.8,-36.96 c 1.56,-2.04 2.16,-4.44 1.56,-6.84 l -10.32,-46.2 c -0.48,-2.52 -2.04,-4.44 -4.32,-5.52 l -41.64,-20.52 c -1.32,-0.6 -2.52,-0.96 -3.84,-0.84 z m 0,3.24 c 1.32,-0.12 2.4,0.12 3.6,0.72 l 39.6,19.44 c 2.04,1.08 3.48,2.88 4.08,5.28 l 9.72,43.68 c 0.48,2.4 0,4.56 -1.44,6.48 l -27.36,35.04 c -1.44,1.92 -3.48,3 -5.88,3 h -43.92 c -2.4,0 -4.44,-1.08 -5.88,-3 l -27.36,-35.04 c -0.12,-0.12 -0.24,-0.36 -0.36,-0.6 -1.2,-1.8 -1.56,-3.72 -1.08,-5.88 l 9.72,-43.68 c 0.6,-2.4 1.92,-4.2 4.08,-5.28 l 39.6,-19.44 c 0.96,-0.48 1.8,-0.72 2.88,-0.84 z"
       stroke="#000000"
       stroke-opacity="0"
       stroke-width="3.83"
       fill="#ffffff"
       id="path44" />
    <path
       d="m -1074.6,447.23 v -7.84 c 0,-0.73 0,-1.52 -0.04,-2.4 h 1.56 l 0.07,2.1 h 0.02 c 0.27,-0.88 0.57,-1.48 0.9,-1.8 0.36,-0.33 0.84,-0.5 1.46,-0.5 0.22,0 0.45,0.05 0.67,0.1 v 1.57 c -0.22,-0.06 -0.5,-0.1 -0.88,-0.1 -0.68,0 -1.2,0.3 -1.56,0.92 -0.36,0.6 -0.54,1.46 -0.54,2.6 v 5.33 z m 14.63,-5.13 c 0,1.8 -0.38,3.13 -1.14,4 -0.77,0.88 -1.9,1.32 -3.34,1.32 -1.45,0 -2.54,-0.46 -3.28,-1.36 -0.74,-0.92 -1.1,-2.24 -1.1,-3.96 0,-3.53 1.47,-5.3 4.44,-5.3 1.5,0 2.62,0.45 3.34,1.3 0.72,0.87 1.07,2.2 1.07,4 z m -1.73,0 c 0,-1.4 -0.2,-2.43 -0.62,-3.07 -0.4,-0.64 -1.08,-0.95 -2.04,-0.95 -0.96,0 -1.66,0.3 -2.1,0.97 -0.42,0.65 -0.64,1.67 -0.64,3.05 0,1.35 0.2,2.37 0.64,3.05 0.42,0.68 1.1,1 2,1 1,0 1.7,-0.3 2.12,-0.97 0.42,-0.66 0.64,-1.7 0.64,-3.08 z m 3.8,5.13 V 433.2 h 1.64 v 14.03 z m 5.44,-4.75 c 0,1.16 0.23,2.08 0.7,2.7 0.48,0.65 1.16,0.97 2.07,0.97 0.72,0 1.3,-0.15 1.73,-0.45 0.43,-0.3 0.72,-0.67 0.87,-1.12 l 1.45,0.42 c -0.6,1.6 -1.93,2.42 -4.04,2.42 -1.46,0 -2.58,-0.45 -3.35,-1.35 -0.76,-0.9 -1.14,-2.25 -1.14,-4.02 0,-1.68 0.4,-3 1.15,-3.9 0.77,-0.9 1.87,-1.33 3.3,-1.33 2.9,0 4.37,1.8 4.37,5.42 v 0.24 z m 5.37,-1.3 c -0.08,-1.1 -0.34,-1.87 -0.78,-2.36 -0.44,-0.5 -1.08,-0.74 -1.9,-0.74 -0.8,0 -1.43,0.27 -1.9,0.82 -0.48,0.56 -0.72,1.3 -0.76,2.27 z"
       stroke="#000000"
       stroke-opacity="0"
       fill="#ffffff"
       id="path46" />
    <path
       d="m -1056.32,396.3 c 0,1.9 -1.5,3.45 -3.37,3.45 -1.85,0 -3.36,-1.55 -3.36,-3.45 0,-1.9 1.5,-3.44 3.37,-3.44 1.87,0 3.38,1.54 3.38,3.44 z"
       stroke="#000000"
       stroke-opacity="0"
       stroke-width="3.77"
       fill="#ffffff"
       id="path48" />
    <path
       d="m -1059.3,368.37 -20.66,9.4 v 14.1 c 0,13.03 8.8,25.22 20.66,28.17 11.87,-2.95 20.67,-15.14 20.67,-28.16 v -14.1 z m 10.96,37.82 h -21.9 v -18.92 h 3.13 v -2.07 c 0,-4.48 3.55,-8.1 7.93,-8.1 4.34,0 7.9,3.62 7.9,8.1 v 2.08 h 2.93 z"
       stroke="#000000"
       stroke-opacity="0"
       stroke-width="3.77"
       fill="#ffffff"
       id="path50" />
    <path
       d="m -1059.3,380.12 c -2.62,0 -4.74,2.18 -4.74,4.85 V 387 h 9.5 v -2.06 c -0.04,-2.67 -2.14,-4.82 -4.76,-4.82 z m -35.06,-14.65 v 2.6 h 2.68 v -1.23 h 1.3 v -2.73 h -2.68 c -0.96,0 -1.3,0.44 -1.3,1.37 z m 6.66,1.37 h 5.3 v -2.73 h -5.3 z m 7.97,0 h 5.3 v -2.73 h -5.3 z m 7.97,0 h 5.36 v -2.73 h -5.36 z m 7.98,0 h 5.36 v -2.73 h -5.36 z m 8.04,0 h 5.3 v -2.73 h -5.3 z m 7.97,0 h 5.3 v -2.73 h -5.3 z m 7.97,0 h 5.3 v -2.73 h -5.3 z m 7.97,0 h 4.88 v -0.87 h 1.3 v -0.5 c 0,-1 -0.48,-1.43 -1.3,-1.36 h -4.88 z m 3.5,7.4 h 2.68 v -5.54 h -2.68 z m -66.03,2.04 h 2.68 v -5.46 h -2.68 z m 66.03,6.15 h 2.68 v -5.46 h -2.68 z m -66.03,2.12 h 2.68 v -5.53 h -2.68 z m 66.03,6.08 h 2.68 v -5.46 h -2.68 z m -66.03,2.12 h 2.68 v -5.47 h -2.68 z m 66.03,6.15 h 2.68 v -5.53 h -2.68 z m -66.03,2.05 h 2.68 v -5.47 h -2.68 z m 66.03,6.15 h 2.68 v -5.47 h -2.68 z m -66.03,2.1 h 2.68 v -5.52 h -2.68 z m 66.03,6.16 h 2.68 v -5.53 h -2.68 z m -66.03,2.05 h 2.68 v -5.46 h -2.68 z m 66.03,6.16 h 2.68 v -5.47 h -2.68 z m -66.03,1.3 c -0.07,1.2 0.55,1.43 1.37,1.37 h 0.77 v -1.36 h 0.55 v -4.73 h -2.68 z m 4.8,1.37 h 5.3 v -2.73 h -5.3 z m 7.98,0 h 5.3 v -2.73 h -5.3 z m 7.97,0 h 5.28 v -2.73 h -5.3 z m 7.96,0 h 5.3 v -2.73 h -5.3 z m 7.97,0 h 5.36 v -2.73 h -5.37 z m 7.97,0 h 5.36 v -2.73 h -5.36 z m 8.04,0 h 5.3 v -2.73 h -5.3 z m 7.97,0 h 5.3 v -2.73 h -5.3 z"
       stroke="#000000"
       stroke-opacity="0"
       stroke-width="3.77"
       fill="#ffffff"
       id="path52" />
    <use
       xlink:href="#h"
       transform="translate(-1114.925,483.4)"
       id="use54"
       x="0"
       y="0"
       width="100%"
       height="100%" />
    <path
       d="m -1240.34,543.17 c -1.14,0.1 -2.05,0.34 -2.96,0.8 l -39.44,19.43 c -2.16,1.02 -3.64,2.84 -4.1,5.23 l -9.77,43.76 c -0.47,2.04 -0.13,4.08 1,5.9 0.13,0.23 0.24,0.34 0.47,0.57 l 27.28,35 c 1.48,1.94 3.52,2.97 5.9,2.97 h 43.9 c 2.38,0 4.42,-1.03 5.9,-2.96 l 27.28,-35 c 1.48,-1.94 2.05,-4.2 1.48,-6.6 l -9.77,-43.65 c -0.45,-2.4 -1.93,-4.2 -4.1,-5.23 l -39.43,-19.44 c -1.25,-0.57 -2.4,-0.9 -3.64,-0.8 z"
       stroke="#000000"
       stroke-opacity="0"
       stroke-width="3.83"
       fill="#326ce5"
       id="path56" />
    <path
       d="m -1240.36,540 c -1.2,0.12 -2.16,0.36 -3.12,0.84 l -41.64,20.52 c -2.28,1.08 -3.84,3 -4.32,5.52 l -10.32,46.2 c -0.48,2.16 -0.12,4.32 1.08,6.24 0.12,0.24 0.24,0.36 0.48,0.6 l 28.8,36.96 c 1.56,2.04 3.72,3.12 6.24,3.12 h 46.32 c 2.52,0 4.68,-1.08 6.24,-3.12 l 28.8,-36.96 c 1.56,-2.04 2.16,-4.44 1.56,-6.84 l -10.32,-46.2 c -0.48,-2.52 -2.04,-4.44 -4.32,-5.52 l -41.64,-20.52 c -1.32,-0.6 -2.52,-0.96 -3.84,-0.84 z m 0,3.24 c 1.32,-0.12 2.4,0.12 3.6,0.72 l 39.6,19.44 c 2.04,1.08 3.48,2.88 4.08,5.28 l 9.72,43.68 c 0.48,2.4 0,4.56 -1.44,6.48 l -27.36,35.04 c -1.44,1.92 -3.48,3 -5.88,3 h -43.92 c -2.4,0 -4.44,-1.08 -5.88,-3 l -27.36,-35.04 c -0.12,-0.12 -0.24,-0.36 -0.36,-0.6 -1.2,-1.8 -1.56,-3.72 -1.08,-5.88 l 9.72,-43.68 c 0.6,-2.4 1.92,-4.2 4.08,-5.28 l 39.6,-19.44 c 0.96,-0.48 1.8,-0.72 2.88,-0.84 z"
       stroke="#000000"
       stroke-opacity="0"
       stroke-width="3.83"
       fill="#ffffff"
       id="path58" />
    <path
       d="m -1247.3,647.95 v -7.84 c 0,-0.7 0,-1.5 -0.05,-2.37 h 1.56 l 0.08,2.1 h 0.04 c 0.26,-0.88 0.56,-1.5 0.9,-1.8 0.35,-0.33 0.83,-0.5 1.45,-0.5 0.22,0 0.45,0.04 0.67,0.1 v 1.57 c -0.22,-0.07 -0.5,-0.1 -0.87,-0.1 -0.7,0 -1.22,0.3 -1.57,0.92 -0.36,0.6 -0.55,1.47 -0.55,2.6 v 5.33 z m 14.62,-5.15 c 0,3.56 -1.2,5.34 -3.64,5.34 -0.76,0 -1.38,-0.14 -1.9,-0.4 -0.48,-0.3 -0.88,-0.75 -1.2,-1.38 0,0.2 -0.03,0.5 -0.05,0.9 l -0.05,0.7 h -1.6 c 0.03,-0.35 0.06,-1.06 0.06,-2.12 v -11.9 h 1.65 v 3.98 c 0,0.4 -0.02,0.9 -0.05,1.45 h 0.04 c 0.3,-0.65 0.7,-1.12 1.2,-1.4 0.5,-0.3 1.13,-0.43 1.88,-0.43 1.24,0 2.17,0.44 2.76,1.3 0.6,0.87 0.88,2.2 0.88,3.96 z m -1.73,0.05 c 0,-1.43 -0.2,-2.46 -0.56,-3.07 -0.37,-0.62 -0.96,-0.93 -1.8,-0.93 -0.92,0 -1.6,0.32 -2.02,1 -0.42,0.64 -0.63,1.68 -0.63,3.1 0,1.34 0.2,2.33 0.6,2.97 0.42,0.64 1.1,0.97 2.04,0.97 0.82,0 1.42,-0.34 1.8,-0.96 0.37,-0.64 0.55,-1.67 0.55,-3.1 z"
       stroke="#000000"
       stroke-opacity="0"
       fill="#ffffff"
       id="path60" />
    <path
       d="m -1274.36,565.73 v 2.54 h 2.68 v -1.18 h 1.3 v -2.74 h -2.67 c -0.9,0 -1.3,0.37 -1.3,1.37 z m 6.67,1.36 h 5.3 v -2.74 h -5.3 z m 7.98,0 h 5.3 v -2.74 h -5.3 z m 7.97,0 h 5.36 v -2.74 h -5.35 z m 7.97,0 h 5.36 v -2.74 h -5.36 z m 8.04,0 h 5.3 v -2.74 h -5.3 z m 7.97,0 h 5.3 v -2.74 h -5.3 z m 7.97,0 h 5.3 v -2.74 h -5.3 z m 7.97,0 h 4.88 v -0.88 h 1.3 v -0.5 c 0,-0.74 -0.27,-1.36 -1.3,-1.36 h -4.88 z m 3.5,7.32 h 2.7 v -5.46 h -2.7 z m -66.03,2.1 h 2.68 v -5.45 h -2.68 z m 66.04,6.16 h 2.68 v -5.46 h -2.68 z m -66.04,2.05 h 2.68 v -5.46 h -2.68 z m 66.04,6.15 h 2.68 v -5.47 h -2.68 z m -66.04,2.1 h 2.68 v -5.45 h -2.68 z m 66.04,6.16 h 2.68 v -5.53 h -2.68 z m -66.04,2.05 h 2.68 v -5.48 h -2.68 z m 66.04,6.14 h 2.68 v -5.47 h -2.68 z m -66.04,2.1 h 2.68 V 604 h -2.68 z m 66.04,6.16 h 2.68 v -5.53 h -2.68 z m -66.04,2.05 h 2.68 v -5.47 h -2.68 z m 66.04,6.14 h 2.68 v -5.47 h -2.68 z m -66.04,1.3 c 0,0.87 0.28,1.43 1.3,1.37 h 0.83 v -1.37 h 0.55 v -4.72 h -2.68 z m 4.74,1.37 h 5.36 v -2.74 h -5.36 z m 8.04,0 h 5.3 v -2.74 h -5.3 z m 7.97,0 h 5.28 v -2.74 h -5.3 z m 7.96,0 h 5.3 v -2.74 h -5.3 z m 7.98,0 h 5.3 v -2.74 h -5.3 z m 7.97,0 h 5.37 v -2.74 h -5.36 z m 8.05,0 h 5.3 v -2.74 h -5.3 z m 7.97,0 h 5.3 v -2.74 h -5.3 z"
       stroke="#000000"
       stroke-opacity="0"
       stroke-width="3.77"
       fill="#ffffff"
       id="path62" />
    <path
       d="m -1260.8,595.4 c 0,-4.5 3.6,-8.2 7.96,-8.2 h 10.27 v -5.03 h -10.27 c -7.1,0 -12.85,5.93 -12.85,13.24 0,7.32 5.77,13.25 12.86,13.25 h 10.27 v -5.03 h -10.27 c -4.37,0 -7.97,-3.68 -7.97,-8.2 z m 10.53,2.66 h 20.55 v -5.3 h -20.55 z m 23.1,-15.9 h -10.26 v 5.04 h 10.27 c 4.37,0 7.97,3.7 7.97,8.2 0,4.54 -3.6,8.22 -7.96,8.22 h -10.27 v 5.03 h 10.27 c 7.1,0 12.85,-5.93 12.85,-13.24 0,-7.3 -5.77,-13.23 -12.86,-13.23 z"
       stroke="#000000"
       stroke-opacity="0"
       stroke-width="1.46"
       fill="#ffffff"
       id="path64" />
    <use
       xlink:href="#h"
       transform="translate(-1294.925,683.4)"
       id="use66"
       x="0"
       y="0"
       width="100%"
       height="100%" />
    <path
       d="m -1060.34,543.17 c -1.14,0.1 -2.05,0.34 -2.96,0.8 l -39.44,19.43 c -2.16,1.02 -3.64,2.84 -4.1,5.23 l -9.77,43.76 c -0.47,2.04 -0.13,4.08 1,5.9 0.13,0.23 0.24,0.34 0.47,0.57 l 27.28,35 c 1.48,1.94 3.52,2.97 5.9,2.97 h 43.9 c 2.38,0 4.42,-1.03 5.9,-2.96 l 27.28,-35 c 1.48,-1.94 2.05,-4.2 1.48,-6.6 l -9.77,-43.65 c -0.45,-2.4 -1.93,-4.2 -4.1,-5.23 l -39.43,-19.44 c -1.25,-0.57 -2.4,-0.9 -3.64,-0.8 z"
       stroke="#000000"
       stroke-opacity="0"
       stroke-width="3.83"
       fill="#326ce5"
       id="path68" />
    <path
       d="m -1060.36,540 c -1.2,0.12 -2.16,0.36 -3.12,0.84 l -41.64,20.52 c -2.28,1.08 -3.84,3 -4.32,5.52 l -10.32,46.2 c -0.48,2.16 -0.12,4.32 1.08,6.24 0.12,0.24 0.24,0.36 0.48,0.6 l 28.8,36.96 c 1.56,2.04 3.72,3.12 6.24,3.12 h 46.32 c 2.52,0 4.68,-1.08 6.24,-3.12 l 28.8,-36.96 c 1.56,-2.04 2.16,-4.44 1.56,-6.84 l -10.32,-46.2 c -0.48,-2.52 -2.04,-4.44 -4.32,-5.52 l -41.64,-20.52 c -1.32,-0.6 -2.52,-0.96 -3.84,-0.84 z m 0,3.24 c 1.32,-0.12 2.4,0.12 3.6,0.72 l 39.6,19.44 c 2.04,1.08 3.48,2.88 4.08,5.28 l 9.72,43.68 c 0.48,2.4 0,4.56 -1.44,6.48 l -27.36,35.04 c -1.44,1.92 -3.48,3 -5.88,3 h -43.92 c -2.4,0 -4.44,-1.08 -5.88,-3 l -27.36,-35.04 c -0.12,-0.12 -0.24,-0.36 -0.36,-0.6 -1.2,-1.8 -1.56,-3.72 -1.08,-5.88 l 9.72,-43.68 c 0.6,-2.4 1.92,-4.2 4.08,-5.28 l 39.6,-19.44 c 0.96,-0.48 1.8,-0.72 2.88,-0.84 z"
       stroke="#000000"
       stroke-opacity="0"
       stroke-width="3.83"
       fill="#ffffff"
       id="path70" />
    <path
       d="m -1061.1,644.4 c 0,0.97 -0.36,1.7 -1.08,2.23 -0.7,0.52 -1.68,0.8 -2.96,0.8 -1.23,0 -2.2,-0.22 -2.86,-0.64 -0.66,-0.43 -1.1,-1.1 -1.3,-1.97 l 1.46,-0.3 c 0.14,0.55 0.43,0.95 0.87,1.22 0.44,0.25 1.05,0.38 1.83,0.38 0.84,0 1.45,-0.14 1.83,-0.4 0.4,-0.27 0.58,-0.67 0.58,-1.2 0,-0.4 -0.13,-0.73 -0.4,-0.98 -0.27,-0.25 -0.7,-0.46 -1.3,-0.62 l -1.2,-0.32 c -0.93,-0.25 -1.6,-0.5 -2,-0.73 -0.4,-0.25 -0.72,-0.54 -0.94,-0.9 -0.23,-0.33 -0.35,-0.76 -0.35,-1.26 0,-0.92 0.3,-1.63 0.96,-2.12 0.65,-0.5 1.6,-0.74 2.82,-0.74 1.1,0 1.96,0.2 2.6,0.6 0.65,0.4 1.06,1.03 1.24,1.9 l -1.5,0.2 c -0.08,-0.46 -0.33,-0.8 -0.73,-1.05 -0.4,-0.25 -0.94,-0.37 -1.62,-0.37 -0.74,0 -1.3,0.12 -1.65,0.35 -0.35,0.23 -0.53,0.58 -0.53,1.06 0,0.3 0.07,0.53 0.22,0.72 0.15,0.18 0.36,0.35 0.65,0.47 0.3,0.14 0.9,0.32 1.8,0.55 0.9,0.23 1.52,0.44 1.9,0.64 0.4,0.2 0.7,0.4 0.9,0.63 0.23,0.24 0.4,0.5 0.54,0.82 0.13,0.3 0.2,0.64 0.2,1.03 z m 4.46,3 c -1,0 -1.75,-0.26 -2.25,-0.8 -0.5,-0.54 -0.74,-1.3 -0.74,-2.23 0,-1.06 0.34,-1.87 1,-2.44 0.7,-0.56 1.78,-0.87 3.28,-0.9 l 2.23,-0.04 v -0.57 c 0,-0.83 -0.17,-1.42 -0.5,-1.78 -0.36,-0.37 -0.9,-0.55 -1.63,-0.55 -0.73,0 -1.27,0.13 -1.6,0.4 -0.35,0.25 -0.55,0.66 -0.62,1.23 l -1.72,-0.16 c 0.28,-1.84 1.6,-2.76 3.98,-2.76 1.24,0 2.2,0.3 2.8,0.9 0.64,0.58 0.96,1.43 0.96,2.55 v 4.4 c 0,0.5 0.07,0.9 0.2,1.15 0.12,0.25 0.37,0.37 0.72,0.37 0.16,0 0.34,-0.02 0.54,-0.06 v 1.07 c -0.4,0.1 -0.84,0.15 -1.27,0.15 -0.62,0 -1.06,-0.16 -1.34,-0.5 -0.28,-0.33 -0.44,-0.85 -0.47,-1.55 h -0.06 c -0.42,0.78 -0.92,1.34 -1.48,1.67 -0.56,0.3 -1.24,0.47 -2.04,0.47 z m 0.38,-1.26 c 0.6,0 1.13,-0.15 1.6,-0.42 0.48,-0.3 0.85,-0.68 1.12,-1.17 0.27,-0.5 0.4,-1 0.4,-1.53 v -0.84 l -1.8,0.04 c -0.77,0 -1.36,0.1 -1.77,0.24 -0.4,0.15 -0.7,0.38 -0.92,0.7 -0.22,0.32 -0.32,0.73 -0.32,1.24 0,0.55 0.14,0.98 0.43,1.28 0.28,0.3 0.7,0.46 1.24,0.46 z"
       stroke="#000000"
       stroke-opacity="0"
       fill="#ffffff"
       id="path72" />
    <path
       d="m -1060,562.03 -26.88,12.33 v 18.5 c 0,17.06 11.45,33.05 26.88,36.9 15.43,-3.85 26.88,-19.84 26.88,-36.9 v -18.5 z m 0,13.07 c 3.5,0 6.6,2.17 7.96,5.42 1.34,3.32 0.6,7.18 -1.9,9.7 -2.46,2.5 -6.1,3.3 -9.34,1.88 -3.22,-1.35 -5.32,-4.53 -5.32,-8.13 0,-4.94 3.87,-8.87 8.6,-8.87 z m 16.13,36.65 c 0,0.2 -0.06,0.4 -0.16,0.6 -0.22,0.28 -0.43,0.62 -0.65,0.9 -3.76,5.4 -9.14,9.4 -15.32,11.37 -6.18,-1.97 -11.56,-5.96 -15.32,-11.38 -0.22,-0.27 -0.43,-0.54 -0.65,-0.88 -0.1,-0.2 -0.16,-0.4 -0.16,-0.6 v -4.96 c 0,-6.77 10.75,-10.23 16.13,-10.23 5.38,0 16.13,3.46 16.13,10.23 z"
       stroke="#000000"
       stroke-opacity="0"
       stroke-width="3.77"
       fill="#ffffff"
       id="path74" />
    <use
       xlink:href="#h"
       transform="translate(-1114.925,683.4)"
       id="use76"
       x="0"
       y="0"
       width="100%"
       height="100%" />
    <path
       d="m -880.34,343.17 c -1.14,0.1 -2.05,0.34 -2.96,0.8 l -39.44,19.43 c -2.16,1.02 -3.64,2.84 -4.1,5.23 l -9.77,43.76 c -0.47,2.04 -0.13,4.08 1,5.9 0.13,0.23 0.24,0.34 0.47,0.57 l 27.28,35 c 1.48,1.94 3.52,2.97 5.9,2.97 h 43.9 c 2.38,0 4.42,-1.03 5.9,-2.96 l 27.28,-35 c 1.48,-1.94 2.05,-4.2 1.48,-6.6 l -9.77,-43.65 c -0.45,-2.4 -1.93,-4.2 -4.1,-5.23 l -39.43,-19.44 c -1.25,-0.57 -2.4,-0.9 -3.64,-0.8 z"
       stroke="#000000"
       stroke-opacity="0"
       stroke-width="3.83"
       fill="#326ce5"
       id="path78" />
    <path
       d="m -880.36,340 c -1.2,0.12 -2.16,0.36 -3.12,0.84 l -41.64,20.52 c -2.28,1.08 -3.84,3 -4.32,5.52 l -10.32,46.2 c -0.48,2.16 -0.12,4.32 1.08,6.24 0.12,0.24 0.24,0.36 0.48,0.6 l 28.8,36.96 c 1.56,2.04 3.72,3.12 6.24,3.12 h 46.32 c 2.52,0 4.68,-1.08 6.24,-3.12 l 28.8,-36.96 c 1.56,-2.04 2.16,-4.44 1.56,-6.84 l -10.32,-46.2 c -0.48,-2.52 -2.04,-4.44 -4.32,-5.52 l -41.64,-20.52 c -1.32,-0.6 -2.52,-0.96 -3.84,-0.84 z m 0,3.24 c 1.32,-0.12 2.4,0.12 3.6,0.72 l 39.6,19.44 c 2.04,1.08 3.48,2.88 4.08,5.28 l 9.72,43.68 c 0.48,2.4 0,4.56 -1.44,6.48 l -27.36,35.04 c -1.44,1.92 -3.48,3 -5.88,3 h -43.92 c -2.4,0 -4.44,-1.08 -5.88,-3 l -27.36,-35.04 c -0.12,-0.12 -0.24,-0.36 -0.36,-0.6 -1.2,-1.8 -1.56,-3.72 -1.08,-5.88 l 9.72,-43.68 c 0.6,-2.4 1.92,-4.2 4.08,-5.28 l 39.6,-19.44 c 0.96,-0.48 1.8,-0.72 2.88,-0.84 z"
       stroke="#000000"
       stroke-opacity="0"
       stroke-width="3.83"
       fill="#ffffff"
       id="path80" />
    <path
       d="m -900.4,445.58 c -0.3,0.66 -0.7,1.12 -1.2,1.4 -0.52,0.3 -1.14,0.43 -1.88,0.43 -1.25,0 -2.18,-0.43 -2.77,-1.3 -0.6,-0.86 -0.88,-2.18 -0.88,-3.94 0,-3.57 1.2,-5.35 3.65,-5.35 0.75,0 1.37,0.16 1.88,0.44 0.5,0.28 0.9,0.74 1.2,1.35 h 0.02 v -5.4 h 1.63 v 11.9 c 0,1.08 0.03,1.8 0.06,2.13 h -1.57 l -0.06,-0.7 -0.03,-0.95 z m -5,-3.48 c 0,1.44 0.2,2.46 0.55,3.07 0.37,0.62 0.96,0.94 1.8,0.94 0.93,0 1.6,-0.33 2.02,-1 0.42,-0.67 0.64,-1.7 0.64,-3.1 0,-1.36 -0.2,-2.36 -0.63,-2.98 -0.42,-0.63 -1.1,-0.96 -2,-0.96 -0.84,0 -1.44,0.33 -1.82,0.97 -0.36,0.63 -0.55,1.65 -0.55,3.07 z m 10.46,0.38 c 0,1.16 0.23,2.08 0.7,2.7 0.47,0.65 1.16,0.97 2.07,0.97 0.7,0 1.3,-0.15 1.72,-0.45 0.43,-0.3 0.72,-0.67 0.87,-1.12 l 1.45,0.42 c -0.6,1.6 -1.94,2.42 -4.04,2.42 -1.47,0 -2.6,-0.45 -3.36,-1.35 -0.76,-0.9 -1.14,-2.25 -1.14,-4.02 0,-1.68 0.38,-3 1.14,-3.9 0.77,-0.9 1.87,-1.33 3.3,-1.33 2.9,0 4.37,1.8 4.37,5.42 v 0.24 z m 5.37,-1.3 c -0.1,-1.1 -0.35,-1.87 -0.8,-2.36 -0.44,-0.5 -1.07,-0.74 -1.9,-0.74 -0.8,0 -1.43,0.27 -1.9,0.82 -0.47,0.56 -0.7,1.3 -0.75,2.27 z m 12.2,0.89 c 0,3.56 -1.2,5.35 -3.64,5.35 -1.54,0 -2.57,-0.6 -3.1,-1.8 h -0.04 c 0.03,0.07 0.04,0.6 0.04,1.63 v 4 h -1.65 v -12.17 c 0,-1.05 -0.03,-1.74 -0.06,-2.1 h 1.6 v 0.3 c 0.03,0.15 0.04,0.38 0.05,0.7 l 0.03,0.66 h 0.03 c 0.3,-0.62 0.7,-1.08 1.18,-1.37 0.48,-0.3 1.1,-0.45 1.9,-0.45 1.23,0 2.14,0.42 2.74,1.27 0.6,0.83 0.9,2.15 0.9,3.97 z m -1.73,0.03 c 0,-1.42 -0.18,-2.44 -0.55,-3.05 -0.38,-0.62 -0.98,-0.92 -1.8,-0.92 -0.64,0 -1.15,0.15 -1.52,0.43 -0.37,0.28 -0.65,0.73 -0.85,1.33 -0.2,0.58 -0.28,1.38 -0.28,2.33 0,1.35 0.2,2.33 0.62,2.97 0.4,0.63 1.1,0.95 2.03,0.95 0.82,0 1.4,-0.3 1.78,-0.92 0.38,-0.62 0.57,-1.66 0.57,-3.13 z m 3.8,5.13 V 433.2 h 1.65 v 14.03 z m 12.56,-5.13 c 0,1.8 -0.38,3.13 -1.14,4 -0.77,0.88 -1.88,1.32 -3.34,1.32 -1.44,0 -2.53,-0.46 -3.28,-1.36 -0.73,-0.92 -1.1,-2.24 -1.1,-3.96 0,-3.53 1.48,-5.3 4.45,-5.3 1.5,0 2.62,0.45 3.34,1.3 0.7,0.87 1.06,2.2 1.06,4 z m -1.73,0 c 0,-1.4 -0.2,-2.43 -0.62,-3.07 -0.4,-0.64 -1.07,-0.95 -2.03,-0.95 -0.96,0 -1.66,0.3 -2.1,0.97 -0.42,0.65 -0.65,1.67 -0.65,3.05 0,1.35 0.22,2.37 0.64,3.05 0.43,0.68 1.1,1 2,1 1,0 1.7,-0.3 2.12,-0.97 0.43,-0.66 0.65,-1.7 0.65,-3.08 z m 4.27,9.14 c -0.44,0 -0.82,-0.03 -1.13,-0.1 v -1.28 c 0.23,0.04 0.5,0.05 0.77,0.05 1.03,0 1.84,-0.77 2.44,-2.32 l 0.16,-0.4 -3.94,-10.18 h 1.76 l 2.1,5.65 c 0.02,0.1 0.06,0.2 0.1,0.32 l 0.42,1.23 0.37,1.17 0.64,-1.86 2.17,-6.5 h 1.74 l -3.8,10.22 c -0.42,1.1 -0.8,1.9 -1.15,2.44 -0.36,0.53 -0.75,0.92 -1.18,1.18 -0.43,0.27 -0.92,0.4 -1.46,0.4 z"
       stroke="#000000"
       stroke-opacity="0"
       fill="#ffffff"
       id="path82" />
    <path
       d="m -882.93,426.08 c -16.25,0.8 -30.07,-12.07 -30.9,-28.78 -0.9,-16.76 11.52,-31.1 27.77,-32.07 16.25,-0.97 30.2,11.7 31.25,28.48 l -11.7,0.8 c -0.65,-10.12 -9.04,-17.8 -18.85,-17.2 -9.8,0.55 -17.3,9.2 -16.78,19.33 0.47,10.12 8.86,17.87 18.67,17.44 z"
       stroke="#000000"
       stroke-opacity="0"
       stroke-width="3.77"
       fill="#ffffff"
       id="path84" />
    <path
       d="m -876.86,393.72 9.3,23.46 21.45,-23.46 z"
       stroke="#000000"
       stroke-opacity="0"
       stroke-width="3.77"
       fill="#ffffff"
       id="path86" />
    <use
       xlink:href="#h"
       transform="translate(-934.925,483.4)"
       id="use88"
       x="0"
       y="0"
       width="100%"
       height="100%" />
    <path
       d="m -880,339.03 v -3.98 m 0,-7.97 v -7.96 m 0,-7.96 V 310 h -6.8 m -7.97,0 h -7.96 m -7.96,0 h -7.95 m -7.97,0 h -7.96 m -7.96,0 h -7.96 m -7.97,0 h -7.96 m -7.96,0 h -7.95 m -7.97,0 h -7.96 m -7.96,0 h -7.96 m -7.97,0 h -7.96 m -7.96,0 h -7.95 m -7.97,0 h -7.96 m -7.96,0 h -7.96 m -7.97,0 h -7.96 m -7.96,0 h -7.95 m -7.97,0 h -7.96 m -7.96,0 h -7.96 m -7.97,0 h -7.96 m -7.96,0 h -7.95 m -7.97,0 h -7.96 m -7.96,0 h -7.96 m -7.97,0 h -7.96 m -7.96,0 h -7.95 m -7.97,0 h -7.96 m -7.96,0 h -7.96 m -7.97,0 h -7.96 m -7.96,0 h -7.95 m -7.97,0 h -7.96 m -7.96,0 h -7.96 m -7.97,0 h -7.96 m -7.96,0 h -7.95 m -7.97,0 h -7.96 m -7.96,0 h -7.97 m -7.97,0 h -7.96 m -7.96,0 h -7.96 m -7.96,0 h -7.96 m -7.96,0 h -7.97 m -0.42,7.54 v 4"
       stroke="#000000"
       stroke-width="2"
       fill="none"
       id="path90" />
    <path
       d="m -879,340.1 -1.36,-0.1 -0.64,0.1 V 339 h 2 z"
       id="path92" />
    <path
       d="m -1460.52,336.8 -4.64,-14.27 h 9.27 z"
       stroke="#000000"
       stroke-width="2"
       id="path94" />
    <defs
       id="defs277">
      <path
         d="m 688,-137 c 238,0 323,-102 359,-325 h 193 C 1208,-165 1012,20 688,20 327,20 119,-279 119,-660 c 0,-197 8,-360 73,-497 88,-186 257,-317 513,-319 316,-2 509,195 535,488 h -193 c -31,-212 -118,-330 -342,-330 -272,0 -397,224 -393,523 v 141 c -3,282 115,517 376,517"
         id="j" />
      <path
         d="M 341,0 H 156 V -1536 H 341 V 0"
         id="k" />
      <path
         d="M 491,20 C 250,19 136,-128 136,-378 v -704 h 185 v 699 c 0,164 67,246 200,246 141,0 235,-53 282,-158 v -787 H 988 V 0 H 812 l -4,-107 C 736,-22 630,20 491,20"
         id="l" />
      <path
         d="m 538,-131 c 121,0 232,-49 232,-156 0,-50 -20,-88 -56,-117 -73,-60 -334,-92 -420,-143 -92,-55 -162,-110 -162,-238 0,-190 192,-317 400,-317 223,0 414,129 413,338 H 759 c 0,-108 -110,-186 -227,-186 -119,0 -215,53 -215,159 0,45 18,78 53,101 76,52 331,90 416,139 98,57 169,115 169,251 C 955,-92 760,20 538,20 362,20 224,-48 152,-154 114,-209 95,-269 95,-333 h 185 c 6,129 116,202 258,202"
         id="m" />
      <path
         d="M 456,20 C 285,20 205,-92 206,-268 V -939 H 9 v -143 h 197 v -262 h 185 v 262 h 202 v 143 H 391 v 671 c -9,125 92,149 207,118 V 0 C 549,13 502,20 456,20"
         id="n" />
      <path
         d="m 599,-131 c 141,0 220,-65 285,-146 l 113,88 C 906,-50 770,20 589,20 281,21 93,-214 93,-545 c 0,-223 93,-397 233,-485 74,-48 154,-72 240,-72 300,2 449,218 445,537 v 77 H 278 c 0,197 129,357 321,357 z m 227,-509 c -3,-180 -88,-310 -260,-310 -170,0 -264,140 -282,310 h 542"
         id="o" />
      <path
         d="m 663,-916 c -163,-27 -288,18 -338,148 V 0 H 140 v -1082 h 180 l 3,125 c 61,-97 147,-145 258,-145 36,0 63,5 82,14 v 172"
         id="p" />
      <g
         id="a">
        <use
           transform="scale(0.00878906)"
           xlink:href="#j"
           id="use103"
           x="0"
           y="0"
           width="100%"
           height="100%" />
        <use
           transform="matrix(0.00878906,0,0,0.00878906,11.71582,0)"
           xlink:href="#k"
           id="use105"
           x="0"
           y="0"
           width="100%"
           height="100%" />
        <use
           transform="matrix(0.00878906,0,0,0.00878906,16.083984,0)"
           xlink:href="#l"
           id="use107"
           x="0"
           y="0"
           width="100%"
           height="100%" />
        <use
           transform="matrix(0.00878906,0,0,0.00878906,26.006836,0)"
           xlink:href="#m"
           id="use109"
           x="0"
           y="0"
           width="100%"
           height="100%" />
        <use
           transform="matrix(0.00878906,0,0,0.00878906,35.288086,0)"
           xlink:href="#n"
           id="use111"
           x="0"
           y="0"
           width="100%"
           height="100%" />
        <use
           transform="matrix(0.00878906,0,0,0.00878906,41.167969,0)"
           xlink:href="#o"
           id="use113"
           x="0"
           y="0"
           width="100%"
           height="100%" />
        <use
           transform="matrix(0.00878906,0,0,0.00878906,50.704102,0)"
           xlink:href="#p"
           id="use115"
           x="0"
           y="0"
           width="100%"
           height="100%" />
      </g>
      <path
         d="M 972,-643 H 361 V 0 H 169 v -1456 h 902 v 158 H 361 v 498 h 611 v 157"
         id="q" />
      <path
         d="m 561,-1102 c 238,-4 403,126 403,351 v 498 c 0,99 13,178 38,237 V 0 H 808 C 797,-21 789,-59 782,-114 696,-25 593,20 474,20 275,20 106,-110 109,-300 c 4,-251 214,-359 490,-356 h 180 v -85 c -1,-135 -86,-212 -229,-212 -115,0 -232,67 -233,171 H 131 c 20,-205 206,-316 430,-320 z m -267,776 c 0,117 90,185 207,185 122,0 239,-75 278,-162 V -525 H 634 c -227,0 -340,66 -340,199"
         id="r" />
      <path
         d="M 341,0 H 156 v -1082 h 185 z m -91,-1264 c -68,0 -108,-42 -109,-105 0,-62 41,-107 109,-107 68,0 110,44 110,107 0,63 -42,105 -110,105"
         id="s" />
      <g
         id="b">
        <use
           transform="scale(0.00878906)"
           xlink:href="#q"
           id="use121"
           x="0"
           y="0"
           width="100%"
           height="100%" />
        <use
           transform="matrix(0.00878906,0,0,0.00878906,9.6503906,0)"
           xlink:href="#r"
           id="use123"
           x="0"
           y="0"
           width="100%"
           height="100%" />
        <use
           transform="matrix(0.00878906,0,0,0.00878906,19.441406,0)"
           xlink:href="#s"
           id="use125"
           x="0"
           y="0"
           width="100%"
           height="100%" />
        <use
           transform="matrix(0.00878906,0,0,0.00878906,23.80957,0)"
           xlink:href="#k"
           id="use127"
           x="0"
           y="0"
           width="100%"
           height="100%" />
        <use
           transform="matrix(0.00878906,0,0,0.00878906,28.177734,0)"
           xlink:href="#l"
           id="use129"
           x="0"
           y="0"
           width="100%"
           height="100%" />
        <use
           transform="matrix(0.00878906,0,0,0.00878906,38.100586,0)"
           xlink:href="#p"
           id="use131"
           x="0"
           y="0"
           width="100%"
           height="100%" />
        <use
           transform="matrix(0.00878906,0,0,0.00878906,44.024414,0)"
           xlink:href="#o"
           id="use133"
           x="0"
           y="0"
           width="100%"
           height="100%" />
      </g>
      <path
         d="m 313,-157 h 833 V 0 H 86 V -144 L 884,-1298 H 99 v -158 h 1015 v 141"
         id="t" />
      <path
         d="M 584,20 C 278,26 81,-227 91,-551 c 10,-320 175,-545 491,-551 308,-5 503,247 494,573 -9,322 -175,543 -492,549 z m -2,-970 c -208,0 -305,185 -305,421 0,216 106,398 307,398 211,0 307,-186 307,-420 0,-214 -109,-399 -309,-399"
         id="u" />
      <path
         d="m 589,-945 c -131,0 -219,81 -264,174 V 0 H 140 v -1082 h 175 l 6,136 c 83,-104 191,-156 324,-156 229,0 346,129 346,387 V 0 H 806 v -716 c -2,-153 -65,-229 -217,-229"
         id="v" />
      <g
         id="c">
        <use
           transform="scale(0.00878906)"
           xlink:href="#t"
           id="use139"
           x="0"
           y="0"
           width="100%"
           height="100%" />
        <use
           transform="matrix(0.00878906,0,0,0.00878906,10.59082,0)"
           xlink:href="#u"
           id="use141"
           x="0"
           y="0"
           width="100%"
           height="100%" />
        <use
           transform="matrix(0.00878906,0,0,0.00878906,20.856445,0)"
           xlink:href="#v"
           id="use143"
           x="0"
           y="0"
           width="100%"
           height="100%" />
        <use
           transform="matrix(0.00878906,0,0,0.00878906,30.788086,0)"
           xlink:href="#o"
           id="use145"
           x="0"
           y="0"
           width="100%"
           height="100%" />
      </g>
      <path
         d="M 973,-380 H 363 L 226,0 H 28 L 584,-1456 H 752 L 1309,0 H 1112 Z M 421,-538 h 495 l -248,-681"
         id="w" />
      <use
         transform="scale(0.00878906)"
         xlink:href="#w"
         id="d"
         x="0"
         y="0"
         width="100%"
         height="100%" />
      <path
         d="m 483,-459 28,192 41,-173 288,-1016 h 162 l 281,1016 40,176 31,-196 226,-996 h 193 L 1420,0 H 1245 L 945,-1061 922,-1172 899,-1061 588,0 H 413 L 61,-1456 h 192"
         id="x" />
      <path
         d="M 442,-501 326,-380 V 0 H 141 v -1536 h 185 v 929 c 135,-169 291,-317 436,-475 H 987 L 566,-630 1036,0 H 819"
         id="y" />
      <g
         id="e">
        <use
           transform="scale(0.00878906)"
           xlink:href="#x"
           id="use152"
           x="0"
           y="0"
           width="100%"
           height="100%" />
        <use
           transform="matrix(0.00878906,0,0,0.00878906,15.697266,0)"
           xlink:href="#u"
           id="use154"
           x="0"
           y="0"
           width="100%"
           height="100%" />
        <use
           transform="matrix(0.00878906,0,0,0.00878906,25.962891,0)"
           xlink:href="#p"
           id="use156"
           x="0"
           y="0"
           width="100%"
           height="100%" />
        <use
           transform="matrix(0.00878906,0,0,0.00878906,32.053711,0)"
           xlink:href="#y"
           id="use158"
           x="0"
           y="0"
           width="100%"
           height="100%" />
        <use
           transform="matrix(0.00878906,0,0,0.00878906,41.000977,0)"
           xlink:href="#o"
           id="use160"
           x="0"
           y="0"
           width="100%"
           height="100%" />
        <use
           transform="matrix(0.00878906,0,0,0.00878906,50.537109,0)"
           xlink:href="#p"
           id="use162"
           x="0"
           y="0"
           width="100%"
           height="100%" />
      </g>
      <path
         d="M 1288,0 H 1095 L 362,-1122 V 0 H 169 v -1456 h 193 l 735,1127 v -1127 h 191 V 0"
         id="z" />
      <path
         d="M 520,20 C 244,20 95,-247 95,-550 c 0,-298 151,-550 427,-552 127,0 227,43 301,130 v -564 h 185 V 0 H 838 l -9,-116 C 755,-25 652,20 520,20 Z m 48,-965 c -210,0 -288,177 -288,416 0,218 87,392 286,392 117,0 203,-53 257,-158 V -792 C 768,-894 683,-945 568,-945"
         id="A" />
      <g
         id="f">
        <use
           transform="scale(0.00878906)"
           xlink:href="#z"
           id="use167"
           x="0"
           y="0"
           width="100%"
           height="100%" />
        <use
           transform="matrix(0.00878906,0,0,0.00878906,12.832031,0)"
           xlink:href="#u"
           id="use169"
           x="0"
           y="0"
           width="100%"
           height="100%" />
        <use
           transform="matrix(0.00878906,0,0,0.00878906,23.097656,0)"
           xlink:href="#A"
           id="use171"
           x="0"
           y="0"
           width="100%"
           height="100%" />
        <use
           transform="matrix(0.00878906,0,0,0.00878906,33.249023,0)"
           xlink:href="#o"
           id="use173"
           x="0"
           y="0"
           width="100%"
           height="100%" />
      </g>
      <path
         d="m 1240,-945 c -141,0 -250,95 -250,227 V 0 H 804 v -709 c 0,-157 -77,-236 -231,-236 -121,0 -204,52 -249,155 V 0 H 139 v -1082 h 175 l 5,120 c 79,-93 186,-140 321,-140 151,0 254,58 309,174 69,-98 181,-174 345,-174 237,0 362,126 362,377 V 0 h -185 v -714 c -2,-159 -67,-231 -231,-231"
         id="B" />
      <path
         d="m 632,-1102 c 291,0 422,251 422,573 C 1054,-232 913,19 635,20 504,20 400,-22 325,-105 V 416 H 140 v -1498 h 169 l 9,120 c 75,-93 180,-140 314,-140 z m -53,971 c 207,0 290,-180 290,-419 0,-218 -92,-395 -292,-395 -112,0 -196,50 -252,149 v 517 c 55,99 140,148 254,148"
         id="C" />
      <path
         d="m 277,-555 c 0,244 77,420 297,424 127,2 249,-93 255,-210 h 175 C 980,-127 805,20 574,20 258,20 81,-222 92,-562 c 11,-319 164,-533 481,-540 237,-5 426,165 431,392 H 829 c -7,-133 -115,-242 -256,-240 -209,4 -296,166 -296,395"
         id="D" />
      <g
         id="g">
        <use
           transform="scale(0.00878906)"
           xlink:href="#z"
           id="use179"
           x="0"
           y="0"
           width="100%"
           height="100%" />
        <use
           transform="matrix(0.00878906,0,0,0.00878906,12.832031,0)"
           xlink:href="#r"
           id="use181"
           x="0"
           y="0"
           width="100%"
           height="100%" />
        <use
           transform="matrix(0.00878906,0,0,0.00878906,22.623047,0)"
           xlink:href="#B"
           id="use183"
           x="0"
           y="0"
           width="100%"
           height="100%" />
        <use
           transform="matrix(0.00878906,0,0,0.00878906,38.399414,0)"
           xlink:href="#o"
           id="use185"
           x="0"
           y="0"
           width="100%"
           height="100%" />
        <use
           transform="matrix(0.00878906,0,0,0.00878906,47.935547,0)"
           xlink:href="#m"
           id="use187"
           x="0"
           y="0"
           width="100%"
           height="100%" />
        <use
           transform="matrix(0.00878906,0,0,0.00878906,57.216797,0)"
           xlink:href="#C"
           id="use189"
           x="0"
           y="0"
           width="100%"
           height="100%" />
        <use
           transform="matrix(0.00878906,0,0,0.00878906,67.31543,0)"
           xlink:href="#r"
           id="use191"
           x="0"
           y="0"
           width="100%"
           height="100%" />
        <use
           transform="matrix(0.00878906,0,0,0.00878906,77.106445,0)"
           xlink:href="#D"
           id="use193"
           x="0"
           y="0"
           width="100%"
           height="100%" />
        <use
           transform="matrix(0.00878906,0,0,0.00878906,86.52832,0)"
           xlink:href="#o"
           id="use195"
           x="0"
           y="0"
           width="100%"
           height="100%" />
      </g>
      <path
         d="m 96,-169 c -40,0 -48,33 -48,73 0,40 9,75 48,75 24,0 41,-14 43,-38 l 32,2 C 165,-20 140,4 97,4 38,4 21,-37 15,-95 c -10,-93 101,-131 147,-64 4,7 5,14 7,22 l -32,3 c -4,-21 -16,-35 -41,-35"
         id="E" />
      <path
         d="M 141,-36 C 126,-15 110,5 73,4 37,3 15,-17 15,-53 c -1,-64 63,-63 125,-63 3,-35 -9,-54 -41,-54 -24,1 -41,7 -42,31 l -33,-3 c 5,-37 33,-52 76,-52 45,0 72,20 72,64 v 82 c -1,20 7,32 28,27 V -1 C 169,8 139,-3 141,-36 Z M 48,-53 c 0,20 12,33 32,33 41,-3 63,-29 60,-74 -43,2 -92,-5 -92,41"
         id="F" />
      <path
         d="m 135,-143 c -3,-34 -86,-38 -87,0 15,53 115,12 119,90 4,78 -150,74 -157,8 l 28,-5 c 4,36 97,45 98,0 -10,-56 -113,-15 -118,-90 -4,-57 82,-63 122,-42 12,7 21,19 24,35"
         id="G" />
      <path
         d="m 16,-82 v -28 h 88 v 28 H 16"
         id="H" />
      <path
         d="m 100,-194 c 62,-1 85,37 85,99 1,63 -27,99 -86,99 -59,0 -83,-39 -84,-99 0,-66 28,-99 85,-99 z m -1,174 c 44,1 53,-31 53,-75 0,-43 -8,-75 -51,-75 -43,0 -53,32 -53,75 0,43 10,74 51,75"
         id="I" />
      <path
         d="m 115,-194 c 55,1 70,41 70,98 C 185,-39 169,2 115,4 84,4 66,-9 55,-30 L 56,75 H 24 l -1,-265 h 31 l 2,30 c 10,-21 28,-34 59,-34 z m -8,174 c 40,0 45,-34 45,-75 0,-41 -6,-73 -45,-74 -42,0 -51,32 -51,76 0,43 10,73 51,73"
         id="J" />
      <path
         d="m 100,-194 c 63,0 86,42 84,106 H 49 c 0,40 14,67 53,68 26,1 43,-12 49,-29 l 28,8 C 168,-13 142,4 102,4 44,4 14,-33 15,-96 c 1,-61 26,-98 85,-98 z m 52,81 c 6,-60 -76,-77 -97,-28 -3,7 -6,17 -6,28 h 103"
         id="K" />
      <path
         d="M 114,-163 C 36,-179 61,-72 57,0 H 25 l -1,-190 h 30 c 1,12 -1,29 2,39 6,-27 23,-49 58,-41 v 29"
         id="L" />
      <path
         d="m 59,-47 c -2,24 18,29 38,22 V -1 C 64,9 27,4 27,-40 V -167 H 5 v -23 h 24 l 9,-43 h 21 v 43 h 35 v 23 H 59 v 120"
         id="M" />
      <g
         id="h">
        <use
           transform="scale(0.05)"
           xlink:href="#E"
           id="use207"
           x="0"
           y="0"
           width="100%"
           height="100%" />
        <use
           transform="matrix(0.05,0,0,0.05,9,0)"
           xlink:href="#F"
           id="use209"
           x="0"
           y="0"
           width="100%"
           height="100%" />
        <use
           transform="matrix(0.05,0,0,0.05,19,0)"
           xlink:href="#G"
           id="use211"
           x="0"
           y="0"
           width="100%"
           height="100%" />
        <use
           transform="matrix(0.05,0,0,0.05,28,0)"
           xlink:href="#G"
           id="use213"
           x="0"
           y="0"
           width="100%"
           height="100%" />
        <use
           transform="matrix(0.05,0,0,0.05,37,0)"
           xlink:href="#H"
           id="use215"
           x="0"
           y="0"
           width="100%"
           height="100%" />
        <use
           transform="matrix(0.05,0,0,0.05,42.95,0)"
           xlink:href="#I"
           id="use217"
           x="0"
           y="0"
           width="100%"
           height="100%" />
        <use
           transform="matrix(0.05,0,0,0.05,52.95,0)"
           xlink:href="#J"
           id="use219"
           x="0"
           y="0"
           width="100%"
           height="100%" />
        <use
           transform="matrix(0.05,0,0,0.05,62.95,0)"
           xlink:href="#K"
           id="use221"
           x="0"
           y="0"
           width="100%"
           height="100%" />
        <use
           transform="matrix(0.05,0,0,0.05,72.95,0)"
           xlink:href="#L"
           id="use223"
           x="0"
           y="0"
           width="100%"
           height="100%" />
        <use
           transform="matrix(0.05,0,0,0.05,78.9,0)"
           xlink:href="#F"
           id="use225"
           x="0"
           y="0"
           width="100%"
           height="100%" />
        <use
           transform="matrix(0.05,0,0,0.05,88.9,0)"
           xlink:href="#M"
           id="use227"
           x="0"
           y="0"
           width="100%"
           height="100%" />
        <use
           transform="matrix(0.05,0,0,0.05,93.9,0)"
           xlink:href="#I"
           id="use229"
           x="0"
           y="0"
           width="100%"
           height="100%" />
        <use
           transform="matrix(0.05,0,0,0.05,103.9,0)"
           xlink:href="#L"
           id="use231"
           x="0"
           y="0"
           width="100%"
           height="100%" />
      </g>
      <path
         d="m 212,-179 c -10,-28 -35,-45 -73,-45 -59,0 -87,40 -87,99 0,60 29,101 89,101 43,0 62,-24 78,-52 l 27,14 C 228,-24 195,4 139,4 59,4 22,-46 18,-125 c -6,-104 99,-153 187,-111 19,9 31,26 39,46"
         id="N" />
      <path
         d="m 117,-194 c 89,-4 53,116 60,194 h -32 v -121 c 0,-31 -8,-49 -39,-48 C 34,-167 62,-67 57,0 H 25 l -1,-190 h 30 c 1,10 -1,24 2,32 11,-22 29,-35 61,-36"
         id="O" />
      <path
         d="m 85,-194 c 31,0 48,13 60,33 l -1,-100 h 32 l 1,261 h -30 c -2,-10 0,-23 -3,-31 C 134,-8 116,4 85,4 32,4 16,-35 15,-94 c 0,-66 23,-100 70,-100 z m 9,24 c -40,0 -46,34 -46,75 0,40 6,74 45,74 42,0 51,-32 51,-76 0,-42 -9,-74 -50,-73"
         id="P" />
      <path
         d="m 30,-248 c 118,-7 216,8 213,122 C 240,-48 200,0 122,0 H 30 Z m 33,221 c 89,8 146,-16 146,-99 0,-83 -60,-101 -146,-95 v 194"
         id="Q" />
      <g
         id="i">
        <use
           transform="scale(0.05)"
           xlink:href="#N"
           id="use238"
           x="0"
           y="0"
           width="100%"
           height="100%" />
        <use
           transform="matrix(0.05,0,0,0.05,12.95,0)"
           xlink:href="#F"
           id="use240"
           x="0"
           y="0"
           width="100%"
           height="100%" />
        <use
           transform="matrix(0.05,0,0,0.05,22.95,0)"
           xlink:href="#G"
           id="use242"
           x="0"
           y="0"
           width="100%"
           height="100%" />
        <use
           transform="matrix(0.05,0,0,0.05,31.95,0)"
           xlink:href="#G"
           id="use244"
           x="0"
           y="0"
           width="100%"
           height="100%" />
        <use
           transform="matrix(0.05,0,0,0.05,40.95,0)"
           xlink:href="#F"
           id="use246"
           x="0"
           y="0"
           width="100%"
           height="100%" />
        <use
           transform="matrix(0.05,0,0,0.05,50.95,0)"
           xlink:href="#O"
           id="use248"
           x="0"
           y="0"
           width="100%"
           height="100%" />
        <use
           transform="matrix(0.05,0,0,0.05,60.95,0)"
           xlink:href="#P"
           id="use250"
           x="0"
           y="0"
           width="100%"
           height="100%" />
        <use
           transform="matrix(0.05,0,0,0.05,70.95,0)"
           xlink:href="#L"
           id="use252"
           x="0"
           y="0"
           width="100%"
           height="100%" />
        <use
           transform="matrix(0.05,0,0,0.05,76.9,0)"
           xlink:href="#F"
           id="use254"
           x="0"
           y="0"
           width="100%"
           height="100%" />
        <use
           transform="matrix(0.05,0,0,0.05,86.9,0)"
           xlink:href="#Q"
           id="use256"
           x="0"
           y="0"
           width="100%"
           height="100%" />
        <use
           transform="matrix(0.05,0,0,0.05,99.85,0)"
           xlink:href="#F"
           id="use258"
           x="0"
           y="0"
           width="100%"
           height="100%" />
        <use
           transform="matrix(0.05,0,0,0.05,109.85,0)"
           xlink:href="#M"
           id="use260"
           x="0"
           y="0"
           width="100%"
           height="100%" />
        <use
           transform="matrix(0.05,0,0,0.05,114.85,0)"
           xlink:href="#F"
           id="use262"
           x="0"
           y="0"
           width="100%"
           height="100%" />
        <use
           transform="matrix(0.05,0,0,0.05,124.85,0)"
           xlink:href="#E"
           id="use264"
           x="0"
           y="0"
           width="100%"
           height="100%" />
        <use
           transform="matrix(0.05,0,0,0.05,133.85,0)"
           xlink:href="#K"
           id="use266"
           x="0"
           y="0"
           width="100%"
           height="100%" />
        <use
           transform="matrix(0.05,0,0,0.05,143.85,0)"
           xlink:href="#O"
           id="use268"
           x="0"
           y="0"
           width="100%"
           height="100%" />
        <use
           transform="matrix(0.05,0,0,0.05,153.85,0)"
           xlink:href="#M"
           id="use270"
           x="0"
           y="0"
           width="100%"
           height="100%" />
        <use
           transform="matrix(0.05,0,0,0.05,158.85,0)"
           xlink:href="#K"
           id="use272"
           x="0"
           y="0"
           width="100%"
           height="100%" />
        <use
           transform="matrix(0.05,0,0,0.05,168.85,0)"
           xlink:href="#L"
           id="use274"
           x="0"
           y="0"
           width="100%"
           height="100%" />
      </g>
    </defs>
  </g>
</svg>
