<svg xmlns="http://www.w3.org/2000/svg" xmlns:xlink="http://www.w3.org/1999/xlink" xmlns:lucid="lucid" width="2910" height="769.8"><g transform="translate(1620 -30.200000000000003)" lucid:page-tab-id="5rRT6d8-1-tu"><path d="M-1600 82c0-1.1.9-2 2-2h816c1.1 0 2 .9 2 2v676c0 1.1-.9 2-2 2h-816c-1.1 0-2-.9-2-2z" stroke="#000" fill="#efebe9"/><use xlink:href="#a" transform="matrix(1,0,0,1,-1584,96) translate(0 16.69921875)"/><path d="M-1580 142c0-1.1.9-2 2-2h236c1.1 0 2 .9 2 2v596c0 1.1-.9 2-2 2h-236c-1.1 0-2-.9-2-2z" stroke="#000" fill="#fff3e0"/><use xlink:href="#b" transform="matrix(1,0,0,1,-1564,156) translate(0 16.69921875)"/><use xlink:href="#c" transform="matrix(1,0,0,1,-1564,156) translate(58.0166015625 16.69921875)"/><use xlink:href="#d" transform="matrix(1,0,0,1,-1564,156) translate(102.796875 16.69921875)"/><path d="M-1560 212c0-1.1.9-2 2-2h196c1.1 0 2 .9 2 2v286c0 1.1-.9 2-2 2h-196c-1.1 0-2-.9-2-2z" stroke="#000" fill="#e1f5fe"/><use xlink:href="#e" transform="matrix(1,0,0,1,-1544,226) translate(0 16.69921875)"/><use xlink:href="#f" transform="matrix(1,0,0,1,-1544,226) translate(61.083984375 16.69921875)"/><path d="M-1540 262c0-1.1.9-2 2-2h736c1.1 0 2 .9 2 2v456c0 1.1-.9 2-2 2h-736c-1.1 0-2-.9-2-2z" stroke="#000" fill="#e8eaf6" fill-opacity=".5"/><use xlink:href="#g" transform="matrix(1,0,0,1,-1524,276) translate(0 16.69921875)"/><path d="M-1460.34 343.17c-1.14.1-2.05.34-2.96.8l-39.44 19.43c-2.16 1.02-3.64 2.84-4.1 5.23l-9.77 43.76c-.47 2.04-.12 4.08 1 5.9.13.23.24.34.47.57l27.28 35c1.48 1.94 3.52 2.97 5.9 2.97h43.9c2.38 0 4.42-1.03 5.9-2.96l27.28-35c1.48-1.94 2.05-4.22 1.48-6.6l-9.77-43.65c-.45-2.4-1.93-4.2-4.1-5.23l-39.43-19.44c-1.25-.57-2.4-.9-3.64-.8z" stroke="#000" stroke-opacity="0" stroke-width="0" fill="#326ce5"/><path d="M-1460.36 340c-1.2.12-2.16.36-3.12.84l-41.64 20.52c-2.28 1.08-3.84 3-4.32 5.52l-10.32 46.2c-.48 2.16-.12 4.32 1.08 6.24.12.24.24.36.48.6l28.8 36.96c1.56 2.04 3.72 3.12 6.24 3.12h46.32c2.52 0 4.68-1.08 6.24-3.12l28.8-36.96c1.56-2.04 2.16-4.44 1.56-6.84l-10.32-46.2c-.48-2.52-2.04-4.44-4.32-5.52l-41.64-20.52c-1.32-.6-2.52-.96-3.84-.84zm0 3.12c1.32 0 2.4.24 3.6.84l39.6 19.44c2.04 1.08 3.48 2.88 4.08 5.28l9.72 43.68c.48 2.4 0 4.56-1.44 6.48l-27.36 35.04c-1.44 1.92-3.48 3-5.88 3h-43.92c-2.4 0-4.44-1.08-5.88-3l-27.36-35.04c-.12-.12-.24-.36-.36-.6-1.2-1.8-1.56-3.72-1.08-5.88l9.72-43.68c.6-2.4 1.92-4.2 4.08-5.28l39.6-19.44c.96-.48 1.8-.72 2.88-.84z" stroke="#000" stroke-opacity="0" stroke-width="0" fill="#fff"/><path d="M-1484.08 382.6l24.08-7.2 24.1 7.2-24.1 7.2zM-1484.08 385.36v26.4l22.43 12.84.12-32.33zM-1435.9 385.36v26.4l-22.45 12.84-.12-32.33z" stroke="#000" stroke-opacity="0" fill="#fff"/><use xlink:href="#h" transform="matrix(1,0,0,1,-1550,469) translate(35.074999999999996 14.4)"/><path d="M-1240.34 343.17c-1.14.1-2.05.34-2.96.8l-39.44 19.43c-2.16 1.02-3.64 2.84-4.1 5.23l-9.77 43.76c-.47 2.04-.13 4.08 1 5.9.13.23.24.34.47.57l27.28 35c1.48 1.94 3.52 2.97 5.9 2.97h43.9c2.38 0 4.42-1.03 5.9-2.96l27.28-35c1.48-1.94 2.05-4.2 1.48-6.6l-9.77-43.65c-.45-2.4-1.93-4.2-4.1-5.23l-39.43-19.44c-1.25-.57-2.4-.9-3.64-.8z" stroke="#000" stroke-opacity="0" stroke-width="3.83" fill="#326ce5"/><path d="M-1240.36 340c-1.2.12-2.16.36-3.12.84l-41.64 20.52c-2.28 1.08-3.84 3-4.32 5.52l-10.32 46.2c-.48 2.16-.12 4.32 1.08 6.24.12.24.24.36.48.6l28.8 36.96c1.56 2.04 3.72 3.12 6.24 3.12h46.32c2.52 0 4.68-1.08 6.24-3.12l28.8-36.96c1.56-2.04 2.16-4.44 1.56-6.84l-10.32-46.2c-.48-2.52-2.04-4.44-4.32-5.52l-41.64-20.52c-1.32-.6-2.52-.96-3.84-.84zm0 3.24c1.32-.12 2.4.12 3.6.72l39.6 19.44c2.04 1.08 3.48 2.88 4.08 5.28l9.72 43.68c.48 2.4 0 4.56-1.44 6.48l-27.36 35.04c-1.44 1.92-3.48 3-5.88 3h-43.92c-2.4 0-4.44-1.08-5.88-3l-27.36-35.04c-.12-.12-.24-.36-.36-.6-1.2-1.8-1.56-3.72-1.08-5.88l9.72-43.68c.6-2.4 1.92-4.2 4.08-5.28l39.6-19.44c.96-.48 1.8-.72 2.88-.84z" stroke="#000" stroke-opacity="0" stroke-width="3.83" fill="#fff"/><path d="M-1250.23 442.07c0 1.36.2 2.36.62 3.02.4.65 1.03.97 1.87.97.6 0 1.07-.16 1.46-.5.4-.32.65-.82.74-1.5l1.67.1c-.13 1-.54 1.78-1.22 2.36-.68.6-1.55.88-2.6.88-1.4 0-2.46-.43-3.18-1.33-.73-.92-1.1-2.23-1.1-3.97 0-1.72.37-3.03 1.1-3.93.73-.9 1.78-1.36 3.15-1.36 1 0 1.85.3 2.52.83.67.54 1.1 1.28 1.26 2.23l-1.7.13c-.08-.57-.3-1.03-.65-1.36-.34-.33-.84-.5-1.48-.5-.87 0-1.5.3-1.9.9-.4.6-.58 1.6-.58 3.03zM-1242.07 447.23v-7.84c0-.73 0-1.52-.05-2.4h1.56l.07 2.1h.04c.27-.88.57-1.48.92-1.8.34-.33.82-.5 1.44-.5.22 0 .45.05.67.1v1.57c-.22-.06-.5-.1-.88-.1-.7 0-1.22.3-1.57.92-.36.6-.55 1.46-.55 2.6v5.33zM-1229.57 445.58c-.3.66-.7 1.12-1.22 1.4-.5.3-1.12.43-1.86.43-1.25 0-2.18-.43-2.77-1.3-.58-.86-.88-2.18-.88-3.94 0-3.57 1.2-5.35 3.64-5.35.75 0 1.37.16 1.88.44.5.28.9.74 1.2 1.35h.03l-.02-1.15v-4.25h1.64v11.9c0 1.08.03 1.8.06 2.13h-1.57c-.02-.1-.04-.34-.06-.7-.02-.37-.04-.68-.04-.95zm-5-3.48c0 1.44.18 2.46.54 3.07.37.62.96.94 1.8.94.93 0 1.6-.33 2.03-1 .42-.67.63-1.7.63-3.1 0-1.36-.2-2.36-.63-2.98-.43-.63-1.1-.96-2.02-.96-.83 0-1.43.33-1.8.97-.37.63-.56 1.65-.56 3.07z" stroke="#000" stroke-opacity="0" fill="#fff"/><path d="M-1211.66 392.12h-4.58V379.5c0-3.54-2.78-6.4-6.2-6.4h-12.25v-4.72c0-4.4-3.48-7.9-7.67-7.9-4.26 0-7.68 3.5-7.68 7.9v4.72h-12.32c-3.35 0-6.13 2.86-6.13 6.4v12.03h4.58c4.58 0 8.32 3.8 8.32 8.5 0 4.73-3.74 8.6-8.32 8.6h-4.58v12.02c0 3.46 2.78 6.32 6.13 6.32h11.68v-4.72c0-4.72 3.75-8.58 8.33-8.58s8.26 3.86 8.26 8.58v4.72h11.66c3.42 0 6.2-2.86 6.2-6.32v-12.7h4.58c4.26 0 7.68-3.52 7.68-7.9 0-4.33-3.42-7.93-7.68-7.93z" stroke="#000" stroke-opacity="0" stroke-width="1.74" fill="#fff"/><use xlink:href="#i" transform="matrix(1,0,0,1,-1330,469) translate(2.5999999999999943 14.4)"/><path d="M-1060.34 343.17c-1.14.1-2.05.34-2.96.8l-39.44 19.43c-2.16 1.02-3.64 2.84-4.1 5.23l-9.77 43.76c-.47 2.04-.13 4.08 1 5.9.13.23.24.34.47.57l27.28 35c1.48 1.94 3.52 2.97 5.9 2.97h43.9c2.38 0 4.42-1.03 5.9-2.96l27.28-35c1.48-1.94 2.05-4.2 1.48-6.6l-9.77-43.65c-.45-2.4-1.93-4.2-4.1-5.23l-39.43-19.44c-1.25-.57-2.4-.9-3.64-.8z" stroke="#000" stroke-opacity="0" stroke-width="3.83" fill="#326ce5"/><path d="M-1060.36 340c-1.2.12-2.16.36-3.12.84l-41.64 20.52c-2.28 1.08-3.84 3-4.32 5.52l-10.32 46.2c-.48 2.16-.12 4.32 1.08 6.24.12.24.24.36.48.6l28.8 36.96c1.56 2.04 3.72 3.12 6.24 3.12h46.32c2.52 0 4.68-1.08 6.24-3.12l28.8-36.96c1.56-2.04 2.16-4.44 1.56-6.84l-10.32-46.2c-.48-2.52-2.04-4.44-4.32-5.52l-41.64-20.52c-1.32-.6-2.52-.96-3.84-.84zm0 3.24c1.32-.12 2.4.12 3.6.72l39.6 19.44c2.04 1.08 3.48 2.88 4.08 5.28l9.72 43.68c.48 2.4 0 4.56-1.44 6.48l-27.36 35.04c-1.44 1.92-3.48 3-5.88 3h-43.92c-2.4 0-4.44-1.08-5.88-3l-27.36-35.04c-.12-.12-.24-.36-.36-.6-1.2-1.8-1.56-3.72-1.08-5.88l9.72-43.68c.6-2.4 1.92-4.2 4.08-5.28l39.6-19.44c.96-.48 1.8-.72 2.88-.84z" stroke="#000" stroke-opacity="0" stroke-width="3.83" fill="#fff"/><path d="M-1074.6 447.23v-7.84c0-.73 0-1.52-.04-2.4h1.56l.07 2.1h.02c.27-.88.57-1.48.9-1.8.36-.33.84-.5 1.46-.5.22 0 .45.05.67.1v1.57c-.22-.06-.5-.1-.88-.1-.68 0-1.2.3-1.56.92-.36.6-.54 1.46-.54 2.6v5.33zM-1059.97 442.1c0 1.8-.38 3.13-1.14 4-.77.88-1.9 1.32-3.34 1.32-1.45 0-2.54-.46-3.28-1.36-.74-.92-1.1-2.24-1.1-3.96 0-3.53 1.47-5.3 4.44-5.3 1.5 0 2.62.45 3.34 1.3.72.87 1.07 2.2 1.07 4zm-1.73 0c0-1.4-.2-2.43-.62-3.07-.4-.64-1.08-.95-2.04-.95s-1.66.3-2.1.97c-.42.65-.64 1.67-.64 3.05 0 1.35.2 2.37.64 3.05.42.68 1.1 1 2 1 1 0 1.7-.3 2.12-.97.42-.66.64-1.7.64-3.08zM-1057.9 447.23V433.2h1.64v14.03zM-1052.46 442.48c0 1.16.23 2.08.7 2.7.48.65 1.16.97 2.07.97.72 0 1.3-.15 1.73-.45.43-.3.72-.67.87-1.12l1.45.42c-.6 1.6-1.93 2.42-4.04 2.42-1.46 0-2.58-.45-3.35-1.35-.76-.9-1.14-2.25-1.14-4.02 0-1.68.4-3 1.15-3.9.77-.9 1.87-1.33 3.3-1.33 2.9 0 4.37 1.8 4.37 5.42v.24zm5.37-1.3c-.08-1.1-.34-1.87-.78-2.36-.44-.5-1.08-.74-1.9-.74-.8 0-1.43.27-1.9.82-.48.56-.72 1.3-.76 2.27z" stroke="#000" stroke-opacity="0" fill="#fff"/><path d="M-1056.32 396.3c0 1.9-1.5 3.45-3.37 3.45-1.85 0-3.36-1.55-3.36-3.45 0-1.9 1.5-3.44 3.37-3.44s3.38 1.54 3.38 3.44z" stroke="#000" stroke-opacity="0" stroke-width="3.77" fill="#fff"/><path d="M-1059.3 368.37l-20.66 9.4v14.1c0 13.03 8.8 25.22 20.66 28.17 11.87-2.95 20.67-15.14 20.67-28.16v-14.1zm10.96 37.82h-21.9v-18.92h3.13v-2.07c0-4.48 3.55-8.1 7.93-8.1 4.34 0 7.9 3.62 7.9 8.1v2.08h2.93z" stroke="#000" stroke-opacity="0" stroke-width="3.77" fill="#fff"/><path d="M-1059.3 380.12c-2.62 0-4.74 2.18-4.74 4.85V387h9.5v-2.06c-.04-2.67-2.14-4.82-4.76-4.82zM-1094.36 365.47v2.6h2.68v-1.23h1.3v-2.73h-2.68c-.96 0-1.3.44-1.3 1.37zm6.66 1.37h5.3v-2.73h-5.3zm7.97 0h5.3v-2.73h-5.3zm7.97 0h5.36v-2.73h-5.36zm7.98 0h5.36v-2.73h-5.36zm8.04 0h5.3v-2.73h-5.3zm7.97 0h5.3v-2.73h-5.3zm7.97 0h5.3v-2.73h-5.3zm7.97 0h4.88v-.87h1.3v-.5c0-1-.48-1.43-1.3-1.36h-4.88zm3.5 7.4h2.68v-5.54h-2.68zm-66.03 2.04h2.68v-5.46h-2.68zm66.03 6.15h2.68v-5.46h-2.68zm-66.03 2.12h2.68v-5.53h-2.68zm66.03 6.08h2.68v-5.46h-2.68zm-66.03 2.12h2.68v-5.47h-2.68zm66.03 6.15h2.68v-5.53h-2.68zm-66.03 2.05h2.68v-5.47h-2.68zm66.03 6.15h2.68v-5.47h-2.68zm-66.03 2.1h2.68v-5.52h-2.68zm66.03 6.16h2.68v-5.53h-2.68zm-66.03 2.05h2.68v-5.46h-2.68zm66.03 6.16h2.68v-5.47h-2.68zm-66.03 1.3c-.07 1.2.55 1.43 1.37 1.37h.77v-1.36h.55v-4.73h-2.68zm4.8 1.37h5.3v-2.73h-5.3zm7.98 0h5.3v-2.73h-5.3zm7.97 0h5.28v-2.73h-5.3zm7.96 0h5.3v-2.73h-5.3zm7.97 0h5.36v-2.73h-5.37zm7.97 0h5.36v-2.73h-5.36zm8.04 0h5.3v-2.73h-5.3zm7.97 0h5.3v-2.73h-5.3z" stroke="#000" stroke-opacity="0" stroke-width="3.77" fill="#fff"/><use xlink:href="#h" transform="matrix(1,0,0,1,-1150,469) translate(35.074999999999996 14.4)"/><path d="M-1240.34 543.17c-1.14.1-2.05.34-2.96.8l-39.44 19.43c-2.16 1.02-3.64 2.84-4.1 5.23l-9.77 43.76c-.47 2.04-.13 4.08 1 5.9.13.23.24.34.47.57l27.28 35c1.48 1.94 3.52 2.97 5.9 2.97h43.9c2.38 0 4.42-1.03 5.9-2.96l27.28-35c1.48-1.94 2.05-4.2 1.48-6.6l-9.77-43.65c-.45-2.4-1.93-4.2-4.1-5.23l-39.43-19.44c-1.25-.57-2.4-.9-3.64-.8z" stroke="#000" stroke-opacity="0" stroke-width="3.83" fill="#326ce5"/><path d="M-1240.36 540c-1.2.12-2.16.36-3.12.84l-41.64 20.52c-2.28 1.08-3.84 3-4.32 5.52l-10.32 46.2c-.48 2.16-.12 4.32 1.08 6.24.12.24.24.36.48.6l28.8 36.96c1.56 2.04 3.72 3.12 6.24 3.12h46.32c2.52 0 4.68-1.08 6.24-3.12l28.8-36.96c1.56-2.04 2.16-4.44 1.56-6.84l-10.32-46.2c-.48-2.52-2.04-4.44-4.32-5.52l-41.64-20.52c-1.32-.6-2.52-.96-3.84-.84zm0 3.24c1.32-.12 2.4.12 3.6.72l39.6 19.44c2.04 1.08 3.48 2.88 4.08 5.28l9.72 43.68c.48 2.4 0 4.56-1.44 6.48l-27.36 35.04c-1.44 1.92-3.48 3-5.88 3h-43.92c-2.4 0-4.44-1.08-5.88-3l-27.36-35.04c-.12-.12-.24-.36-.36-.6-1.2-1.8-1.56-3.72-1.08-5.88l9.72-43.68c.6-2.4 1.92-4.2 4.08-5.28l39.6-19.44c.96-.48 1.8-.72 2.88-.84z" stroke="#000" stroke-opacity="0" stroke-width="3.83" fill="#fff"/><path d="M-1247.3 647.95v-7.84c0-.7 0-1.5-.05-2.37h1.56l.08 2.1h.04c.26-.88.56-1.5.9-1.8.35-.33.83-.5 1.45-.5.22 0 .45.04.67.1v1.57c-.22-.07-.5-.1-.87-.1-.7 0-1.22.3-1.57.92-.36.6-.55 1.47-.55 2.6v5.33zM-1232.68 642.8c0 3.56-1.2 5.34-3.64 5.34-.76 0-1.38-.14-1.9-.4-.48-.3-.88-.75-1.2-1.38 0 .2-.03.5-.05.9l-.05.7h-1.6c.03-.35.06-1.06.06-2.12v-11.9h1.65v3.98c0 .4-.02.9-.05 1.45h.04c.3-.65.7-1.12 1.2-1.4.5-.3 1.13-.43 1.88-.43 1.24 0 2.17.44 2.76 1.3.6.87.88 2.2.88 3.96zm-1.73.05c0-1.43-.2-2.46-.56-3.07-.37-.62-.96-.93-1.8-.93-.92 0-1.6.32-2.02 1-.42.64-.63 1.68-.63 3.1 0 1.34.2 2.33.6 2.97.42.64 1.1.97 2.04.97.82 0 1.42-.34 1.8-.96.37-.64.55-1.67.55-3.1z" stroke="#000" stroke-opacity="0" fill="#fff"/><path d="M-1274.36 565.73v2.54h2.68v-1.18h1.3v-2.74h-2.67c-.9 0-1.3.37-1.3 1.37zm6.67 1.36h5.3v-2.74h-5.3zm7.98 0h5.3v-2.74h-5.3zm7.97 0h5.36v-2.74h-5.35zm7.97 0h5.36v-2.74h-5.36zm8.04 0h5.3v-2.74h-5.3zm7.97 0h5.3v-2.74h-5.3zm7.97 0h5.3v-2.74h-5.3zm7.97 0h4.88v-.88h1.3v-.5c0-.74-.27-1.36-1.3-1.36h-4.88zm3.5 7.32h2.7v-5.46h-2.7zm-66.03 2.1h2.68v-5.45h-2.68zm66.04 6.16h2.68v-5.46h-2.68zm-66.04 2.05h2.68v-5.46h-2.68zm66.04 6.15h2.68v-5.47h-2.68zm-66.04 2.1h2.68v-5.45h-2.68zm66.04 6.16h2.68v-5.53h-2.68zm-66.04 2.05h2.68v-5.48h-2.68zm66.04 6.14h2.68v-5.47h-2.68zm-66.04 2.1h2.68V604h-2.68zm66.04 6.16h2.68v-5.53h-2.68zm-66.04 2.05h2.68v-5.47h-2.68zm66.04 6.14h2.68v-5.47h-2.68zm-66.04 1.3c0 .87.28 1.43 1.3 1.37h.83v-1.37h.55v-4.72h-2.68zm4.74 1.37h5.36v-2.74h-5.36zm8.04 0h5.3v-2.74h-5.3zm7.97 0h5.28v-2.74h-5.3zm7.96 0h5.3v-2.74h-5.3zm7.98 0h5.3v-2.74h-5.3zm7.97 0h5.37v-2.74h-5.36zm8.05 0h5.3v-2.74h-5.3zm7.97 0h5.3v-2.74h-5.3z" stroke="#000" stroke-opacity="0" stroke-width="3.77" fill="#fff"/><path d="M-1260.8 595.4c0-4.5 3.6-8.2 7.96-8.2h10.27v-5.03h-10.27c-7.1 0-12.85 5.93-12.85 13.24 0 7.32 5.77 13.25 12.86 13.25h10.27v-5.03h-10.27c-4.37 0-7.97-3.68-7.97-8.2zm10.53 2.66h20.55v-5.3h-20.55zm23.1-15.9h-10.26v5.04h10.27c4.37 0 7.97 3.7 7.97 8.2 0 4.54-3.6 8.22-7.96 8.22h-10.27v5.03h10.27c7.1 0 12.85-5.93 12.85-13.24 0-7.3-5.77-13.23-12.86-13.23z" stroke="#000" stroke-opacity="0" stroke-width="1.46" fill="#fff"/><use xlink:href="#h" transform="matrix(1,0,0,1,-1330,669) translate(35.074999999999996 14.4)"/><path d="M-1060.34 543.17c-1.14.1-2.05.34-2.96.8l-39.44 19.43c-2.16 1.02-3.64 2.84-4.1 5.23l-9.77 43.76c-.47 2.04-.13 4.08 1 5.9.13.23.24.34.47.57l27.28 35c1.48 1.94 3.52 2.97 5.9 2.97h43.9c2.38 0 4.42-1.03 5.9-2.96l27.28-35c1.48-1.94 2.05-4.2 1.48-6.6l-9.77-43.65c-.45-2.4-1.93-4.2-4.1-5.23l-39.43-19.44c-1.25-.57-2.4-.9-3.64-.8z" stroke="#000" stroke-opacity="0" stroke-width="3.83" fill="#326ce5"/><path d="M-1060.36 540c-1.2.12-2.16.36-3.12.84l-41.64 20.52c-2.28 1.08-3.84 3-4.32 5.52l-10.32 46.2c-.48 2.16-.12 4.32 1.08 6.24.12.24.24.36.48.6l28.8 36.96c1.56 2.04 3.72 3.12 6.24 3.12h46.32c2.52 0 4.68-1.08 6.24-3.12l28.8-36.96c1.56-2.04 2.16-4.44 1.56-6.84l-10.32-46.2c-.48-2.52-2.04-4.44-4.32-5.52l-41.64-20.52c-1.32-.6-2.52-.96-3.84-.84zm0 3.24c1.32-.12 2.4.12 3.6.72l39.6 19.44c2.04 1.08 3.48 2.88 4.08 5.28l9.72 43.68c.48 2.4 0 4.56-1.44 6.48l-27.36 35.04c-1.44 1.92-3.48 3-5.88 3h-43.92c-2.4 0-4.44-1.08-5.88-3l-27.36-35.04c-.12-.12-.24-.36-.36-.6-1.2-1.8-1.56-3.72-1.08-5.88l9.72-43.68c.6-2.4 1.92-4.2 4.08-5.28l39.6-19.44c.96-.48 1.8-.72 2.88-.84z" stroke="#000" stroke-opacity="0" stroke-width="3.83" fill="#fff"/><path d="M-1061.1 644.4c0 .97-.36 1.7-1.08 2.23-.7.52-1.68.8-2.96.8-1.23 0-2.2-.22-2.86-.64-.66-.43-1.1-1.1-1.3-1.97l1.46-.3c.14.55.43.95.87 1.22.44.25 1.05.38 1.83.38.84 0 1.45-.14 1.83-.4.4-.27.58-.67.58-1.2 0-.4-.13-.73-.4-.98s-.7-.46-1.3-.62l-1.2-.32c-.93-.25-1.6-.5-2-.73-.4-.25-.72-.54-.94-.9-.23-.33-.35-.76-.35-1.26 0-.92.3-1.63.96-2.12.65-.5 1.6-.74 2.82-.74 1.1 0 1.96.2 2.6.6.65.4 1.06 1.03 1.24 1.9l-1.5.2c-.08-.46-.33-.8-.73-1.05-.4-.25-.94-.37-1.62-.37-.74 0-1.3.12-1.65.35-.35.23-.53.58-.53 1.06 0 .3.07.53.22.72.15.18.36.35.65.47.3.14.9.32 1.8.55.9.23 1.52.44 1.9.64.4.2.7.4.9.63.23.24.4.5.54.82.13.3.2.64.2 1.03zM-1056.64 647.4c-1 0-1.75-.26-2.25-.8s-.74-1.3-.74-2.23c0-1.06.34-1.87 1-2.44.7-.56 1.78-.87 3.28-.9l2.23-.04v-.57c0-.83-.17-1.42-.5-1.78-.36-.37-.9-.55-1.63-.55-.73 0-1.27.13-1.6.4-.35.25-.55.66-.62 1.23l-1.72-.16c.28-1.84 1.6-2.76 3.98-2.76 1.24 0 2.2.3 2.8.9.64.58.96 1.43.96 2.55v4.4c0 .5.07.9.2 1.15.12.25.37.37.72.37.16 0 .34-.02.54-.06v1.07c-.4.1-.84.15-1.27.15-.62 0-1.06-.16-1.34-.5-.28-.33-.44-.85-.47-1.55h-.06c-.42.78-.92 1.34-1.48 1.67-.56.3-1.24.47-2.04.47zm.38-1.26c.6 0 1.13-.15 1.6-.42.48-.3.85-.68 1.12-1.17.27-.5.4-1 .4-1.53v-.84l-1.8.04c-.77 0-1.36.1-1.77.24-.4.15-.7.38-.92.7-.22.32-.32.73-.32 1.24 0 .55.14.98.43 1.28.28.3.7.46 1.24.46z" stroke="#000" stroke-opacity="0" fill="#fff"/><path d="M-1060 562.03l-26.88 12.33v18.5c0 17.06 11.45 33.05 26.88 36.9 15.43-3.85 26.88-19.84 26.88-36.9v-18.5zm0 13.07c3.5 0 6.6 2.17 7.96 5.42 1.34 3.32.6 7.18-1.9 9.7-2.46 2.5-6.1 3.3-9.34 1.88-3.22-1.35-5.32-4.53-5.32-8.13 0-4.94 3.87-8.87 8.6-8.87zm16.13 36.65c0 .2-.06.4-.16.6-.22.28-.43.62-.65.9-3.76 5.4-9.14 9.4-15.32 11.37-6.18-1.97-11.56-5.96-15.32-11.38-.22-.27-.43-.54-.65-.88-.1-.2-.16-.4-.16-.6v-4.96c0-6.77 10.75-10.23 16.13-10.23 5.38 0 16.13 3.46 16.13 10.23z" stroke="#000" stroke-opacity="0" stroke-width="3.77" fill="#fff"/><use xlink:href="#h" transform="matrix(1,0,0,1,-1150,669) translate(35.074999999999996 14.4)"/><path d="M-880.34 343.17c-1.14.1-2.05.34-2.96.8l-39.44 19.43c-2.16 1.02-3.64 2.84-4.1 5.23l-9.77 43.76c-.47 2.04-.13 4.08 1 5.9.13.23.24.34.47.57l27.28 35c1.48 1.94 3.52 2.97 5.9 2.97h43.9c2.38 0 4.42-1.03 5.9-2.96l27.28-35c1.48-1.94 2.05-4.2 1.48-6.6l-9.77-43.65c-.45-2.4-1.93-4.2-4.1-5.23l-39.43-19.44c-1.25-.57-2.4-.9-3.64-.8z" stroke="#000" stroke-opacity="0" stroke-width="3.83" fill="#326ce5"/><path d="M-880.36 340c-1.2.12-2.16.36-3.12.84l-41.64 20.52c-2.28 1.08-3.84 3-4.32 5.52l-10.32 46.2c-.48 2.16-.12 4.32 1.08 6.24.12.24.24.36.48.6l28.8 36.96c1.56 2.04 3.72 3.12 6.24 3.12h46.32c2.52 0 4.68-1.08 6.24-3.12l28.8-36.96c1.56-2.04 2.16-4.44 1.56-6.84l-10.32-46.2c-.48-2.52-2.04-4.44-4.32-5.52l-41.64-20.52c-1.32-.6-2.52-.96-3.84-.84zm0 3.24c1.32-.12 2.4.12 3.6.72l39.6 19.44c2.04 1.08 3.48 2.88 4.08 5.28l9.72 43.68c.48 2.4 0 4.56-1.44 6.48l-27.36 35.04c-1.44 1.92-3.48 3-5.88 3h-43.92c-2.4 0-4.44-1.08-5.88-3l-27.36-35.04c-.12-.12-.24-.36-.36-.6-1.2-1.8-1.56-3.72-1.08-5.88l9.72-43.68c.6-2.4 1.92-4.2 4.08-5.28l39.6-19.44c.96-.48 1.8-.72 2.88-.84z" stroke="#000" stroke-opacity="0" stroke-width="3.83" fill="#fff"/><path d="M-900.4 445.58c-.3.66-.7 1.12-1.2 1.4-.52.3-1.14.43-1.88.43-1.25 0-2.18-.43-2.77-1.3-.6-.86-.88-2.18-.88-3.94 0-3.57 1.2-5.35 3.65-5.35.75 0 1.37.16 1.88.44.5.28.9.74 1.2 1.35h.02v-5.4h1.63v11.9c0 1.08.03 1.8.06 2.13h-1.57l-.06-.7-.03-.95zm-5-3.48c0 1.44.2 2.46.55 3.07.37.62.96.94 1.8.94.93 0 1.6-.33 2.02-1 .42-.67.64-1.7.64-3.1 0-1.36-.2-2.36-.63-2.98-.42-.63-1.1-.96-2-.96-.84 0-1.44.33-1.82.97-.36.63-.55 1.65-.55 3.07zM-894.94 442.48c0 1.16.23 2.08.7 2.7.47.65 1.16.97 2.07.97.7 0 1.3-.15 1.72-.45.43-.3.72-.67.87-1.12l1.45.42c-.6 1.6-1.94 2.42-4.04 2.42-1.47 0-2.6-.45-3.36-1.35-.76-.9-1.14-2.25-1.14-4.02 0-1.68.38-3 1.14-3.9.77-.9 1.87-1.33 3.3-1.33 2.9 0 4.37 1.8 4.37 5.42v.24zm5.37-1.3c-.1-1.1-.35-1.87-.8-2.36-.44-.5-1.07-.74-1.9-.74-.8 0-1.43.27-1.9.82-.47.56-.7 1.3-.75 2.27zM-877.37 442.07c0 3.56-1.2 5.35-3.64 5.35-1.54 0-2.57-.6-3.1-1.8h-.04c.03.07.04.6.04 1.63v4h-1.65v-12.17c0-1.05-.03-1.74-.06-2.1h1.6v.3c.03.15.04.38.05.7l.03.66h.03c.3-.62.7-1.08 1.18-1.37.48-.3 1.1-.45 1.9-.45 1.23 0 2.14.42 2.74 1.27.6.83.9 2.15.9 3.97zm-1.73.03c0-1.42-.18-2.44-.55-3.05-.38-.62-.98-.92-1.8-.92-.64 0-1.15.15-1.52.43-.37.28-.65.73-.85 1.33-.2.58-.28 1.38-.28 2.33 0 1.35.2 2.33.62 2.97.4.63 1.1.95 2.03.95.82 0 1.4-.3 1.78-.92.38-.62.57-1.66.57-3.13zM-875.3 447.23V433.2h1.65v14.03zM-862.74 442.1c0 1.8-.38 3.13-1.14 4-.77.88-1.88 1.32-3.34 1.32-1.44 0-2.53-.46-3.28-1.36-.73-.92-1.1-2.24-1.1-3.96 0-3.53 1.48-5.3 4.45-5.3 1.5 0 2.62.45 3.34 1.3.7.87 1.06 2.2 1.06 4zm-1.73 0c0-1.4-.2-2.43-.62-3.07-.4-.64-1.07-.95-2.03-.95-.96 0-1.66.3-2.1.97-.42.65-.65 1.67-.65 3.05 0 1.35.22 2.37.64 3.05.43.68 1.1 1 2 1 1 0 1.7-.3 2.12-.97.43-.66.65-1.7.65-3.08zM-860.2 451.24c-.44 0-.82-.03-1.13-.1v-1.28c.23.04.5.05.77.05 1.03 0 1.84-.77 2.44-2.32l.16-.4-3.94-10.18h1.76l2.1 5.65c.02.1.06.2.1.32l.42 1.23.37 1.17.64-1.86 2.17-6.5h1.74l-3.8 10.22c-.42 1.1-.8 1.9-1.15 2.44-.36.53-.75.92-1.18 1.18-.43.27-.92.4-1.46.4z" stroke="#000" stroke-opacity="0" fill="#fff"/><path d="M-882.93 426.08c-16.25.8-30.07-12.07-30.9-28.78-.9-16.76 11.52-31.1 27.77-32.07 16.25-.97 30.2 11.7 31.25 28.48l-11.7.8c-.65-10.12-9.04-17.8-18.85-17.2-9.8.55-17.3 9.2-16.78 19.33.47 10.12 8.86 17.87 18.67 17.44z" stroke="#000" stroke-opacity="0" stroke-width="3.77" fill="#fff"/><path d="M-876.86 393.72l9.3 23.46 21.45-23.46z" stroke="#000" stroke-opacity="0" stroke-width="3.77" fill="#fff"/><use xlink:href="#h" transform="matrix(1,0,0,1,-970,469) translate(35.074999999999996 14.4)"/><path d="M-880 339.03v-3.98m0-7.97v-7.96m0-7.96V310h-6.8m-7.97 0h-7.96m-7.96 0h-7.95m-7.97 0h-7.96m-7.96 0h-7.96m-7.97 0h-7.96m-7.96 0h-7.95m-7.97 0h-7.96m-7.96 0h-7.96m-7.97 0h-7.96m-7.96 0h-7.95m-7.97 0h-7.96m-7.96 0h-7.96m-7.97 0h-7.96m-7.96 0h-7.95m-7.97 0h-7.96m-7.96 0h-7.96m-7.97 0h-7.96m-7.96 0h-7.95m-7.97 0h-7.96m-7.96 0h-7.96m-7.97 0h-7.96m-7.96 0h-7.95m-7.97 0h-7.96m-7.96 0h-7.96m-7.97 0h-7.96m-7.96 0h-7.95m-7.97 0h-7.96m-7.96 0h-7.96m-7.97 0h-7.96m-7.96 0h-7.95m-7.97 0h-7.96m-7.96 0h-7.97m-7.97 0h-7.96m-7.96 0h-7.96m-7.96 0h-7.96m-7.96 0h-7.97m-.42 7.54v4" stroke="#000" stroke-width="2" fill="none"/><path d="M-879 340.1l-1.36-.1-.64.1V339h2z"/><path d="M-1460.52 336.8l-4.64-14.27h9.27z" stroke="#000" stroke-width="2"/><defs><path d="M688-137c238 0 323-102 359-325h193c-32 297-228 482-552 482-361 0-569-299-569-680 0-197 8-360 73-497 88-186 257-317 513-319 316-2 509 195 535 488h-193c-31-212-118-330-342-330-272 0-397 224-393 523v141c-3 282 115 517 376 517" id="j"/><path d="M341 0H156v-1536h185V0" id="k"/><path d="M491 20c-241-1-355-148-355-398v-704h185v699c0 164 67 246 200 246 141 0 235-53 282-158v-787h185V0H812l-4-107C736-22 630 20 491 20" id="l"/><path d="M538-131c121 0 232-49 232-156 0-50-20-88-56-117-73-60-334-92-420-143-92-55-162-110-162-238 0-190 192-317 400-317 223 0 414 129 413 338H759c0-108-110-186-227-186-119 0-215 53-215 159 0 45 18 78 53 101 76 52 331 90 416 139 98 57 169 115 169 251C955-92 760 20 538 20c-176 0-314-68-386-174-38-55-57-115-57-179h185c6 129 116 202 258 202" id="m"/><path d="M456 20C285 20 205-92 206-268v-671H9v-143h197v-262h185v262h202v143H391v671c-9 125 92 149 207 118V0c-49 13-96 20-142 20" id="n"/><path d="M599-131c141 0 220-65 285-146l113 88C906-50 770 20 589 20 281 21 93-214 93-545c0-223 93-397 233-485 74-48 154-72 240-72 300 2 449 218 445 537v77H278c0 197 129 357 321 357zm227-509c-3-180-88-310-260-310-170 0-264 140-282 310h542" id="o"/><path d="M663-916c-163-27-288 18-338 148V0H140v-1082h180l3 125c61-97 147-145 258-145 36 0 63 5 82 14v172" id="p"/><g id="a"><use transform="matrix(0.0087890625,0,0,0.0087890625,0,0)" xlink:href="#j"/><use transform="matrix(0.0087890625,0,0,0.0087890625,11.7158203125,0)" xlink:href="#k"/><use transform="matrix(0.0087890625,0,0,0.0087890625,16.083984375,0)" xlink:href="#l"/><use transform="matrix(0.0087890625,0,0,0.0087890625,26.0068359375,0)" xlink:href="#m"/><use transform="matrix(0.0087890625,0,0,0.0087890625,35.2880859375,0)" xlink:href="#n"/><use transform="matrix(0.0087890625,0,0,0.0087890625,41.16796875,0)" xlink:href="#o"/><use transform="matrix(0.0087890625,0,0,0.0087890625,50.7041015625,0)" xlink:href="#p"/></g><path d="M972-643H361V0H169v-1456h902v158H361v498h611v157" id="q"/><path d="M561-1102c238-4 403 126 403 351v498c0 99 13 178 38 237V0H808c-11-21-19-59-26-114C696-25 593 20 474 20c-199 0-368-130-365-320 4-251 214-359 490-356h180v-85c-1-135-86-212-229-212-115 0-232 67-233 171H131c20-205 206-316 430-320zM294-326c0 117 90 185 207 185 122 0 239-75 278-162v-222H634c-227 0-340 66-340 199" id="r"/><path d="M341 0H156v-1082h185V0zm-91-1264c-68 0-108-42-109-105 0-62 41-107 109-107s110 44 110 107-42 105-110 105" id="s"/><g id="b"><use transform="matrix(0.0087890625,0,0,0.0087890625,0,0)" xlink:href="#q"/><use transform="matrix(0.0087890625,0,0,0.0087890625,9.650390625,0)" xlink:href="#r"/><use transform="matrix(0.0087890625,0,0,0.0087890625,19.44140625,0)" xlink:href="#s"/><use transform="matrix(0.0087890625,0,0,0.0087890625,23.8095703125,0)" xlink:href="#k"/><use transform="matrix(0.0087890625,0,0,0.0087890625,28.177734375,0)" xlink:href="#l"/><use transform="matrix(0.0087890625,0,0,0.0087890625,38.1005859375,0)" xlink:href="#p"/><use transform="matrix(0.0087890625,0,0,0.0087890625,44.0244140625,0)" xlink:href="#o"/></g><path d="M313-157h833V0H86v-144l798-1154H99v-158h1015v141" id="t"/><path d="M584 20C278 26 81-227 91-551c10-320 175-545 491-551 308-5 503 247 494 573-9 322-175 543-492 549zm-2-970c-208 0-305 185-305 421 0 216 106 398 307 398 211 0 307-186 307-420 0-214-109-399-309-399" id="u"/><path d="M589-945c-131 0-219 81-264 174V0H140v-1082h175l6 136c83-104 191-156 324-156 229 0 346 129 346 387V0H806v-716c-2-153-65-229-217-229" id="v"/><g id="c"><use transform="matrix(0.0087890625,0,0,0.0087890625,0,0)" xlink:href="#t"/><use transform="matrix(0.0087890625,0,0,0.0087890625,10.5908203125,0)" xlink:href="#u"/><use transform="matrix(0.0087890625,0,0,0.0087890625,20.8564453125,0)" xlink:href="#v"/><use transform="matrix(0.0087890625,0,0,0.0087890625,30.7880859375,0)" xlink:href="#o"/></g><path d="M973-380H363L226 0H28l556-1456h168L1309 0h-197zM421-538h495l-248-681" id="w"/><use transform="matrix(0.0087890625,0,0,0.0087890625,0,0)" xlink:href="#w" id="d"/><path d="M483-459l28 192 41-173 288-1016h162l281 1016 40 176 31-196 226-996h193L1420 0h-175L945-1061l-23-111-23 111L588 0H413L61-1456h192" id="x"/><path d="M442-501L326-380V0H141v-1536h185v929c135-169 291-317 436-475h225L566-630 1036 0H819" id="y"/><g id="e"><use transform="matrix(0.0087890625,0,0,0.0087890625,0,0)" xlink:href="#x"/><use transform="matrix(0.0087890625,0,0,0.0087890625,15.697265625,0)" xlink:href="#u"/><use transform="matrix(0.0087890625,0,0,0.0087890625,25.962890625,0)" xlink:href="#p"/><use transform="matrix(0.0087890625,0,0,0.0087890625,32.0537109375,0)" xlink:href="#y"/><use transform="matrix(0.0087890625,0,0,0.0087890625,41.0009765625,0)" xlink:href="#o"/><use transform="matrix(0.0087890625,0,0,0.0087890625,50.537109375,0)" xlink:href="#p"/></g><path d="M1288 0h-193L362-1122V0H169v-1456h193l735 1127v-1127h191V0" id="z"/><path d="M520 20C244 20 95-247 95-550c0-298 151-550 427-552 127 0 227 43 301 130v-564h185V0H838l-9-116C755-25 652 20 520 20zm48-965c-210 0-288 177-288 416 0 218 87 392 286 392 117 0 203-53 257-158v-497c-55-102-140-153-255-153" id="A"/><g id="f"><use transform="matrix(0.0087890625,0,0,0.0087890625,0,0)" xlink:href="#z"/><use transform="matrix(0.0087890625,0,0,0.0087890625,12.83203125,0)" xlink:href="#u"/><use transform="matrix(0.0087890625,0,0,0.0087890625,23.09765625,0)" xlink:href="#A"/><use transform="matrix(0.0087890625,0,0,0.0087890625,33.2490234375,0)" xlink:href="#o"/></g><path d="M1240-945c-141 0-250 95-250 227V0H804v-709c0-157-77-236-231-236-121 0-204 52-249 155V0H139v-1082h175l5 120c79-93 186-140 321-140 151 0 254 58 309 174 69-98 181-174 345-174 237 0 362 126 362 377V0h-185v-714c-2-159-67-231-231-231" id="B"/><path d="M632-1102c291 0 422 251 422 573 0 297-141 548-419 549-131 0-235-42-310-125v521H140v-1498h169l9 120c75-93 180-140 314-140zm-53 971c207 0 290-180 290-419 0-218-92-395-292-395-112 0-196 50-252 149v517c55 99 140 148 254 148" id="C"/><path d="M277-555c0 244 77 420 297 424 127 2 249-93 255-210h175C980-127 805 20 574 20 258 20 81-222 92-562c11-319 164-533 481-540 237-5 426 165 431 392H829c-7-133-115-242-256-240-209 4-296 166-296 395" id="D"/><g id="g"><use transform="matrix(0.0087890625,0,0,0.0087890625,0,0)" xlink:href="#z"/><use transform="matrix(0.0087890625,0,0,0.0087890625,12.83203125,0)" xlink:href="#r"/><use transform="matrix(0.0087890625,0,0,0.0087890625,22.623046875,0)" xlink:href="#B"/><use transform="matrix(0.0087890625,0,0,0.0087890625,38.3994140625,0)" xlink:href="#o"/><use transform="matrix(0.0087890625,0,0,0.0087890625,47.935546875,0)" xlink:href="#m"/><use transform="matrix(0.0087890625,0,0,0.0087890625,57.216796875,0)" xlink:href="#C"/><use transform="matrix(0.0087890625,0,0,0.0087890625,67.3154296875,0)" xlink:href="#r"/><use transform="matrix(0.0087890625,0,0,0.0087890625,77.1064453125,0)" xlink:href="#D"/><use transform="matrix(0.0087890625,0,0,0.0087890625,86.5283203125,0)" xlink:href="#o"/></g><path d="M96-169c-40 0-48 33-48 73s9 75 48 75c24 0 41-14 43-38l32 2c-6 37-31 61-74 61-59 0-76-41-82-99-10-93 101-131 147-64 4 7 5 14 7 22l-32 3c-4-21-16-35-41-35" id="E"/><path d="M141-36C126-15 110 5 73 4 37 3 15-17 15-53c-1-64 63-63 125-63 3-35-9-54-41-54-24 1-41 7-42 31l-33-3c5-37 33-52 76-52 45 0 72 20 72 64v82c-1 20 7 32 28 27v20c-31 9-61-2-59-35zM48-53c0 20 12 33 32 33 41-3 63-29 60-74-43 2-92-5-92 41" id="F"/><path d="M135-143c-3-34-86-38-87 0 15 53 115 12 119 90S17 21 10-45l28-5c4 36 97 45 98 0-10-56-113-15-118-90-4-57 82-63 122-42 12 7 21 19 24 35" id="G"/><path d="M16-82v-28h88v28H16" id="H"/><path d="M100-194c62-1 85 37 85 99 1 63-27 99-86 99S16-35 15-95c0-66 28-99 85-99zM99-20c44 1 53-31 53-75 0-43-8-75-51-75s-53 32-53 75 10 74 51 75" id="I"/><path d="M115-194c55 1 70 41 70 98S169 2 115 4C84 4 66-9 55-30l1 105H24l-1-265h31l2 30c10-21 28-34 59-34zm-8 174c40 0 45-34 45-75s-6-73-45-74c-42 0-51 32-51 76 0 43 10 73 51 73" id="J"/><path d="M100-194c63 0 86 42 84 106H49c0 40 14 67 53 68 26 1 43-12 49-29l28 8c-11 28-37 45-77 45C44 4 14-33 15-96c1-61 26-98 85-98zm52 81c6-60-76-77-97-28-3 7-6 17-6 28h103" id="K"/><path d="M114-163C36-179 61-72 57 0H25l-1-190h30c1 12-1 29 2 39 6-27 23-49 58-41v29" id="L"/><path d="M59-47c-2 24 18 29 38 22v24C64 9 27 4 27-40v-127H5v-23h24l9-43h21v43h35v23H59v120" id="M"/><g id="h"><use transform="matrix(0.05,0,0,0.05,0,0)" xlink:href="#E"/><use transform="matrix(0.05,0,0,0.05,9,0)" xlink:href="#F"/><use transform="matrix(0.05,0,0,0.05,19,0)" xlink:href="#G"/><use transform="matrix(0.05,0,0,0.05,28,0)" xlink:href="#G"/><use transform="matrix(0.05,0,0,0.05,37,0)" xlink:href="#H"/><use transform="matrix(0.05,0,0,0.05,42.95,0)" xlink:href="#I"/><use transform="matrix(0.05,0,0,0.05,52.95,0)" xlink:href="#J"/><use transform="matrix(0.05,0,0,0.05,62.95,0)" xlink:href="#K"/><use transform="matrix(0.05,0,0,0.05,72.95,0)" xlink:href="#L"/><use transform="matrix(0.05,0,0,0.05,78.9,0)" xlink:href="#F"/><use transform="matrix(0.05,0,0,0.05,88.9,0)" xlink:href="#M"/><use transform="matrix(0.05,0,0,0.05,93.9,0)" xlink:href="#I"/><use transform="matrix(0.05,0,0,0.05,103.9,0)" xlink:href="#L"/></g><path d="M212-179c-10-28-35-45-73-45-59 0-87 40-87 99 0 60 29 101 89 101 43 0 62-24 78-52l27 14C228-24 195 4 139 4 59 4 22-46 18-125c-6-104 99-153 187-111 19 9 31 26 39 46" id="N"/><path d="M117-194c89-4 53 116 60 194h-32v-121c0-31-8-49-39-48C34-167 62-67 57 0H25l-1-190h30c1 10-1 24 2 32 11-22 29-35 61-36" id="O"/><path d="M85-194c31 0 48 13 60 33l-1-100h32l1 261h-30c-2-10 0-23-3-31C134-8 116 4 85 4 32 4 16-35 15-94c0-66 23-100 70-100zm9 24c-40 0-46 34-46 75 0 40 6 74 45 74 42 0 51-32 51-76 0-42-9-74-50-73" id="P"/><path d="M30-248c118-7 216 8 213 122C240-48 200 0 122 0H30v-248zM63-27c89 8 146-16 146-99s-60-101-146-95v194" id="Q"/><g id="i"><use transform="matrix(0.05,0,0,0.05,0,0)" xlink:href="#N"/><use transform="matrix(0.05,0,0,0.05,12.950000000000001,0)" xlink:href="#F"/><use transform="matrix(0.05,0,0,0.05,22.950000000000003,0)" xlink:href="#G"/><use transform="matrix(0.05,0,0,0.05,31.950000000000003,0)" xlink:href="#G"/><use transform="matrix(0.05,0,0,0.05,40.95,0)" xlink:href="#F"/><use transform="matrix(0.05,0,0,0.05,50.95,0)" xlink:href="#O"/><use transform="matrix(0.05,0,0,0.05,60.95,0)" xlink:href="#P"/><use transform="matrix(0.05,0,0,0.05,70.95,0)" xlink:href="#L"/><use transform="matrix(0.05,0,0,0.05,76.9,0)" xlink:href="#F"/><use transform="matrix(0.05,0,0,0.05,86.9,0)" xlink:href="#Q"/><use transform="matrix(0.05,0,0,0.05,99.85000000000001,0)" xlink:href="#F"/><use transform="matrix(0.05,0,0,0.05,109.85000000000001,0)" xlink:href="#M"/><use transform="matrix(0.05,0,0,0.05,114.85000000000001,0)" xlink:href="#F"/><use transform="matrix(0.05,0,0,0.05,124.85000000000001,0)" xlink:href="#E"/><use transform="matrix(0.05,0,0,0.05,133.85000000000002,0)" xlink:href="#K"/><use transform="matrix(0.05,0,0,0.05,143.85000000000002,0)" xlink:href="#O"/><use transform="matrix(0.05,0,0,0.05,153.85000000000002,0)" xlink:href="#M"/><use transform="matrix(0.05,0,0,0.05,158.85000000000002,0)" xlink:href="#K"/><use transform="matrix(0.05,0,0,0.05,168.85000000000002,0)" xlink:href="#L"/></g></defs></g></svg>