<?xml version="1.0" encoding="UTF-8" standalone="no"?>
<svg
   xmlns:lucid="lucid"
   xmlns:dc="http://purl.org/dc/elements/1.1/"
   xmlns:cc="http://creativecommons.org/ns#"
   xmlns:rdf="http://www.w3.org/1999/02/22-rdf-syntax-ns#"
   xmlns:svg="http://www.w3.org/2000/svg"
   xmlns="http://www.w3.org/2000/svg"
   xmlns:xlink="http://www.w3.org/1999/xlink"
   xmlns:sodipodi="http://sodipodi.sourceforge.net/DTD/sodipodi-0.dtd"
   xmlns:inkscape="http://www.inkscape.org/namespaces/inkscape"
   width="1521"
   height="781"
   version="1.1"
   id="svg531"
   sodipodi:docname="cassandra-sts.svg"
   inkscape:version="1.0.1 (3bc2e813f5, 2020-09-07)"
   inkscape:export-filename="/home/bradfordcp/src/k8ssandra/docs/content/en/docs/architecture/cassandra/cassandra-sts.png"
   inkscape:export-xdpi="96"
   inkscape:export-ydpi="96">
  <metadata
     id="metadata537">
    <rdf:RDF>
      <cc:Work
         rdf:about="">
        <dc:format>image/svg+xml</dc:format>
        <dc:type
           rdf:resource="http://purl.org/dc/dcmitype/StillImage" />
      </cc:Work>
    </rdf:RDF>
  </metadata>
  <defs
     id="defs535" />
  <sodipodi:namedview
     pagecolor="#ffffff"
     bordercolor="#666666"
     borderopacity="1"
     objecttolerance="10"
     gridtolerance="10"
     guidetolerance="10"
     inkscape:pageopacity="0"
     inkscape:pageshadow="2"
     inkscape:window-width="1920"
     inkscape:window-height="1016"
     id="namedview533"
     showgrid="false"
     inkscape:zoom="0.847542"
     inkscape:cx="757"
     inkscape:cy="385.09999"
     inkscape:window-x="0"
     inkscape:window-y="27"
     inkscape:window-maximized="1"
     inkscape:current-layer="svg531" />
  <g
     transform="translate(-79.5,-79.5)"
     lucid:page-tab-id="4sRTrFn6zsNj"
     id="g529">
    <path
       d="m 80,82 c 0,-1.1 0.9,-2 2,-2 h 1516 c 1.1,0 2,0.9 2,2 v 776 c 0,1.1 -0.9,2 -2,2 H 82 c -1.1,0 -2,-0.9 -2,-2 z"
       stroke="#000000"
       fill="#efebe9"
       id="path2" />
    <use
       xlink:href="#a"
       transform="translate(96,112.69922)"
       id="use4"
       x="0"
       y="0"
       width="100%"
       height="100%" />
    <path
       d="m 100,142 c 0,-1.1 0.9,-2 2,-2 h 476 c 1.1,0 2,0.9 2,2 v 696 c 0,1.1 -0.9,2 -2,2 H 102 c -1.1,0 -2,-0.9 -2,-2 z"
       stroke="#000000"
       fill="#fff3e0"
       id="path6" />
    <use
       xlink:href="#b"
       transform="translate(116,172.69922)"
       id="use8"
       x="0"
       y="0"
       width="100%"
       height="100%" />
    <use
       xlink:href="#c"
       transform="translate(174.0166,172.69922)"
       id="use10"
       x="0"
       y="0"
       width="100%"
       height="100%" />
    <use
       xlink:href="#d"
       transform="translate(218.79687,172.69922)"
       id="use12"
       x="0"
       y="0"
       width="100%"
       height="100%" />
    <path
       d="m 600,142 c 0,-1.1 0.9,-2 2,-2 h 476 c 1.1,0 2,0.9 2,2 v 696 c 0,1.1 -0.9,2 -2,2 H 602 c -1.1,0 -2,-0.9 -2,-2 z"
       stroke="#000000"
       fill="#fff3e0"
       id="path14" />
    <use
       xlink:href="#b"
       transform="translate(616,172.69922)"
       id="use16"
       x="0"
       y="0"
       width="100%"
       height="100%" />
    <use
       xlink:href="#c"
       transform="translate(674.0166,172.69922)"
       id="use18"
       x="0"
       y="0"
       width="100%"
       height="100%" />
    <use
       xlink:href="#e"
       transform="translate(718.79687,172.69922)"
       id="use20"
       x="0"
       y="0"
       width="100%"
       height="100%" />
    <path
       d="m 1100,142 c 0,-1.1 0.9,-2 2,-2 h 476 c 1.1,0 2,0.9 2,2 v 696 c 0,1.1 -0.9,2 -2,2 h -476 c -1.1,0 -2,-0.9 -2,-2 z"
       stroke="#000000"
       fill="#fff3e0"
       id="path22" />
    <use
       xlink:href="#b"
       transform="translate(1116,172.69922)"
       id="use24"
       x="0"
       y="0"
       width="100%"
       height="100%" />
    <use
       xlink:href="#c"
       transform="translate(1174.0166,172.69922)"
       id="use26"
       x="0"
       y="0"
       width="100%"
       height="100%" />
    <use
       xlink:href="#f"
       transform="translate(1218.7969,172.69922)"
       id="use28"
       x="0"
       y="0"
       width="100%"
       height="100%" />
    <path
       d="m 120,212 c 0,-1.1 0.9,-2 2,-2 h 436 c 1.1,0 2,0.9 2,2 v 286 c 0,1.1 -0.9,2 -2,2 H 122 c -1.1,0 -2,-0.9 -2,-2 z"
       stroke="#000000"
       fill="#e1f5fe"
       id="path30" />
    <use
       xlink:href="#g"
       transform="translate(136,242.69922)"
       id="use32"
       x="0"
       y="0"
       width="100%"
       height="100%" />
    <use
       xlink:href="#h"
       transform="translate(197.08398,242.69922)"
       id="use34"
       x="0"
       y="0"
       width="100%"
       height="100%" />
    <path
       d="m 620,212 c 0,-1.1 0.9,-2 2,-2 h 436 c 1.1,0 2,0.9 2,2 v 286 c 0,1.1 -0.9,2 -2,2 H 622 c -1.1,0 -2,-0.9 -2,-2 z"
       stroke="#000000"
       fill="#e1f5fe"
       id="path36" />
    <use
       xlink:href="#g"
       transform="translate(636,242.69922)"
       id="use38"
       x="0"
       y="0"
       width="100%"
       height="100%" />
    <use
       xlink:href="#h"
       transform="translate(697.08398,242.69922)"
       id="use40"
       x="0"
       y="0"
       width="100%"
       height="100%" />
    <path
       d="m 1120,212 c 0,-1.1 0.9,-2 2,-2 h 436 c 1.1,0 2,0.9 2,2 v 286 c 0,1.1 -0.9,2 -2,2 h -436 c -1.1,0 -2,-0.9 -2,-2 z"
       stroke="#000000"
       fill="#e1f5fe"
       id="path42" />
    <use
       xlink:href="#g"
       transform="translate(1136,242.69922)"
       id="use44"
       x="0"
       y="0"
       width="100%"
       height="100%" />
    <use
       xlink:href="#h"
       transform="translate(1197.084,242.69922)"
       id="use46"
       x="0"
       y="0"
       width="100%"
       height="100%" />
    <path
       d="m 120,522 c 0,-1.1 0.9,-2 2,-2 h 436 c 1.1,0 2,0.9 2,2 v 296 c 0,1.1 -0.9,2 -2,2 H 122 c -1.1,0 -2,-0.9 -2,-2 z"
       stroke="#000000"
       fill="#e1f5fe"
       id="path48" />
    <use
       xlink:href="#g"
       transform="translate(136,552.69922)"
       id="use50"
       x="0"
       y="0"
       width="100%"
       height="100%" />
    <use
       xlink:href="#h"
       transform="translate(197.08398,552.69922)"
       id="use52"
       x="0"
       y="0"
       width="100%"
       height="100%" />
    <path
       d="m 620,522 c 0,-1.1 0.9,-2 2,-2 h 436 c 1.1,0 2,0.9 2,2 v 296 c 0,1.1 -0.9,2 -2,2 H 622 c -1.1,0 -2,-0.9 -2,-2 z"
       stroke="#000000"
       fill="#e1f5fe"
       id="path54" />
    <use
       xlink:href="#g"
       transform="translate(636,552.69922)"
       id="use56"
       x="0"
       y="0"
       width="100%"
       height="100%" />
    <use
       xlink:href="#h"
       transform="translate(697.08398,552.69922)"
       id="use58"
       x="0"
       y="0"
       width="100%"
       height="100%" />
    <path
       d="m 1120,522 c 0,-1.1 0.9,-2 2,-2 h 436 c 1.1,0 2,0.9 2,2 v 296 c 0,1.1 -0.9,2 -2,2 h -436 c -1.1,0 -2,-0.9 -2,-2 z"
       stroke="#000000"
       fill="#e1f5fe"
       id="path60" />
    <use
       xlink:href="#g"
       transform="translate(1136,552.69922)"
       id="use62"
       x="0"
       y="0"
       width="100%"
       height="100%" />
    <use
       xlink:href="#h"
       transform="translate(1197.084,552.69922)"
       id="use64"
       x="0"
       y="0"
       width="100%"
       height="100%" />
    <path
       d="m 140,262 c 0,-1.1 0.9,-2 2,-2 h 1396 c 1.1,0 2,0.9 2,2 v 536 c 0,1.1 -0.9,2 -2,2 H 142 c -1.1,0 -2,-0.9 -2,-2 z"
       stroke="#000000"
       fill="#e8eaf6"
       fill-opacity="0.5"
       id="path66" />
    <use
       xlink:href="#i"
       transform="translate(156,292.69922)"
       id="use68"
       x="0"
       y="0"
       width="100%"
       height="100%" />
    <path
       d="m 219.66,343.17 c -1.14,0.1 -2.05,0.34 -2.96,0.8 l -39.44,19.43 c -2.16,1.02 -3.64,2.84 -4.1,5.23 l -9.77,43.76 c -0.47,2.04 -0.12,4.08 1,5.9 0.13,0.23 0.24,0.34 0.47,0.57 l 27.28,35 c 1.48,1.94 3.52,2.97 5.9,2.97 h 43.9 c 2.38,0 4.42,-1.03 5.9,-2.96 l 27.28,-35 c 1.48,-1.94 2.05,-4.22 1.48,-6.6 l -9.77,-43.65 c -0.45,-2.4 -1.93,-4.2 -4.1,-5.23 L 223.3,343.95 c -1.25,-0.57 -2.4,-0.9 -3.64,-0.8 z"
       stroke="#000000"
       stroke-opacity="0"
       stroke-width="0"
       fill="#326ce5"
       id="path70" />
    <path
       d="m 219.64,340 c -1.2,0.12 -2.16,0.36 -3.12,0.84 l -41.64,20.52 c -2.28,1.08 -3.84,3 -4.32,5.52 l -10.32,46.2 c -0.48,2.16 -0.12,4.32 1.08,6.24 0.12,0.24 0.24,0.36 0.48,0.6 l 28.8,36.96 c 1.56,2.04 3.72,3.12 6.24,3.12 h 46.32 c 2.52,0 4.68,-1.08 6.24,-3.12 l 28.8,-36.96 c 1.56,-2.04 2.16,-4.44 1.56,-6.84 l -10.32,-46.2 c -0.48,-2.52 -2.04,-4.44 -4.32,-5.52 l -41.64,-20.52 c -1.32,-0.6 -2.52,-0.96 -3.84,-0.84 z m 0,3.12 c 1.32,0 2.4,0.24 3.6,0.84 l 39.6,19.44 c 2.04,1.08 3.48,2.88 4.08,5.28 l 9.72,43.68 c 0.48,2.4 0,4.56 -1.44,6.48 l -27.36,35.04 c -1.44,1.92 -3.48,3 -5.88,3 h -43.92 c -2.4,0 -4.44,-1.08 -5.88,-3 L 164.8,418.84 c -0.12,-0.12 -0.24,-0.36 -0.36,-0.6 -1.2,-1.8 -1.56,-3.72 -1.08,-5.88 l 9.72,-43.68 c 0.6,-2.4 1.92,-4.2 4.08,-5.28 l 39.6,-19.44 c 0.96,-0.48 1.8,-0.72 2.88,-0.84 z"
       stroke="#000000"
       stroke-opacity="0"
       stroke-width="0"
       fill="#ffffff"
       id="path72" />
    <path
       d="m 195.92,382.6 24.08,-7.2 24.1,7.2 -24.1,7.2 z m 0,2.76 v 26.4 l 22.43,12.84 0.12,-32.33 z m 48.18,0 v 26.4 l -22.45,12.84 -0.12,-32.33 z"
       stroke="#000000"
       stroke-opacity="0"
       fill="#ffffff"
       id="path74" />
    <use
       xlink:href="#j"
       transform="translate(165.075,483.4)"
       id="use76"
       x="0"
       y="0"
       width="100%"
       height="100%" />
    <path
       d="m 780,282 c 0,-1.1 0.9,-2 2,-2 h 196 c 1.1,0 2,0.9 2,2 v 496 c 0,1.1 -0.9,2 -2,2 H 782 c -1.1,0 -2,-0.9 -2,-2 z"
       stroke="#000000"
       fill="#fce4ec"
       fill-opacity="0.75"
       id="path78" />
    <use
       xlink:href="#k"
       transform="translate(796,312.69922)"
       id="use80"
       x="0"
       y="0"
       width="100%"
       height="100%" />
    <use
       xlink:href="#l"
       transform="translate(839.875,312.69922)"
       id="use82"
       x="0"
       y="0"
       width="100%"
       height="100%" />
    <path
       d="m 969.83,261.58 c -0.57,0.06 -1.02,0.17 -1.48,0.4 l -19.72,9.72 c -1.08,0.5 -1.82,1.42 -2.05,2.6 l -4.9,21.9 c -0.2,1.02 -0.04,2.04 0.53,2.95 0.06,0.12 0.12,0.17 0.23,0.3 l 13.64,17.5 c 0.74,0.96 1.77,1.47 2.96,1.47 h 21.94 c 1.2,0 2.22,-0.5 2.95,-1.48 l 13.65,-17.5 c 0.73,-0.97 1.02,-2.1 0.73,-3.3 l -4.88,-21.83 c -0.23,-1.18 -0.97,-2.1 -2.05,-2.6 l -19.72,-9.72 c -0.63,-0.28 -1.2,-0.45 -1.82,-0.4 z"
       stroke="#000000"
       stroke-opacity="0"
       stroke-width="3.83"
       fill="#326ce5"
       id="path84" />
    <path
       d="m 969.82,260 c -0.6,0.06 -1.08,0.18 -1.56,0.42 l -20.82,10.26 c -1.14,0.54 -1.92,1.5 -2.16,2.76 l -5.16,23.1 c -0.24,1.08 -0.06,2.16 0.54,3.12 0.06,0.12 0.12,0.18 0.24,0.3 l 14.4,18.48 c 0.78,1.02 1.86,1.56 3.12,1.56 h 23.16 c 1.26,0 2.34,-0.54 3.12,-1.56 l 14.4,-18.48 c 0.78,-1.02 1.08,-2.22 0.78,-3.42 l -5.16,-23.1 c -0.24,-1.26 -1.02,-2.22 -2.16,-2.76 l -20.82,-10.26 c -0.66,-0.3 -1.26,-0.48 -1.92,-0.42 z m 0,1.62 c 0.66,-0.06 1.2,0.06 1.8,0.36 l 19.8,9.72 c 1.02,0.54 1.74,1.44 2.04,2.64 l 4.86,21.84 c 0.24,1.2 0,2.28 -0.72,3.24 l -13.68,17.52 c -0.72,0.96 -1.74,1.5 -2.94,1.5 h -21.96 c -1.2,0 -2.22,-0.54 -2.94,-1.5 L 942.4,299.42 c -0.06,-0.06 -0.12,-0.18 -0.18,-0.3 -0.6,-0.9 -0.78,-1.86 -0.54,-2.94 l 4.86,-21.84 c 0.3,-1.2 0.96,-2.1 2.04,-2.64 l 19.8,-9.72 c 0.48,-0.24 0.9,-0.36 1.44,-0.42 z"
       stroke="#000000"
       stroke-opacity="0"
       stroke-width="3.83"
       fill="#ffffff"
       id="path86" />
    <path
       d="m 963.4,277.3 v 2.56 h 1.75 v -1.64 h 3.63 v -1.83 h -4.5 c -0.73,0 -0.9,0.24 -0.9,0.9 z m 8.9,0.92 h 7.04 v -1.83 h -7.04 z m 10.56,0 h 2.23 v 3.13 h 1.75 v -4.05 c 0,-0.7 -0.37,-0.9 -0.9,-0.9 h -3.1 z m -19.47,6.18 v 6.35 h 1.75 v -7.26 h -1.76 z m 21.7,1.5 v 6.36 h 1.75 v -7.28 h -1.76 z m -19.5,8.02 h 7.03 v -1.82 h -7.04 z m 14.56,0 h 3.03 v -1.82 h -3.04 z"
       stroke="#000000"
       stroke-opacity="0"
       stroke-width="3.77"
       fill="#ffffff"
       id="path88" />
    <path
       d="m 958.27,282.14 v 3.3 h 1.76 v -2.38 h 2.93 v -1.83 h -3.8 c -0.73,0 -0.9,0.25 -0.9,0.9 z m 8.23,0.92 h 7.02 v -1.83 h -7.02 z m 10.54,0 h 2.93 v 2.4 h 1.76 v -3.32 c 0,-0.56 -0.23,-0.92 -0.87,-0.9 h -3.82 z m -18.77,6.92 v 6.34 h 1.76 v -7.25 h -1.76 z m 21.7,0.03 v 6.36 h 1.76 v -7.26 h -1.76 z m -18.8,8.76 h 7.05 v -1.8 h -7.04 z m 10.57,0 h 7.04 v -1.8 h -7.04 z"
       stroke="#000000"
       stroke-opacity="0"
       stroke-width="3.77"
       fill="#ffffff"
       id="path90" />
    <path
       d="m 953.15,302.72 v -16.65 l 22.46,0.02 c 0.72,0 1.02,0.58 1.02,1.02 l -0.02,15.57 c -0.02,0.58 -0.5,0.92 -0.96,0.9 h -21.6 c -0.4,0 -0.9,-0.33 -0.9,-0.88 z"
       stroke="#000000"
       stroke-opacity="0"
       stroke-width="3.77"
       fill="#ffffff"
       id="path92" />
    <path
       d="m 964.7,287.66 c -2.55,0 -4.88,0.3 -6.64,0.8 -0.87,0.26 -1.6,0.58 -2.2,0.98 -0.6,0.4 -1.1,1 -1.1,1.8 v 7.2 c 0,0.8 0.5,1.38 1.1,1.78 0.6,0.42 1.33,0.72 2.2,0.98 1.76,0.5 4.1,0.8 6.65,0.8 2.58,0 4.9,-0.3 6.67,-0.8 0.87,-0.26 1.6,-0.56 2.2,-0.98 0.6,-0.4 1.1,-0.98 1.1,-1.78 v -7.2 c 0,-0.8 -0.5,-1.4 -1.1,-1.8 -0.6,-0.4 -1.33,-0.72 -2.2,-0.98 -1.76,-0.5 -4.1,-0.8 -6.66,-0.8 z m 0,1.8 c 2.44,0 4.66,0.3 6.2,0.75 0.77,0.24 1.34,0.52 1.68,0.74 0.34,0.23 0.34,0.35 0.34,0.3 0,-0.08 0,0.04 -0.34,0.28 -0.34,0.23 -0.9,0.5 -1.7,0.72 -1.52,0.44 -3.74,0.74 -6.17,0.74 -2.42,0 -4.63,-0.3 -6.16,-0.74 -0.78,-0.23 -1.35,-0.5 -1.7,-0.72 -0.33,-0.24 -0.33,-0.36 -0.33,-0.3 0,0.07 0,-0.05 0.35,-0.28 0.34,-0.22 0.9,-0.5 1.7,-0.73 1.52,-0.43 3.73,-0.73 6.16,-0.73 z m -8.2,3.84 c 0.5,0.24 0.95,0.5 1.56,0.7 1.76,0.5 4.1,0.8 6.65,0.8 2.58,0 4.9,-0.3 6.67,-0.8 0.6,-0.2 1.07,-0.46 1.55,-0.7 v 5.14 c 0,-0.06 0,0.06 -0.34,0.3 -0.34,0.22 -0.9,0.5 -1.7,0.7 -1.52,0.46 -3.74,0.76 -6.17,0.76 -2.42,0 -4.63,-0.3 -6.16,-0.76 -0.78,-0.2 -1.35,-0.48 -1.7,-0.7 -0.33,-0.24 -0.33,-0.36 -0.33,-0.3 z"
       stroke="#000000"
       stroke-opacity="0"
       stroke-width="3.77"
       fill="#326ce5"
       id="path94" />
    <use
       xlink:href="#m"
       transform="translate(926.525,343.4)"
       id="use96"
       x="0"
       y="0"
       width="100%"
       height="100%" />
    <path
       d="m 320,282 c 0,-1.1 0.9,-2 2,-2 h 196 c 1.1,0 2,0.9 2,2 v 496 c 0,1.1 -0.9,2 -2,2 H 322 c -1.1,0 -2,-0.9 -2,-2 z"
       stroke="#000000"
       fill="#fce4ec"
       fill-opacity="0.75"
       id="path98" />
    <use
       xlink:href="#k"
       transform="translate(336,312.69922)"
       id="use100"
       x="0"
       y="0"
       width="100%"
       height="100%" />
    <use
       xlink:href="#n"
       transform="translate(379.875,312.69922)"
       id="use102"
       x="0"
       y="0"
       width="100%"
       height="100%" />
    <path
       d="m 509.83,261.58 c -0.57,0.06 -1.02,0.17 -1.48,0.4 l -19.72,9.72 c -1.08,0.5 -1.82,1.42 -2.05,2.6 l -4.9,21.9 c -0.2,1.02 -0.04,2.04 0.53,2.95 0.06,0.12 0.12,0.17 0.23,0.3 l 13.64,17.5 c 0.74,0.96 1.77,1.47 2.96,1.47 h 21.94 c 1.2,0 2.22,-0.5 2.95,-1.48 l 13.65,-17.5 c 0.73,-0.97 1.02,-2.1 0.73,-3.3 l -4.88,-21.83 c -0.23,-1.18 -0.97,-2.1 -2.05,-2.6 l -19.72,-9.72 c -0.63,-0.28 -1.2,-0.45 -1.82,-0.4 z"
       stroke="#000000"
       stroke-opacity="0"
       stroke-width="3.83"
       fill="#326ce5"
       id="path104" />
    <path
       d="m 509.82,260 c -0.6,0.06 -1.08,0.18 -1.56,0.42 l -20.82,10.26 c -1.14,0.54 -1.92,1.5 -2.16,2.76 l -5.16,23.1 c -0.24,1.08 -0.06,2.16 0.54,3.12 0.06,0.12 0.12,0.18 0.24,0.3 l 14.4,18.48 c 0.78,1.02 1.86,1.56 3.12,1.56 h 23.16 c 1.26,0 2.34,-0.54 3.12,-1.56 l 14.4,-18.48 c 0.78,-1.02 1.08,-2.22 0.78,-3.42 l -5.16,-23.1 c -0.24,-1.26 -1.02,-2.22 -2.16,-2.76 l -20.82,-10.26 c -0.66,-0.3 -1.26,-0.48 -1.92,-0.42 z m 0,1.62 c 0.66,-0.06 1.2,0.06 1.8,0.36 l 19.8,9.72 c 1.02,0.54 1.74,1.44 2.04,2.64 l 4.86,21.84 c 0.24,1.2 0,2.28 -0.72,3.24 l -13.68,17.52 c -0.72,0.96 -1.74,1.5 -2.94,1.5 h -21.96 c -1.2,0 -2.22,-0.54 -2.94,-1.5 L 482.4,299.42 c -0.06,-0.06 -0.12,-0.18 -0.18,-0.3 -0.6,-0.9 -0.78,-1.86 -0.54,-2.94 l 4.86,-21.84 c 0.3,-1.2 0.96,-2.1 2.04,-2.64 l 19.8,-9.72 c 0.48,-0.24 0.9,-0.36 1.44,-0.42 z"
       stroke="#000000"
       stroke-opacity="0"
       stroke-width="3.83"
       fill="#ffffff"
       id="path106" />
    <path
       d="m 503.4,277.3 v 2.56 h 1.75 v -1.64 h 3.63 v -1.83 h -4.5 c -0.73,0 -0.9,0.24 -0.9,0.9 z m 8.9,0.92 h 7.04 v -1.83 h -7.04 z m 10.56,0 h 2.23 v 3.13 h 1.75 v -4.05 c 0,-0.7 -0.37,-0.9 -0.9,-0.9 h -3.1 z m -19.47,6.18 v 6.35 h 1.75 v -7.26 h -1.76 z m 21.7,1.5 v 6.36 h 1.75 v -7.28 h -1.76 z m -19.5,8.02 h 7.03 v -1.82 h -7.04 z m 14.56,0 h 3.03 v -1.82 h -3.04 z"
       stroke="#000000"
       stroke-opacity="0"
       stroke-width="3.77"
       fill="#ffffff"
       id="path108" />
    <path
       d="m 498.27,282.14 v 3.3 h 1.76 v -2.38 h 2.93 v -1.83 h -3.8 c -0.73,0 -0.9,0.25 -0.9,0.9 z m 8.23,0.92 h 7.02 v -1.83 h -7.02 z m 10.54,0 h 2.93 v 2.4 h 1.76 v -3.32 c 0,-0.56 -0.23,-0.92 -0.87,-0.9 h -3.82 z m -18.77,6.92 v 6.34 h 1.76 v -7.25 h -1.76 z m 21.7,0.03 v 6.36 h 1.76 v -7.26 h -1.76 z m -18.8,8.76 h 7.05 v -1.8 h -7.04 z m 10.57,0 h 7.04 v -1.8 h -7.04 z"
       stroke="#000000"
       stroke-opacity="0"
       stroke-width="3.77"
       fill="#ffffff"
       id="path110" />
    <path
       d="m 493.15,302.72 v -16.65 l 22.46,0.02 c 0.72,0 1.02,0.58 1.02,1.02 l -0.02,15.57 c -0.02,0.58 -0.5,0.92 -0.96,0.9 h -21.6 c -0.4,0 -0.9,-0.33 -0.9,-0.88 z"
       stroke="#000000"
       stroke-opacity="0"
       stroke-width="3.77"
       fill="#ffffff"
       id="path112" />
    <path
       d="m 504.7,287.66 c -2.55,0 -4.88,0.3 -6.64,0.8 -0.87,0.26 -1.6,0.58 -2.2,0.98 -0.6,0.4 -1.1,1 -1.1,1.8 v 7.2 c 0,0.8 0.5,1.38 1.1,1.78 0.6,0.42 1.33,0.72 2.2,0.98 1.76,0.5 4.1,0.8 6.65,0.8 2.58,0 4.9,-0.3 6.67,-0.8 0.87,-0.26 1.6,-0.56 2.2,-0.98 0.6,-0.4 1.1,-0.98 1.1,-1.78 v -7.2 c 0,-0.8 -0.5,-1.4 -1.1,-1.8 -0.6,-0.4 -1.33,-0.72 -2.2,-0.98 -1.76,-0.5 -4.1,-0.8 -6.66,-0.8 z m 0,1.8 c 2.44,0 4.66,0.3 6.2,0.75 0.77,0.24 1.34,0.52 1.68,0.74 0.34,0.23 0.34,0.35 0.34,0.3 0,-0.08 0,0.04 -0.34,0.28 -0.34,0.23 -0.9,0.5 -1.7,0.72 -1.52,0.44 -3.74,0.74 -6.17,0.74 -2.42,0 -4.63,-0.3 -6.16,-0.74 -0.78,-0.23 -1.35,-0.5 -1.7,-0.72 -0.33,-0.24 -0.33,-0.36 -0.33,-0.3 0,0.07 0,-0.05 0.35,-0.28 0.34,-0.22 0.9,-0.5 1.7,-0.73 1.52,-0.43 3.73,-0.73 6.16,-0.73 z m -8.2,3.84 c 0.5,0.24 0.95,0.5 1.56,0.7 1.76,0.5 4.1,0.8 6.65,0.8 2.58,0 4.9,-0.3 6.67,-0.8 0.6,-0.2 1.07,-0.46 1.55,-0.7 v 5.14 c 0,-0.06 0,0.06 -0.34,0.3 -0.34,0.22 -0.9,0.5 -1.7,0.7 -1.52,0.46 -3.74,0.76 -6.17,0.76 -2.42,0 -4.63,-0.3 -6.16,-0.76 -0.78,-0.2 -1.35,-0.48 -1.7,-0.7 -0.33,-0.24 -0.33,-0.36 -0.33,-0.3 z"
       stroke="#000000"
       stroke-opacity="0"
       stroke-width="3.77"
       fill="#326ce5"
       id="path114" />
    <use
       xlink:href="#m"
       transform="translate(466.525,343.4)"
       id="use116"
       x="0"
       y="0"
       width="100%"
       height="100%" />
    <path
       d="m 1300,282 c 0,-1.1 0.9,-2 2,-2 h 196 c 1.1,0 2,0.9 2,2 v 496 c 0,1.1 -0.9,2 -2,2 h -196 c -1.1,0 -2,-0.9 -2,-2 z"
       stroke="#000000"
       fill="#fce4ec"
       fill-opacity="0.75"
       id="path118" />
    <use
       xlink:href="#k"
       transform="translate(1316,312.69922)"
       id="use120"
       x="0"
       y="0"
       width="100%"
       height="100%" />
    <use
       xlink:href="#o"
       transform="translate(1359.875,312.69922)"
       id="use122"
       x="0"
       y="0"
       width="100%"
       height="100%" />
    <path
       d="m 1489.83,261.58 c -0.57,0.06 -1.02,0.17 -1.48,0.4 l -19.72,9.72 c -1.08,0.5 -1.82,1.42 -2.05,2.6 l -4.9,21.9 c -0.2,1.02 -0.04,2.04 0.53,2.95 0.06,0.12 0.12,0.17 0.23,0.3 l 13.64,17.5 c 0.74,0.96 1.77,1.47 2.96,1.47 h 21.94 c 1.2,0 2.22,-0.5 2.95,-1.48 l 13.65,-17.5 c 0.73,-0.97 1.02,-2.1 0.73,-3.3 l -4.88,-21.83 c -0.23,-1.18 -0.97,-2.1 -2.05,-2.6 l -19.72,-9.72 c -0.63,-0.28 -1.2,-0.45 -1.82,-0.4 z"
       stroke="#000000"
       stroke-opacity="0"
       stroke-width="3.83"
       fill="#326ce5"
       id="path124" />
    <path
       d="m 1489.82,260 c -0.6,0.06 -1.08,0.18 -1.56,0.42 l -20.82,10.26 c -1.14,0.54 -1.92,1.5 -2.16,2.76 l -5.16,23.1 c -0.24,1.08 -0.06,2.16 0.54,3.12 0.06,0.12 0.12,0.18 0.24,0.3 l 14.4,18.48 c 0.78,1.02 1.86,1.56 3.12,1.56 h 23.16 c 1.26,0 2.34,-0.54 3.12,-1.56 l 14.4,-18.48 c 0.78,-1.02 1.08,-2.22 0.78,-3.42 l -5.16,-23.1 c -0.24,-1.26 -1.02,-2.22 -2.16,-2.76 l -20.82,-10.26 c -0.66,-0.3 -1.26,-0.48 -1.92,-0.42 z m 0,1.62 c 0.66,-0.06 1.2,0.06 1.8,0.36 l 19.8,9.72 c 1.02,0.54 1.74,1.44 2.04,2.64 l 4.86,21.84 c 0.24,1.2 0,2.28 -0.72,3.24 l -13.68,17.52 c -0.72,0.96 -1.74,1.5 -2.94,1.5 h -21.96 c -1.2,0 -2.22,-0.54 -2.94,-1.5 l -13.68,-17.52 c -0.06,-0.06 -0.12,-0.18 -0.18,-0.3 -0.6,-0.9 -0.78,-1.86 -0.54,-2.94 l 4.86,-21.84 c 0.3,-1.2 0.96,-2.1 2.04,-2.64 l 19.8,-9.72 c 0.48,-0.24 0.9,-0.36 1.44,-0.42 z"
       stroke="#000000"
       stroke-opacity="0"
       stroke-width="3.83"
       fill="#ffffff"
       id="path126" />
    <path
       d="m 1483.4,277.3 v 2.56 h 1.75 v -1.64 h 3.63 v -1.83 h -4.5 c -0.73,0 -0.9,0.24 -0.9,0.9 z m 8.9,0.92 h 7.04 v -1.83 h -7.04 z m 10.56,0 h 2.23 v 3.13 h 1.75 v -4.05 c 0,-0.7 -0.37,-0.9 -0.9,-0.9 h -3.1 z m -19.47,6.18 v 6.35 h 1.75 v -7.26 h -1.76 z m 21.7,1.5 v 6.36 h 1.75 v -7.28 h -1.76 z m -19.5,8.02 h 7.03 v -1.82 h -7.04 z m 14.56,0 h 3.03 v -1.82 h -3.04 z"
       stroke="#000000"
       stroke-opacity="0"
       stroke-width="3.77"
       fill="#ffffff"
       id="path128" />
    <path
       d="m 1478.27,282.14 v 3.3 h 1.76 v -2.38 h 2.93 v -1.83 h -3.8 c -0.73,0 -0.9,0.25 -0.9,0.9 z m 8.23,0.92 h 7.02 v -1.83 h -7.02 z m 10.54,0 h 2.93 v 2.4 h 1.76 v -3.32 c 0,-0.56 -0.23,-0.92 -0.87,-0.9 h -3.82 z m -18.77,6.92 v 6.34 h 1.76 v -7.25 h -1.76 z m 21.7,0.03 v 6.36 h 1.76 v -7.26 h -1.76 z m -18.8,8.76 h 7.05 v -1.8 h -7.04 z m 10.57,0 h 7.04 v -1.8 h -7.04 z"
       stroke="#000000"
       stroke-opacity="0"
       stroke-width="3.77"
       fill="#ffffff"
       id="path130" />
    <path
       d="m 1473.15,302.72 v -16.65 l 22.46,0.02 c 0.72,0 1.02,0.58 1.02,1.02 l -0.02,15.57 c -0.02,0.58 -0.5,0.92 -0.96,0.9 h -21.6 c -0.4,0 -0.9,-0.33 -0.9,-0.88 z"
       stroke="#000000"
       stroke-opacity="0"
       stroke-width="3.77"
       fill="#ffffff"
       id="path132" />
    <path
       d="m 1484.7,287.66 c -2.55,0 -4.88,0.3 -6.64,0.8 -0.87,0.26 -1.6,0.58 -2.2,0.98 -0.6,0.4 -1.1,1 -1.1,1.8 v 7.2 c 0,0.8 0.5,1.38 1.1,1.78 0.6,0.42 1.33,0.72 2.2,0.98 1.76,0.5 4.1,0.8 6.65,0.8 2.58,0 4.9,-0.3 6.67,-0.8 0.87,-0.26 1.6,-0.56 2.2,-0.98 0.6,-0.4 1.1,-0.98 1.1,-1.78 v -7.2 c 0,-0.8 -0.5,-1.4 -1.1,-1.8 -0.6,-0.4 -1.33,-0.72 -2.2,-0.98 -1.76,-0.5 -4.1,-0.8 -6.66,-0.8 z m 0,1.8 c 2.44,0 4.66,0.3 6.2,0.75 0.77,0.24 1.34,0.52 1.68,0.74 0.34,0.23 0.34,0.35 0.34,0.3 0,-0.08 0,0.04 -0.34,0.28 -0.34,0.23 -0.9,0.5 -1.7,0.72 -1.52,0.44 -3.74,0.74 -6.17,0.74 -2.42,0 -4.63,-0.3 -6.16,-0.74 -0.78,-0.23 -1.35,-0.5 -1.7,-0.72 -0.33,-0.24 -0.33,-0.36 -0.33,-0.3 0,0.07 0,-0.05 0.35,-0.28 0.34,-0.22 0.9,-0.5 1.7,-0.73 1.52,-0.43 3.73,-0.73 6.16,-0.73 z m -8.2,3.84 c 0.5,0.24 0.95,0.5 1.56,0.7 1.76,0.5 4.1,0.8 6.65,0.8 2.58,0 4.9,-0.3 6.67,-0.8 0.6,-0.2 1.07,-0.46 1.55,-0.7 v 5.14 c 0,-0.06 0,0.06 -0.34,0.3 -0.34,0.22 -0.9,0.5 -1.7,0.7 -1.52,0.46 -3.74,0.76 -6.17,0.76 -2.42,0 -4.63,-0.3 -6.16,-0.76 -0.78,-0.2 -1.35,-0.48 -1.7,-0.7 -0.33,-0.24 -0.33,-0.36 -0.33,-0.3 z"
       stroke="#000000"
       stroke-opacity="0"
       stroke-width="3.77"
       fill="#326ce5"
       id="path134" />
    <use
       xlink:href="#m"
       transform="translate(1446.525,343.4)"
       id="use136"
       x="0"
       y="0"
       width="100%"
       height="100%" />
    <path
       d="m 689.83,591.58 c -0.57,0.05 -1.02,0.17 -1.48,0.4 l -19.72,9.7 c -1.08,0.53 -1.82,1.44 -2.05,2.63 l -4.9,21.9 c -0.2,1 -0.04,2.04 0.53,2.95 0.06,0.1 0.12,0.17 0.23,0.28 l 13.64,17.5 c 0.74,0.97 1.77,1.48 2.96,1.48 h 21.94 c 1.2,0 2.22,-0.5 2.95,-1.46 l 13.65,-17.5 c 0.73,-0.98 1.02,-2.1 0.73,-3.3 l -4.88,-21.83 c -0.23,-1.18 -0.97,-2.1 -2.05,-2.6 l -19.72,-9.72 c -0.63,-0.3 -1.2,-0.46 -1.82,-0.4 z"
       stroke="#000000"
       stroke-opacity="0"
       stroke-width="3.83"
       fill="#326ce5"
       id="path138" />
    <path
       d="m 689.82,590 c -0.6,0.06 -1.08,0.18 -1.56,0.42 l -20.82,10.26 c -1.14,0.54 -1.92,1.5 -2.16,2.76 l -5.16,23.1 c -0.24,1.08 -0.06,2.16 0.54,3.12 0.06,0.12 0.12,0.18 0.24,0.3 l 14.4,18.48 c 0.78,1.02 1.86,1.56 3.12,1.56 h 23.16 c 1.26,0 2.34,-0.54 3.12,-1.56 l 14.4,-18.48 c 0.78,-1.02 1.08,-2.22 0.78,-3.48 l -5.16,-23.04 c -0.24,-1.26 -1.02,-2.22 -2.16,-2.76 l -20.82,-10.26 c -0.66,-0.3 -1.26,-0.48 -1.92,-0.42 z m 0,1.62 c 0.66,-0.06 1.2,0.06 1.8,0.36 l 19.8,9.72 c 1.02,0.54 1.74,1.44 2.04,2.64 l 4.86,21.84 c 0.24,1.2 0,2.28 -0.72,3.24 l -13.68,17.52 c -0.72,0.96 -1.74,1.5 -2.94,1.5 h -21.96 c -1.2,0 -2.22,-0.54 -2.94,-1.5 L 662.4,629.42 c -0.06,-0.06 -0.12,-0.18 -0.18,-0.3 -0.6,-0.9 -0.78,-1.86 -0.54,-2.94 l 4.86,-21.84 c 0.3,-1.2 0.96,-2.1 2.04,-2.64 l 19.8,-9.72 c 0.48,-0.24 0.9,-0.36 1.44,-0.36 z"
       stroke="#000000"
       stroke-opacity="0"
       stroke-width="3.83"
       fill="#ffffff"
       id="path140" />
    <path
       d="m 687.2,642.2 c 0,0.47 -0.16,0.84 -0.52,1.1 -0.35,0.26 -0.84,0.4 -1.48,0.4 -0.6,0 -1.1,-0.1 -1.43,-0.32 -0.33,-0.2 -0.55,-0.54 -0.65,-0.98 l 0.73,-0.15 c 0.07,0.28 0.22,0.48 0.43,0.6 0.23,0.14 0.53,0.2 0.92,0.2 0.42,0 0.73,-0.07 0.92,-0.2 0.2,-0.13 0.3,-0.34 0.3,-0.6 0,-0.2 -0.07,-0.36 -0.2,-0.5 -0.14,-0.1 -0.36,-0.22 -0.66,-0.3 l -0.6,-0.16 c -0.46,-0.14 -0.8,-0.26 -1,-0.38 -0.2,-0.12 -0.36,-0.27 -0.47,-0.45 -0.12,-0.17 -0.18,-0.38 -0.18,-0.63 0,-0.47 0.16,-0.82 0.48,-1.06 0.32,-0.25 0.8,-0.37 1.4,-0.37 0.56,0 1,0.1 1.3,0.3 0.34,0.2 0.54,0.52 0.63,0.96 l -0.75,0.1 c -0.04,-0.23 -0.16,-0.4 -0.36,-0.53 -0.2,-0.12 -0.47,-0.18 -0.8,-0.18 -0.38,0 -0.66,0.06 -0.83,0.18 -0.2,0.1 -0.28,0.3 -0.28,0.52 0,0.15 0.04,0.27 0.1,0.36 0.08,0.1 0.2,0.2 0.33,0.25 0.15,0.07 0.45,0.16 0.9,0.28 0.45,0.1 0.77,0.2 0.96,0.3 0.2,0.1 0.35,0.22 0.46,0.33 0.1,0.12 0.2,0.25 0.26,0.4 0.07,0.16 0.1,0.33 0.1,0.53 z m 3.16,1.4 h -0.98 l -1.8,-5.12 h 0.88 l 1.1,3.33 0.3,1.13 0.17,-0.55 0.18,-0.56 1.14,-3.34 h 0.87 z m 3.14,-2.58 c 0,0.68 0.1,1.2 0.32,1.5 0.2,0.34 0.52,0.5 0.93,0.5 0.3,0 0.54,-0.08 0.74,-0.24 0.2,-0.17 0.3,-0.42 0.36,-0.75 l 0.83,0.05 c -0.08,0.5 -0.28,0.88 -0.62,1.17 -0.34,0.3 -0.78,0.44 -1.3,0.44 -0.7,0 -1.23,-0.23 -1.6,-0.68 -0.36,-0.45 -0.54,-1.1 -0.54,-1.98 0,-0.86 0.18,-1.52 0.55,-1.97 0.36,-0.45 0.88,-0.68 1.57,-0.68 0.5,0 0.93,0.13 1.26,0.4 0.34,0.27 0.55,0.64 0.63,1.12 l -0.85,0.06 c -0.03,-0.28 -0.14,-0.5 -0.3,-0.67 -0.2,-0.16 -0.43,-0.24 -0.75,-0.24 -0.44,0 -0.76,0.15 -0.95,0.45 -0.2,0.3 -0.3,0.8 -0.3,1.52 z"
       stroke="#000000"
       stroke-opacity="0"
       fill="#ffffff"
       id="path142" />
    <path
       d="m 671.97,624.56 h 9.67 v 7 h -9.67 z m 13.19,0 h 9.68 v 7 h -9.68 z m 13.2,0 h 9.68 v 7 h -9.68 z m -16.02,-20.74 h 15.32 v 7 h -15.32 z"
       stroke="#000000"
       stroke-opacity="0"
       stroke-width="3.77"
       fill="#ffffff"
       id="path144" />
    <path
       d="m 689.1,610.82 v 5.96 h -12.3 c -0.48,0 -0.87,0.4 -0.87,0.9 v 6.88 h 1.75 v -5.97 H 690 c 0.5,0 0.88,-0.4 0.88,-0.9 v -6.88 z"
       stroke="#000000"
       stroke-opacity="0"
       stroke-width="3.77"
       fill="#ffffff"
       id="path146" />
    <path
       d="m 689.12,610.82 v 6.87 c 0,0.5 0.4,0.9 0.9,0.9 h 12.3 v 5.96 h 1.75 v -6.87 c 0,-0.5 -0.4,-0.92 -0.88,-0.92 h -12.33 v -5.96 z"
       stroke="#000000"
       stroke-opacity="0"
       stroke-width="3.77"
       fill="#ffffff"
       id="path148" />
    <path
       d="m 689.1,610.82 v 6.87 c 0,0.1 0,0.2 0.05,0.3 v 6.56 h 1.76 v -6.87 c 0,-0.12 0,-0.22 -0.05,-0.33 v -6.55 z"
       stroke="#000000"
       stroke-opacity="0"
       stroke-width="3.77"
       fill="#ffffff"
       id="path150" />
    <use
       xlink:href="#p"
       transform="translate(664.5,673.4)"
       id="use152"
       x="0"
       y="0"
       width="100%"
       height="100%" />
    <path
       d="m 689.83,691.58 c -0.57,0.05 -1.02,0.17 -1.48,0.4 l -19.72,9.7 c -1.08,0.53 -1.82,1.44 -2.05,2.63 l -4.9,21.9 c -0.2,1 -0.04,2.04 0.53,2.95 0.06,0.1 0.12,0.17 0.23,0.28 l 13.64,17.5 c 0.74,0.97 1.77,1.48 2.96,1.48 h 21.94 c 1.2,0 2.22,-0.5 2.95,-1.46 l 13.65,-17.5 c 0.73,-0.98 1.02,-2.1 0.73,-3.3 l -4.88,-21.83 c -0.23,-1.18 -0.97,-2.1 -2.05,-2.6 l -19.72,-9.72 c -0.63,-0.3 -1.2,-0.46 -1.82,-0.4 z"
       stroke="#000000"
       stroke-opacity="0"
       stroke-width="3.83"
       fill="#326ce5"
       id="path154" />
    <path
       d="m 689.82,690 c -0.6,0.06 -1.08,0.18 -1.56,0.42 l -20.82,10.26 c -1.14,0.54 -1.92,1.5 -2.16,2.76 l -5.16,23.1 c -0.24,1.08 -0.06,2.16 0.54,3.12 0.06,0.12 0.12,0.18 0.24,0.3 l 14.4,18.48 c 0.78,1.02 1.86,1.56 3.12,1.56 h 23.16 c 1.26,0 2.34,-0.54 3.12,-1.56 l 14.4,-18.48 c 0.78,-1.02 1.08,-2.22 0.78,-3.48 l -5.16,-23.04 c -0.24,-1.26 -1.02,-2.22 -2.16,-2.76 l -20.82,-10.26 c -0.66,-0.3 -1.26,-0.48 -1.92,-0.42 z m 0,1.62 c 0.66,-0.06 1.2,0.06 1.8,0.36 l 19.8,9.72 c 1.02,0.54 1.74,1.44 2.04,2.64 l 4.86,21.84 c 0.24,1.2 0,2.28 -0.72,3.24 l -13.68,17.52 c -0.72,0.96 -1.74,1.5 -2.94,1.5 h -21.96 c -1.2,0 -2.22,-0.54 -2.94,-1.5 L 662.4,729.42 c -0.06,-0.06 -0.12,-0.18 -0.18,-0.3 -0.6,-0.9 -0.78,-1.86 -0.54,-2.94 l 4.86,-21.84 c 0.3,-1.2 0.96,-2.1 2.04,-2.64 l 19.8,-9.72 c 0.48,-0.24 0.9,-0.36 1.44,-0.36 z"
       stroke="#000000"
       stroke-opacity="0"
       stroke-width="3.83"
       fill="#ffffff"
       id="path156" />
    <path
       d="m 687.2,742.2 c 0,0.47 -0.16,0.84 -0.52,1.1 -0.35,0.26 -0.84,0.4 -1.48,0.4 -0.6,0 -1.1,-0.1 -1.43,-0.32 -0.33,-0.2 -0.55,-0.54 -0.65,-0.98 l 0.73,-0.15 c 0.07,0.28 0.22,0.48 0.43,0.6 0.23,0.14 0.53,0.2 0.92,0.2 0.42,0 0.73,-0.07 0.92,-0.2 0.2,-0.13 0.3,-0.34 0.3,-0.6 0,-0.2 -0.07,-0.36 -0.2,-0.5 -0.14,-0.1 -0.36,-0.22 -0.66,-0.3 l -0.6,-0.16 c -0.46,-0.14 -0.8,-0.26 -1,-0.38 -0.2,-0.12 -0.36,-0.27 -0.47,-0.45 -0.12,-0.17 -0.18,-0.38 -0.18,-0.63 0,-0.47 0.16,-0.82 0.48,-1.06 0.32,-0.25 0.8,-0.37 1.4,-0.37 0.56,0 1,0.1 1.3,0.3 0.34,0.2 0.54,0.52 0.63,0.96 l -0.75,0.1 c -0.04,-0.23 -0.16,-0.4 -0.36,-0.53 -0.2,-0.12 -0.47,-0.18 -0.8,-0.18 -0.38,0 -0.66,0.06 -0.83,0.18 -0.2,0.1 -0.28,0.3 -0.28,0.52 0,0.15 0.04,0.27 0.1,0.36 0.08,0.1 0.2,0.2 0.33,0.25 0.15,0.07 0.45,0.16 0.9,0.28 0.45,0.1 0.77,0.2 0.96,0.3 0.2,0.1 0.35,0.22 0.46,0.33 0.1,0.12 0.2,0.25 0.26,0.4 0.07,0.16 0.1,0.33 0.1,0.53 z m 3.16,1.4 h -0.98 l -1.8,-5.12 h 0.88 l 1.1,3.33 0.3,1.13 0.17,-0.55 0.18,-0.56 1.14,-3.34 h 0.87 z m 3.14,-2.58 c 0,0.68 0.1,1.2 0.32,1.5 0.2,0.34 0.52,0.5 0.93,0.5 0.3,0 0.54,-0.08 0.74,-0.24 0.2,-0.17 0.3,-0.42 0.36,-0.75 l 0.83,0.05 c -0.08,0.5 -0.28,0.88 -0.62,1.17 -0.34,0.3 -0.78,0.44 -1.3,0.44 -0.7,0 -1.23,-0.23 -1.6,-0.68 -0.36,-0.45 -0.54,-1.1 -0.54,-1.98 0,-0.86 0.18,-1.52 0.55,-1.97 0.36,-0.45 0.88,-0.68 1.57,-0.68 0.5,0 0.93,0.13 1.26,0.4 0.34,0.27 0.55,0.64 0.63,1.12 l -0.85,0.06 c -0.03,-0.28 -0.14,-0.5 -0.3,-0.67 -0.2,-0.16 -0.43,-0.24 -0.75,-0.24 -0.44,0 -0.76,0.15 -0.95,0.45 -0.2,0.3 -0.3,0.8 -0.3,1.52 z"
       stroke="#000000"
       stroke-opacity="0"
       fill="#ffffff"
       id="path158" />
    <path
       d="m 671.97,724.56 h 9.67 v 7 h -9.67 z m 13.19,0 h 9.68 v 7 h -9.68 z m 13.2,0 h 9.68 v 7 h -9.68 z m -16.02,-20.74 h 15.32 v 7 h -15.32 z"
       stroke="#000000"
       stroke-opacity="0"
       stroke-width="3.77"
       fill="#ffffff"
       id="path160" />
    <path
       d="m 689.1,710.82 v 5.96 h -12.3 c -0.48,0 -0.87,0.4 -0.87,0.9 v 6.88 h 1.75 v -5.97 H 690 c 0.5,0 0.88,-0.4 0.88,-0.9 v -6.88 z"
       stroke="#000000"
       stroke-opacity="0"
       stroke-width="3.77"
       fill="#ffffff"
       id="path162" />
    <path
       d="m 689.12,710.82 v 6.87 c 0,0.5 0.4,0.9 0.9,0.9 h 12.3 v 5.96 h 1.75 v -6.87 c 0,-0.5 -0.4,-0.92 -0.88,-0.92 h -12.33 v -5.96 z"
       stroke="#000000"
       stroke-opacity="0"
       stroke-width="3.77"
       fill="#ffffff"
       id="path164" />
    <path
       d="m 689.1,710.82 v 6.87 c 0,0.1 0,0.2 0.05,0.3 v 6.56 h 1.76 v -6.87 c 0,-0.12 0,-0.22 -0.05,-0.33 v -6.55 z"
       stroke="#000000"
       stroke-opacity="0"
       stroke-width="3.77"
       fill="#ffffff"
       id="path166" />
    <use
       xlink:href="#q"
       transform="translate(648.575,773.4)"
       id="use168"
       x="0"
       y="0"
       width="100%"
       height="100%" />
    <use
       xlink:href="#r"
       transform="translate(679.475,773.4)"
       id="use170"
       x="0"
       y="0"
       width="100%"
       height="100%" />
    <path
       d="m 689.83,301.58 c -0.57,0.05 -1.02,0.17 -1.48,0.4 l -19.72,9.7 c -1.08,0.53 -1.82,1.44 -2.05,2.63 l -4.9,21.9 c -0.2,1 -0.04,2.04 0.53,2.95 0.06,0.1 0.12,0.17 0.23,0.28 l 13.64,17.5 c 0.74,0.97 1.77,1.48 2.96,1.48 h 21.94 c 1.2,0 2.22,-0.5 2.95,-1.46 l 13.65,-17.5 c 0.73,-0.98 1.02,-2.1 0.73,-3.3 l -4.88,-21.83 c -0.23,-1.18 -0.97,-2.1 -2.05,-2.6 l -19.72,-9.72 c -0.63,-0.3 -1.2,-0.46 -1.82,-0.4 z"
       stroke="#000000"
       stroke-opacity="0"
       stroke-width="3.83"
       fill="#326ce5"
       id="path172" />
    <path
       d="m 689.82,300 c -0.6,0.06 -1.08,0.18 -1.56,0.42 l -20.82,10.26 c -1.14,0.54 -1.92,1.5 -2.16,2.76 l -5.16,23.1 c -0.24,1.08 -0.06,2.16 0.54,3.12 0.06,0.12 0.12,0.18 0.24,0.3 l 14.4,18.48 c 0.78,1.02 1.86,1.56 3.12,1.56 h 23.16 c 1.26,0 2.34,-0.54 3.12,-1.56 l 14.4,-18.48 c 0.78,-1.02 1.08,-2.22 0.78,-3.48 l -5.16,-23.04 c -0.24,-1.26 -1.02,-2.22 -2.16,-2.76 l -20.82,-10.26 c -0.66,-0.3 -1.26,-0.48 -1.92,-0.42 z m 0,1.62 c 0.66,-0.06 1.2,0.06 1.8,0.36 l 19.8,9.72 c 1.02,0.54 1.74,1.44 2.04,2.64 l 4.86,21.84 c 0.24,1.2 0,2.28 -0.72,3.24 l -13.68,17.52 c -0.72,0.96 -1.74,1.5 -2.94,1.5 h -21.96 c -1.2,0 -2.22,-0.54 -2.94,-1.5 L 662.4,339.42 c -0.06,-0.06 -0.12,-0.18 -0.18,-0.3 -0.6,-0.9 -0.78,-1.86 -0.54,-2.94 l 4.86,-21.84 c 0.3,-1.2 0.96,-2.1 2.04,-2.64 l 19.8,-9.72 c 0.48,-0.24 0.9,-0.36 1.44,-0.36 z"
       stroke="#000000"
       stroke-opacity="0"
       stroke-width="3.83"
       fill="#ffffff"
       id="path174" />
    <path
       d="m 687.2,352.2 c 0,0.47 -0.16,0.84 -0.52,1.1 -0.35,0.26 -0.84,0.4 -1.48,0.4 -0.6,0 -1.1,-0.1 -1.43,-0.32 -0.33,-0.2 -0.55,-0.54 -0.65,-0.98 l 0.73,-0.15 c 0.07,0.28 0.22,0.48 0.43,0.6 0.23,0.14 0.53,0.2 0.92,0.2 0.42,0 0.73,-0.07 0.92,-0.2 0.2,-0.13 0.3,-0.34 0.3,-0.6 0,-0.2 -0.07,-0.36 -0.2,-0.5 -0.14,-0.1 -0.36,-0.22 -0.66,-0.3 l -0.6,-0.16 c -0.46,-0.14 -0.8,-0.26 -1,-0.38 -0.2,-0.12 -0.36,-0.27 -0.47,-0.45 -0.12,-0.17 -0.18,-0.38 -0.18,-0.63 0,-0.47 0.16,-0.82 0.48,-1.06 0.32,-0.25 0.8,-0.37 1.4,-0.37 0.56,0 1,0.1 1.3,0.3 0.34,0.2 0.54,0.52 0.63,0.96 l -0.75,0.1 c -0.04,-0.23 -0.16,-0.4 -0.36,-0.53 -0.2,-0.12 -0.47,-0.18 -0.8,-0.18 -0.38,0 -0.66,0.06 -0.83,0.18 -0.2,0.1 -0.28,0.3 -0.28,0.52 0,0.15 0.04,0.27 0.1,0.36 0.08,0.1 0.2,0.2 0.33,0.25 0.15,0.07 0.45,0.16 0.9,0.28 0.45,0.1 0.77,0.2 0.96,0.3 0.2,0.1 0.35,0.22 0.46,0.33 0.1,0.12 0.2,0.25 0.26,0.4 0.07,0.16 0.1,0.33 0.1,0.53 z m 3.16,1.4 h -0.98 l -1.8,-5.12 h 0.88 l 1.1,3.33 0.3,1.13 0.17,-0.55 0.18,-0.56 1.14,-3.34 h 0.87 z m 3.14,-2.58 c 0,0.68 0.1,1.2 0.32,1.5 0.2,0.34 0.52,0.5 0.93,0.5 0.3,0 0.54,-0.08 0.74,-0.24 0.2,-0.17 0.3,-0.42 0.36,-0.75 l 0.83,0.05 c -0.08,0.5 -0.28,0.88 -0.62,1.17 -0.34,0.3 -0.78,0.44 -1.3,0.44 -0.7,0 -1.23,-0.23 -1.6,-0.68 -0.36,-0.45 -0.54,-1.1 -0.54,-1.98 0,-0.86 0.18,-1.52 0.55,-1.97 0.36,-0.45 0.88,-0.68 1.57,-0.68 0.5,0 0.93,0.13 1.26,0.4 0.34,0.27 0.55,0.64 0.63,1.12 l -0.85,0.06 c -0.03,-0.28 -0.14,-0.5 -0.3,-0.67 -0.2,-0.16 -0.43,-0.24 -0.75,-0.24 -0.44,0 -0.76,0.15 -0.95,0.45 -0.2,0.3 -0.3,0.8 -0.3,1.52 z"
       stroke="#000000"
       stroke-opacity="0"
       fill="#ffffff"
       id="path176" />
    <path
       d="m 671.97,334.56 h 9.67 v 7 h -9.67 z m 13.19,0 h 9.68 v 7 h -9.68 z m 13.2,0 h 9.68 v 7 h -9.68 z m -16.02,-20.74 h 15.32 v 7 h -15.32 z"
       stroke="#000000"
       stroke-opacity="0"
       stroke-width="3.77"
       fill="#ffffff"
       id="path178" />
    <path
       d="m 689.1,320.82 v 5.96 h -12.3 c -0.48,0 -0.87,0.4 -0.87,0.9 v 6.88 h 1.75 v -5.97 H 690 c 0.5,0 0.88,-0.4 0.88,-0.9 v -6.88 z"
       stroke="#000000"
       stroke-opacity="0"
       stroke-width="3.77"
       fill="#ffffff"
       id="path180" />
    <path
       d="m 689.12,320.82 v 6.87 c 0,0.5 0.4,0.9 0.9,0.9 h 12.3 v 5.96 h 1.75 v -6.87 c 0,-0.5 -0.4,-0.92 -0.88,-0.92 h -12.33 v -5.96 z"
       stroke="#000000"
       stroke-opacity="0"
       stroke-width="3.77"
       fill="#ffffff"
       id="path182" />
    <path
       d="m 689.1,320.82 v 6.87 c 0,0.1 0,0.2 0.05,0.3 v 6.56 h 1.76 v -6.87 c 0,-0.12 0,-0.22 -0.05,-0.33 v -6.55 z"
       stroke="#000000"
       stroke-opacity="0"
       stroke-width="3.77"
       fill="#ffffff"
       id="path184" />
    <use
       xlink:href="#p"
       transform="translate(664.5,383.4)"
       id="use186"
       x="0"
       y="0"
       width="100%"
       height="100%" />
    <path
       d="m 689.83,401.58 c -0.57,0.05 -1.02,0.17 -1.48,0.4 l -19.72,9.7 c -1.08,0.53 -1.82,1.44 -2.05,2.63 l -4.9,21.9 c -0.2,1 -0.04,2.04 0.53,2.95 0.06,0.1 0.12,0.17 0.23,0.28 l 13.64,17.5 c 0.74,0.97 1.77,1.48 2.96,1.48 h 21.94 c 1.2,0 2.22,-0.5 2.95,-1.46 l 13.65,-17.5 c 0.73,-0.98 1.02,-2.1 0.73,-3.3 l -4.88,-21.83 c -0.23,-1.18 -0.97,-2.1 -2.05,-2.6 l -19.72,-9.72 c -0.63,-0.3 -1.2,-0.46 -1.82,-0.4 z"
       stroke="#000000"
       stroke-opacity="0"
       stroke-width="3.83"
       fill="#326ce5"
       id="path188" />
    <path
       d="m 689.82,400 c -0.6,0.06 -1.08,0.18 -1.56,0.42 l -20.82,10.26 c -1.14,0.54 -1.92,1.5 -2.16,2.76 l -5.16,23.1 c -0.24,1.08 -0.06,2.16 0.54,3.12 0.06,0.12 0.12,0.18 0.24,0.3 l 14.4,18.48 c 0.78,1.02 1.86,1.56 3.12,1.56 h 23.16 c 1.26,0 2.34,-0.54 3.12,-1.56 l 14.4,-18.48 c 0.78,-1.02 1.08,-2.22 0.78,-3.48 l -5.16,-23.04 c -0.24,-1.26 -1.02,-2.22 -2.16,-2.76 l -20.82,-10.26 c -0.66,-0.3 -1.26,-0.48 -1.92,-0.42 z m 0,1.62 c 0.66,-0.06 1.2,0.06 1.8,0.36 l 19.8,9.72 c 1.02,0.54 1.74,1.44 2.04,2.64 l 4.86,21.84 c 0.24,1.2 0,2.28 -0.72,3.24 l -13.68,17.52 c -0.72,0.96 -1.74,1.5 -2.94,1.5 h -21.96 c -1.2,0 -2.22,-0.54 -2.94,-1.5 L 662.4,439.42 c -0.06,-0.06 -0.12,-0.18 -0.18,-0.3 -0.6,-0.9 -0.78,-1.86 -0.54,-2.94 l 4.86,-21.84 c 0.3,-1.2 0.96,-2.1 2.04,-2.64 l 19.8,-9.72 c 0.48,-0.24 0.9,-0.36 1.44,-0.36 z"
       stroke="#000000"
       stroke-opacity="0"
       stroke-width="3.83"
       fill="#ffffff"
       id="path190" />
    <path
       d="m 687.2,452.2 c 0,0.47 -0.16,0.84 -0.52,1.1 -0.35,0.26 -0.84,0.4 -1.48,0.4 -0.6,0 -1.1,-0.1 -1.43,-0.32 -0.33,-0.2 -0.55,-0.54 -0.65,-0.98 l 0.73,-0.15 c 0.07,0.28 0.22,0.48 0.43,0.6 0.23,0.14 0.53,0.2 0.92,0.2 0.42,0 0.73,-0.07 0.92,-0.2 0.2,-0.13 0.3,-0.34 0.3,-0.6 0,-0.2 -0.07,-0.36 -0.2,-0.5 -0.14,-0.1 -0.36,-0.22 -0.66,-0.3 l -0.6,-0.16 c -0.46,-0.14 -0.8,-0.26 -1,-0.38 -0.2,-0.12 -0.36,-0.27 -0.47,-0.45 -0.12,-0.17 -0.18,-0.38 -0.18,-0.63 0,-0.47 0.16,-0.82 0.48,-1.06 0.32,-0.25 0.8,-0.37 1.4,-0.37 0.56,0 1,0.1 1.3,0.3 0.34,0.2 0.54,0.52 0.63,0.96 l -0.75,0.1 c -0.04,-0.23 -0.16,-0.4 -0.36,-0.53 -0.2,-0.12 -0.47,-0.18 -0.8,-0.18 -0.38,0 -0.66,0.06 -0.83,0.18 -0.2,0.1 -0.28,0.3 -0.28,0.52 0,0.15 0.04,0.27 0.1,0.36 0.08,0.1 0.2,0.2 0.33,0.25 0.15,0.07 0.45,0.16 0.9,0.28 0.45,0.1 0.77,0.2 0.96,0.3 0.2,0.1 0.35,0.22 0.46,0.33 0.1,0.12 0.2,0.25 0.26,0.4 0.07,0.16 0.1,0.33 0.1,0.53 z m 3.16,1.4 h -0.98 l -1.8,-5.12 h 0.88 l 1.1,3.33 0.3,1.13 0.17,-0.55 0.18,-0.56 1.14,-3.34 h 0.87 z m 3.14,-2.58 c 0,0.68 0.1,1.2 0.32,1.5 0.2,0.34 0.52,0.5 0.93,0.5 0.3,0 0.54,-0.08 0.74,-0.24 0.2,-0.17 0.3,-0.42 0.36,-0.75 l 0.83,0.05 c -0.08,0.5 -0.28,0.88 -0.62,1.17 -0.34,0.3 -0.78,0.44 -1.3,0.44 -0.7,0 -1.23,-0.23 -1.6,-0.68 -0.36,-0.45 -0.54,-1.1 -0.54,-1.98 0,-0.86 0.18,-1.52 0.55,-1.97 0.36,-0.45 0.88,-0.68 1.57,-0.68 0.5,0 0.93,0.13 1.26,0.4 0.34,0.27 0.55,0.64 0.63,1.12 l -0.85,0.06 c -0.03,-0.28 -0.14,-0.5 -0.3,-0.67 -0.2,-0.16 -0.43,-0.24 -0.75,-0.24 -0.44,0 -0.76,0.15 -0.95,0.45 -0.2,0.3 -0.3,0.8 -0.3,1.52 z"
       stroke="#000000"
       stroke-opacity="0"
       fill="#ffffff"
       id="path192" />
    <path
       d="m 671.97,434.56 h 9.67 v 7 h -9.67 z m 13.19,0 h 9.68 v 7 h -9.68 z m 13.2,0 h 9.68 v 7 h -9.68 z m -16.02,-20.74 h 15.32 v 7 h -15.32 z"
       stroke="#000000"
       stroke-opacity="0"
       stroke-width="3.77"
       fill="#ffffff"
       id="path194" />
    <path
       d="m 689.1,420.82 v 5.96 h -12.3 c -0.48,0 -0.87,0.4 -0.87,0.9 v 6.88 h 1.75 v -5.97 H 690 c 0.5,0 0.88,-0.4 0.88,-0.9 v -6.88 z"
       stroke="#000000"
       stroke-opacity="0"
       stroke-width="3.77"
       fill="#ffffff"
       id="path196" />
    <path
       d="m 689.12,420.82 v 6.87 c 0,0.5 0.4,0.9 0.9,0.9 h 12.3 v 5.96 h 1.75 v -6.87 c 0,-0.5 -0.4,-0.92 -0.88,-0.92 h -12.33 v -5.96 z"
       stroke="#000000"
       stroke-opacity="0"
       stroke-width="3.77"
       fill="#ffffff"
       id="path198" />
    <path
       d="m 689.1,420.82 v 6.87 c 0,0.1 0,0.2 0.05,0.3 v 6.56 h 1.76 v -6.87 c 0,-0.12 0,-0.22 -0.05,-0.33 v -6.55 z"
       stroke="#000000"
       stroke-opacity="0"
       stroke-width="3.77"
       fill="#ffffff"
       id="path200" />
    <use
       xlink:href="#q"
       transform="translate(648.575,483.4)"
       id="use202"
       x="0"
       y="0"
       width="100%"
       height="100%" />
    <use
       xlink:href="#r"
       transform="translate(679.475,483.4)"
       id="use204"
       x="0"
       y="0"
       width="100%"
       height="100%" />
    <path
       d="m 1209.83,301.58 c -0.57,0.05 -1.02,0.17 -1.48,0.4 l -19.72,9.7 c -1.08,0.53 -1.82,1.44 -2.05,2.63 l -4.9,21.9 c -0.2,1 -0.04,2.04 0.53,2.95 0.06,0.1 0.12,0.17 0.23,0.28 l 13.64,17.5 c 0.74,0.97 1.77,1.48 2.96,1.48 h 21.94 c 1.2,0 2.22,-0.5 2.95,-1.46 l 13.65,-17.5 c 0.73,-0.98 1.02,-2.1 0.73,-3.3 l -4.88,-21.83 c -0.23,-1.18 -0.97,-2.1 -2.05,-2.6 l -19.72,-9.72 c -0.63,-0.3 -1.2,-0.46 -1.82,-0.4 z"
       stroke="#000000"
       stroke-opacity="0"
       stroke-width="3.83"
       fill="#326ce5"
       id="path206" />
    <path
       d="m 1209.82,300 c -0.6,0.06 -1.08,0.18 -1.56,0.42 l -20.82,10.26 c -1.14,0.54 -1.92,1.5 -2.16,2.76 l -5.16,23.1 c -0.24,1.08 -0.06,2.16 0.54,3.12 0.06,0.12 0.12,0.18 0.24,0.3 l 14.4,18.48 c 0.78,1.02 1.86,1.56 3.12,1.56 h 23.16 c 1.26,0 2.34,-0.54 3.12,-1.56 l 14.4,-18.48 c 0.78,-1.02 1.08,-2.22 0.78,-3.48 l -5.16,-23.04 c -0.24,-1.26 -1.02,-2.22 -2.16,-2.76 l -20.82,-10.26 c -0.66,-0.3 -1.26,-0.48 -1.92,-0.42 z m 0,1.62 c 0.66,-0.06 1.2,0.06 1.8,0.36 l 19.8,9.72 c 1.02,0.54 1.74,1.44 2.04,2.64 l 4.86,21.84 c 0.24,1.2 0,2.28 -0.72,3.24 l -13.68,17.52 c -0.72,0.96 -1.74,1.5 -2.94,1.5 h -21.96 c -1.2,0 -2.22,-0.54 -2.94,-1.5 l -13.68,-17.52 c -0.06,-0.06 -0.12,-0.18 -0.18,-0.3 -0.6,-0.9 -0.78,-1.86 -0.54,-2.94 l 4.86,-21.84 c 0.3,-1.2 0.96,-2.1 2.04,-2.64 l 19.8,-9.72 c 0.48,-0.24 0.9,-0.36 1.44,-0.36 z"
       stroke="#000000"
       stroke-opacity="0"
       stroke-width="3.83"
       fill="#ffffff"
       id="path208" />
    <path
       d="m 1207.2,352.2 c 0,0.47 -0.16,0.84 -0.52,1.1 -0.35,0.26 -0.84,0.4 -1.48,0.4 -0.6,0 -1.1,-0.1 -1.43,-0.32 -0.33,-0.2 -0.55,-0.54 -0.65,-0.98 l 0.73,-0.15 c 0.07,0.28 0.22,0.48 0.43,0.6 0.23,0.14 0.53,0.2 0.92,0.2 0.42,0 0.73,-0.07 0.92,-0.2 0.2,-0.13 0.3,-0.34 0.3,-0.6 0,-0.2 -0.07,-0.36 -0.2,-0.5 -0.14,-0.1 -0.36,-0.22 -0.66,-0.3 l -0.6,-0.16 c -0.46,-0.14 -0.8,-0.26 -1,-0.38 -0.2,-0.12 -0.36,-0.27 -0.47,-0.45 -0.12,-0.17 -0.18,-0.38 -0.18,-0.63 0,-0.47 0.16,-0.82 0.48,-1.06 0.32,-0.25 0.8,-0.37 1.4,-0.37 0.56,0 1,0.1 1.3,0.3 0.34,0.2 0.54,0.52 0.63,0.96 l -0.75,0.1 c -0.04,-0.23 -0.16,-0.4 -0.36,-0.53 -0.2,-0.12 -0.47,-0.18 -0.8,-0.18 -0.38,0 -0.66,0.06 -0.83,0.18 -0.2,0.1 -0.28,0.3 -0.28,0.52 0,0.15 0.04,0.27 0.1,0.36 0.08,0.1 0.2,0.2 0.33,0.25 0.15,0.07 0.45,0.16 0.9,0.28 0.45,0.1 0.77,0.2 0.96,0.3 0.2,0.1 0.35,0.22 0.46,0.33 0.1,0.12 0.2,0.25 0.26,0.4 0.07,0.16 0.1,0.33 0.1,0.53 z m 3.16,1.4 h -0.98 l -1.8,-5.12 h 0.88 l 1.1,3.33 0.3,1.13 0.17,-0.55 0.18,-0.56 1.14,-3.34 h 0.87 z m 3.14,-2.58 c 0,0.68 0.1,1.2 0.32,1.5 0.2,0.34 0.52,0.5 0.93,0.5 0.3,0 0.54,-0.08 0.74,-0.24 0.2,-0.17 0.3,-0.42 0.36,-0.75 l 0.83,0.05 c -0.08,0.5 -0.28,0.88 -0.62,1.17 -0.34,0.3 -0.78,0.44 -1.3,0.44 -0.7,0 -1.23,-0.23 -1.6,-0.68 -0.36,-0.45 -0.54,-1.1 -0.54,-1.98 0,-0.86 0.18,-1.52 0.55,-1.97 0.36,-0.45 0.88,-0.68 1.57,-0.68 0.5,0 0.93,0.13 1.26,0.4 0.34,0.27 0.55,0.64 0.63,1.12 l -0.85,0.06 c -0.03,-0.28 -0.14,-0.5 -0.3,-0.67 -0.2,-0.16 -0.43,-0.24 -0.75,-0.24 -0.44,0 -0.76,0.15 -0.95,0.45 -0.2,0.3 -0.3,0.8 -0.3,1.52 z"
       stroke="#000000"
       stroke-opacity="0"
       fill="#ffffff"
       id="path210" />
    <path
       d="m 1191.97,334.56 h 9.67 v 7 h -9.67 z m 13.19,0 h 9.68 v 7 h -9.68 z m 13.2,0 h 9.68 v 7 h -9.68 z m -16.02,-20.74 h 15.32 v 7 h -15.32 z"
       stroke="#000000"
       stroke-opacity="0"
       stroke-width="3.77"
       fill="#ffffff"
       id="path212" />
    <path
       d="m 1209.1,320.82 v 5.96 h -12.3 c -0.48,0 -0.87,0.4 -0.87,0.9 v 6.88 h 1.75 v -5.97 H 1210 c 0.5,0 0.88,-0.4 0.88,-0.9 v -6.88 z"
       stroke="#000000"
       stroke-opacity="0"
       stroke-width="3.77"
       fill="#ffffff"
       id="path214" />
    <path
       d="m 1209.12,320.82 v 6.87 c 0,0.5 0.4,0.9 0.9,0.9 h 12.3 v 5.96 h 1.75 v -6.87 c 0,-0.5 -0.4,-0.92 -0.88,-0.92 h -12.33 v -5.96 z"
       stroke="#000000"
       stroke-opacity="0"
       stroke-width="3.77"
       fill="#ffffff"
       id="path216" />
    <path
       d="m 1209.1,320.82 v 6.87 c 0,0.1 0,0.2 0.05,0.3 v 6.56 h 1.76 v -6.87 c 0,-0.12 0,-0.22 -0.05,-0.33 v -6.55 z"
       stroke="#000000"
       stroke-opacity="0"
       stroke-width="3.77"
       fill="#ffffff"
       id="path218" />
    <use
       xlink:href="#p"
       transform="translate(1184.5,383.4)"
       id="use220"
       x="0"
       y="0"
       width="100%"
       height="100%" />
    <path
       d="m 1209.83,401.58 c -0.57,0.05 -1.02,0.17 -1.48,0.4 l -19.72,9.7 c -1.08,0.53 -1.82,1.44 -2.05,2.63 l -4.9,21.9 c -0.2,1 -0.04,2.04 0.53,2.95 0.06,0.1 0.12,0.17 0.23,0.28 l 13.64,17.5 c 0.74,0.97 1.77,1.48 2.96,1.48 h 21.94 c 1.2,0 2.22,-0.5 2.95,-1.46 l 13.65,-17.5 c 0.73,-0.98 1.02,-2.1 0.73,-3.3 l -4.88,-21.83 c -0.23,-1.18 -0.97,-2.1 -2.05,-2.6 l -19.72,-9.72 c -0.63,-0.3 -1.2,-0.46 -1.82,-0.4 z"
       stroke="#000000"
       stroke-opacity="0"
       stroke-width="3.83"
       fill="#326ce5"
       id="path222" />
    <path
       d="m 1209.82,400 c -0.6,0.06 -1.08,0.18 -1.56,0.42 l -20.82,10.26 c -1.14,0.54 -1.92,1.5 -2.16,2.76 l -5.16,23.1 c -0.24,1.08 -0.06,2.16 0.54,3.12 0.06,0.12 0.12,0.18 0.24,0.3 l 14.4,18.48 c 0.78,1.02 1.86,1.56 3.12,1.56 h 23.16 c 1.26,0 2.34,-0.54 3.12,-1.56 l 14.4,-18.48 c 0.78,-1.02 1.08,-2.22 0.78,-3.48 l -5.16,-23.04 c -0.24,-1.26 -1.02,-2.22 -2.16,-2.76 l -20.82,-10.26 c -0.66,-0.3 -1.26,-0.48 -1.92,-0.42 z m 0,1.62 c 0.66,-0.06 1.2,0.06 1.8,0.36 l 19.8,9.72 c 1.02,0.54 1.74,1.44 2.04,2.64 l 4.86,21.84 c 0.24,1.2 0,2.28 -0.72,3.24 l -13.68,17.52 c -0.72,0.96 -1.74,1.5 -2.94,1.5 h -21.96 c -1.2,0 -2.22,-0.54 -2.94,-1.5 l -13.68,-17.52 c -0.06,-0.06 -0.12,-0.18 -0.18,-0.3 -0.6,-0.9 -0.78,-1.86 -0.54,-2.94 l 4.86,-21.84 c 0.3,-1.2 0.96,-2.1 2.04,-2.64 l 19.8,-9.72 c 0.48,-0.24 0.9,-0.36 1.44,-0.36 z"
       stroke="#000000"
       stroke-opacity="0"
       stroke-width="3.83"
       fill="#ffffff"
       id="path224" />
    <path
       d="m 1207.2,452.2 c 0,0.47 -0.16,0.84 -0.52,1.1 -0.35,0.26 -0.84,0.4 -1.48,0.4 -0.6,0 -1.1,-0.1 -1.43,-0.32 -0.33,-0.2 -0.55,-0.54 -0.65,-0.98 l 0.73,-0.15 c 0.07,0.28 0.22,0.48 0.43,0.6 0.23,0.14 0.53,0.2 0.92,0.2 0.42,0 0.73,-0.07 0.92,-0.2 0.2,-0.13 0.3,-0.34 0.3,-0.6 0,-0.2 -0.07,-0.36 -0.2,-0.5 -0.14,-0.1 -0.36,-0.22 -0.66,-0.3 l -0.6,-0.16 c -0.46,-0.14 -0.8,-0.26 -1,-0.38 -0.2,-0.12 -0.36,-0.27 -0.47,-0.45 -0.12,-0.17 -0.18,-0.38 -0.18,-0.63 0,-0.47 0.16,-0.82 0.48,-1.06 0.32,-0.25 0.8,-0.37 1.4,-0.37 0.56,0 1,0.1 1.3,0.3 0.34,0.2 0.54,0.52 0.63,0.96 l -0.75,0.1 c -0.04,-0.23 -0.16,-0.4 -0.36,-0.53 -0.2,-0.12 -0.47,-0.18 -0.8,-0.18 -0.38,0 -0.66,0.06 -0.83,0.18 -0.2,0.1 -0.28,0.3 -0.28,0.52 0,0.15 0.04,0.27 0.1,0.36 0.08,0.1 0.2,0.2 0.33,0.25 0.15,0.07 0.45,0.16 0.9,0.28 0.45,0.1 0.77,0.2 0.96,0.3 0.2,0.1 0.35,0.22 0.46,0.33 0.1,0.12 0.2,0.25 0.26,0.4 0.07,0.16 0.1,0.33 0.1,0.53 z m 3.16,1.4 h -0.98 l -1.8,-5.12 h 0.88 l 1.1,3.33 0.3,1.13 0.17,-0.55 0.18,-0.56 1.14,-3.34 h 0.87 z m 3.14,-2.58 c 0,0.68 0.1,1.2 0.32,1.5 0.2,0.34 0.52,0.5 0.93,0.5 0.3,0 0.54,-0.08 0.74,-0.24 0.2,-0.17 0.3,-0.42 0.36,-0.75 l 0.83,0.05 c -0.08,0.5 -0.28,0.88 -0.62,1.17 -0.34,0.3 -0.78,0.44 -1.3,0.44 -0.7,0 -1.23,-0.23 -1.6,-0.68 -0.36,-0.45 -0.54,-1.1 -0.54,-1.98 0,-0.86 0.18,-1.52 0.55,-1.97 0.36,-0.45 0.88,-0.68 1.57,-0.68 0.5,0 0.93,0.13 1.26,0.4 0.34,0.27 0.55,0.64 0.63,1.12 l -0.85,0.06 c -0.03,-0.28 -0.14,-0.5 -0.3,-0.67 -0.2,-0.16 -0.43,-0.24 -0.75,-0.24 -0.44,0 -0.76,0.15 -0.95,0.45 -0.2,0.3 -0.3,0.8 -0.3,1.52 z"
       stroke="#000000"
       stroke-opacity="0"
       fill="#ffffff"
       id="path226" />
    <path
       d="m 1191.97,434.56 h 9.67 v 7 h -9.67 z m 13.19,0 h 9.68 v 7 h -9.68 z m 13.2,0 h 9.68 v 7 h -9.68 z m -16.02,-20.74 h 15.32 v 7 h -15.32 z"
       stroke="#000000"
       stroke-opacity="0"
       stroke-width="3.77"
       fill="#ffffff"
       id="path228" />
    <path
       d="m 1209.1,420.82 v 5.96 h -12.3 c -0.48,0 -0.87,0.4 -0.87,0.9 v 6.88 h 1.75 v -5.97 H 1210 c 0.5,0 0.88,-0.4 0.88,-0.9 v -6.88 z"
       stroke="#000000"
       stroke-opacity="0"
       stroke-width="3.77"
       fill="#ffffff"
       id="path230" />
    <path
       d="m 1209.12,420.82 v 6.87 c 0,0.5 0.4,0.9 0.9,0.9 h 12.3 v 5.96 h 1.75 v -6.87 c 0,-0.5 -0.4,-0.92 -0.88,-0.92 h -12.33 v -5.96 z"
       stroke="#000000"
       stroke-opacity="0"
       stroke-width="3.77"
       fill="#ffffff"
       id="path232" />
    <path
       d="m 1209.1,420.82 v 6.87 c 0,0.1 0,0.2 0.05,0.3 v 6.56 h 1.76 v -6.87 c 0,-0.12 0,-0.22 -0.05,-0.33 v -6.55 z"
       stroke="#000000"
       stroke-opacity="0"
       stroke-width="3.77"
       fill="#ffffff"
       id="path234" />
    <use
       xlink:href="#q"
       transform="translate(1168.575,483.4)"
       id="use236"
       x="0"
       y="0"
       width="100%"
       height="100%" />
    <use
       xlink:href="#r"
       transform="translate(1199.475,483.4)"
       id="use238"
       x="0"
       y="0"
       width="100%"
       height="100%" />
    <path
       d="m 1209.83,591.58 c -0.57,0.05 -1.02,0.17 -1.48,0.4 l -19.72,9.7 c -1.08,0.53 -1.82,1.44 -2.05,2.63 l -4.9,21.9 c -0.2,1 -0.04,2.04 0.53,2.95 0.06,0.1 0.12,0.17 0.23,0.28 l 13.64,17.5 c 0.74,0.97 1.77,1.48 2.96,1.48 h 21.94 c 1.2,0 2.22,-0.5 2.95,-1.46 l 13.65,-17.5 c 0.73,-0.98 1.02,-2.1 0.73,-3.3 l -4.88,-21.83 c -0.23,-1.18 -0.97,-2.1 -2.05,-2.6 l -19.72,-9.72 c -0.63,-0.3 -1.2,-0.46 -1.82,-0.4 z"
       stroke="#000000"
       stroke-opacity="0"
       stroke-width="3.83"
       fill="#326ce5"
       id="path240" />
    <path
       d="m 1209.82,590 c -0.6,0.06 -1.08,0.18 -1.56,0.42 l -20.82,10.26 c -1.14,0.54 -1.92,1.5 -2.16,2.76 l -5.16,23.1 c -0.24,1.08 -0.06,2.16 0.54,3.12 0.06,0.12 0.12,0.18 0.24,0.3 l 14.4,18.48 c 0.78,1.02 1.86,1.56 3.12,1.56 h 23.16 c 1.26,0 2.34,-0.54 3.12,-1.56 l 14.4,-18.48 c 0.78,-1.02 1.08,-2.22 0.78,-3.48 l -5.16,-23.04 c -0.24,-1.26 -1.02,-2.22 -2.16,-2.76 l -20.82,-10.26 c -0.66,-0.3 -1.26,-0.48 -1.92,-0.42 z m 0,1.62 c 0.66,-0.06 1.2,0.06 1.8,0.36 l 19.8,9.72 c 1.02,0.54 1.74,1.44 2.04,2.64 l 4.86,21.84 c 0.24,1.2 0,2.28 -0.72,3.24 l -13.68,17.52 c -0.72,0.96 -1.74,1.5 -2.94,1.5 h -21.96 c -1.2,0 -2.22,-0.54 -2.94,-1.5 l -13.68,-17.52 c -0.06,-0.06 -0.12,-0.18 -0.18,-0.3 -0.6,-0.9 -0.78,-1.86 -0.54,-2.94 l 4.86,-21.84 c 0.3,-1.2 0.96,-2.1 2.04,-2.64 l 19.8,-9.72 c 0.48,-0.24 0.9,-0.36 1.44,-0.36 z"
       stroke="#000000"
       stroke-opacity="0"
       stroke-width="3.83"
       fill="#ffffff"
       id="path242" />
    <path
       d="m 1207.2,642.2 c 0,0.47 -0.16,0.84 -0.52,1.1 -0.35,0.26 -0.84,0.4 -1.48,0.4 -0.6,0 -1.1,-0.1 -1.43,-0.32 -0.33,-0.2 -0.55,-0.54 -0.65,-0.98 l 0.73,-0.15 c 0.07,0.28 0.22,0.48 0.43,0.6 0.23,0.14 0.53,0.2 0.92,0.2 0.42,0 0.73,-0.07 0.92,-0.2 0.2,-0.13 0.3,-0.34 0.3,-0.6 0,-0.2 -0.07,-0.36 -0.2,-0.5 -0.14,-0.1 -0.36,-0.22 -0.66,-0.3 l -0.6,-0.16 c -0.46,-0.14 -0.8,-0.26 -1,-0.38 -0.2,-0.12 -0.36,-0.27 -0.47,-0.45 -0.12,-0.17 -0.18,-0.38 -0.18,-0.63 0,-0.47 0.16,-0.82 0.48,-1.06 0.32,-0.25 0.8,-0.37 1.4,-0.37 0.56,0 1,0.1 1.3,0.3 0.34,0.2 0.54,0.52 0.63,0.96 l -0.75,0.1 c -0.04,-0.23 -0.16,-0.4 -0.36,-0.53 -0.2,-0.12 -0.47,-0.18 -0.8,-0.18 -0.38,0 -0.66,0.06 -0.83,0.18 -0.2,0.1 -0.28,0.3 -0.28,0.52 0,0.15 0.04,0.27 0.1,0.36 0.08,0.1 0.2,0.2 0.33,0.25 0.15,0.07 0.45,0.16 0.9,0.28 0.45,0.1 0.77,0.2 0.96,0.3 0.2,0.1 0.35,0.22 0.46,0.33 0.1,0.12 0.2,0.25 0.26,0.4 0.07,0.16 0.1,0.33 0.1,0.53 z m 3.16,1.4 h -0.98 l -1.8,-5.12 h 0.88 l 1.1,3.33 0.3,1.13 0.17,-0.55 0.18,-0.56 1.14,-3.34 h 0.87 z m 3.14,-2.58 c 0,0.68 0.1,1.2 0.32,1.5 0.2,0.34 0.52,0.5 0.93,0.5 0.3,0 0.54,-0.08 0.74,-0.24 0.2,-0.17 0.3,-0.42 0.36,-0.75 l 0.83,0.05 c -0.08,0.5 -0.28,0.88 -0.62,1.17 -0.34,0.3 -0.78,0.44 -1.3,0.44 -0.7,0 -1.23,-0.23 -1.6,-0.68 -0.36,-0.45 -0.54,-1.1 -0.54,-1.98 0,-0.86 0.18,-1.52 0.55,-1.97 0.36,-0.45 0.88,-0.68 1.57,-0.68 0.5,0 0.93,0.13 1.26,0.4 0.34,0.27 0.55,0.64 0.63,1.12 l -0.85,0.06 c -0.03,-0.28 -0.14,-0.5 -0.3,-0.67 -0.2,-0.16 -0.43,-0.24 -0.75,-0.24 -0.44,0 -0.76,0.15 -0.95,0.45 -0.2,0.3 -0.3,0.8 -0.3,1.52 z"
       stroke="#000000"
       stroke-opacity="0"
       fill="#ffffff"
       id="path244" />
    <path
       d="m 1191.97,624.56 h 9.67 v 7 h -9.67 z m 13.19,0 h 9.68 v 7 h -9.68 z m 13.2,0 h 9.68 v 7 h -9.68 z m -16.02,-20.74 h 15.32 v 7 h -15.32 z"
       stroke="#000000"
       stroke-opacity="0"
       stroke-width="3.77"
       fill="#ffffff"
       id="path246" />
    <path
       d="m 1209.1,610.82 v 5.96 h -12.3 c -0.48,0 -0.87,0.4 -0.87,0.9 v 6.88 h 1.75 v -5.97 H 1210 c 0.5,0 0.88,-0.4 0.88,-0.9 v -6.88 z"
       stroke="#000000"
       stroke-opacity="0"
       stroke-width="3.77"
       fill="#ffffff"
       id="path248" />
    <path
       d="m 1209.12,610.82 v 6.87 c 0,0.5 0.4,0.9 0.9,0.9 h 12.3 v 5.96 h 1.75 v -6.87 c 0,-0.5 -0.4,-0.92 -0.88,-0.92 h -12.33 v -5.96 z"
       stroke="#000000"
       stroke-opacity="0"
       stroke-width="3.77"
       fill="#ffffff"
       id="path250" />
    <path
       d="m 1209.1,610.82 v 6.87 c 0,0.1 0,0.2 0.05,0.3 v 6.56 h 1.76 v -6.87 c 0,-0.12 0,-0.22 -0.05,-0.33 v -6.55 z"
       stroke="#000000"
       stroke-opacity="0"
       stroke-width="3.77"
       fill="#ffffff"
       id="path252" />
    <use
       xlink:href="#p"
       transform="translate(1184.5,673.4)"
       id="use254"
       x="0"
       y="0"
       width="100%"
       height="100%" />
    <path
       d="m 1209.83,691.58 c -0.57,0.05 -1.02,0.17 -1.48,0.4 l -19.72,9.7 c -1.08,0.53 -1.82,1.44 -2.05,2.63 l -4.9,21.9 c -0.2,1 -0.04,2.04 0.53,2.95 0.06,0.1 0.12,0.17 0.23,0.28 l 13.64,17.5 c 0.74,0.97 1.77,1.48 2.96,1.48 h 21.94 c 1.2,0 2.22,-0.5 2.95,-1.46 l 13.65,-17.5 c 0.73,-0.98 1.02,-2.1 0.73,-3.3 l -4.88,-21.83 c -0.23,-1.18 -0.97,-2.1 -2.05,-2.6 l -19.72,-9.72 c -0.63,-0.3 -1.2,-0.46 -1.82,-0.4 z"
       stroke="#000000"
       stroke-opacity="0"
       stroke-width="3.83"
       fill="#326ce5"
       id="path256" />
    <path
       d="m 1209.82,690 c -0.6,0.06 -1.08,0.18 -1.56,0.42 l -20.82,10.26 c -1.14,0.54 -1.92,1.5 -2.16,2.76 l -5.16,23.1 c -0.24,1.08 -0.06,2.16 0.54,3.12 0.06,0.12 0.12,0.18 0.24,0.3 l 14.4,18.48 c 0.78,1.02 1.86,1.56 3.12,1.56 h 23.16 c 1.26,0 2.34,-0.54 3.12,-1.56 l 14.4,-18.48 c 0.78,-1.02 1.08,-2.22 0.78,-3.48 l -5.16,-23.04 c -0.24,-1.26 -1.02,-2.22 -2.16,-2.76 l -20.82,-10.26 c -0.66,-0.3 -1.26,-0.48 -1.92,-0.42 z m 0,1.62 c 0.66,-0.06 1.2,0.06 1.8,0.36 l 19.8,9.72 c 1.02,0.54 1.74,1.44 2.04,2.64 l 4.86,21.84 c 0.24,1.2 0,2.28 -0.72,3.24 l -13.68,17.52 c -0.72,0.96 -1.74,1.5 -2.94,1.5 h -21.96 c -1.2,0 -2.22,-0.54 -2.94,-1.5 l -13.68,-17.52 c -0.06,-0.06 -0.12,-0.18 -0.18,-0.3 -0.6,-0.9 -0.78,-1.86 -0.54,-2.94 l 4.86,-21.84 c 0.3,-1.2 0.96,-2.1 2.04,-2.64 l 19.8,-9.72 c 0.48,-0.24 0.9,-0.36 1.44,-0.36 z"
       stroke="#000000"
       stroke-opacity="0"
       stroke-width="3.83"
       fill="#ffffff"
       id="path258" />
    <path
       d="m 1207.2,742.2 c 0,0.47 -0.16,0.84 -0.52,1.1 -0.35,0.26 -0.84,0.4 -1.48,0.4 -0.6,0 -1.1,-0.1 -1.43,-0.32 -0.33,-0.2 -0.55,-0.54 -0.65,-0.98 l 0.73,-0.15 c 0.07,0.28 0.22,0.48 0.43,0.6 0.23,0.14 0.53,0.2 0.92,0.2 0.42,0 0.73,-0.07 0.92,-0.2 0.2,-0.13 0.3,-0.34 0.3,-0.6 0,-0.2 -0.07,-0.36 -0.2,-0.5 -0.14,-0.1 -0.36,-0.22 -0.66,-0.3 l -0.6,-0.16 c -0.46,-0.14 -0.8,-0.26 -1,-0.38 -0.2,-0.12 -0.36,-0.27 -0.47,-0.45 -0.12,-0.17 -0.18,-0.38 -0.18,-0.63 0,-0.47 0.16,-0.82 0.48,-1.06 0.32,-0.25 0.8,-0.37 1.4,-0.37 0.56,0 1,0.1 1.3,0.3 0.34,0.2 0.54,0.52 0.63,0.96 l -0.75,0.1 c -0.04,-0.23 -0.16,-0.4 -0.36,-0.53 -0.2,-0.12 -0.47,-0.18 -0.8,-0.18 -0.38,0 -0.66,0.06 -0.83,0.18 -0.2,0.1 -0.28,0.3 -0.28,0.52 0,0.15 0.04,0.27 0.1,0.36 0.08,0.1 0.2,0.2 0.33,0.25 0.15,0.07 0.45,0.16 0.9,0.28 0.45,0.1 0.77,0.2 0.96,0.3 0.2,0.1 0.35,0.22 0.46,0.33 0.1,0.12 0.2,0.25 0.26,0.4 0.07,0.16 0.1,0.33 0.1,0.53 z m 3.16,1.4 h -0.98 l -1.8,-5.12 h 0.88 l 1.1,3.33 0.3,1.13 0.17,-0.55 0.18,-0.56 1.14,-3.34 h 0.87 z m 3.14,-2.58 c 0,0.68 0.1,1.2 0.32,1.5 0.2,0.34 0.52,0.5 0.93,0.5 0.3,0 0.54,-0.08 0.74,-0.24 0.2,-0.17 0.3,-0.42 0.36,-0.75 l 0.83,0.05 c -0.08,0.5 -0.28,0.88 -0.62,1.17 -0.34,0.3 -0.78,0.44 -1.3,0.44 -0.7,0 -1.23,-0.23 -1.6,-0.68 -0.36,-0.45 -0.54,-1.1 -0.54,-1.98 0,-0.86 0.18,-1.52 0.55,-1.97 0.36,-0.45 0.88,-0.68 1.57,-0.68 0.5,0 0.93,0.13 1.26,0.4 0.34,0.27 0.55,0.64 0.63,1.12 l -0.85,0.06 c -0.03,-0.28 -0.14,-0.5 -0.3,-0.67 -0.2,-0.16 -0.43,-0.24 -0.75,-0.24 -0.44,0 -0.76,0.15 -0.95,0.45 -0.2,0.3 -0.3,0.8 -0.3,1.52 z"
       stroke="#000000"
       stroke-opacity="0"
       fill="#ffffff"
       id="path260" />
    <path
       d="m 1191.97,724.56 h 9.67 v 7 h -9.67 z m 13.19,0 h 9.68 v 7 h -9.68 z m 13.2,0 h 9.68 v 7 h -9.68 z m -16.02,-20.74 h 15.32 v 7 h -15.32 z"
       stroke="#000000"
       stroke-opacity="0"
       stroke-width="3.77"
       fill="#ffffff"
       id="path262" />
    <path
       d="m 1209.1,710.82 v 5.96 h -12.3 c -0.48,0 -0.87,0.4 -0.87,0.9 v 6.88 h 1.75 v -5.97 H 1210 c 0.5,0 0.88,-0.4 0.88,-0.9 v -6.88 z"
       stroke="#000000"
       stroke-opacity="0"
       stroke-width="3.77"
       fill="#ffffff"
       id="path264" />
    <path
       d="m 1209.12,710.82 v 6.87 c 0,0.5 0.4,0.9 0.9,0.9 h 12.3 v 5.96 h 1.75 v -6.87 c 0,-0.5 -0.4,-0.92 -0.88,-0.92 h -12.33 v -5.96 z"
       stroke="#000000"
       stroke-opacity="0"
       stroke-width="3.77"
       fill="#ffffff"
       id="path266" />
    <path
       d="m 1209.1,710.82 v 6.87 c 0,0.1 0,0.2 0.05,0.3 v 6.56 h 1.76 v -6.87 c 0,-0.12 0,-0.22 -0.05,-0.33 v -6.55 z"
       stroke="#000000"
       stroke-opacity="0"
       stroke-width="3.77"
       fill="#ffffff"
       id="path268" />
    <use
       xlink:href="#q"
       transform="translate(1168.575,773.4)"
       id="use270"
       x="0"
       y="0"
       width="100%"
       height="100%" />
    <use
       xlink:href="#r"
       transform="translate(1199.475,773.4)"
       id="use272"
       x="0"
       y="0"
       width="100%"
       height="100%" />
    <path
       d="m 229.83,591.58 c -0.57,0.05 -1.02,0.17 -1.48,0.4 l -19.72,9.7 c -1.08,0.53 -1.82,1.44 -2.05,2.63 l -4.9,21.9 c -0.2,1 -0.04,2.04 0.53,2.95 0.06,0.1 0.12,0.17 0.23,0.28 l 13.64,17.5 c 0.74,0.97 1.77,1.48 2.96,1.48 h 21.94 c 1.2,0 2.22,-0.5 2.95,-1.46 l 13.65,-17.5 c 0.73,-0.98 1.02,-2.1 0.73,-3.3 l -4.88,-21.83 c -0.23,-1.18 -0.97,-2.1 -2.05,-2.6 l -19.72,-9.72 c -0.63,-0.3 -1.2,-0.46 -1.82,-0.4 z"
       stroke="#000000"
       stroke-opacity="0"
       stroke-width="3.83"
       fill="#326ce5"
       id="path274" />
    <path
       d="m 229.82,590 c -0.6,0.06 -1.08,0.18 -1.56,0.42 l -20.82,10.26 c -1.14,0.54 -1.92,1.5 -2.16,2.76 l -5.16,23.1 c -0.24,1.08 -0.06,2.16 0.54,3.12 0.06,0.12 0.12,0.18 0.24,0.3 l 14.4,18.48 c 0.78,1.02 1.86,1.56 3.12,1.56 h 23.16 c 1.26,0 2.34,-0.54 3.12,-1.56 l 14.4,-18.48 c 0.78,-1.02 1.08,-2.22 0.78,-3.48 l -5.16,-23.04 c -0.24,-1.26 -1.02,-2.22 -2.16,-2.76 l -20.82,-10.26 c -0.66,-0.3 -1.26,-0.48 -1.92,-0.42 z m 0,1.62 c 0.66,-0.06 1.2,0.06 1.8,0.36 l 19.8,9.72 c 1.02,0.54 1.74,1.44 2.04,2.64 l 4.86,21.84 c 0.24,1.2 0,2.28 -0.72,3.24 l -13.68,17.52 c -0.72,0.96 -1.74,1.5 -2.94,1.5 h -21.96 c -1.2,0 -2.22,-0.54 -2.94,-1.5 L 202.4,629.42 c -0.06,-0.06 -0.12,-0.18 -0.18,-0.3 -0.6,-0.9 -0.78,-1.86 -0.54,-2.94 l 4.86,-21.84 c 0.3,-1.2 0.96,-2.1 2.04,-2.64 l 19.8,-9.72 c 0.48,-0.24 0.9,-0.36 1.44,-0.36 z"
       stroke="#000000"
       stroke-opacity="0"
       stroke-width="3.83"
       fill="#ffffff"
       id="path276" />
    <path
       d="m 227.2,642.2 c 0,0.47 -0.16,0.84 -0.52,1.1 -0.35,0.26 -0.84,0.4 -1.48,0.4 -0.6,0 -1.1,-0.1 -1.43,-0.32 -0.33,-0.2 -0.55,-0.54 -0.65,-0.98 l 0.73,-0.15 c 0.07,0.28 0.22,0.48 0.43,0.6 0.23,0.14 0.53,0.2 0.92,0.2 0.42,0 0.73,-0.07 0.92,-0.2 0.2,-0.13 0.3,-0.34 0.3,-0.6 0,-0.2 -0.07,-0.36 -0.2,-0.5 -0.14,-0.1 -0.36,-0.22 -0.66,-0.3 l -0.6,-0.16 c -0.46,-0.14 -0.8,-0.26 -1,-0.38 -0.2,-0.12 -0.36,-0.27 -0.47,-0.45 -0.12,-0.17 -0.18,-0.38 -0.18,-0.63 0,-0.47 0.16,-0.82 0.48,-1.06 0.32,-0.25 0.8,-0.37 1.4,-0.37 0.56,0 1,0.1 1.3,0.3 0.34,0.2 0.54,0.52 0.63,0.96 l -0.75,0.1 c -0.04,-0.23 -0.16,-0.4 -0.36,-0.53 -0.2,-0.12 -0.47,-0.18 -0.8,-0.18 -0.38,0 -0.66,0.06 -0.83,0.18 -0.2,0.1 -0.28,0.3 -0.28,0.52 0,0.15 0.04,0.27 0.1,0.36 0.08,0.1 0.2,0.2 0.33,0.25 0.15,0.07 0.45,0.16 0.9,0.28 0.45,0.1 0.77,0.2 0.96,0.3 0.2,0.1 0.35,0.22 0.46,0.33 0.1,0.12 0.2,0.25 0.26,0.4 0.07,0.16 0.1,0.33 0.1,0.53 z m 3.16,1.4 h -0.98 l -1.8,-5.12 h 0.88 l 1.1,3.33 0.3,1.13 0.17,-0.55 0.18,-0.56 1.14,-3.34 h 0.87 z m 3.14,-2.58 c 0,0.68 0.1,1.2 0.32,1.5 0.2,0.34 0.52,0.5 0.93,0.5 0.3,0 0.54,-0.08 0.74,-0.24 0.2,-0.17 0.3,-0.42 0.36,-0.75 l 0.83,0.05 c -0.08,0.5 -0.28,0.88 -0.62,1.17 -0.34,0.3 -0.78,0.44 -1.3,0.44 -0.7,0 -1.23,-0.23 -1.6,-0.68 -0.36,-0.45 -0.54,-1.1 -0.54,-1.98 0,-0.86 0.18,-1.52 0.55,-1.97 0.36,-0.45 0.88,-0.68 1.57,-0.68 0.5,0 0.93,0.13 1.26,0.4 0.34,0.27 0.55,0.64 0.63,1.12 l -0.85,0.06 c -0.03,-0.28 -0.14,-0.5 -0.3,-0.67 -0.2,-0.16 -0.43,-0.24 -0.75,-0.24 -0.44,0 -0.76,0.15 -0.95,0.45 -0.2,0.3 -0.3,0.8 -0.3,1.52 z"
       stroke="#000000"
       stroke-opacity="0"
       fill="#ffffff"
       id="path278" />
    <path
       d="m 211.97,624.56 h 9.67 v 7 h -9.67 z m 13.19,0 h 9.68 v 7 h -9.68 z m 13.2,0 h 9.68 v 7 h -9.68 z m -16.02,-20.74 h 15.32 v 7 h -15.32 z"
       stroke="#000000"
       stroke-opacity="0"
       stroke-width="3.77"
       fill="#ffffff"
       id="path280" />
    <path
       d="m 229.1,610.82 v 5.96 h -12.3 c -0.48,0 -0.87,0.4 -0.87,0.9 v 6.88 h 1.75 v -5.97 H 230 c 0.5,0 0.88,-0.4 0.88,-0.9 v -6.88 z"
       stroke="#000000"
       stroke-opacity="0"
       stroke-width="3.77"
       fill="#ffffff"
       id="path282" />
    <path
       d="m 229.12,610.82 v 6.87 c 0,0.5 0.4,0.9 0.9,0.9 h 12.3 v 5.96 h 1.75 v -6.87 c 0,-0.5 -0.4,-0.92 -0.88,-0.92 h -12.33 v -5.96 z"
       stroke="#000000"
       stroke-opacity="0"
       stroke-width="3.77"
       fill="#ffffff"
       id="path284" />
    <path
       d="m 229.1,610.82 v 6.87 c 0,0.1 0,0.2 0.05,0.3 v 6.56 h 1.76 v -6.87 c 0,-0.12 0,-0.22 -0.05,-0.33 v -6.55 z"
       stroke="#000000"
       stroke-opacity="0"
       stroke-width="3.77"
       fill="#ffffff"
       id="path286" />
    <g
       id="g290">
      <use
         xlink:href="#p"
         transform="translate(204.5,673.4)"
         id="use288"
         x="0"
         y="0"
         width="100%"
         height="100%" />
    </g>
    <path
       d="m 229.83,691.58 c -0.57,0.05 -1.02,0.17 -1.48,0.4 l -19.72,9.7 c -1.08,0.53 -1.82,1.44 -2.05,2.63 l -4.9,21.9 c -0.2,1 -0.04,2.04 0.53,2.95 0.06,0.1 0.12,0.17 0.23,0.28 l 13.64,17.5 c 0.74,0.97 1.77,1.48 2.96,1.48 h 21.94 c 1.2,0 2.22,-0.5 2.95,-1.46 l 13.65,-17.5 c 0.73,-0.98 1.02,-2.1 0.73,-3.3 l -4.88,-21.83 c -0.23,-1.18 -0.97,-2.1 -2.05,-2.6 l -19.72,-9.72 c -0.63,-0.3 -1.2,-0.46 -1.82,-0.4 z"
       stroke="#000000"
       stroke-opacity="0"
       stroke-width="3.83"
       fill="#326ce5"
       id="path292" />
    <path
       d="m 229.82,690 c -0.6,0.06 -1.08,0.18 -1.56,0.42 l -20.82,10.26 c -1.14,0.54 -1.92,1.5 -2.16,2.76 l -5.16,23.1 c -0.24,1.08 -0.06,2.16 0.54,3.12 0.06,0.12 0.12,0.18 0.24,0.3 l 14.4,18.48 c 0.78,1.02 1.86,1.56 3.12,1.56 h 23.16 c 1.26,0 2.34,-0.54 3.12,-1.56 l 14.4,-18.48 c 0.78,-1.02 1.08,-2.22 0.78,-3.48 l -5.16,-23.04 c -0.24,-1.26 -1.02,-2.22 -2.16,-2.76 l -20.82,-10.26 c -0.66,-0.3 -1.26,-0.48 -1.92,-0.42 z m 0,1.62 c 0.66,-0.06 1.2,0.06 1.8,0.36 l 19.8,9.72 c 1.02,0.54 1.74,1.44 2.04,2.64 l 4.86,21.84 c 0.24,1.2 0,2.28 -0.72,3.24 l -13.68,17.52 c -0.72,0.96 -1.74,1.5 -2.94,1.5 h -21.96 c -1.2,0 -2.22,-0.54 -2.94,-1.5 L 202.4,729.42 c -0.06,-0.06 -0.12,-0.18 -0.18,-0.3 -0.6,-0.9 -0.78,-1.86 -0.54,-2.94 l 4.86,-21.84 c 0.3,-1.2 0.96,-2.1 2.04,-2.64 l 19.8,-9.72 c 0.48,-0.24 0.9,-0.36 1.44,-0.36 z"
       stroke="#000000"
       stroke-opacity="0"
       stroke-width="3.83"
       fill="#ffffff"
       id="path294" />
    <path
       d="m 227.2,742.2 c 0,0.47 -0.16,0.84 -0.52,1.1 -0.35,0.26 -0.84,0.4 -1.48,0.4 -0.6,0 -1.1,-0.1 -1.43,-0.32 -0.33,-0.2 -0.55,-0.54 -0.65,-0.98 l 0.73,-0.15 c 0.07,0.28 0.22,0.48 0.43,0.6 0.23,0.14 0.53,0.2 0.92,0.2 0.42,0 0.73,-0.07 0.92,-0.2 0.2,-0.13 0.3,-0.34 0.3,-0.6 0,-0.2 -0.07,-0.36 -0.2,-0.5 -0.14,-0.1 -0.36,-0.22 -0.66,-0.3 l -0.6,-0.16 c -0.46,-0.14 -0.8,-0.26 -1,-0.38 -0.2,-0.12 -0.36,-0.27 -0.47,-0.45 -0.12,-0.17 -0.18,-0.38 -0.18,-0.63 0,-0.47 0.16,-0.82 0.48,-1.06 0.32,-0.25 0.8,-0.37 1.4,-0.37 0.56,0 1,0.1 1.3,0.3 0.34,0.2 0.54,0.52 0.63,0.96 l -0.75,0.1 c -0.04,-0.23 -0.16,-0.4 -0.36,-0.53 -0.2,-0.12 -0.47,-0.18 -0.8,-0.18 -0.38,0 -0.66,0.06 -0.83,0.18 -0.2,0.1 -0.28,0.3 -0.28,0.52 0,0.15 0.04,0.27 0.1,0.36 0.08,0.1 0.2,0.2 0.33,0.25 0.15,0.07 0.45,0.16 0.9,0.28 0.45,0.1 0.77,0.2 0.96,0.3 0.2,0.1 0.35,0.22 0.46,0.33 0.1,0.12 0.2,0.25 0.26,0.4 0.07,0.16 0.1,0.33 0.1,0.53 z m 3.16,1.4 h -0.98 l -1.8,-5.12 h 0.88 l 1.1,3.33 0.3,1.13 0.17,-0.55 0.18,-0.56 1.14,-3.34 h 0.87 z m 3.14,-2.58 c 0,0.68 0.1,1.2 0.32,1.5 0.2,0.34 0.52,0.5 0.93,0.5 0.3,0 0.54,-0.08 0.74,-0.24 0.2,-0.17 0.3,-0.42 0.36,-0.75 l 0.83,0.05 c -0.08,0.5 -0.28,0.88 -0.62,1.17 -0.34,0.3 -0.78,0.44 -1.3,0.44 -0.7,0 -1.23,-0.23 -1.6,-0.68 -0.36,-0.45 -0.54,-1.1 -0.54,-1.98 0,-0.86 0.18,-1.52 0.55,-1.97 0.36,-0.45 0.88,-0.68 1.57,-0.68 0.5,0 0.93,0.13 1.26,0.4 0.34,0.27 0.55,0.64 0.63,1.12 l -0.85,0.06 c -0.03,-0.28 -0.14,-0.5 -0.3,-0.67 -0.2,-0.16 -0.43,-0.24 -0.75,-0.24 -0.44,0 -0.76,0.15 -0.95,0.45 -0.2,0.3 -0.3,0.8 -0.3,1.52 z"
       stroke="#000000"
       stroke-opacity="0"
       fill="#ffffff"
       id="path296" />
    <path
       d="m 211.97,724.56 h 9.67 v 7 h -9.67 z m 13.19,0 h 9.68 v 7 h -9.68 z m 13.2,0 h 9.68 v 7 h -9.68 z m -16.02,-20.74 h 15.32 v 7 h -15.32 z"
       stroke="#000000"
       stroke-opacity="0"
       stroke-width="3.77"
       fill="#ffffff"
       id="path298" />
    <path
       d="m 229.1,710.82 v 5.96 h -12.3 c -0.48,0 -0.87,0.4 -0.87,0.9 v 6.88 h 1.75 v -5.97 H 230 c 0.5,0 0.88,-0.4 0.88,-0.9 v -6.88 z"
       stroke="#000000"
       stroke-opacity="0"
       stroke-width="3.77"
       fill="#ffffff"
       id="path300" />
    <path
       d="m 229.12,710.82 v 6.87 c 0,0.5 0.4,0.9 0.9,0.9 h 12.3 v 5.96 h 1.75 v -6.87 c 0,-0.5 -0.4,-0.92 -0.88,-0.92 h -12.33 v -5.96 z"
       stroke="#000000"
       stroke-opacity="0"
       stroke-width="3.77"
       fill="#ffffff"
       id="path302" />
    <path
       d="m 229.1,710.82 v 6.87 c 0,0.1 0,0.2 0.05,0.3 v 6.56 h 1.76 v -6.87 c 0,-0.12 0,-0.22 -0.05,-0.33 v -6.55 z"
       stroke="#000000"
       stroke-opacity="0"
       stroke-width="3.77"
       fill="#ffffff"
       id="path304" />
    <g
       id="g310">
      <use
         xlink:href="#q"
         transform="translate(188.575,773.4)"
         id="use306"
         x="0"
         y="0"
         width="100%"
         height="100%" />
      <use
         xlink:href="#r"
         transform="translate(219.475,773.4)"
         id="use308"
         x="0"
         y="0"
         width="100%"
         height="100%" />
    </g>
    <defs
       id="defs527">
      <path
         d="m 688,-137 c 238,0 323,-102 359,-325 h 193 C 1208,-165 1012,20 688,20 327,20 119,-279 119,-660 c 0,-197 8,-360 73,-497 88,-186 257,-317 513,-319 316,-2 509,195 535,488 h -193 c -31,-212 -118,-330 -342,-330 -272,0 -397,224 -393,523 v 141 c -3,282 115,517 376,517"
         id="s" />
      <path
         d="M 341,0 H 156 V -1536 H 341 V 0"
         id="t" />
      <path
         d="M 491,20 C 250,19 136,-128 136,-378 v -704 h 185 v 699 c 0,164 67,246 200,246 141,0 235,-53 282,-158 v -787 H 988 V 0 H 812 l -4,-107 C 736,-22 630,20 491,20"
         id="u" />
      <path
         d="m 538,-131 c 121,0 232,-49 232,-156 0,-50 -20,-88 -56,-117 -73,-60 -334,-92 -420,-143 -92,-55 -162,-110 -162,-238 0,-190 192,-317 400,-317 223,0 414,129 413,338 H 759 c 0,-108 -110,-186 -227,-186 -119,0 -215,53 -215,159 0,45 18,78 53,101 76,52 331,90 416,139 98,57 169,115 169,251 C 955,-92 760,20 538,20 362,20 224,-48 152,-154 114,-209 95,-269 95,-333 h 185 c 6,129 116,202 258,202"
         id="v" />
      <path
         d="M 456,20 C 285,20 205,-92 206,-268 V -939 H 9 v -143 h 197 v -262 h 185 v 262 h 202 v 143 H 391 v 671 c -9,125 92,149 207,118 V 0 C 549,13 502,20 456,20"
         id="w" />
      <path
         d="m 599,-131 c 141,0 220,-65 285,-146 l 113,88 C 906,-50 770,20 589,20 281,21 93,-214 93,-545 c 0,-223 93,-397 233,-485 74,-48 154,-72 240,-72 300,2 449,218 445,537 v 77 H 278 c 0,197 129,357 321,357 z m 227,-509 c -3,-180 -88,-310 -260,-310 -170,0 -264,140 -282,310 h 542"
         id="x" />
      <path
         d="m 663,-916 c -163,-27 -288,18 -338,148 V 0 H 140 v -1082 h 180 l 3,125 c 61,-97 147,-145 258,-145 36,0 63,5 82,14 v 172"
         id="y" />
      <g
         id="a">
        <use
           transform="scale(0.00878906)"
           xlink:href="#s"
           id="use319"
           x="0"
           y="0"
           width="100%"
           height="100%" />
        <use
           transform="matrix(0.00878906,0,0,0.00878906,11.71582,0)"
           xlink:href="#t"
           id="use321"
           x="0"
           y="0"
           width="100%"
           height="100%" />
        <use
           transform="matrix(0.00878906,0,0,0.00878906,16.083984,0)"
           xlink:href="#u"
           id="use323"
           x="0"
           y="0"
           width="100%"
           height="100%" />
        <use
           transform="matrix(0.00878906,0,0,0.00878906,26.006836,0)"
           xlink:href="#v"
           id="use325"
           x="0"
           y="0"
           width="100%"
           height="100%" />
        <use
           transform="matrix(0.00878906,0,0,0.00878906,35.288086,0)"
           xlink:href="#w"
           id="use327"
           x="0"
           y="0"
           width="100%"
           height="100%" />
        <use
           transform="matrix(0.00878906,0,0,0.00878906,41.167969,0)"
           xlink:href="#x"
           id="use329"
           x="0"
           y="0"
           width="100%"
           height="100%" />
        <use
           transform="matrix(0.00878906,0,0,0.00878906,50.704102,0)"
           xlink:href="#y"
           id="use331"
           x="0"
           y="0"
           width="100%"
           height="100%" />
      </g>
      <path
         d="M 972,-643 H 361 V 0 H 169 v -1456 h 902 v 158 H 361 v 498 h 611 v 157"
         id="z" />
      <path
         d="m 561,-1102 c 238,-4 403,126 403,351 v 498 c 0,99 13,178 38,237 V 0 H 808 C 797,-21 789,-59 782,-114 696,-25 593,20 474,20 275,20 106,-110 109,-300 c 4,-251 214,-359 490,-356 h 180 v -85 c -1,-135 -86,-212 -229,-212 -115,0 -232,67 -233,171 H 131 c 20,-205 206,-316 430,-320 z m -267,776 c 0,117 90,185 207,185 122,0 239,-75 278,-162 V -525 H 634 c -227,0 -340,66 -340,199"
         id="A" />
      <path
         d="M 341,0 H 156 v -1082 h 185 z m -91,-1264 c -68,0 -108,-42 -109,-105 0,-62 41,-107 109,-107 68,0 110,44 110,107 0,63 -42,105 -110,105"
         id="B" />
      <g
         id="b">
        <use
           transform="scale(0.00878906)"
           xlink:href="#z"
           id="use337"
           x="0"
           y="0"
           width="100%"
           height="100%" />
        <use
           transform="matrix(0.00878906,0,0,0.00878906,9.6503906,0)"
           xlink:href="#A"
           id="use339"
           x="0"
           y="0"
           width="100%"
           height="100%" />
        <use
           transform="matrix(0.00878906,0,0,0.00878906,19.441406,0)"
           xlink:href="#B"
           id="use341"
           x="0"
           y="0"
           width="100%"
           height="100%" />
        <use
           transform="matrix(0.00878906,0,0,0.00878906,23.80957,0)"
           xlink:href="#t"
           id="use343"
           x="0"
           y="0"
           width="100%"
           height="100%" />
        <use
           transform="matrix(0.00878906,0,0,0.00878906,28.177734,0)"
           xlink:href="#u"
           id="use345"
           x="0"
           y="0"
           width="100%"
           height="100%" />
        <use
           transform="matrix(0.00878906,0,0,0.00878906,38.100586,0)"
           xlink:href="#y"
           id="use347"
           x="0"
           y="0"
           width="100%"
           height="100%" />
        <use
           transform="matrix(0.00878906,0,0,0.00878906,44.024414,0)"
           xlink:href="#x"
           id="use349"
           x="0"
           y="0"
           width="100%"
           height="100%" />
      </g>
      <path
         d="m 313,-157 h 833 V 0 H 86 V -144 L 884,-1298 H 99 v -158 h 1015 v 141"
         id="C" />
      <path
         d="M 584,20 C 278,26 81,-227 91,-551 c 10,-320 175,-545 491,-551 308,-5 503,247 494,573 -9,322 -175,543 -492,549 z m -2,-970 c -208,0 -305,185 -305,421 0,216 106,398 307,398 211,0 307,-186 307,-420 0,-214 -109,-399 -309,-399"
         id="D" />
      <path
         d="m 589,-945 c -131,0 -219,81 -264,174 V 0 H 140 v -1082 h 175 l 6,136 c 83,-104 191,-156 324,-156 229,0 346,129 346,387 V 0 H 806 v -716 c -2,-153 -65,-229 -217,-229"
         id="E" />
      <g
         id="c">
        <use
           transform="scale(0.00878906)"
           xlink:href="#C"
           id="use355"
           x="0"
           y="0"
           width="100%"
           height="100%" />
        <use
           transform="matrix(0.00878906,0,0,0.00878906,10.59082,0)"
           xlink:href="#D"
           id="use357"
           x="0"
           y="0"
           width="100%"
           height="100%" />
        <use
           transform="matrix(0.00878906,0,0,0.00878906,20.856445,0)"
           xlink:href="#E"
           id="use359"
           x="0"
           y="0"
           width="100%"
           height="100%" />
        <use
           transform="matrix(0.00878906,0,0,0.00878906,30.788086,0)"
           xlink:href="#x"
           id="use361"
           x="0"
           y="0"
           width="100%"
           height="100%" />
      </g>
      <path
         d="M 973,-380 H 363 L 226,0 H 28 L 584,-1456 H 752 L 1309,0 H 1112 Z M 421,-538 h 495 l -248,-681"
         id="F" />
      <use
         transform="scale(0.00878906)"
         xlink:href="#F"
         id="d"
         x="0"
         y="0"
         width="100%"
         height="100%" />
      <path
         d="M 1160,-420 C 1159,-145 963,0 674,0 H 169 v -1456 h 476 c 294,-1 476,112 476,388 0,153 -99,253 -216,302 146,38 255,167 255,346 z m -482,263 c 171,2 289,-95 289,-261 0,-175 -95,-263 -286,-263 H 361 v 524 z m 250,-912 c -2,-172 -104,-229 -283,-229 H 361 v 463 h 290 c 157,3 278,-84 277,-234"
         id="G" />
      <use
         transform="scale(0.00878906)"
         xlink:href="#G"
         id="e"
         x="0"
         y="0"
         width="100%"
         height="100%" />
      <use
         transform="scale(0.00878906)"
         xlink:href="#s"
         id="f"
         x="0"
         y="0"
         width="100%"
         height="100%" />
      <path
         d="m 483,-459 28,192 41,-173 288,-1016 h 162 l 281,1016 40,176 31,-196 226,-996 h 193 L 1420,0 H 1245 L 945,-1061 922,-1172 899,-1061 588,0 H 413 L 61,-1456 h 192"
         id="H" />
      <path
         d="M 442,-501 326,-380 V 0 H 141 v -1536 h 185 v 929 c 135,-169 291,-317 436,-475 H 987 L 566,-630 1036,0 H 819"
         id="I" />
      <g
         id="g">
        <use
           transform="scale(0.00878906)"
           xlink:href="#H"
           id="use371"
           x="0"
           y="0"
           width="100%"
           height="100%" />
        <use
           transform="matrix(0.00878906,0,0,0.00878906,15.697266,0)"
           xlink:href="#D"
           id="use373"
           x="0"
           y="0"
           width="100%"
           height="100%" />
        <use
           transform="matrix(0.00878906,0,0,0.00878906,25.962891,0)"
           xlink:href="#y"
           id="use375"
           x="0"
           y="0"
           width="100%"
           height="100%" />
        <use
           transform="matrix(0.00878906,0,0,0.00878906,32.053711,0)"
           xlink:href="#I"
           id="use377"
           x="0"
           y="0"
           width="100%"
           height="100%" />
        <use
           transform="matrix(0.00878906,0,0,0.00878906,41.000977,0)"
           xlink:href="#x"
           id="use379"
           x="0"
           y="0"
           width="100%"
           height="100%" />
        <use
           transform="matrix(0.00878906,0,0,0.00878906,50.537109,0)"
           xlink:href="#y"
           id="use381"
           x="0"
           y="0"
           width="100%"
           height="100%" />
      </g>
      <path
         d="M 1288,0 H 1095 L 362,-1122 V 0 H 169 v -1456 h 193 l 735,1127 v -1127 h 191 V 0"
         id="J" />
      <path
         d="M 520,20 C 244,20 95,-247 95,-550 c 0,-298 151,-550 427,-552 127,0 227,43 301,130 v -564 h 185 V 0 H 838 l -9,-116 C 755,-25 652,20 520,20 Z m 48,-965 c -210,0 -288,177 -288,416 0,218 87,392 286,392 117,0 203,-53 257,-158 V -792 C 768,-894 683,-945 568,-945"
         id="K" />
      <g
         id="h">
        <use
           transform="scale(0.00878906)"
           xlink:href="#J"
           id="use386"
           x="0"
           y="0"
           width="100%"
           height="100%" />
        <use
           transform="matrix(0.00878906,0,0,0.00878906,12.832031,0)"
           xlink:href="#D"
           id="use388"
           x="0"
           y="0"
           width="100%"
           height="100%" />
        <use
           transform="matrix(0.00878906,0,0,0.00878906,23.097656,0)"
           xlink:href="#K"
           id="use390"
           x="0"
           y="0"
           width="100%"
           height="100%" />
        <use
           transform="matrix(0.00878906,0,0,0.00878906,33.249023,0)"
           xlink:href="#x"
           id="use392"
           x="0"
           y="0"
           width="100%"
           height="100%" />
      </g>
      <path
         d="m 1240,-945 c -141,0 -250,95 -250,227 V 0 H 804 v -709 c 0,-157 -77,-236 -231,-236 -121,0 -204,52 -249,155 V 0 H 139 v -1082 h 175 l 5,120 c 79,-93 186,-140 321,-140 151,0 254,58 309,174 69,-98 181,-174 345,-174 237,0 362,126 362,377 V 0 h -185 v -714 c -2,-159 -67,-231 -231,-231"
         id="L" />
      <path
         d="m 632,-1102 c 291,0 422,251 422,573 C 1054,-232 913,19 635,20 504,20 400,-22 325,-105 V 416 H 140 v -1498 h 169 l 9,120 c 75,-93 180,-140 314,-140 z m -53,971 c 207,0 290,-180 290,-419 0,-218 -92,-395 -292,-395 -112,0 -196,50 -252,149 v 517 c 55,99 140,148 254,148"
         id="M" />
      <path
         d="m 277,-555 c 0,244 77,420 297,424 127,2 249,-93 255,-210 h 175 C 980,-127 805,20 574,20 258,20 81,-222 92,-562 c 11,-319 164,-533 481,-540 237,-5 426,165 431,392 H 829 c -7,-133 -115,-242 -256,-240 -209,4 -296,166 -296,395"
         id="N" />
      <g
         id="i">
        <use
           transform="scale(0.00878906)"
           xlink:href="#J"
           id="use398"
           x="0"
           y="0"
           width="100%"
           height="100%" />
        <use
           transform="matrix(0.00878906,0,0,0.00878906,12.832031,0)"
           xlink:href="#A"
           id="use400"
           x="0"
           y="0"
           width="100%"
           height="100%" />
        <use
           transform="matrix(0.00878906,0,0,0.00878906,22.623047,0)"
           xlink:href="#L"
           id="use402"
           x="0"
           y="0"
           width="100%"
           height="100%" />
        <use
           transform="matrix(0.00878906,0,0,0.00878906,38.399414,0)"
           xlink:href="#x"
           id="use404"
           x="0"
           y="0"
           width="100%"
           height="100%" />
        <use
           transform="matrix(0.00878906,0,0,0.00878906,47.935547,0)"
           xlink:href="#v"
           id="use406"
           x="0"
           y="0"
           width="100%"
           height="100%" />
        <use
           transform="matrix(0.00878906,0,0,0.00878906,57.216797,0)"
           xlink:href="#M"
           id="use408"
           x="0"
           y="0"
           width="100%"
           height="100%" />
        <use
           transform="matrix(0.00878906,0,0,0.00878906,67.31543,0)"
           xlink:href="#A"
           id="use410"
           x="0"
           y="0"
           width="100%"
           height="100%" />
        <use
           transform="matrix(0.00878906,0,0,0.00878906,77.106445,0)"
           xlink:href="#N"
           id="use412"
           x="0"
           y="0"
           width="100%"
           height="100%" />
        <use
           transform="matrix(0.00878906,0,0,0.00878906,86.52832,0)"
           xlink:href="#x"
           id="use414"
           x="0"
           y="0"
           width="100%"
           height="100%" />
      </g>
      <path
         d="m 96,-169 c -40,0 -48,33 -48,73 0,40 9,75 48,75 24,0 41,-14 43,-38 l 32,2 C 165,-20 140,4 97,4 38,4 21,-37 15,-95 c -10,-93 101,-131 147,-64 4,7 5,14 7,22 l -32,3 c -4,-21 -16,-35 -41,-35"
         id="O" />
      <path
         d="M 141,-36 C 126,-15 110,5 73,4 37,3 15,-17 15,-53 c -1,-64 63,-63 125,-63 3,-35 -9,-54 -41,-54 -24,1 -41,7 -42,31 l -33,-3 c 5,-37 33,-52 76,-52 45,0 72,20 72,64 v 82 c -1,20 7,32 28,27 V -1 C 169,8 139,-3 141,-36 Z M 48,-53 c 0,20 12,33 32,33 41,-3 63,-29 60,-74 -43,2 -92,-5 -92,41"
         id="P" />
      <path
         d="m 135,-143 c -3,-34 -86,-38 -87,0 15,53 115,12 119,90 4,78 -150,74 -157,8 l 28,-5 c 4,36 97,45 98,0 -10,-56 -113,-15 -118,-90 -4,-57 82,-63 122,-42 12,7 21,19 24,35"
         id="Q" />
      <path
         d="m 16,-82 v -28 h 88 v 28 H 16"
         id="R" />
      <path
         d="m 100,-194 c 62,-1 85,37 85,99 1,63 -27,99 -86,99 -59,0 -83,-39 -84,-99 0,-66 28,-99 85,-99 z m -1,174 c 44,1 53,-31 53,-75 0,-43 -8,-75 -51,-75 -43,0 -53,32 -53,75 0,43 10,74 51,75"
         id="S" />
      <path
         d="m 115,-194 c 55,1 70,41 70,98 C 185,-39 169,2 115,4 84,4 66,-9 55,-30 L 56,75 H 24 l -1,-265 h 31 l 2,30 c 10,-21 28,-34 59,-34 z m -8,174 c 40,0 45,-34 45,-75 0,-41 -6,-73 -45,-74 -42,0 -51,32 -51,76 0,43 10,73 51,73"
         id="T" />
      <path
         d="m 100,-194 c 63,0 86,42 84,106 H 49 c 0,40 14,67 53,68 26,1 43,-12 49,-29 l 28,8 C 168,-13 142,4 102,4 44,4 14,-33 15,-96 c 1,-61 26,-98 85,-98 z m 52,81 c 6,-60 -76,-77 -97,-28 -3,7 -6,17 -6,28 h 103"
         id="U" />
      <path
         d="M 114,-163 C 36,-179 61,-72 57,0 H 25 l -1,-190 h 30 c 1,12 -1,29 2,39 6,-27 23,-49 58,-41 v 29"
         id="V" />
      <path
         d="m 59,-47 c -2,24 18,29 38,22 V -1 C 64,9 27,4 27,-40 V -167 H 5 v -23 h 24 l 9,-43 h 21 v 43 h 35 v 23 H 59 v 120"
         id="W" />
      <g
         id="j">
        <use
           transform="scale(0.05)"
           xlink:href="#O"
           id="use426"
           x="0"
           y="0"
           width="100%"
           height="100%" />
        <use
           transform="matrix(0.05,0,0,0.05,9,0)"
           xlink:href="#P"
           id="use428"
           x="0"
           y="0"
           width="100%"
           height="100%" />
        <use
           transform="matrix(0.05,0,0,0.05,19,0)"
           xlink:href="#Q"
           id="use430"
           x="0"
           y="0"
           width="100%"
           height="100%" />
        <use
           transform="matrix(0.05,0,0,0.05,28,0)"
           xlink:href="#Q"
           id="use432"
           x="0"
           y="0"
           width="100%"
           height="100%" />
        <use
           transform="matrix(0.05,0,0,0.05,37,0)"
           xlink:href="#R"
           id="use434"
           x="0"
           y="0"
           width="100%"
           height="100%" />
        <use
           transform="matrix(0.05,0,0,0.05,42.95,0)"
           xlink:href="#S"
           id="use436"
           x="0"
           y="0"
           width="100%"
           height="100%" />
        <use
           transform="matrix(0.05,0,0,0.05,52.95,0)"
           xlink:href="#T"
           id="use438"
           x="0"
           y="0"
           width="100%"
           height="100%" />
        <use
           transform="matrix(0.05,0,0,0.05,62.95,0)"
           xlink:href="#U"
           id="use440"
           x="0"
           y="0"
           width="100%"
           height="100%" />
        <use
           transform="matrix(0.05,0,0,0.05,72.95,0)"
           xlink:href="#V"
           id="use442"
           x="0"
           y="0"
           width="100%"
           height="100%" />
        <use
           transform="matrix(0.05,0,0,0.05,78.9,0)"
           xlink:href="#P"
           id="use444"
           x="0"
           y="0"
           width="100%"
           height="100%" />
        <use
           transform="matrix(0.05,0,0,0.05,88.9,0)"
           xlink:href="#W"
           id="use446"
           x="0"
           y="0"
           width="100%"
           height="100%" />
        <use
           transform="matrix(0.05,0,0,0.05,93.9,0)"
           xlink:href="#S"
           id="use448"
           x="0"
           y="0"
           width="100%"
           height="100%" />
        <use
           transform="matrix(0.05,0,0,0.05,103.9,0)"
           xlink:href="#V"
           id="use450"
           x="0"
           y="0"
           width="100%"
           height="100%" />
      </g>
      <path
         d="m 1161,-1018 c 0,201 -122,330 -278,388 l 342,618 V 0 H 1019 L 703,-589 H 361 V 0 H 168 v -1456 h 482 c 310,-2 511,139 511,438 z m -193,0 c 0,-187 -120,-280 -313,-280 H 361 v 552 h 295 c 179,3 313,-101 312,-272"
         id="X" />
      <g
         id="k">
        <use
           transform="scale(0.00878906)"
           xlink:href="#X"
           id="use454"
           x="0"
           y="0"
           width="100%"
           height="100%" />
        <use
           transform="matrix(0.00878906,0,0,0.00878906,11.083008,0)"
           xlink:href="#A"
           id="use456"
           x="0"
           y="0"
           width="100%"
           height="100%" />
        <use
           transform="matrix(0.00878906,0,0,0.00878906,20.874023,0)"
           xlink:href="#N"
           id="use458"
           x="0"
           y="0"
           width="100%"
           height="100%" />
        <use
           transform="matrix(0.00878906,0,0,0.00878906,30.295898,0)"
           xlink:href="#I"
           id="use460"
           x="0"
           y="0"
           width="100%"
           height="100%" />
      </g>
      <path
         d="m 569,-1476 c 255,0 440,146 439,390 0,143 -91,314 -274,512 l -390,423 h 731 V 0 H 121 v -133 l 504,-560 c 75,-85 125,-155 155,-207 105,-184 6,-424 -211,-424 -183,0 -293,113 -291,297 H 93 c -3,-270 199,-449 476,-449"
         id="Y" />
      <use
         transform="scale(0.00878906)"
         xlink:href="#Y"
         id="l"
         x="0"
         y="0"
         width="100%"
         height="100%" />
      <path
         d="m 185,-189 c -5,-48 -123,-54 -124,2 14,75 158,14 163,119 C 227,10 103,19 49,-13 32,-23 21,-39 16,-59 l 33,-7 c 5,56 141,63 141,-1 0,-78 -155,-14 -162,-118 -5,-82 145,-84 179,-34 5,7 8,16 11,25"
         id="Z" />
      <path
         d="m 101,-234 c -31,-9 -42,10 -38,44 h 38 v 23 H 63 V 0 H 32 V -167 H 5 v -23 h 27 c -7,-52 17,-82 69,-68 v 24"
         id="aa" />
      <path
         d="M 84,4 C -5,8 30,-112 23,-190 h 32 v 120 c 0,31 7,50 39,49 72,-2 45,-101 50,-169 h 31 l 1,190 h -30 c -1,-10 1,-25 -2,-33 -11,22 -28,36 -60,37"
         id="ab" />
      <path
         d="M 24,0 V -261 H 56 V 0 H 24"
         id="ac" />
      <g
         id="m">
        <use
           transform="scale(0.05)"
           xlink:href="#Z"
           id="use469"
           x="0"
           y="0"
           width="100%"
           height="100%" />
        <use
           transform="matrix(0.05,0,0,0.05,12,0)"
           xlink:href="#W"
           id="use471"
           x="0"
           y="0"
           width="100%"
           height="100%" />
        <use
           transform="matrix(0.05,0,0,0.05,17,0)"
           xlink:href="#P"
           id="use473"
           x="0"
           y="0"
           width="100%"
           height="100%" />
        <use
           transform="matrix(0.05,0,0,0.05,27,0)"
           xlink:href="#W"
           id="use475"
           x="0"
           y="0"
           width="100%"
           height="100%" />
        <use
           transform="matrix(0.05,0,0,0.05,32,0)"
           xlink:href="#U"
           id="use477"
           x="0"
           y="0"
           width="100%"
           height="100%" />
        <use
           transform="matrix(0.05,0,0,0.05,42,0)"
           xlink:href="#aa"
           id="use479"
           x="0"
           y="0"
           width="100%"
           height="100%" />
        <use
           transform="matrix(0.05,0,0,0.05,47,0)"
           xlink:href="#ab"
           id="use481"
           x="0"
           y="0"
           width="100%"
           height="100%" />
        <use
           transform="matrix(0.05,0,0,0.05,57,0)"
           xlink:href="#ac"
           id="use483"
           x="0"
           y="0"
           width="100%"
           height="100%" />
        <use
           transform="matrix(0.05,0,0,0.05,60.95,0)"
           xlink:href="#Z"
           id="use485"
           x="0"
           y="0"
           width="100%"
           height="100%" />
        <use
           transform="matrix(0.05,0,0,0.05,72.95,0)"
           xlink:href="#U"
           id="use487"
           x="0"
           y="0"
           width="100%"
           height="100%" />
        <use
           transform="matrix(0.05,0,0,0.05,82.95,0)"
           xlink:href="#W"
           id="use489"
           x="0"
           y="0"
           width="100%"
           height="100%" />
      </g>
      <path
         d="M 729,0 H 543 v -1233 l -373,137 v -168 l 530,-199 h 29 V 0"
         id="ad" />
      <use
         transform="scale(0.00878906)"
         xlink:href="#ad"
         id="n"
         x="0"
         y="0"
         width="100%"
         height="100%" />
      <path
         d="M 832,-402 C 831,-581 713,-666 529,-667 H 390 v -151 h 139 c 164,0 281,-91 281,-250 0,-171 -85,-256 -255,-256 -154,0 -265,99 -263,250 H 107 c -4,-235 205,-402 448,-402 266,0 444,150 440,412 -2,148 -109,272 -229,317 147,45 249,158 251,341 C 1020,-144 820,20 556,20 299,20 91,-135 94,-384 h 186 c -2,156 116,253 276,253 176,0 277,-96 276,-271"
         id="ae" />
      <use
         transform="scale(0.00878906)"
         xlink:href="#ae"
         id="o"
         x="0"
         y="0"
         width="100%"
         height="100%" />
      <path
         d="m 85,-194 c 31,0 48,13 60,33 l -1,-100 h 32 l 1,261 h -30 c -2,-10 0,-23 -3,-31 C 134,-8 116,4 85,4 32,4 16,-35 15,-94 c 0,-66 23,-100 70,-100 z m 9,24 c -40,0 -46,34 -46,75 0,40 6,74 45,74 42,0 51,-32 51,-76 0,-42 -9,-74 -50,-73"
         id="af" />
      <g
         id="p">
        <use
           transform="scale(0.05)"
           xlink:href="#Z"
           id="use497"
           x="0"
           y="0"
           width="100%"
           height="100%" />
        <use
           transform="matrix(0.05,0,0,0.05,12,0)"
           xlink:href="#U"
           id="use499"
           x="0"
           y="0"
           width="100%"
           height="100%" />
        <use
           transform="matrix(0.05,0,0,0.05,22,0)"
           xlink:href="#U"
           id="use501"
           x="0"
           y="0"
           width="100%"
           height="100%" />
        <use
           transform="matrix(0.05,0,0,0.05,32,0)"
           xlink:href="#af"
           id="use503"
           x="0"
           y="0"
           width="100%"
           height="100%" />
        <use
           transform="matrix(0.05,0,0,0.05,42,0)"
           xlink:href="#Q"
           id="use505"
           x="0"
           y="0"
           width="100%"
           height="100%" />
      </g>
      <path
         d="m 30,-248 c 118,-7 216,8 213,122 C 240,-48 200,0 122,0 H 30 Z m 33,221 c 89,8 146,-16 146,-99 0,-83 -60,-101 -146,-95 v 194"
         id="ag" />
      <path
         d="m 212,-179 c -10,-28 -35,-45 -73,-45 -59,0 -87,40 -87,99 0,60 29,101 89,101 43,0 62,-24 78,-52 l 27,14 C 228,-24 195,4 139,4 59,4 22,-46 18,-125 c -6,-104 99,-153 187,-111 19,9 31,26 39,46"
         id="ah" />
      <g
         id="q">
        <use
           transform="scale(0.05)"
           xlink:href="#ag"
           id="use510"
           x="0"
           y="0"
           width="100%"
           height="100%" />
        <use
           transform="matrix(0.05,0,0,0.05,12.95,0)"
           xlink:href="#ah"
           id="use512"
           x="0"
           y="0"
           width="100%"
           height="100%" />
      </g>
      <path
         d="M 190,0 58,-211 59,0 H 30 v -248 h 39 l 133,213 -2,-213 h 31 V 0 h -41"
         id="ai" />
      <g
         id="r">
        <use
           transform="scale(0.05)"
           xlink:href="#ai"
           id="use516"
           x="0"
           y="0"
           width="100%"
           height="100%" />
        <use
           transform="matrix(0.05,0,0,0.05,12.95,0)"
           xlink:href="#S"
           id="use518"
           x="0"
           y="0"
           width="100%"
           height="100%" />
        <use
           transform="matrix(0.05,0,0,0.05,22.95,0)"
           xlink:href="#af"
           id="use520"
           x="0"
           y="0"
           width="100%"
           height="100%" />
        <use
           transform="matrix(0.05,0,0,0.05,32.95,0)"
           xlink:href="#U"
           id="use522"
           x="0"
           y="0"
           width="100%"
           height="100%" />
        <use
           transform="matrix(0.05,0,0,0.05,42.95,0)"
           xlink:href="#Q"
           id="use524"
           x="0"
           y="0"
           width="100%"
           height="100%" />
      </g>
    </defs>
  </g>
</svg>
