<?xml version="1.0" encoding="utf-8"?>
<svg version="1.1" id="Layer_1" xmlns="http://www.w3.org/2000/svg" xmlns:xlink="http://www.w3.org/1999/xlink" x="0px" y="0px"
	 viewBox="0 0 110 77" style="enable-background:new 0 0 110 77;" xml:space="preserve">
<style type="text/css">
	.st0{fill:#02070D;}
</style>
<g id="Symbols">
	<g id="Atoms-_x2F_-Logo-_x2F_-Vertical-_x2F_-Black">
		<g id="k8ssandra-stacked-1">
			<polygon id="Path" class="st0" points="2.9,77 0,77 0,65 2.9,65 2.9,69.7 4.4,69.7 6.9,65 10,65 6.8,70.9 10,77 6.9,77 4.4,72.1 
				2.9,72.1 			"/>
			<path id="Shape" class="st0" d="M22,73.8c0,1.1-0.3,1.9-0.8,2.4c-0.5,0.5-1.3,0.8-2.4,0.8h-3.8c-1.1,0-1.9-0.3-2.4-0.8
				c-0.5-0.5-0.8-1.3-0.8-2.4v-0.2c0-0.8,0.2-1.5,0.6-2.1c0.3-0.4,0.8-0.8,1.3-0.9c-0.5-0.2-0.9-0.5-1.2-0.9
				c-0.3-0.5-0.5-1.1-0.4-1.6V68c-0.1-0.8,0.2-1.6,0.8-2.3c0.5-0.5,1.3-0.7,2.4-0.7h3.1c1.1,0,1.9,0.2,2.4,0.7
				c0.5,0.6,0.8,1.4,0.8,2.3v0.2c0,0.6-0.1,1.1-0.4,1.6c-0.3,0.4-0.7,0.7-1.2,0.9c0.9,0.2,1.5,0.9,1.8,1.8c0.1,0.4,0.2,0.8,0.2,1.2
				L22,73.8z M15.9,72.1c-0.3,0-0.5,0.1-0.7,0.3c-0.2,0.2-0.3,0.5-0.2,0.8v0.7c0,0.2,0.1,0.4,0.2,0.6c0.2,0.2,0.4,0.2,0.6,0.2h2.5
				c0.2,0,0.4-0.1,0.6-0.2s0.2-0.4,0.2-0.6v-0.7c0-0.3,0-0.6-0.2-0.8c-0.2-0.2-0.5-0.3-0.8-0.2H15.9z M16.2,67.3
				c-0.3,0-0.5,0-0.7,0.2s-0.3,0.5-0.2,0.8v0.5c0,0.3,0.1,0.6,0.2,0.8c0.2,0.2,0.5,0.3,0.7,0.2h1.5c0.3,0,0.5,0,0.7-0.2
				c0.2-0.2,0.3-0.5,0.2-0.8v-0.5c0-0.3,0-0.6-0.2-0.8c-0.2-0.2-0.5-0.3-0.7-0.2H16.2z"/>
			<path id="Path_1_" class="st0" d="M24.1,74.4c3,0.2,5,0.3,6.1,0.3c0.2,0,0.4-0.1,0.6-0.2s0.2-0.4,0.2-0.6v-1.5h-3.8
				c-1.1,0-2-0.3-2.5-0.8c-0.5-0.5-0.8-1.4-0.8-2.6v-0.5c0-1.2,0.3-2,0.8-2.6c0.5-0.5,1.4-0.8,2.5-0.8H33v2.4h-5.1
				c-0.3,0-0.6,0-0.8,0.3c-0.2,0.2-0.3,0.5-0.2,0.8v0.3c0,0.3,0,0.6,0.2,0.8c0.2,0.2,0.5,0.3,0.7,0.2h3c1.1,0,1.9,0.3,2.4,0.8
				C33.8,71,34,71.9,34,73v0.8c0,1.1-0.3,1.9-0.8,2.4C32.7,76.7,32,77,30.9,77c-0.6,0-1.1,0-1.8,0l-1.5-0.1
				c-1.1-0.1-2.3-0.1-3.4-0.2L24.1,74.4z"/>
			<path id="Path_2_" class="st0" d="M36.1,74.4c3,0.2,5,0.3,6.1,0.3c0.2,0,0.4-0.1,0.6-0.2c0.2-0.2,0.2-0.4,0.2-0.6v-1.5h-3.8
				c-1.1,0-2-0.3-2.5-0.8S36,70.1,36,68.9v-0.5c0-1.2,0.3-2,0.8-2.6c0.5-0.5,1.4-0.8,2.5-0.8H45v2.4h-5.1c-0.3,0-0.6,0-0.8,0.2
				c-0.2,0.2-0.3,0.5-0.2,0.8v0.3c0,0.3,0,0.6,0.2,0.8c0.2,0.2,0.5,0.3,0.7,0.2h3c1.1,0,1.9,0.3,2.4,0.8c0.5,0.5,0.8,1.3,0.8,2.4
				v0.8c0,1.1-0.3,1.9-0.8,2.4C44.7,76.7,44,77,42.9,77c-0.6,0-1.2,0-1.8,0l-1.5-0.1c-1.1-0.1-2.3-0.1-3.4-0.2V74.4z"/>
			<path id="Shape_1_" class="st0" d="M50.2,77H47l4.3-12h3.3L59,77h-3.2l-0.7-2.1h-4.1L50.2,77z M51.7,72.6h2.6l-1.3-4L51.7,72.6z"
				/>
			<polygon id="Path_3_" class="st0" points="71,77 67.9,77 64,69.8 64,77 61,77 61,65 64.1,65 68.1,72.2 68.1,65 71,65 			"/>
			<path id="Shape_2_" class="st0" d="M80.3,65c1.2,0,2.1,0.3,2.8,1c0.6,0.7,0.9,1.6,0.9,2.9v4.1c0,1.3-0.3,2.3-0.9,2.9
				c-0.6,0.7-1.6,1-2.8,1H74V65H80.3z M81.1,68.9c0-1-0.5-1.5-1.5-1.5h-2.7v7.2h2.7c1,0,1.5-0.5,1.5-1.5V68.9z"/>
			<path id="Shape_3_" class="st0" d="M86,65h7.3c1.2,0,2.1,0.3,2.7,0.8c0.6,0.5,0.8,1.4,0.8,2.6V70c0,0.8-0.1,1.5-0.5,2.2
				c-0.3,0.5-0.9,0.9-1.5,1L97,77h-3.4l-2-3.6h-2.4V77H86L86,65z M93.7,68.4c0-0.3,0-0.6-0.3-0.8s-0.5-0.3-0.8-0.3h-3.5V71h3.5
				c0.3,0,0.6-0.1,0.8-0.3c0.2-0.2,0.3-0.5,0.3-0.8V68.4z"/>
			<path id="Shape_4_" class="st0" d="M101.2,77H98l4.4-12h3.3l4.4,12h-3.2l-0.7-2.1h-4.1L101.2,77z M102.7,72.6h2.6l-1.3-4
				L102.7,72.6z"/>
			<path id="Shape_5_" class="st0" d="M54.5,3.9c2.3,0,4.2,1.9,4.2,4.2s-1.9,4.2-4.2,4.2s-4.2-1.9-4.2-4.2
				C50.3,5.8,52.2,3.9,54.5,3.9L54.5,3.9z M77.3,33.1c-0.2-0.2-0.6-0.2-0.9,0c-1.3,1.3-2.8,2.5-4.3,3.5c-0.1,0.1-0.3,0.1-0.5,0.1
				c-0.2,0-0.3-0.1-0.4-0.3L63.7,25h5.8c0.2,0,0.3-0.1,0.3-0.3v-1.4c0-0.2,0.1-0.3,0.3-0.3h7.6c0.2,0,0.3-0.1,0.3-0.3v-5.9
				c0-0.2-0.1-0.3-0.3-0.3H70c-0.2,0-0.3-0.1-0.3-0.3v-1.4c0-0.2-0.1-0.3-0.3-0.3h-9.5c-0.1,0-0.2-0.1-0.2-0.2c0-0.1,0-0.2,0.1-0.3
				l0.1-0.1c2.5-2.2,3.4-5.8,2.2-8.9S57.8,0,54.5,0c-3.3,0-6.3,2.1-7.5,5.2s-0.3,6.7,2.2,8.9c1.2,1.1,1.4,2.8,0.5,4.2L37.8,36.4
				c-0.1,0.1-0.2,0.2-0.4,0.3c-0.2,0-0.3,0-0.5-0.1c-1.5-1-3-2.2-4.3-3.5c-0.2-0.2-0.6-0.2-0.9,0l-4.5,4.6C27.1,37.8,27,38,27,38.2
				s0.1,0.3,0.2,0.5C33,44.3,40.4,48,48.4,49.3v4.1c0,0.4,0.3,0.6,0.6,0.6h10.9c0.2,0,0.3-0.1,0.5-0.2s0.2-0.3,0.2-0.5v-4.1
				c8-1.2,15.4-5,21.2-10.6c0.1-0.1,0.2-0.3,0.2-0.4c0-0.2-0.1-0.3-0.2-0.4L77.3,33.1z M41.2,38.8c-0.1-0.2,0-0.4,0.1-0.5l10.2-15.5
				c0.2-0.2,0.4-0.3,0.7-0.3s0.5,0.3,0.5,0.6v18.8c-3.8-0.2-7.6-1.2-11.1-2.7C41.4,39.1,41.2,39,41.2,38.8z M67.8,38.8
				c-0.1,0.2-0.2,0.3-0.4,0.4c-3.5,1.6-7.2,2.5-11.1,2.7V25.6c0-0.2,0.1-0.3,0.2-0.5c0.1-0.1,0.3-0.2,0.5-0.2h1.6
				c0.2,0,0.4,0.1,0.5,0.3l8.5,13C67.9,38.4,67.9,38.6,67.8,38.8L67.8,38.8z"/>
			<path id="Path_4_" class="st0" d="M32,9.4c0-0.3,0.2-0.4,0.5-0.4C32.8,9,33,9.2,33,9.4l0.7,6.1c0,0.2,0.1,0.3,0.3,0.4
				c0.1,0.1,0.3,0.1,0.5,0l5.1-3.2c0.2-0.2,0.5-0.1,0.7,0.1c0.2,0.2,0.1,0.5-0.1,0.7l-4.2,4.3c-0.1,0.1-0.2,0.3-0.1,0.4
				c0,0.2,0.2,0.3,0.3,0.4l5.6,2c0.2,0.1,0.4,0.3,0.3,0.6c-0.1,0.2-0.3,0.4-0.5,0.4l-5.9-0.7c-0.2,0-0.3,0-0.4,0.2
				C35,21.2,35,21.3,35,21.5l2,5.8c0.1,0.2,0,0.5-0.2,0.7c-0.2,0.1-0.5,0-0.7-0.2l-3.2-5.2c-0.1-0.1-0.2-0.2-0.4-0.2
				c-0.2,0-0.3,0.1-0.4,0.2l-3.2,5.2c-0.1,0.2-0.4,0.3-0.7,0.2s-0.3-0.4-0.2-0.7l2-5.8c0.1-0.2,0-0.3-0.1-0.5
				c-0.1-0.1-0.3-0.2-0.4-0.2l-6,0.7c-0.2,0-0.5-0.1-0.5-0.4c-0.1-0.2,0.1-0.5,0.3-0.6l5.6-2c0.2-0.1,0.3-0.2,0.3-0.4
				c0-0.2,0-0.3-0.1-0.4l-4.2-4.3c-0.2-0.2-0.2-0.5,0-0.6s0.4-0.2,0.6-0.1l5.1,3.2c0.1,0.1,0.3,0.1,0.5,0c0.1-0.1,0.2-0.2,0.3-0.4
				L32,9.4z"/>
		</g>
	</g>
</g>
</svg>
